<svg width="25" height="24" viewBox="0 0 25 24" fill="none" xmlns="http://www.w3.org/2000/svg">
<g id="icons / outline">
<path id="Vector" d="M8.5 21.5002C9.60457 21.5002 10.5 20.6048 10.5 19.5002C10.5 18.3957 9.60457 17.5002 8.5 17.5002C7.39543 17.5002 6.5 18.3957 6.5 19.5002C6.5 20.6048 7.39543 21.5002 8.5 21.5002Z" stroke="#4F555E" stroke-width="2" stroke-linecap="round" stroke-linejoin="round"/>
<path id="Vector_2" d="M16.5 21.5002C17.6046 21.5002 18.5 20.6048 18.5 19.5002C18.5 18.3957 17.6046 17.5002 16.5 17.5002C15.3954 17.5002 14.5 18.3957 14.5 19.5002C14.5 20.6048 15.3954 21.5002 16.5 21.5002Z" stroke="#4F555E" stroke-width="2" stroke-linecap="round" stroke-linejoin="round"/>
<path id="Vector_3" d="M2.5 3.50024H4.5L6.5 15.5002C6.71572 16.1137 7.12494 16.6405 7.66602 17.0012C8.2071 17.3619 8.85075 17.5371 9.5 17.5002H16.5C17.1493 17.5371 17.7929 17.3619 18.334 17.0012C18.8751 16.6405 19.2843 16.1137 19.5 15.5002L20 13.0002M5.3 8.50024H14.5" stroke="#4F555E" stroke-width="2" stroke-linecap="round" stroke-linejoin="round"/>
<circle id="Ellipse 1" cx="20.5" cy="7.50024" r="3" fill="#D74C10"/>
</g>
</svg>
