<svg width="20" height="21" viewBox="0 0 20 21" fill="none" xmlns="http://www.w3.org/2000/svg">
<g id="icons / outline">
<path id="Vector" d="M0 0.5H20V20.5H0V0.5Z" />
<path id="Vector_2" d="M7.5026 17.9998C8.42308 17.9998 9.16927 17.2536 9.16927 16.3332C9.16927 15.4127 8.42308 14.6665 7.5026 14.6665C6.58213 14.6665 5.83594 15.4127 5.83594 16.3332C5.83594 17.2536 6.58213 17.9998 7.5026 17.9998Z" stroke="#4F555E" stroke-width="2" stroke-linecap="round" stroke-linejoin="round"/>
<path id="Vector_3" d="M14.1667 17.9998C15.0871 17.9998 15.8333 17.2536 15.8333 16.3332C15.8333 15.4127 15.0871 14.6665 14.1667 14.6665C13.2462 14.6665 12.5 15.4127 12.5 16.3332C12.5 17.2536 13.2462 17.9998 14.1667 17.9998Z" stroke="#4F555E" stroke-width="2" stroke-linecap="round" stroke-linejoin="round"/>
<path id="Vector_4" d="M2.5 3H4.16667L5.83333 13C6.0131 13.5112 6.35412 13.9502 6.80502 14.2508C7.25592 14.5514 7.79229 14.6974 8.33333 14.6667H14.1667C14.7077 14.6974 15.2441 14.5514 15.695 14.2508C16.1459 13.9502 16.4869 13.5112 16.6667 13L17.5 7.16667H4.83333" stroke="#4F555E" stroke-width="2" stroke-linecap="round" stroke-linejoin="round"/>
</g>
</svg>
