<svg width="20" height="20" viewBox="0 0 20 20" fill="none" xmlns="http://www.w3.org/2000/svg">
<path d="M13.6485 5.07595V5.94639C13.5067 5.93707 13.3635 5.93234 13.2193 5.93234C13.0751 5.93234 12.9319 5.93707 12.7901 5.94639V5.07595H1.62973V6.78873H2.48821H10.005C9.58504 7.03056 9.19502 7.31832 8.84182 7.64512H2.48821V9.3579H3.3467H7.52328C7.37793 9.63221 7.25191 9.91827 7.14702 10.2143H3.3467V11.9271H6.79473C6.78539 12.0686 6.78065 12.2114 6.78065 12.3553C6.78065 12.4992 6.78539 12.6419 6.79473 12.7835H3.3467H1.62973V14.4962H2.48821H7.14702C7.25191 14.7923 7.37793 15.0783 7.52328 15.3526H2.48821V17.0654H8.84182C9.19502 17.3922 9.58504 17.68 10.005 17.9218H2.48821C2.01408 17.9218 1.62973 17.5384 1.62973 17.0654V15.3526C1.1556 15.3526 0.77124 14.9692 0.77124 14.4962V12.7835C0.77124 12.3105 1.1556 11.9271 1.62973 11.9271H2.48821V10.2143C2.01408 10.2143 1.62973 9.83088 1.62973 9.3579V7.64512C1.1556 7.64512 0.77124 7.2617 0.77124 6.78873V5.07595C0.77124 4.60298 1.1556 4.21956 1.62973 4.21956V2.50678C1.62973 2.03381 2.01408 1.65039 2.48821 1.65039H13.6485C14.1227 1.65039 14.507 2.03381 14.507 2.50678V4.21956C14.507 4.69253 14.1227 5.07595 13.6485 5.07595ZM12.7901 4.21956H13.6485V2.50678H2.48821V4.21956H12.7901ZM13.2193 18.35C9.90039 18.35 7.20989 15.6661 7.20989 12.3553C7.20989 9.04447 9.90039 6.36054 13.2193 6.36054C16.5382 6.36054 19.2287 9.04447 19.2287 12.3553C19.2287 15.6661 16.5382 18.35 13.2193 18.35ZM13.2193 17.4936C16.0641 17.4936 18.3702 15.1931 18.3702 12.3553C18.3702 9.51744 16.0641 7.21693 13.2193 7.21693C10.3745 7.21693 8.06838 9.51744 8.06838 12.3553C8.06838 15.1931 10.3745 17.4936 13.2193 17.4936ZM13.2193 16.6372C10.8487 16.6372 8.92687 14.7201 8.92687 12.3553C8.92687 9.99041 10.8487 8.07332 13.2193 8.07332C15.5899 8.07332 17.5117 9.99041 17.5117 12.3553C17.5117 14.7201 15.5899 16.6372 13.2193 16.6372ZM13.2193 15.7808C15.1158 15.7808 16.6532 14.2472 16.6532 12.3553C16.6532 10.4634 15.1158 8.92971 13.2193 8.92971C11.3228 8.92971 9.78535 10.4634 9.78535 12.3553C9.78535 14.2472 11.3228 15.7808 13.2193 15.7808Z" fill="#4F555E"/>
<path d="M14.1385 12.2652C13.9523 12.1658 13.7533 12.0926 13.5472 12.0477V11.3C13.6656 11.3373 13.7795 11.3874 13.887 11.4495C13.9313 11.4756 13.9818 11.4891 14.0332 11.4886C14.0766 11.4886 14.1195 11.4783 14.1582 11.4585C14.1969 11.4387 14.2304 11.41 14.2558 11.3747L14.2949 11.3204C14.3174 11.2897 14.3335 11.2548 14.342 11.2178C14.3506 11.1807 14.3515 11.1423 14.3446 11.1049C14.3378 11.0675 14.3233 11.0319 14.3022 11.0003C14.2811 10.9686 14.2537 10.9417 14.2218 10.921C14.0502 10.8149 13.8617 10.739 13.6644 10.6967C13.627 10.6882 13.5879 10.6814 13.5472 10.6746V10.2804C13.5471 10.206 13.5175 10.1348 13.4649 10.0822C13.4124 10.0297 13.3411 10.0001 13.2668 10C13.1927 10.0006 13.1219 10.0304 13.0698 10.0829C13.0176 10.1354 12.9882 10.2064 12.9881 10.2804V10.6559C12.7554 10.6815 12.5341 10.7696 12.3475 10.9108C12.1769 11.0428 12.0594 11.2315 12.0161 11.4427C11.9994 11.5128 11.9914 11.5847 11.9923 11.6568C11.9873 11.761 12.0037 11.8652 12.0406 11.9628C12.0774 12.0604 12.1338 12.1494 12.2064 12.2244L12.2098 12.2261C12.288 12.302 12.3781 12.3646 12.4766 12.4113L12.4789 12.4124L12.48 12.4147C12.6433 12.4894 12.8134 12.548 12.9881 12.5897V13.3731C12.8736 13.3466 12.7624 13.3073 12.6567 13.2559C12.5851 13.2208 12.5158 13.1811 12.4494 13.1369C12.3928 13.0984 12.3239 13.0823 12.2561 13.0917C12.1882 13.1011 12.1263 13.1354 12.0824 13.1879L12.0382 13.2406C12.0126 13.2702 11.9935 13.3048 11.9822 13.3423C11.9709 13.3797 11.9676 13.4192 11.9726 13.458C11.9776 13.4968 11.9907 13.5341 12.011 13.5675C12.0314 13.6009 12.0586 13.6296 12.0909 13.6518C12.1561 13.6945 12.2236 13.7336 12.2931 13.7691C12.5107 13.8795 12.7459 13.9514 12.9881 13.9815V14.1905C12.988 14.2271 12.9951 14.2634 13.0091 14.2973C13.023 14.3311 13.0436 14.3619 13.0695 14.3878C13.0954 14.4137 13.1261 14.4342 13.16 14.4482C13.1939 14.4622 13.2301 14.4693 13.2668 14.4692C13.3035 14.4693 13.3399 14.4622 13.3739 14.4483C13.4078 14.4344 13.4387 14.4139 13.4648 14.388C13.4908 14.3621 13.5115 14.3313 13.5256 14.2974C13.5398 14.2636 13.5471 14.2272 13.5472 14.1905V13.9849C14.1827 13.9033 14.548 13.5193 14.548 12.9721C14.5548 12.8274 14.5198 12.6838 14.4472 12.5585C14.3745 12.4331 14.2674 12.3313 14.1385 12.2652ZM12.9881 11.9015C12.7791 11.8302 12.6941 11.7401 12.6941 11.5855C12.6981 11.5056 12.7296 11.4295 12.7831 11.3701C12.8366 11.3106 12.909 11.2715 12.9881 11.2592V11.9015ZM13.8462 13.0469C13.8426 13.1286 13.8109 13.2065 13.7564 13.2675C13.7019 13.3285 13.628 13.3688 13.5472 13.3816V12.7342C13.7596 12.8073 13.8462 12.8905 13.8462 13.0469Z" fill="#4F555E"/>
</svg>
