<svg width="24" height="24" viewBox="0 0 24 24" fill="none" xmlns="http://www.w3.org/2000/svg">
<g id="&#240;&#159;&#166;&#134; icon &#34;discount check filled&#34;">
<path id="Vector" d="M11.6251 2.01099C12.378 2.01103 13.105 2.29436 13.6704 2.80799L13.8194 2.95299L14.4951 3.65099C14.6805 3.8413 14.9226 3.96144 15.1823 3.99199L15.313 3.99999H16.281C17.072 3.99994 17.8331 4.31256 18.4081 4.87373C18.9832 5.4349 19.3286 6.20209 19.3736 7.01799L19.3784 7.19999V8.19999C19.3784 8.46999 19.4675 8.73299 19.6282 8.94299L19.7153 9.04299L20.3899 9.74099C20.9491 10.3154 21.2752 11.0886 21.3017 11.9029C21.3281 12.7171 21.0529 13.5111 20.5322 14.123L20.3919 14.277L19.7162 14.975C19.532 15.1665 19.4157 15.4167 19.3862 15.685L19.3784 15.82V16.82C19.3785 17.6372 19.0759 18.4235 18.5327 19.0176C17.9895 19.6116 17.2469 19.9685 16.4571 20.015L16.281 20.02H15.313C15.052 20.0201 14.7987 20.111 14.5938 20.278L14.497 20.368L13.8214 21.065C13.2653 21.6427 12.5169 21.9796 11.7288 22.0069C10.9406 22.0342 10.1721 21.7499 9.57979 21.212L9.43073 21.067L8.75509 20.369C8.56967 20.1787 8.32754 20.0585 8.06784 20.028L7.93717 20.02H6.96921C6.17818 20.02 5.4171 19.7074 4.84206 19.1462C4.26701 18.5851 3.92158 17.8179 3.87659 17.002L3.87175 16.82V15.82C3.87166 15.5504 3.78369 15.2886 3.62201 15.077L3.5349 14.977L2.86023 14.279C2.30103 13.7045 1.97496 12.9314 1.94852 12.1171C1.92208 11.3029 2.19726 10.5089 2.71794 9.89699L2.8583 9.74299L3.53393 9.04499C3.71814 8.85343 3.83444 8.60328 3.864 8.33499L3.87175 8.19999V7.19999L3.87659 7.01799C3.91981 6.23343 4.24095 5.49274 4.77881 4.93707C5.31667 4.38141 6.03363 4.04964 6.79304 4.00499L6.96921 3.99999H7.93717C8.19815 3.9999 8.45149 3.90901 8.65636 3.74199L8.75316 3.65199L9.42879 2.95499C9.7166 2.65588 10.0588 2.41849 10.4357 2.25649C10.8126 2.09448 11.2168 2.01105 11.6251 2.01099ZM15.2036 9.29299C15.0221 9.10552 14.7759 9.0002 14.5193 9.0002C14.2626 9.0002 14.0165 9.10552 13.8349 9.29299L10.6474 12.585L9.39588 11.293L9.30489 11.21C9.11034 11.0546 8.86582 10.9815 8.62101 11.0056C8.37619 11.0297 8.14942 11.1491 7.98677 11.3397C7.82413 11.5303 7.73779 11.7777 7.74529 12.0316C7.7528 12.2856 7.85359 12.527 8.02719 12.707L9.9631 14.707L10.0541 14.79C10.2403 14.9392 10.4729 15.0132 10.7081 14.9979C10.9434 14.9826 11.1651 14.8792 11.3318 14.707L15.2036 10.707L15.284 10.613C15.4284 10.4206 15.5 10.1803 15.4852 9.93731C15.4704 9.69428 15.3703 9.46518 15.2036 9.29299Z" fill="url(#paint0_linear_12_50001)"/>
</g>
<defs>
<linearGradient id="paint0_linear_12_50001" x1="1.93591" y1="2" x2="24.4558" y2="24.7672" gradientUnits="userSpaceOnUse">
<stop stop-color="#16885F"/>
<stop offset="1" stop-color="#97B73E"/>
</linearGradient>
</defs>
</svg>
