<svg width="156" height="156" viewBox="0 0 156 156" fill="none" xmlns="http://www.w3.org/2000/svg">
<circle cx="78" cy="78" r="78" fill="#E8F3EF"/>
<path d="M111.953 74.5702L112.058 74.4885H111.853L78.4124 49.3534L44.976 74.4885H44.7674L44.8762 74.5656L44.7674 74.6473H44.9851L78.7118 98.907L111.844 74.6473H112.058L111.953 74.5702Z" fill="#E5EDCF" stroke="#263238" stroke-width="0.604828" stroke-linecap="round" stroke-linejoin="round"/>
<path d="M100.44 51.8667H55.305V107.889H100.44V51.8667Z" fill="white" stroke="#263238" stroke-width="0.604828" stroke-linecap="round" stroke-linejoin="round"/>
<path d="M44.7674 74.4888V113.496H112.058V74.4888L78.4124 93.9945L44.7674 74.4888Z" fill="#E5EDCF" stroke="#263238" stroke-width="0.604828" stroke-linecap="round" stroke-linejoin="round"/>
<path d="M44.7674 113.496L78.4124 93.9945L112.058 113.496" stroke="#263238" stroke-width="0.604828" stroke-linecap="round" stroke-linejoin="round"/>
<path d="M45.2756 63.3251L48.6505 65.888" stroke="#263238" stroke-width="0.604828" stroke-linecap="round" stroke-linejoin="round"/>
<path d="M42.4902 61.2067L43.8646 62.25" stroke="#263238" stroke-width="0.604828" stroke-linecap="round" stroke-linejoin="round"/>
<path d="M46.9265 44.7039L52.5922 50.1246" stroke="#263238" stroke-width="0.604828" stroke-linecap="round" stroke-linejoin="round"/>
<path d="M64.6814 44.781L65.3981 46.9221" stroke="#263238" stroke-width="0.604828" stroke-linecap="round" stroke-linejoin="round"/>
<path d="M63.9193 42.4902L64.3366 43.7422" stroke="#263238" stroke-width="0.604828" stroke-linecap="round" stroke-linejoin="round"/>
<path d="M112.933 61.2067L106.773 65.888" stroke="#263238" stroke-width="0.604828" stroke-linecap="round" stroke-linejoin="round"/>
<path d="M106.609 46.5137L102.835 50.1245" stroke="#263238" stroke-width="0.604828" stroke-linecap="round" stroke-linejoin="round"/>
<path d="M108.497 44.7039L107.236 45.915" stroke="#263238" stroke-width="0.604828" stroke-linecap="round" stroke-linejoin="round"/>
<path d="M91.5038 42.4902L90.025 46.922" stroke="#263238" stroke-width="0.604828" stroke-linecap="round" stroke-linejoin="round"/>
<path d="M78.449 42.4902V45.9377" stroke="#263238" stroke-width="0.604828" stroke-linecap="round" stroke-linejoin="round"/>
<path d="M75.9767 73.3465C76.2569 73.6325 76.5914 73.8597 76.9605 74.0148C77.3297 74.1699 77.726 74.2498 78.1265 74.2498C78.5269 74.2498 78.9233 74.1699 79.2924 74.0148C79.6615 73.8597 79.996 73.6325 80.2763 73.3465L83.716 69.9068C84.2861 69.3366 84.6064 68.5633 84.6064 67.757C84.6064 66.9506 84.2861 66.1773 83.716 65.6072C83.1458 65.037 82.3725 64.7167 81.5661 64.7167C80.7598 64.7167 79.9865 65.037 79.4163 65.6072L78.9864 66.0371" stroke="#096645" stroke-width="2.29313" stroke-linecap="round" stroke-linejoin="round"/>
<path d="M79.4164 69.9068C79.1361 69.6208 78.8016 69.3935 78.4325 69.2384C78.0633 69.0833 77.667 69.0034 77.2665 69.0034C76.8661 69.0034 76.4697 69.0833 76.1006 69.2384C75.7315 69.3935 75.397 69.6208 75.1167 69.9068L71.6771 73.3465C71.1069 73.9166 70.7866 74.6899 70.7866 75.4963C70.7866 76.3026 71.1069 77.0759 71.6771 77.6461C72.2472 78.2162 73.0205 78.5366 73.8269 78.5366C74.6332 78.5366 75.4065 78.2162 75.9767 77.6461L76.4066 77.2161" stroke="#096645" stroke-width="2.29313" stroke-linecap="round" stroke-linejoin="round"/>
</svg>
