<svg width="20" height="20" viewBox="0 0 20 20" fill="none" xmlns="http://www.w3.org/2000/svg">
<path d="M2.5 2.5L17.5 17.5" stroke="#737373" stroke-width="2" stroke-linecap="round" stroke-linejoin="round"/>
<path d="M8.82002 8.8225C8.50728 9.13502 8.3315 9.55896 8.33134 10.0011C8.33119 10.4432 8.50667 10.8673 8.81918 11.18C9.1317 11.4927 9.55564 11.6685 9.99776 11.6687C10.4399 11.6688 10.8639 11.4934 11.1767 11.1808" stroke="#737373" stroke-width="2" stroke-linecap="round" stroke-linejoin="round"/>
<path d="M7.80251 4.47083C8.51702 4.26643 9.25683 4.16403 10 4.16666C13.3333 4.16666 16.1108 6.11083 18.3333 10C17.685 11.1342 16.99 12.1033 16.2475 12.9067M14.4642 14.4575C13.105 15.3742 11.6183 15.8333 10 15.8333C6.66667 15.8333 3.88917 13.8892 1.66667 10C2.80751 8.00416 4.09417 6.52083 5.52667 5.54916" stroke="#737373" stroke-width="2" stroke-linecap="round" stroke-linejoin="round"/>
</svg>
