<svg width="90" height="76" viewBox="0 0 90 76" fill="none" xmlns="http://www.w3.org/2000/svg">
<g clip-path="url(#clip0_5519_5333)">
<path d="M41.4814 36.4766L15.5566 31.9062V65.6773C15.5569 66.0442 15.6295 66.4075 15.77 66.7463C15.9106 67.0851 16.1165 67.3929 16.376 67.6521C16.6355 67.9113 16.9434 68.1169 17.2822 68.257C17.6211 68.3971 17.9841 68.4691 18.3508 68.4688H63.085C63.452 68.4697 63.8156 68.3982 64.155 68.2583C64.4943 68.1185 64.8028 67.9131 65.0628 67.6538C65.3228 67.3945 65.5291 67.0865 65.6699 66.7474C65.8108 66.4082 65.8835 66.0446 65.8838 65.6773V53.2344L41.4814 36.4766Z" fill="#185C37"/>
<path d="M41.4814 7.53125H18.3508C17.9841 7.53094 17.6211 7.6029 17.2822 7.74302C16.9434 7.88313 16.6355 8.08866 16.376 8.34786C16.1165 8.60707 15.9106 8.91488 15.77 9.25371C15.6295 9.59255 15.5569 9.95578 15.5566 10.3227V22.7656L41.4814 38L55.2085 42.5703L65.8838 38V22.7656L41.4814 7.53125Z" fill="#21A366"/>
<path d="M15.5566 22.7656H41.4814V38H15.5566V22.7656Z" fill="#107C41"/>
<path opacity="0.1" d="M34.1108 19.7188H15.5566V57.8047H34.1108C34.8501 57.801 35.5582 57.506 36.0817 56.9835C36.6051 56.461 36.9017 55.7531 36.9073 55.0133V22.5102C36.9017 21.7703 36.6051 21.0625 36.0817 20.54C35.5582 20.0175 34.8501 19.7224 34.1108 19.7188Z" fill="black"/>
<path opacity="0.2" d="M32.5861 21.2422H15.5566V59.3281H32.5861C33.3254 59.3244 34.0335 59.0294 34.557 58.5069C35.0804 57.9844 35.377 57.2766 35.3826 56.5367V24.0336C35.377 23.2938 35.0804 22.5859 34.557 22.0634C34.0335 21.5409 33.3254 21.2459 32.5861 21.2422Z" fill="black"/>
<path opacity="0.2" d="M32.5861 21.2422H15.5566V56.2812H32.5861C33.3254 56.2776 34.0335 55.9825 34.557 55.46C35.0804 54.9375 35.377 54.2297 35.3826 53.4898V24.0336C35.377 23.2938 35.0804 22.5859 34.557 22.0634C34.0335 21.5409 33.3254 21.2459 32.5861 21.2422Z" fill="black"/>
<path opacity="0.2" d="M31.0614 21.2422H15.5566V56.2812H31.0614C31.8007 56.2776 32.5088 55.9825 33.0322 55.46C33.5557 54.9375 33.8523 54.2297 33.8579 53.4898V24.0336C33.8523 23.2938 33.5557 22.5859 33.0322 22.0634C32.5088 21.5409 31.8007 21.2459 31.0614 21.2422Z" fill="black"/>
<path d="M3.10116 21.2422H31.0612C31.8019 21.2416 32.5125 21.5352 33.0368 22.0587C33.5612 22.5821 33.8564 23.2924 33.8577 24.0336V51.9664C33.8564 52.7076 33.5612 53.4179 33.0368 53.9413C32.5125 54.4648 31.8019 54.7584 31.0612 54.7578H3.10116C2.73434 54.7584 2.371 54.6867 2.03189 54.5467C1.69279 54.4067 1.38457 54.2013 1.12487 53.942C0.86516 53.6828 0.659051 53.3749 0.51832 53.0359C0.377588 52.6969 0.304995 52.3335 0.304688 51.9664V24.0336C0.304995 23.6665 0.377588 23.3031 0.51832 22.9641C0.659051 22.6251 0.86516 22.3172 1.12487 22.058C1.38457 21.7987 1.69279 21.5933 2.03189 21.4533C2.371 21.3133 2.73434 21.2416 3.10116 21.2422Z" fill="url(#paint0_linear_5519_5333)"/>
<path d="M8.9707 47.0775L14.8517 37.9744L9.46489 28.9229H13.7908L16.7301 34.7189C17.0018 35.2674 17.1985 35.6752 17.2875 35.9471H17.3273C17.5194 35.5064 17.7232 35.0822 17.9363 34.6674L21.0794 28.9322H25.061L19.5359 37.9322L25.2015 47.0846H20.9646L17.5686 40.7307C17.4109 40.4575 17.2769 40.1713 17.1681 39.8752H17.1119C17.0128 40.1637 16.8808 40.4397 16.7184 40.6978L13.2216 47.0775H8.9707Z" fill="white"/>
<path d="M63.0864 7.53125H41.4805V22.7656H65.8829V10.3227C65.8826 9.95558 65.81 9.59216 65.6692 9.25317C65.5285 8.91419 65.3224 8.60627 65.0627 8.34704C64.803 8.0878 64.4948 7.88232 64.1557 7.74234C63.8166 7.60237 63.4532 7.53064 63.0864 7.53125Z" fill="#33C481"/>
<path d="M41.4805 38H65.8829V53.2344H41.4805V38Z" fill="#107C41"/>
</g>
<defs>
<linearGradient id="paint0_linear_5519_5333" x1="6.1459" y1="19.0484" x2="28.0395" y2="56.9383" gradientUnits="userSpaceOnUse">
<stop stop-color="#18884F"/>
<stop offset="0.5" stop-color="#117E43"/>
<stop offset="1" stop-color="#0B6631"/>
</linearGradient>
<clipPath id="clip0_5519_5333">
<rect width="89" height="75" fill="white" transform="translate(0.529297 0.5)"/>
</clipPath>
</defs>
</svg>
