<svg width="20" height="21" viewBox="0 0 20 21" fill="none" xmlns="http://www.w3.org/2000/svg">
<path d="M16.2501 11.81L10.0001 18L3.75009 11.81C3.33784 11.4088 3.01312 10.9267 2.79638 10.3939C2.57963 9.86105 2.47556 9.28913 2.4907 8.71412C2.50585 8.1391 2.63989 7.57345 2.88439 7.05279C3.12888 6.53212 3.47853 6.06772 3.91133 5.68882C4.34412 5.30993 4.85068 5.02475 5.3991 4.85124C5.94752 4.67773 6.52593 4.61966 7.0979 4.68067C7.66986 4.74169 8.22301 4.92047 8.72249 5.20576C9.22196 5.49105 9.65696 5.87667 10.0001 6.33834C10.3447 5.88002 10.7802 5.49777 11.2793 5.21551C11.7785 4.93325 12.3305 4.75705 12.9009 4.69794C13.4712 4.63883 14.0477 4.69809 14.5941 4.872C15.1405 5.04591 15.6451 5.33073 16.0764 5.70864C16.5077 6.08655 16.8563 6.54941 17.1004 7.06825C17.3446 7.58709 17.479 8.15074 17.4953 8.72393C17.5117 9.29712 17.4095 9.8675 17.1952 10.3994C16.9809 10.9313 16.6592 11.4132 16.2501 11.815" stroke="#4F555E" stroke-width="2" stroke-linecap="round" stroke-linejoin="round"/>
</svg>