<svg width="14" height="20" viewBox="0 0 14 20" fill="none" xmlns="http://www.w3.org/2000/svg">
<g id="Group 1000003430">
<path id="Vector" d="M0.585786 0.585786C0.210714 0.960859 0 1.46957 0 2V18C0 19.1046 0.895431 20 2 20H12C13.1046 20 14 19.1046 14 18V5.82843C14 5.29799 13.7893 4.78929 13.4142 4.41421L9.58579 0.585786C9.21071 0.210714 8.70201 0 8.17157 0H2C1.46957 0 0.960859 0.210714 0.585786 0.585786Z" fill="#D74C10"/>
<path id="Vector_2" d="M2 10.8182H3C3.26522 10.8182 3.51957 10.7224 3.70711 10.5519C3.89464 10.3814 4 10.1502 4 9.90909C4 9.66799 3.89464 9.43675 3.70711 9.26627C3.51957 9.09578 3.26522 9 3 9H2V12.6364M10 10.8182H11.3333M10 10.8182V9H12M10 10.8182V12.6364M6 9V12.6364H6.66667C7.02029 12.6364 7.35943 12.5087 7.60948 12.2813C7.85952 12.054 8 11.7457 8 11.4242V10.2121C8 9.89065 7.85952 9.58234 7.60948 9.35502C7.35943 9.12771 7.02029 9 6.66667 9H6Z" stroke="white" stroke-width="1.13636" stroke-linecap="round" stroke-linejoin="round"/>
</g>
</svg>
