<svg width="20" height="20" viewBox="0 0 20 20" fill="none" xmlns="http://www.w3.org/2000/svg">
<g opacity="0.3" clip-path="url(#clip0_124_86430)">
<path d="M11.6667 2.5V5.83333C11.6667 6.05435 11.7545 6.26631 11.9108 6.42259C12.0671 6.57887 12.2791 6.66667 12.5001 6.66667H15.8334" stroke="#676D77" stroke-width="1.5" stroke-linecap="round" stroke-linejoin="round"/>
<path d="M4.16675 6.66667V4.16667C4.16675 3.72464 4.34234 3.30072 4.6549 2.98816C4.96746 2.67559 5.39139 2.5 5.83341 2.5H11.6667L15.8334 6.66667V15.8333C15.8334 16.2754 15.6578 16.6993 15.3453 17.0118C15.0327 17.3244 14.6088 17.5 14.1667 17.5H11.6667" stroke="#676D77" stroke-width="1.5" stroke-linecap="round" stroke-linejoin="round"/>
<path d="M6.66675 11.6665L0.833415 11.6665M0.833415 11.6665L3.33341 14.1665M0.833415 11.6665L3.33342 9.1665" stroke="#676D77" stroke-width="1.5" stroke-linecap="round" stroke-linejoin="round"/>
<path d="M3.33325 16.6665H9.16659M9.16659 16.6665L6.66659 14.1665M9.16659 16.6665L6.66659 19.1665" stroke="#676D77" stroke-width="1.5" stroke-linecap="round" stroke-linejoin="round"/>
</g>
<defs>
<clipPath id="clip0_124_86430">
<rect width="20" height="20" fill="white"/>
</clipPath>
</defs>
</svg>
