<svg width="20" height="20" viewBox="0 0 20 20" fill="none" xmlns="http://www.w3.org/2000/svg">
<g id="Group 1000003086">
<path id="Vector" d="M11.6666 2.5V5.83333C11.6666 6.05435 11.7544 6.26631 11.9107 6.42259C12.067 6.57887 12.2789 6.66667 12.5 6.66667H15.8333" stroke="#676D77" stroke-width="1.5" stroke-linecap="round" stroke-linejoin="round"/>
<path id="Vector_2" d="M4.16663 6.66667V4.16667C4.16663 3.72464 4.34222 3.30072 4.65478 2.98816C4.96734 2.67559 5.39126 2.5 5.83329 2.5H11.6666L15.8333 6.66667V15.8333C15.8333 16.2754 15.6577 16.6993 15.3451 17.0118C15.0326 17.3244 14.6087 17.5 14.1666 17.5H11.6666" stroke="#676D77" stroke-width="1.5" stroke-linecap="round" stroke-linejoin="round"/>
<path id="Vector_3" d="M6.66663 11.6665L0.833293 11.6665M0.833293 11.6665L3.33329 14.1665M0.833293 11.6665L3.33329 9.1665" stroke="#676D77" stroke-width="1.5" stroke-linecap="round" stroke-linejoin="round"/>
<path id="Vector_4" d="M3.33337 16.6665H9.16671M9.16671 16.6665L6.66671 14.1665M9.16671 16.6665L6.66671 19.1665" stroke="#676D77" stroke-width="1.5" stroke-linecap="round" stroke-linejoin="round"/>
</g>
</svg>
