<svg width="244" height="244" viewBox="0 0 244 244" fill="none" xmlns="http://www.w3.org/2000/svg">
<path fill-rule="evenodd" clip-rule="evenodd" d="M112.016 59.1458C130.4 56.0236 150.133 57.6333 164.062 70.0308C181.208 85.2922 196.599 107.298 191.179 129.604C185.801 151.732 162.054 164.158 139.903 169.444C122.629 173.567 106.945 162.742 91.9062 153.294C79.69 145.62 67.6724 136.449 64.8585 122.299C62.1223 108.54 69.8529 95.8454 78.2463 84.6051C87.1202 72.7211 97.394 61.6292 112.016 59.1458Z" fill="#F2F6E7"/>
<mask id="mask0_4544_208039" style="mask-type:alpha" maskUnits="userSpaceOnUse" x="52" y="106" width="48" height="48">
<circle cx="75.7644" cy="130.11" r="23.5019" transform="rotate(-1.34636 75.7644 130.11)" fill="#405C40"/>
</mask>
<g mask="url(#mask0_4544_208039)">
<circle cx="75.7644" cy="130.532" r="23.5019" transform="rotate(-1.34636 75.7644 130.532)" fill="#B1C96E"/>
</g>
<path d="M124.738 154.671C131.769 145.205 130.817 131.763 122.078 123.397C112.609 114.332 97.5856 114.66 88.5211 124.128C79.4566 133.596 79.784 148.62 89.2524 157.685C97.9572 166.018 111.357 166.414 120.506 159.066L144.14 182.801C145.329 183.995 147.26 183.999 148.453 182.81C149.647 181.622 149.651 179.69 148.463 178.497L124.738 154.671Z" fill="#E1EDFF" fill-opacity="0.5" stroke="#1E1E1E" stroke-width="6.1" stroke-linecap="round"/>
<path fill-rule="evenodd" clip-rule="evenodd" d="M133.728 49.0389C121.183 49.0389 111.014 59.2085 111.014 71.7534C111.014 82.1742 118.031 90.956 127.598 93.6311V105.775C127.598 105.892 127.742 105.946 127.819 105.859L137.844 94.4679H159.787C172.332 94.4679 182.502 84.2982 182.502 71.7534C182.502 59.2085 172.332 49.0389 159.787 49.0389H133.728Z" fill="#F0AF30"/>
<rect x="143.801" y="57.769" width="5.86601" height="19.8493" rx="2.93301" fill="white"/>
<circle cx="146.755" cy="83.1599" r="2.89305" transform="rotate(103.735 146.755 83.1599)" fill="white"/>
</svg>
