<svg width="24" height="25" viewBox="0 0 24 25" fill="none" xmlns="http://www.w3.org/2000/svg">
<path d="M12.8015 5.90762C12.8019 5.90762 12.8022 5.90762 12.8026 5.90762C13.244 5.9082 13.6022 6.26777 13.6019 6.70898C13.6015 6.92988 13.7804 7.10918 14.0015 7.10937C14.2222 7.10937 14.4015 6.93066 14.4019 6.70977C14.4029 5.96509 13.8898 5.34221 13.1999 5.16375V4.70762C13.1999 4.48672 13.021 4.30762 12.7999 4.30762C12.5788 4.30762 12.3999 4.48672 12.3999 4.70762V5.16477C12.1279 5.23521 11.8763 5.37095 11.6722 5.57461C11.3694 5.87637 11.2022 6.27793 11.2019 6.70508C11.2011 7.13262 11.3667 7.53457 11.6687 7.8373C11.9702 8.14004 12.3718 8.30703 12.7991 8.30762C13.0132 8.30801 13.214 8.39141 13.3647 8.54277C13.5155 8.69395 13.5983 8.89512 13.5979 9.10898C13.5976 9.32246 13.5144 9.52324 13.3628 9.67402C13.212 9.8248 13.0112 9.90762 12.7983 9.90762C12.7979 9.90762 12.7976 9.90762 12.7972 9.90762C12.3558 9.90703 11.9976 9.54746 11.9979 9.10625C11.9983 8.88535 11.8194 8.70605 11.5983 8.70586C11.3776 8.70586 11.1983 8.88457 11.1979 9.10547C11.1969 9.85015 11.71 10.473 12.3999 10.6515V11.1076C12.3999 11.3285 12.5788 11.5076 12.7999 11.5076C13.021 11.5076 13.1999 11.3285 13.1999 11.1076V10.6505C13.4719 10.58 13.7234 10.4443 13.9276 10.2406C14.2304 9.93887 14.3976 9.5373 14.3979 9.11016C14.3987 8.68262 14.2331 8.28066 13.9312 7.97793C13.6296 7.6752 13.228 7.5082 12.8007 7.50762C12.5866 7.50723 12.3858 7.42383 12.2351 7.27246C12.0843 7.12129 12.0015 6.92012 12.0019 6.70625C12.0022 6.49277 12.0854 6.29199 12.237 6.14121C12.3878 5.99043 12.5886 5.90762 12.8015 5.90762ZM2.7999 21.1076H5.9999C6.221 21.1076 6.3999 20.9285 6.3999 20.7076V20.4395L10.6104 21.6418C11.1729 21.8271 11.7499 21.9191 12.3253 21.9191C13.2198 21.9191 14.1097 21.6971 14.9312 21.2584L21.3755 17.8175C21.3798 17.8154 21.3843 17.8148 21.3886 17.8125C21.5349 17.7343 21.6127 17.5782 21.5982 17.4227C21.5937 17.3706 21.5789 17.3185 21.5526 17.2693C21.552 17.268 21.5507 17.2674 21.55 17.2661L21.3112 16.8195C20.7952 15.8549 19.778 15.3584 18.7729 15.5855L14.7865 16.5749C14.7195 15.9762 14.2162 15.5076 13.5999 15.5076H12.1375L11.7519 15.2064C10.8792 14.5248 9.89795 14.0965 8.91475 13.968C8.6624 13.9352 8.40615 13.9184 8.15303 13.9184H6.3999V13.5076C6.3999 13.2867 6.221 13.1076 5.9999 13.1076H2.7999C2.57881 13.1076 2.3999 13.2867 2.3999 13.5076V20.7076C2.3999 20.9285 2.57881 21.1076 2.7999 21.1076ZM8.15303 14.7184C8.37139 14.7184 8.59287 14.7328 8.81084 14.7613C9.65264 14.8713 10.4995 15.2432 11.2597 15.8369L11.7538 16.2229C11.7713 16.2365 11.7915 16.2431 11.8104 16.2534C11.8263 16.2622 11.8404 16.2723 11.8575 16.2789C11.9036 16.2966 11.9513 16.3076 11.9995 16.3076H13.5999C13.8206 16.3076 13.9999 16.4871 13.9999 16.7076C13.9999 16.9281 13.8206 17.1076 13.5999 17.1076H9.9999C9.77881 17.1076 9.5999 17.2867 9.5999 17.5076C9.5999 17.7285 9.77881 17.9076 9.9999 17.9076H13.5999C13.9731 17.9076 14.3029 17.7328 14.5232 17.4647L18.9577 16.3641C19.5979 16.2187 20.2616 16.5537 20.6058 17.1969L20.6576 17.2939L14.5546 20.5525C13.3983 21.1699 12.0862 21.2857 10.8456 20.8773L6.3999 19.6077V14.7184H8.15303ZM3.1999 13.9076H5.5999V19.9121C5.60015 19.9305 5.59714 19.9488 5.5999 19.9668V20.3076H3.1999V13.9076Z" fill="#4F555E"/>
<path d="M12.8001 2.71387C9.93291 2.71387 7.6001 5.04648 7.6001 7.91387C7.6001 10.7813 9.93291 13.1139 12.8001 13.1139C15.6673 13.1139 18.0001 10.7813 18.0001 7.91387C18.0001 5.04648 15.6673 2.71387 12.8001 2.71387ZM12.8001 12.3139C10.3739 12.3139 8.4001 10.34 8.4001 7.91387C8.4001 5.4877 10.3739 3.51387 12.8001 3.51387C15.2263 3.51387 17.2001 5.4877 17.2001 7.91387C17.2001 10.34 15.2263 12.3139 12.8001 12.3139ZM4.8001 15.1076H4.0001C3.779 15.1076 3.6001 15.2867 3.6001 15.5076C3.6001 15.7285 3.779 15.9076 4.0001 15.9076H4.8001C5.02119 15.9076 5.2001 15.7285 5.2001 15.5076C5.2001 15.2867 5.02119 15.1076 4.8001 15.1076Z" fill="#4F555E"/>
</svg>
