<svg width="14" height="14" viewBox="0 0 14 14" fill="none" xmlns="http://www.w3.org/2000/svg">
<path d="M5.25004 12.2503C5.89437 12.2503 6.41671 11.728 6.41671 11.0837C6.41671 10.4393 5.89437 9.91699 5.25004 9.91699C4.60571 9.91699 4.08337 10.4393 4.08337 11.0837C4.08337 11.728 4.60571 12.2503 5.25004 12.2503Z" stroke="#16885F" stroke-width="1.5" stroke-linecap="round" stroke-linejoin="round"/>
<path d="M9.91667 12.2503C10.561 12.2503 11.0833 11.728 11.0833 11.0837C11.0833 10.4393 10.561 9.91699 9.91667 9.91699C9.27233 9.91699 8.75 10.4393 8.75 11.0837C8.75 11.728 9.27233 12.2503 9.91667 12.2503Z" stroke="#16885F" stroke-width="1.5" stroke-linecap="round" stroke-linejoin="round"/>
<path d="M1.75 1.75H2.91667L4.08333 8.75C4.20917 9.10786 4.44788 9.41514 4.76351 9.62556C5.07914 9.83598 5.4546 9.93815 5.83333 9.91667H9.91667C10.2954 9.93815 10.6709 9.83598 10.9865 9.62556C11.3021 9.41514 11.5408 9.10786 11.6667 8.75L12.25 4.66667H3.38333" stroke="#16885F" stroke-width="1.5" stroke-linecap="round" stroke-linejoin="round"/>
</svg>
