<svg width="606" height="82" viewBox="0 0 606 82" fill="none" xmlns="http://www.w3.org/2000/svg">
<g clip-path="url(#clip0_1_244)">
<path d="M97.53 12.6901H108.21L114.83 39.7601C116.48 46.6001 117.76 58.0301 117.76 58.0301H117.91C117.91 58.0301 119.71 46.1501 121.29 39.4601L128.13 12.6901H138.36L145.13 39.3801C146.71 46.1501 148.36 58.0201 148.36 58.0201H148.51C148.51 58.0201 150.01 46.5201 151.74 39.6801L158.36 12.6901H169.04L153.55 68.6301H143.4L136.26 39.3801C134.76 33.4401 133.33 22.6101 133.33 22.6101H133.18C133.18 22.6101 131.68 33.4401 130.32 39.3801L122.8 68.6301H112.43L97.54 12.6901H97.53Z" fill="black"/>
<path d="M173.19 12.6901H182.96V21.9401H173.19V12.6901ZM173.34 28.4801H182.89V68.6301H173.34V28.4801Z" fill="black"/>
<path d="M188.68 61.41L204.69 41.79C206.72 39.46 210.48 35.93 210.48 35.93V35.7C210.48 35.7 205.44 36.15 202.36 36.15H190.18V28.48H221.68V35.02L205.74 54.57C203.49 57.13 199.35 60.96 199.35 60.96V61.19C199.35 61.19 204.76 60.82 208.07 60.82H222.65V68.64H188.67V61.42L188.68 61.41Z" fill="black"/>
<path d="M226.73 40.81C226.73 24.19 237.11 11.64 253.72 11.64C260.11 11.64 265.37 13.29 269.21 16.23C273.72 19.76 276.43 24.8 277.11 30.67H266.73C265.75 24.65 261.02 20.45 253.65 20.45C242.97 20.45 237.34 29.17 237.34 40.82C237.34 52.47 243.73 61.05 253.73 61.05C262.07 61.05 266.66 55.49 267.26 48.72H277.71C277.48 54.28 274.85 59.92 270.94 63.68C266.88 67.74 261.16 69.84 253.65 69.84C237.48 69.84 226.73 57.59 226.73 40.82V40.81Z" fill="black"/>
<path d="M281.49 48.6301C281.49 36.6701 289.53 27.4301 302.02 27.4301C314.51 27.4301 322.39 36.6801 322.39 48.6301C322.39 60.5801 314.49 69.8301 302.02 69.8301C289.55 69.8301 281.49 60.5101 281.49 48.6301ZM312.69 48.6301C312.69 40.5101 308.93 34.4901 301.94 34.4901C294.95 34.4901 291.19 40.5101 291.19 48.6301C291.19 56.7501 294.87 62.6201 301.94 62.6201C309.01 62.6201 312.69 56.6801 312.69 48.6301Z" fill="black"/>
<path d="M327.58 28.4801H336.83V34.5701H337.06C339.61 30.0601 343.6 27.4301 349.09 27.4301C354.13 27.4301 357.96 29.9801 359.77 34.9501H359.92C363.08 29.7601 367.59 27.4301 372.55 27.4301C380.74 27.4301 385.56 32.7701 385.56 41.4101V68.6301H376.01V42.6901C376.01 38.1001 373.38 35.3201 369.47 35.3201C364.81 35.3201 361.35 39.2301 361.35 44.8701V68.6301H351.8V42.6901C351.8 38.1001 349.47 35.3201 345.48 35.3201C341.05 35.3201 337.14 39.2301 337.14 44.8701V68.6301H327.59V28.4801H327.58Z" fill="black"/>
<path d="M392.49 28.4801H401.74V34.5701H401.97C404.52 30.0601 408.51 27.4301 414 27.4301C419.04 27.4301 422.87 29.9801 424.68 34.9501H424.83C427.99 29.7601 432.5 27.4301 437.46 27.4301C445.65 27.4301 450.47 32.7701 450.47 41.4101V68.6301H440.92V42.6901C440.92 38.1001 438.29 35.3201 434.38 35.3201C429.72 35.3201 426.26 39.2301 426.26 44.8701V68.6301H416.71V42.6901C416.71 38.1001 414.38 35.3201 410.39 35.3201C405.96 35.3201 402.05 39.2301 402.05 44.8701V68.6301H392.5V28.4801H392.49Z" fill="black"/>
<path d="M455.36 48.6301C455.36 36.6701 463.4 27.4301 475.28 27.4301C481.14 27.4301 485.73 29.4601 489.11 33.0701C493.02 37.2001 494.9 43.5201 494.82 50.9601H464.82C465.5 57.8801 469.18 62.5401 475.87 62.5401C480.46 62.5401 483.47 60.5901 484.74 57.2801H494.06C492.1 64.5001 485.64 69.8301 475.79 69.8301C463.01 69.8301 455.34 60.5101 455.34 48.6301H455.36ZM464.98 44.9401H484.98C484.6 38.3301 481.07 34.3401 475.28 34.3401C469.04 34.3401 465.81 38.6301 464.98 44.9401Z" fill="black"/>
<path d="M509.28 35.7H509.51C512.06 30.51 515.9 27.88 521.01 27.88C522.14 27.88 522.89 27.95 523.56 28.25V36.82H523.26C522.36 36.59 521.61 36.52 520.63 36.52C514.32 36.45 509.58 40.73 509.58 48.48V68.63H500.03V28.48H509.28V35.7Z" fill="black"/>
<path d="M525.15 48.6301C525.15 36.6701 533.04 27.4301 545.37 27.4301C555.6 27.4301 562.06 33.2201 563.49 41.8701H554.17C553.27 37.5101 550.26 34.7301 545.45 34.7301C538.46 34.7301 534.85 40.5201 534.85 48.6401C534.85 56.7601 538.46 62.4001 545.45 62.4001C550.71 62.4001 553.87 59.3201 554.4 54.0501H563.72C563.12 63.3701 556.28 69.84 545.53 69.84C533.13 69.84 525.16 60.5201 525.16 48.6401L525.15 48.6301Z" fill="black"/>
<path d="M566.44 48.6301C566.44 36.6701 574.48 27.4301 586.36 27.4301C592.22 27.4301 596.81 29.4601 600.19 33.0701C604.1 37.2001 605.98 43.5201 605.9 50.9601H575.9C576.58 57.8801 580.26 62.5401 586.95 62.5401C591.54 62.5401 594.54 60.5901 595.82 57.2801H605.14C603.18 64.5001 596.72 69.8301 586.87 69.8301C574.09 69.8301 566.42 60.5101 566.42 48.6301H566.44ZM576.06 44.9401H596.06C595.68 38.3301 592.15 34.3401 586.36 34.3401C580.12 34.3401 576.89 38.6301 576.06 44.9401Z" fill="black"/>
<path d="M9.86006 22.21L32.3801 9.20996L29.7501 7.68996C27.3401 6.29996 24.3601 6.29996 21.9301 7.65996L3.31006 18.41L9.86006 22.21Z" fill="#FE7630"/>
<path d="M38.3 71.98L60.8101 58.97V62.01C60.8101 64.79 59.32 67.38 56.93 68.79L38.3101 79.55V71.98H38.3Z" fill="#FE7630"/>
<path d="M35.21 0L27.99 4.17C29.17 4.37 30.32 4.76 31.38 5.38L60.57 22.23L36.68 36.02C33.74 37.72 30.11 37.72 27.16 36.02L0.02 20.32L0 60.99L35.21 81.32V49.94C35.21 46.54 37.02 43.4 39.97 41.7L63.86 27.9V61.88C63.86 62.99 63.65 64.06 63.31 65.09L70.42 60.98V20.33L35.21 0Z" fill="black"/>
</g>
<defs>
<clipPath id="clip0_1_244">
<rect width="605.91" height="81.32" fill="white"/>
</clipPath>
</defs>
</svg>
