<svg width="32" height="32" viewBox="0 0 32 32" fill="none" xmlns="http://www.w3.org/2000/svg">
<path d="M4 28V25.3333C4 23.9188 4.5619 22.5623 5.5621 21.5621C6.56229 20.5619 7.91885 20 9.33333 20H14.6667C16.0812 20 17.4377 20.5619 18.4379 21.5621C19.4381 22.5623 20 23.9188 20 25.3333V28M21.3333 4.17333C22.4806 4.46706 23.4974 5.13426 24.2235 6.06974C24.9497 7.00522 25.3438 8.15577 25.3438 9.33999C25.3438 10.5242 24.9497 11.6748 24.2235 12.6102C23.4974 13.5457 22.4806 14.2129 21.3333 14.5067M28 28V25.3333C27.9932 24.1562 27.5972 23.0144 26.8737 22.0859C26.1502 21.1573 25.1398 20.4943 24 20.2M17.3333 9.33333C17.3333 12.2789 14.9455 14.6667 12 14.6667C9.05448 14.6667 6.66667 12.2789 6.66667 9.33333C6.66667 6.38781 9.05448 4 12 4C14.9455 4 17.3333 6.38781 17.3333 9.33333Z" stroke="#737373" stroke-width="1.75" stroke-linecap="round" stroke-linejoin="round"/>
</svg>
