<svg width="32" height="32" viewBox="0 0 32 32" fill="none" xmlns="http://www.w3.org/2000/svg">
<path fill-rule="evenodd" clip-rule="evenodd" d="M5.79167 9.33333C5.79167 5.90457 8.57123 3.125 12 3.125C15.4288 3.125 18.2083 5.90457 18.2083 9.33333C18.2083 12.7621 15.4288 15.5417 12 15.5417C8.57123 15.5417 5.79167 12.7621 5.79167 9.33333ZM20.4857 3.95629C20.6055 3.48815 21.0822 3.20581 21.5504 3.32567C22.8858 3.6676 24.0695 4.44426 24.9147 5.53322C25.76 6.62217 26.2188 7.96148 26.2188 9.33999C26.2188 10.7185 25.76 12.0578 24.9147 13.1468C24.0695 14.2357 22.8858 15.0124 21.5504 15.3543C21.0822 15.4742 20.6055 15.1918 20.4857 14.7237C20.3658 14.2555 20.6481 13.7789 21.1163 13.659C22.0753 13.4135 22.9253 12.8557 23.5323 12.0737C24.1393 11.2917 24.4688 10.3299 24.4688 9.33999C24.4688 8.35005 24.1393 7.38827 23.5323 6.60627C22.9253 5.82426 22.0753 5.26653 21.1163 5.02098C20.6481 4.90112 20.3658 4.42444 20.4857 3.95629ZM3.125 28C3.125 28.4832 3.51675 28.875 4 28.875L4 28.8817H20V28.875C20.4832 28.875 20.875 28.4832 20.875 28V25.3333C20.875 23.6868 20.2209 22.1077 19.0566 20.9434C17.8923 19.7791 16.3132 19.125 14.6667 19.125H9.33333C7.68678 19.125 6.10767 19.7791 4.94338 20.9434C3.77909 22.1077 3.125 23.6868 3.125 25.3333V28ZM23.1528 19.9813C23.2736 19.5134 23.7508 19.232 24.2187 19.3528C25.5455 19.6953 26.7217 20.4672 27.5639 21.548C28.4061 22.6289 28.8671 23.9581 28.875 25.3283L28.875 25.3333L28.875 28C28.875 28.4832 28.4833 28.875 28 28.875C27.5168 28.875 27.125 28.4832 27.125 28V25.3358C27.1188 24.3527 26.7878 23.3992 26.1835 22.6237C25.5787 21.8475 24.734 21.2932 23.7813 21.0472C23.3134 20.9264 23.032 20.4492 23.1528 19.9813Z" fill="#16885F"/>
</svg>
