<svg width="32" height="32" viewBox="0 0 32 32" fill="none" xmlns="http://www.w3.org/2000/svg">
<path d="M12 28V20C12 19.2927 12.281 18.6145 12.7811 18.1144C13.2811 17.6143 13.9594 17.3333 14.6667 17.3333H17.3333C18.0406 17.3333 18.7189 17.6143 19.219 18.1144C19.7191 18.6145 20 19.2927 20 20V28M6.66667 16H4L16 4L28 16H25.3333V25.3333C25.3333 26.0406 25.0524 26.7188 24.5523 27.2189C24.0522 27.719 23.3739 28 22.6667 28H9.33333C8.62609 28 7.94781 27.719 7.44772 27.2189C6.94762 26.7188 6.66667 26.0406 6.66667 25.3333L6.66667 16Z" stroke="#737373" stroke-width="1.75" stroke-linecap="round" stroke-linejoin="round"/>
</svg>
