<svg width="32" height="32" viewBox="0 0 32 32" fill="none" xmlns="http://www.w3.org/2000/svg">
<path fill-rule="evenodd" clip-rule="evenodd" d="M16.429 3.23737C16.1626 3.08754 15.8374 3.08754 15.571 3.23737L4.90433 9.23737C4.62882 9.39235 4.45831 9.68389 4.45831 10V22C4.45831 22.3161 4.62882 22.6077 4.90433 22.7626L15.571 28.7626C15.8374 28.9125 16.1626 28.9125 16.429 28.7626L27.0956 22.7626C27.3711 22.6077 27.5416 22.3161 27.5416 22V10C27.5416 9.68389 27.3711 9.39235 27.0956 9.23737L16.429 3.23737ZM24.8819 10L16 14.9961L12.5975 13.0822L21.1542 7.90315L24.8819 10ZM19.4024 6.91781L10.8458 12.0968L7.11808 10L16 5.00393L19.4024 6.91781Z" fill="#16885F"/>
</svg>
