<svg width="32" height="32" viewBox="0 0 32 32" fill="none" xmlns="http://www.w3.org/2000/svg">
<path d="M23.8125 8.5H8.1875C8.1875 10.9844 6.08789 13 3.5 13V19C6.08789 19 8.1875 21.0156 8.1875 23.5H23.8125C23.8125 21.0156 25.9121 19 28.5 19V13C25.9121 13 23.8125 10.9844 23.8125 8.5ZM1.9375 10C1.9375 8.34531 3.33887 7 5.0625 7H26.9375C28.6611 7 30.0625 8.34531 30.0625 10V22C30.0625 23.6547 28.6611 25 26.9375 25H5.0625C3.33887 25 1.9375 23.6547 1.9375 22V10ZM11.3125 16C11.3125 14.8065 11.8064 13.6619 12.6854 12.818C13.5645 11.9741 14.7568 11.5 16 11.5C17.2432 11.5 18.4355 11.9741 19.3146 12.818C20.1936 13.6619 20.6875 14.8065 20.6875 16C20.6875 17.1935 20.1936 18.3381 19.3146 19.182C18.4355 20.0259 17.2432 20.5 16 20.5C14.7568 20.5 13.5645 20.0259 12.6854 19.182C11.8064 18.3381 11.3125 17.1935 11.3125 16Z" fill="#16885F"/>
</svg>
