<svg width="32" height="32" viewBox="0 0 32 32" fill="none" xmlns="http://www.w3.org/2000/svg">
<path d="M25.375 8.5C25.375 10.1547 26.7764 11.5 28.5 11.5V10C28.5 9.17031 27.8018 8.5 26.9375 8.5H25.375ZM23.8125 8.5H8.1875C8.1875 10.9844 6.08789 13 3.5 13V19C6.08789 19 8.1875 21.0156 8.1875 23.5H23.8125C23.8125 21.0156 25.9121 19 28.5 19V13C25.9121 13 23.8125 10.9844 23.8125 8.5ZM3.5 22C3.5 22.8297 4.19824 23.5 5.0625 23.5H6.625C6.625 21.8453 5.22363 20.5 3.5 20.5V22ZM28.5 20.5C26.7764 20.5 25.375 21.8453 25.375 23.5H26.9375C27.8018 23.5 28.5 22.8297 28.5 22V20.5ZM5.0625 8.5C4.19824 8.5 3.5 9.17031 3.5 10V11.5C5.22363 11.5 6.625 10.1547 6.625 8.5H5.0625ZM1.9375 10C1.9375 8.34531 3.33887 7 5.0625 7H26.9375C28.6611 7 30.0625 8.34531 30.0625 10V22C30.0625 23.6547 28.6611 25 26.9375 25H5.0625C3.33887 25 1.9375 23.6547 1.9375 22V10ZM19.125 16C19.125 15.2044 18.7958 14.4413 18.2097 13.8787C17.6237 13.3161 16.8288 13 16 13C15.1712 13 14.3763 13.3161 13.7903 13.8787C13.2042 14.4413 12.875 15.2044 12.875 16C12.875 16.7956 13.2042 17.5587 13.7903 18.1213C14.3763 18.6839 15.1712 19 16 19C16.8288 19 17.6237 18.6839 18.2097 18.1213C18.7958 17.5587 19.125 16.7956 19.125 16ZM11.3125 16C11.3125 14.8065 11.8064 13.6619 12.6854 12.818C13.5645 11.9741 14.7568 11.5 16 11.5C17.2432 11.5 18.4355 11.9741 19.3146 12.818C20.1936 13.6619 20.6875 14.8065 20.6875 16C20.6875 17.1935 20.1936 18.3381 19.3146 19.182C18.4355 20.0259 17.2432 20.5 16 20.5C14.7568 20.5 13.5645 20.0259 12.6854 19.182C11.8064 18.3381 11.3125 17.1935 11.3125 16Z" fill="#737373"/>
</svg>
