<svg width="271" height="252" viewBox="0 0 271 252" fill="none" xmlns="http://www.w3.org/2000/svg">
<path d="M52.1964 86.5965C52.5975 98.8531 56.3132 212.39 56.8449 228.637C57.0495 234.856 61.2339 239.728 66.378 239.728H253.531C258.952 239.728 263.28 234.29 263.068 227.728C262.703 216.582 258.998 103.363 258.42 85.683C258.215 79.4686 254.027 74.5961 248.887 74.5961H61.7334C56.3038 74.5961 51.9847 80.047 52.1964 86.5965Z" fill="#51575F"/>
<path d="M239.374 243.269H52.2208C44.3465 243.269 38.0522 235.346 38.3636 225.826L43.0107 83.7857C43.3052 74.7842 49.4222 67.6703 56.8679 67.6703H244.022C251.896 67.6703 258.19 75.5934 257.879 85.113L253.232 227.153C252.937 236.155 246.82 243.269 239.374 243.269Z" fill="#97B73E"/>
<path d="M253.557 84.9038C253.155 97.1603 249.44 210.697 248.908 226.944C248.703 233.163 244.519 238.035 239.375 238.035H52.2217C46.8005 238.035 42.4726 232.598 42.6847 226.035C43.0495 214.889 46.7547 101.67 47.3333 83.9902C47.5378 77.7759 51.7262 72.9034 56.8663 72.9034H244.02C249.449 72.9034 253.768 78.3542 253.557 84.9038Z" fill="white"/>
<path d="M253.557 84.9038L253.002 101.881H46.7476L47.3335 83.9902C47.538 77.7759 51.7265 72.9034 56.8666 72.9034H244.02C249.449 72.9034 253.768 78.3542 253.557 84.9038Z" fill="#CBDB9F"/>
<path d="M82.6248 86.8038C85.5657 86.8038 87.9497 84.4198 87.9497 81.4789C87.9497 78.538 85.5657 76.1539 82.6248 76.1539C79.6839 76.1539 77.2998 78.538 77.2998 81.4789C77.2998 84.4198 79.6839 86.8038 82.6248 86.8038Z" fill="#FFF6F3"/>
<path d="M82.7474 81.4785H82.5012C81.2663 81.4785 80.2651 80.4774 80.2651 79.2424V63.4113C80.2651 62.1764 81.2663 61.1752 82.5012 61.1752H82.7474C83.9824 61.1752 84.9835 62.1764 84.9835 63.4113V79.2424C84.9835 80.4774 83.9824 81.4785 82.7474 81.4785Z" fill="#97B73E"/>
<path d="M128.204 86.8038C131.145 86.8038 133.529 84.4198 133.529 81.4789C133.529 78.538 131.145 76.1539 128.204 76.1539C125.263 76.1539 122.879 78.538 122.879 81.4789C122.879 84.4198 125.263 86.8038 128.204 86.8038Z" fill="#FFF6F3"/>
<path d="M128.326 81.4785H128.08C126.845 81.4785 125.844 80.4774 125.844 79.2424V63.4113C125.844 62.1764 126.845 61.1752 128.08 61.1752H128.326C129.561 61.1752 130.562 62.1764 130.562 63.4113V79.2424C130.562 80.4774 129.561 81.4785 128.326 81.4785Z" fill="#97B73E"/>
<path d="M173.043 86.8038C175.984 86.8038 178.368 84.4198 178.368 81.4789C178.368 78.538 175.984 76.1539 173.043 76.1539C170.102 76.1539 167.718 78.538 167.718 81.4789C167.718 84.4198 170.102 86.8038 173.043 86.8038Z" fill="#FFF6F3"/>
<path d="M173.166 81.4785H172.92C171.685 81.4785 170.684 80.4774 170.684 79.2424V63.4113C170.684 62.1764 171.685 61.1752 172.92 61.1752H173.166C174.401 61.1752 175.402 62.1764 175.402 63.4113V79.2424C175.402 80.4774 174.401 81.4785 173.166 81.4785Z" fill="#97B73E"/>
<path d="M217.883 86.8038C220.823 86.8038 223.208 84.4198 223.208 81.4789C223.208 78.538 220.823 76.1539 217.883 76.1539C214.942 76.1539 212.558 78.538 212.558 81.4789C212.558 84.4198 214.942 86.8038 217.883 86.8038Z" fill="#FFF6F3"/>
<path d="M218.006 81.4785H217.76C216.525 81.4785 215.524 80.4774 215.524 79.2424V63.4113C215.524 62.1764 216.525 61.1752 217.76 61.1752H218.006C219.241 61.1752 220.242 62.1764 220.242 63.4113V79.2424C220.242 80.4774 219.241 81.4785 218.006 81.4785Z" fill="#97B73E"/>
<path d="M244.308 191.428H211.034V217.199H244.308V191.428Z" fill="#9AA0AA"/>
<path d="M244.308 161.507H211.034V187.277H244.308V161.507Z" fill="#DFE3EA"/>
<path d="M161.043 152.266C160.314 152.262 159.584 151.98 159.029 151.418L153.677 145.997L148.258 151.346C147.134 152.456 145.329 152.445 144.221 151.323C143.114 150.201 143.123 148.394 144.247 147.284L149.666 141.934L144.314 136.513C143.206 135.391 143.218 133.581 144.34 132.474C145.461 131.366 147.272 131.378 148.379 132.5L153.731 137.921L159.152 132.569C160.274 131.461 162.082 131.475 163.189 132.597C164.299 133.721 164.287 135.522 163.163 136.631L157.742 141.983L163.094 147.405C164.893 149.227 163.553 152.291 161.043 152.266ZM237.123 150.609C235.992 151.725 234.182 151.695 233.084 150.583L227.731 145.162L222.313 150.511C221.189 151.621 219.384 151.61 218.276 150.488C217.169 149.366 217.178 147.559 218.302 146.449L223.721 141.099L218.368 135.678C217.261 134.556 217.273 132.746 218.394 131.639C219.516 130.531 221.326 130.543 222.434 131.665L227.786 137.086L233.207 131.734C235.011 129.953 238.085 131.26 238.069 133.784C238.064 134.514 237.777 135.244 237.218 135.796L231.797 141.148L237.149 146.57C238.256 147.691 238.245 149.501 237.123 150.609Z" fill="#E79470"/>
<path d="M204.78 217.199H174.458C174.112 217.199 173.832 216.927 173.832 216.591V125.144C173.832 124.809 174.112 124.537 174.458 124.537H204.78C205.125 124.537 205.406 124.809 205.406 125.144V216.591C205.406 216.927 205.125 217.199 204.78 217.199ZM175.084 215.984H204.153V125.751H175.084V215.984Z" fill="#DFE3EA"/>
<path d="M204.789 161.146H174.467C174.121 161.146 173.841 160.866 173.841 160.52C173.841 160.174 174.121 159.894 174.467 159.894H204.789C205.135 159.894 205.415 160.174 205.415 160.52C205.415 160.866 205.135 161.146 204.789 161.146Z" fill="#DFE3EA"/>
<path d="M204.767 189.783H174.446C174.1 189.783 173.819 189.502 173.819 189.157C173.819 188.811 174.1 188.53 174.446 188.53H204.767C205.113 188.53 205.394 188.811 205.394 189.157C205.394 189.502 205.113 189.783 204.767 189.783Z" fill="#DFE3EA"/>
<path d="M244.815 158.781H210.825C210.479 158.781 210.199 158.501 210.199 158.155V124.165C210.199 123.819 210.479 123.539 210.825 123.539H244.815C245.161 123.539 245.441 123.819 245.441 124.165V158.155C245.441 158.501 245.161 158.781 244.815 158.781ZM211.451 157.529H244.188V124.791H211.451V157.529Z" fill="#DFE3EA"/>
<rect x="137.794" y="4.75073" width="44.1943" height="44.1943" rx="13.492" fill="#F0AF30"/>
<rect x="156.943" y="10.5829" width="6.38325" height="21.5995" rx="3.19162" fill="white"/>
<circle cx="160.16" cy="38.2131" r="3.14814" transform="rotate(103.735 160.16 38.2131)" fill="white"/>
<path d="M150.132 182.607H51.3272C49.0113 182.607 47.1357 184.641 47.1357 187.151V213.184C47.1357 215.694 49.0113 217.727 51.3272 217.727H150.132C152.448 217.727 154.325 215.694 154.325 213.184V187.151C154.325 184.641 152.448 182.607 150.132 182.607ZM62.998 209.501C58.2412 209.501 54.3844 205.323 54.3844 200.166C54.3844 195.009 58.2395 190.833 62.998 190.833C67.7565 190.833 71.6098 195.011 71.6098 200.166C71.6098 205.321 67.7547 209.501 62.998 209.501ZM119.276 205.14H81.4684C80.808 205.14 80.2779 204.563 80.2779 203.851C80.2779 203.139 80.8098 202.563 81.4684 202.563H119.276C119.933 202.563 120.463 203.141 120.463 203.851C120.463 204.561 119.931 205.14 119.276 205.14ZM138.914 197.65H81.4684C80.808 197.65 80.2779 197.072 80.2779 196.36C80.2779 195.648 80.8098 195.072 81.4684 195.072H138.914C139.572 195.072 140.103 195.65 140.103 196.36C140.103 197.07 139.571 197.65 138.914 197.65Z" fill="#CBDB9F"/>
<path d="M141.293 159.837H27.6655C25.0023 159.837 22.8453 162.127 22.8453 164.953V194.262C22.8453 197.088 25.0023 199.376 27.6655 199.376H141.293C143.956 199.376 146.115 197.088 146.115 194.262V164.953C146.115 162.127 143.956 159.837 141.293 159.837Z" fill="white"/>
<path d="M141.917 161.541H28.2895C25.6262 161.541 23.4692 163.832 23.4692 166.657V195.966C23.4692 198.792 25.6262 201.08 28.2895 201.08H141.917C144.58 201.08 146.739 198.792 146.739 195.966V166.657C146.739 163.832 144.58 161.541 141.917 161.541ZM41.7111 191.819C36.2408 191.819 31.8054 187.115 31.8054 181.309C31.8054 175.504 36.2388 170.802 41.7111 170.802C47.1835 170.802 51.6148 175.506 51.6148 181.309C51.6148 187.113 47.1815 191.819 41.7111 191.819ZM106.432 186.909H62.9525C62.193 186.909 61.5834 186.26 61.5834 185.459C61.5834 184.657 62.195 184.008 62.9525 184.008H106.432C107.187 184.008 107.797 184.659 107.797 185.459C107.797 186.258 107.185 186.909 106.432 186.909ZM129.016 178.477H62.9525C62.193 178.477 61.5834 177.826 61.5834 177.025C61.5834 176.223 62.195 175.574 62.9525 175.574H129.016C129.773 175.574 130.383 176.226 130.383 177.025C130.383 177.824 129.771 178.477 129.016 178.477Z" fill="#97B73E"/>
</svg>
