<svg width="24" height="25" viewBox="0 0 24 25" fill="none" xmlns="http://www.w3.org/2000/svg">
<path d="M11.4778 19.9698H4.78218C4.27481 19.9698 3.78822 19.7682 3.42946 19.4095C3.07069 19.0507 2.86914 18.5641 2.86914 18.0567V9.44803C2.86914 8.94066 3.07069 8.45407 3.42946 8.0953C3.78822 7.73654 4.27481 7.53499 4.78218 7.53499H5.73871C6.24608 7.53499 6.73267 7.33343 7.09143 6.97467C7.4502 6.6159 7.65175 6.12931 7.65175 5.62194C7.65175 5.36826 7.75253 5.12496 7.93191 4.94558C8.11129 4.7662 8.35459 4.66542 8.60827 4.66542H14.3474C14.6011 4.66542 14.8444 4.7662 15.0238 4.94558C15.2031 5.12496 15.3039 5.36826 15.3039 5.62194C15.3039 6.12931 15.5055 6.6159 15.8642 6.97467C16.223 7.33343 16.7096 7.53499 17.217 7.53499H18.1735C18.6809 7.53499 19.1674 7.73654 19.5262 8.0953C19.885 8.45407 20.0865 8.94066 20.0865 9.44803V12.3176M14.3216 13.6625C14.4006 13.0837 14.3012 12.4946 14.0365 11.9739C13.7719 11.4532 13.3546 11.0256 12.8404 10.7484C12.3263 10.4711 11.7398 10.3574 11.1593 10.4223C10.5788 10.4873 10.032 10.7279 9.59184 11.1119C9.1517 11.4959 8.83924 12.0051 8.69621 12.5715C8.55318 13.1378 8.58639 13.7343 8.7914 14.2813C8.99641 14.8282 9.36346 15.2996 9.84351 15.6324C10.3236 15.9652 10.8937 16.1436 11.4778 16.1437" stroke="#8155D9" stroke-width="1.8" stroke-linecap="round" stroke-linejoin="round"/>
<path d="M16.9966 15.9807C16.9711 16.0232 16.8054 16.431 16.627 16.8856C16.2744 17.7777 16.113 18.0623 15.8071 18.3342C15.548 18.5593 15.4333 18.6188 14.418 19.0266C13.5854 19.3665 13.5684 19.375 13.5684 19.4939C13.5684 19.6171 13.5811 19.6256 14.4902 19.991C15.9686 20.5815 16.0535 20.6664 16.6483 22.149C17.0094 23.0539 17.0179 23.0666 17.1411 23.0666C17.2643 23.0666 17.2685 23.0496 17.6253 22.1745C18.0417 21.1465 18.0672 21.0955 18.3008 20.8278C18.5727 20.522 18.8531 20.3648 19.8046 19.9867C20.7392 19.6171 20.8539 19.5407 20.701 19.392C20.6543 19.3495 20.2847 19.1881 19.8769 19.0309C18.989 18.6868 18.8106 18.6018 18.5344 18.3809C18.2073 18.1218 18.0289 17.8159 17.6296 16.8346C17.2897 15.9934 17.2558 15.9297 17.1495 15.917C17.0731 15.9085 17.0221 15.9297 16.9966 15.9807Z" fill="#8155D9"/>
<path d="M21.3743 13.8681C21.3595 13.8928 21.2629 14.1307 21.1588 14.3958C20.9532 14.916 20.859 15.082 20.6806 15.2406C20.5295 15.3719 20.4626 15.4066 19.8705 15.6444C19.3849 15.8426 19.375 15.8476 19.375 15.9169C19.375 15.9888 19.3824 15.9937 19.9126 16.2068C20.7748 16.5512 20.8243 16.6007 21.1712 17.4654C21.3818 17.9931 21.3867 18.0005 21.4586 18.0005C21.5304 18.0005 21.5329 17.9906 21.741 17.4802C21.9838 16.8807 21.9987 16.851 22.1349 16.6949C22.2935 16.5165 22.457 16.4248 23.012 16.2043C23.557 15.9888 23.6239 15.9442 23.5347 15.8575C23.5075 15.8327 23.2919 15.7386 23.0541 15.6469C22.5363 15.4462 22.4322 15.3967 22.2712 15.2678C22.0804 15.1167 21.9764 14.9383 21.7435 14.366C21.5453 13.8755 21.5255 13.8383 21.4635 13.8309C21.4189 13.8259 21.3892 13.8383 21.3743 13.8681Z" fill="#8155D9"/>
</svg>
