<svg width="17" height="17" viewBox="0 0 17 17" fill="none" xmlns="http://www.w3.org/2000/svg">
<path d="M8.59069 13.4799H4.12692C3.78868 13.4799 3.46428 13.3455 3.22511 13.1063C2.98593 12.8672 2.85156 12.5428 2.85156 12.2045V6.46538C2.85156 6.12714 2.98593 5.80274 3.22511 5.56357C3.46428 5.32439 3.78868 5.19002 4.12692 5.19002H4.76461C5.10285 5.19002 5.42725 5.05565 5.66642 4.81648C5.9056 4.5773 6.03997 4.25291 6.03997 3.91466C6.03997 3.74554 6.10715 3.58334 6.22674 3.46375C6.34633 3.34416 6.50853 3.27698 6.67765 3.27698H10.5037C10.6729 3.27698 10.8351 3.34416 10.9546 3.46375C11.0742 3.58334 11.1414 3.74554 11.1414 3.91466C11.1414 4.25291 11.2758 4.5773 11.515 4.81648C11.7541 5.05565 12.0785 5.19002 12.4168 5.19002H13.0545C13.3927 5.19002 13.7171 5.32439 13.9563 5.56357C14.1955 5.80274 14.3298 6.12714 14.3298 6.46538V8.37843M10.4865 9.27501C10.5392 8.88918 10.4729 8.49645 10.2965 8.1493C10.12 7.80216 9.84185 7.51712 9.4991 7.33229C9.15635 7.14746 8.76535 7.07163 8.37835 7.11493C7.99135 7.15823 7.62679 7.31861 7.33336 7.57463C7.03994 7.83064 6.83163 8.17011 6.73628 8.54767C6.64092 8.92523 6.66306 9.3229 6.79974 9.68754C6.93641 10.0522 7.18111 10.3664 7.50114 10.5883C7.82117 10.8102 8.20129 10.9291 8.5907 10.9292" stroke="#8155D9" stroke-linecap="round" stroke-linejoin="round"/>
<path d="M12.0492 10.8205C12.0322 10.8488 11.9217 11.1207 11.8028 11.4237C11.5677 12.0185 11.4601 12.2082 11.2562 12.3895C11.0834 12.5396 11.007 12.5792 10.3301 12.8511C9.775 13.0777 9.76367 13.0833 9.76367 13.1626C9.76367 13.2448 9.77217 13.2504 10.3782 13.494C11.3638 13.8877 11.4205 13.9443 11.8169 14.9327C12.0577 15.5359 12.0633 15.5444 12.1455 15.5444C12.2276 15.5444 12.2304 15.5331 12.4683 14.9497C12.7459 14.2643 12.7629 14.2303 12.9186 14.0519C13.0999 13.848 13.2868 13.7432 13.9212 13.4912C14.5443 13.2448 14.6207 13.1938 14.5188 13.0947C14.4876 13.0663 14.2412 12.9587 13.9693 12.8539C13.3774 12.6245 13.2585 12.5679 13.0744 12.4206C12.8563 12.2479 12.7374 12.044 12.4712 11.3897C12.2446 10.829 12.2219 10.7865 12.1511 10.778C12.1002 10.7723 12.0662 10.7865 12.0492 10.8205Z" fill="#8155D9"/>
<path d="M15.1874 9.41214C15.1775 9.42866 15.1131 9.58721 15.0437 9.76394C14.9066 10.1108 14.8438 10.2215 14.7249 10.3272C14.6242 10.4147 14.5796 10.4378 14.1848 10.5964C13.8611 10.7285 13.8545 10.7318 13.8545 10.7781C13.8545 10.826 13.8594 10.8293 14.2129 10.9713C14.7877 11.2009 14.8207 11.2339 15.0519 11.8104C15.1923 12.1622 15.1956 12.1671 15.2435 12.1671C15.2914 12.1671 15.2931 12.1605 15.4318 11.8203C15.5937 11.4206 15.6036 11.4007 15.6944 11.2967C15.8002 11.1778 15.9092 11.1167 16.2791 10.9697C16.6425 10.826 16.6871 10.7962 16.6276 10.7384C16.6095 10.7219 16.4658 10.6591 16.3072 10.598C15.962 10.4642 15.8926 10.4312 15.7853 10.3453C15.6581 10.2446 15.5887 10.1257 15.4335 9.74412C15.3014 9.41709 15.2881 9.39232 15.2468 9.38736C15.2171 9.38406 15.1973 9.39232 15.1874 9.41214Z" fill="#8155D9"/>
</svg>
