<svg width="32" height="32" viewBox="0 0 32 32" fill="none" xmlns="http://www.w3.org/2000/svg">
<rect x="0.5" y="0.5" width="31" height="31" rx="15.5" fill="white"/>
<path d="M11.6667 11.3334H20.3334C20.4294 11.367 20.5164 11.4222 20.5878 11.4948C20.6592 11.5673 20.7131 11.6551 20.7452 11.7517C20.7774 11.8482 20.7871 11.9508 20.7735 12.0516C20.7598 12.1524 20.7233 12.2488 20.6667 12.3334L17.3334 16V20.6667L14.6667 18.6667V16L11.3334 12.3334C11.2768 12.2488 11.2403 12.1524 11.2267 12.0516C11.2131 11.9508 11.2227 11.8482 11.2549 11.7517C11.2871 11.6551 11.3409 11.5673 11.4123 11.4948C11.4837 11.4222 11.5707 11.367 11.6667 11.3334Z" stroke="#9AA0AA" stroke-width="1.5" stroke-linecap="round" stroke-linejoin="round"/>
<rect x="0.5" y="0.5" width="31" height="31" rx="15.5" stroke="#D1D6DD"/>
</svg>
