<svg width="24" height="24" viewBox="0 0 24 24" fill="none" xmlns="http://www.w3.org/2000/svg">
<path d="M13 21.0017C12.3609 21.0017 11.748 20.7479 11.296 20.296L3.586 12.586C3.2109 12.211 3.00011 11.7024 3 11.172V6C3 5.20435 3.31607 4.44129 3.87868 3.87868C4.44129 3.31607 5.20435 3 6 3H11.172C11.7024 3.00011 12.211 3.2109 12.586 3.586C12.586 3.586 15.0481 6.04805 15.5 6.5M6.5 7.5C6.5 7.76522 6.60536 8.01957 6.79289 8.20711C6.98043 8.39464 7.23478 8.5 7.5 8.5C7.76522 8.5 8.01957 8.39464 8.20711 8.20711C8.39464 8.01957 8.5 7.76522 8.5 7.5C8.5 7.23478 8.39464 6.98043 8.20711 6.79289C8.01957 6.60536 7.76522 6.5 7.5 6.5C7.23478 6.5 6.98043 6.60536 6.79289 6.79289C6.60536 6.98043 6.5 7.23478 6.5 7.5Z" stroke="white" stroke-width="2" stroke-linecap="round" stroke-linejoin="round"/>
<path d="M14 18.4481C14 17.7623 14.2724 17.1046 14.7574 16.6196C15.2423 16.1347 15.9 15.8623 16.5858 15.8623H19.1716C19.8574 15.8623 20.5151 16.1347 21 16.6196M15.2929 11.5858C15.2929 12.2716 15.5653 12.9293 16.0503 13.4142C16.5352 13.8991 17.1929 14.1716 17.8787 14.1716C18.5645 14.1716 19.2222 13.8991 19.7071 13.4142C20.192 12.9293 20.4645 12.2716 20.4645 11.5858C20.4645 10.9 20.192 10.2423 19.7071 9.75736C19.2222 9.27243 18.5645 9 17.8787 9C17.1929 9 16.5352 9.27243 16.0503 9.75736C15.5653 10.2423 15.2929 10.9 15.2929 11.5858Z" stroke="white" stroke-width="1.44" stroke-linecap="round" stroke-linejoin="round"/>
</svg>
