<svg width="32" height="32" viewBox="0 0 32 32" fill="none" xmlns="http://www.w3.org/2000/svg">
<rect x="0.5" y="0.5" width="31" height="31" rx="15.5" fill="#FEF7EA"/>
<path d="M11.6667 11.3333H20.3334C20.4294 11.3669 20.5164 11.4221 20.5878 11.4946C20.6592 11.5671 20.7131 11.655 20.7452 11.7515C20.7774 11.8481 20.7871 11.9507 20.7735 12.0515C20.7598 12.1523 20.7233 12.2487 20.6667 12.3333L17.3334 15.9999V20.6666L14.6667 18.6666V15.9999L11.3334 12.3333C11.2768 12.2487 11.2403 12.1523 11.2267 12.0515C11.2131 11.9507 11.2227 11.8481 11.2549 11.7515C11.2871 11.655 11.3409 11.5671 11.4123 11.4946C11.4837 11.4221 11.5707 11.3669 11.6667 11.3333Z" stroke="#4F555E" stroke-width="1.5" stroke-linecap="round" stroke-linejoin="round"/>
<rect x="0.5" y="0.5" width="31" height="31" rx="15.5" stroke="#4F555E"/>
<circle cx="21.5" cy="11" r="2.5" fill="#D74C10" stroke="white"/>
</svg>
