<svg width="223" height="195" viewBox="0 0 223 195" fill="none" xmlns="http://www.w3.org/2000/svg">
<path d="M215.316 69.0781C216.776 71.3968 218.492 73.5435 220.432 75.4776L215.316 69.0781Z" fill="white"/>
<path d="M220.432 75.4776C220.111 75.2353 219.814 74.9632 219.544 74.6649C218.185 73.2779 216.97 71.7573 215.916 70.1262C215.683 69.7979 215.483 69.4467 215.321 69.0781C215.585 69.3806 215.825 69.7028 216.04 70.0418C216.484 70.6458 217.075 71.4718 217.781 72.3556C218.487 73.2393 219.162 74.0076 219.655 74.5761C219.937 74.8566 220.196 75.1579 220.432 75.4776Z" fill="#E0E0E0"/>
<path d="M180.983 75.3048C182.682 73.1998 184.386 71.0962 186.094 68.9941L180.983 75.3048Z" fill="white"/>
<path d="M186.094 68.9941C185.327 70.1113 184.501 71.1875 183.621 72.2183C182.795 73.2913 181.914 74.3214 180.983 75.3048C181.748 74.1874 182.574 73.1125 183.457 72.0851C184.281 71.0089 185.161 69.9771 186.094 68.9941Z" fill="#E0E0E0"/>
<path d="M180.987 18.7754C181.867 19.7198 182.695 20.7101 183.47 21.742C184.298 22.7346 185.07 23.7724 185.784 24.8507C184.903 23.9076 184.074 22.9173 183.301 21.8841C182.475 20.8895 181.703 19.8518 180.987 18.7754Z" fill="#E0E0E0"/>
<path d="M199.913 45.3112L198.66 43.2728C188.109 26.0995 169.026 15.7387 148.921 16.9999C146.334 17.1638 143.762 17.5126 141.225 18.0436C122.937 21.9117 107.029 35.5721 100.421 53.0652C96.5397 63.355 95.4561 75.1991 88.093 83.3661C78.5137 93.9933 62.242 94.3264 47.942 93.8868C33.642 93.4471 17.3569 93.8202 7.82209 104.492C1.84896 111.176 -0.0473429 120.675 0.432284 129.628C1.70685 153.321 18.4272 174.482 39.6906 185.034C60.9541 195.585 85.9657 196.509 109.25 191.877C141.851 185.384 172.849 167.567 191.484 140.042C210.118 112.517 214.821 75.017 199.913 45.3112Z" fill="#F2F6E7"/>
<path d="M70.6563 39.2129H38.6434C37.3469 39.2129 36.2959 40.2639 36.2959 41.5604V73.5733C36.2959 74.8697 37.3469 75.9208 38.6434 75.9208H70.6563C71.9528 75.9208 73.0038 74.8697 73.0038 73.5733V41.5604C73.0038 40.2639 71.9528 39.2129 70.6563 39.2129Z" fill="#B1C96E"/>
<path d="M60.8221 51.7207H48.411C47.6951 51.7207 47.1147 52.3011 47.1147 53.0169V58.4264C47.1147 59.1423 47.6951 59.7226 48.411 59.7226H60.8221C61.538 59.7226 62.1184 59.1423 62.1184 58.4264V53.0169C62.1184 52.3011 61.538 51.7207 60.8221 51.7207Z" fill="#FAFAFA"/>
<path d="M64.9203 55.1914H44.3745C44.0814 55.1914 43.8438 55.429 43.8438 55.7222V62.336C43.8438 62.6291 44.0814 62.8667 44.3745 62.8667H64.9203C65.2134 62.8667 65.451 62.6291 65.451 62.336V55.7222C65.451 55.429 65.2134 55.1914 64.9203 55.1914Z" fill="#FAFAFA"/>
<path d="M62.1181 55.1914C62.2436 56.0753 62.2965 56.9679 62.2763 57.8604V58.0135H62.1181C60.281 58.0594 57.6017 58.0901 54.6163 58.0901C51.6309 58.0901 48.9517 58.0594 47.1145 58.0135H46.9563V57.8604C46.9362 56.9679 46.9891 56.0753 47.1145 55.1914C47.2432 56.0749 47.2961 56.9679 47.2727 57.8604L47.1145 57.7022C48.9517 57.6563 51.6309 57.6257 54.6163 57.6257C57.6017 57.6257 60.281 57.6563 62.1181 57.7022L61.9599 57.8604C61.9366 56.9679 61.9895 56.0749 62.1181 55.1914Z" fill="#263238"/>
<path d="M47.0433 62.8003C46.9107 62.8003 46.8086 61.1366 46.8086 59.0851C46.8086 57.0336 46.9107 55.375 47.0433 55.375C47.176 55.375 47.273 57.0336 47.273 59.0851C47.273 61.1366 47.1709 62.8003 47.0433 62.8003Z" fill="#263238"/>
<path d="M62.1337 62.8663C62.001 62.8663 61.8989 61.2638 61.8989 59.294C61.8989 57.3241 62.001 55.7217 62.1337 55.7217C62.2664 55.7217 62.3633 57.3241 62.3633 59.294C62.3633 61.2638 62.2613 62.8663 62.1337 62.8663Z" fill="#263238"/>
<path d="M112.182 39.2129H80.1688C78.8723 39.2129 77.8213 40.2639 77.8213 41.5604V73.5733C77.8213 74.8697 78.8723 75.9208 80.1688 75.9208H112.182C113.478 75.9208 114.529 74.8697 114.529 73.5733V41.5604C114.529 40.2639 113.478 39.2129 112.182 39.2129Z" fill="#FBFBFB"/>
<path d="M102.353 51.7207H89.9417C89.2258 51.7207 88.6455 52.3011 88.6455 53.0169V58.4264C88.6455 59.1423 89.2258 59.7226 89.9417 59.7226H102.353C103.069 59.7226 103.649 59.1423 103.649 58.4264V53.0169C103.649 52.3011 103.069 51.7207 102.353 51.7207Z" fill="#B1C96E"/>
<path d="M106.451 55.1914H85.9048C85.6116 55.1914 85.374 55.429 85.374 55.7222V62.336C85.374 62.6291 85.6116 62.8667 85.9048 62.8667H106.451C106.744 62.8667 106.981 62.6291 106.981 62.336V55.7222C106.981 55.429 106.744 55.1914 106.451 55.1914Z" fill="#B1C96E"/>
<path d="M103.649 55.1914C103.771 56.0756 103.822 56.9681 103.802 57.8604V58.0135H103.644C101.807 58.0594 99.1225 58.0901 96.1422 58.0901C93.1619 58.0901 90.4724 58.0594 88.6404 58.0135H88.477V57.8604C88.4537 56.9679 88.5066 56.0749 88.6352 55.1914C88.7639 56.0749 88.8168 56.9679 88.7934 57.8604L88.6352 57.7022C90.4673 57.6563 93.1517 57.6257 96.1371 57.6257C99.1225 57.6257 101.802 57.6563 103.639 57.7022L103.481 57.8604C103.461 56.9676 103.517 56.0747 103.649 55.1914Z" fill="#263238"/>
<path d="M88.5687 62.8003C88.4412 62.8003 88.334 61.1366 88.334 59.0851C88.334 57.0336 88.4412 55.375 88.5687 55.375C88.6963 55.375 88.8035 57.0336 88.8035 59.0851C88.8035 61.1366 88.7014 62.8003 88.5687 62.8003Z" fill="#263238"/>
<path d="M103.659 62.8663C103.531 62.8663 103.429 61.2638 103.429 59.294C103.429 57.3241 103.531 55.7217 103.659 55.7217C103.786 55.7217 103.894 57.3241 103.894 59.294C103.894 61.2638 103.792 62.8663 103.659 62.8663Z" fill="#263238"/>
<path d="M153.712 39.2129H121.699C120.403 39.2129 119.352 40.2639 119.352 41.5604V73.5733C119.352 74.8697 120.403 75.9208 121.699 75.9208H153.712C155.008 75.9208 156.059 74.8697 156.059 73.5733V41.5604C156.059 40.2639 155.008 39.2129 153.712 39.2129Z" fill="#FBFBFB"/>
<path d="M143.883 51.7207H131.472C130.756 51.7207 130.176 52.3011 130.176 53.0169V58.4264C130.176 59.1423 130.756 59.7226 131.472 59.7226H143.883C144.599 59.7226 145.179 59.1423 145.179 58.4264V53.0169C145.179 52.3011 144.599 51.7207 143.883 51.7207Z" fill="#455A64"/>
<path d="M147.981 55.1914H127.435C127.142 55.1914 126.904 55.429 126.904 55.7222V62.336C126.904 62.6291 127.142 62.8667 127.435 62.8667H147.981C148.274 62.8667 148.512 62.6291 148.512 62.336V55.7222C148.512 55.429 148.274 55.1914 147.981 55.1914Z" fill="#455A64"/>
<path d="M145.174 55.1914C145.303 56.0749 145.356 56.9679 145.332 57.8604V58.0135H145.169C143.337 58.0594 140.653 58.0901 137.672 58.0901C134.692 58.0901 132.003 58.0594 130.171 58.0135H130.007V57.8604C129.984 56.9679 130.037 56.0749 130.166 55.1914C130.291 56.0753 130.344 56.9679 130.324 57.8604L130.166 57.7022C131.998 57.6563 134.682 57.6257 137.667 57.6257C140.653 57.6257 143.332 57.6563 145.164 57.7022L145.006 57.8604C144.989 56.9676 145.045 56.075 145.174 55.1914Z" fill="#263238"/>
<path d="M130.099 62.8003C129.971 62.8003 129.864 61.1366 129.864 59.0851C129.864 57.0336 129.971 55.375 130.099 55.375C130.227 55.375 130.334 57.0336 130.334 59.0851C130.334 61.1366 130.227 62.8003 130.099 62.8003Z" fill="#263238"/>
<path d="M145.19 62.8663C145.062 62.8663 144.955 61.2638 144.955 59.294C144.955 57.3241 145.062 55.7217 145.19 55.7217C145.317 55.7217 145.425 57.3241 145.425 59.294C145.425 61.2638 145.323 62.8663 145.19 62.8663Z" fill="#263238"/>
<path d="M70.6563 85.3975H38.6434C37.3469 85.3975 36.2959 86.4485 36.2959 87.745V119.758C36.2959 121.054 37.3469 122.105 38.6434 122.105H70.6563C71.9528 122.105 73.0038 121.054 73.0038 119.758V87.745C73.0038 86.4485 71.9528 85.3975 70.6563 85.3975Z" fill="#FBFBFB"/>
<path d="M46.9922 103.111L48.7018 109.072L60.4393 109.118L62.3122 103.412C61.6631 103.198 60.9773 103.118 60.2964 103.177L60.0923 96.8238C60.0891 96.6814 60.0509 96.542 59.9811 96.4178C59.9113 96.2937 59.812 96.1887 59.6919 96.112C59.5719 96.0353 59.4348 95.9894 59.2928 95.9782C59.1508 95.9671 59.0082 95.9911 58.8777 96.0481L57.7346 96.5584H51.1003L50.3399 96.1757C50.2088 96.1092 50.0627 96.0775 49.9158 96.0837C49.7688 96.0899 49.6259 96.1339 49.5009 96.2112C49.3758 96.2886 49.2728 96.3969 49.2017 96.5256C49.1305 96.6544 49.0937 96.7992 49.0947 96.9463V103.218C48.4093 103.035 47.6928 102.998 46.9922 103.111Z" fill="#B1C96E"/>
<path d="M49.3074 109.076L48.6899 109.073L48.6672 114.498L49.2847 114.501L49.3074 109.076Z" fill="#263238"/>
<path d="M51.4764 109.1L50.8589 109.098L50.8473 111.869L51.4648 111.871L51.4764 109.1Z" fill="#263238"/>
<path d="M57.6922 109.126L57.0747 109.123L57.0631 111.894L57.6806 111.897L57.6922 109.126Z" fill="#263238"/>
<path d="M60.4427 109.122L59.8252 109.119L59.8025 114.544L60.42 114.546L60.4427 109.122Z" fill="#263238"/>
<path d="M51.1875 105.637C51.1415 105.637 51.1109 103.596 51.1211 101.1C51.1313 98.6048 51.1823 96.5635 51.2283 96.5635C51.2742 96.5635 51.3048 98.6048 51.2946 101.1C51.2844 103.596 51.2334 105.637 51.1875 105.637Z" fill="#263238"/>
<path d="M57.8115 105.667C57.7655 105.667 57.7349 103.626 57.7451 101.131C57.7553 98.6351 57.8064 96.5938 57.8523 96.5938C57.8982 96.5938 57.9288 98.6351 57.9186 101.131C57.9084 103.626 57.8625 105.667 57.8115 105.667Z" fill="#263238"/>
<path d="M60.2862 103.183C60.1894 103.224 60.0885 103.255 59.9851 103.275L59.8167 103.315L59.6279 103.387L59.4033 103.468L59.1686 103.596C58.7787 103.818 58.4574 104.143 58.2398 104.535C57.9716 105.042 57.858 105.617 57.9132 106.188V106.275H54.6981L51.182 106.25H51.1105V106.178C51.1036 105.642 50.9633 105.116 50.7022 104.647C50.5091 104.294 50.2551 103.978 49.9521 103.713C49.671 103.486 49.3644 103.293 49.0386 103.137C49.1336 103.157 49.226 103.188 49.3142 103.229C49.5633 103.336 49.7968 103.477 50.0082 103.647C50.3391 103.911 50.6178 104.235 50.8298 104.601C51.111 105.077 51.2656 105.616 51.2789 106.168L51.2024 106.097H54.7185H57.8519L57.7754 106.183C57.7223 105.594 57.8411 105.002 58.1173 104.479C58.3593 104.07 58.7135 103.739 59.138 103.525L59.3829 103.407L59.6126 103.331L59.8116 103.264L59.98 103.234C60.0804 103.208 60.1829 103.191 60.2862 103.183Z" fill="#263238"/>
<path d="M51.0598 106.209C51.0598 106.234 50.8403 106.275 50.5137 106.423C50.0926 106.614 49.7246 106.905 49.442 107.27C49.1734 107.646 48.9985 108.079 48.9317 108.536C48.9216 108.731 48.9012 108.925 48.8704 109.118C48.8032 108.926 48.7839 108.721 48.8143 108.521C48.8549 108.031 49.0317 107.563 49.3246 107.168C49.6251 106.778 50.0304 106.48 50.4933 106.311C50.6707 106.23 50.8654 106.195 51.0598 106.209Z" fill="#263238"/>
<path d="M60.3117 109.25C60.2862 109.25 60.2811 109 60.1841 108.612C60.0608 108.112 59.8232 107.648 59.4901 107.255C59.1533 106.867 58.7327 106.562 58.2602 106.362C57.8928 106.209 57.6478 106.168 57.6529 106.142C57.8749 106.126 58.0974 106.165 58.301 106.254C58.8131 106.428 59.2692 106.736 59.6212 107.146C59.9732 107.557 60.2082 108.054 60.3015 108.587C60.3591 108.804 60.3626 109.031 60.3117 109.25Z" fill="#263238"/>
<path d="M112.182 85.3975H80.1688C78.8723 85.3975 77.8213 86.4485 77.8213 87.745V119.758C77.8213 121.054 78.8723 122.105 80.1688 122.105H112.182C113.478 122.105 114.529 121.054 114.529 119.758V87.745C114.529 86.4485 113.478 85.3975 112.182 85.3975Z" fill="#FBFBFB"/>
<path d="M153.712 85.3975H121.699C120.403 85.3975 119.352 86.4485 119.352 87.745V119.758C119.352 121.054 120.403 122.105 121.699 122.105H153.712C155.008 122.105 156.059 121.054 156.059 119.758V87.745C156.059 86.4485 155.008 85.3975 153.712 85.3975Z" fill="#B1C96E"/>
<path d="M70.6563 131.582H38.6434C37.3469 131.582 36.2959 132.633 36.2959 133.93V165.942C36.2959 167.239 37.3469 168.29 38.6434 168.29H70.6563C71.9528 168.29 73.0038 167.239 73.0038 165.942V133.93C73.0038 132.633 71.9528 131.582 70.6563 131.582Z" fill="#B1C96E"/>
<path d="M112.182 131.582H80.1688C78.8723 131.582 77.8213 132.633 77.8213 133.93V165.942C77.8213 167.239 78.8723 168.29 80.1688 168.29H112.182C113.478 168.29 114.529 167.239 114.529 165.942V133.93C114.529 132.633 113.478 131.582 112.182 131.582Z" fill="#FBFBFB"/>
<path d="M153.712 131.582H121.699C120.403 131.582 119.352 132.633 119.352 133.93V165.942C119.352 167.239 120.403 168.29 121.699 168.29H153.712C155.008 168.29 156.059 167.239 156.059 165.942V133.93C156.059 132.633 155.008 131.582 153.712 131.582Z" fill="#FBFBFB"/>
<path d="M91.5901 180.405C92.3172 180.405 92.9067 179.815 92.9067 179.088C92.9067 178.361 92.3172 177.771 91.5901 177.771C90.8629 177.771 90.2734 178.361 90.2734 179.088C90.2734 179.815 90.8629 180.405 91.5901 180.405Z" fill="#263238"/>
<path d="M98.2192 179.088C98.2182 179.349 98.1401 179.603 97.9949 179.818C97.8496 180.034 97.6436 180.202 97.4029 180.301C97.1622 180.4 96.8977 180.425 96.6426 180.374C96.3875 180.323 96.1534 180.197 95.9698 180.012C95.7861 179.828 95.6613 179.594 95.6109 179.338C95.5605 179.083 95.5868 178.819 95.6866 178.578C95.7865 178.338 95.9552 178.133 96.1716 177.988C96.388 177.844 96.6424 177.767 96.9026 177.767C97.0759 177.767 97.2475 177.801 97.4076 177.867C97.5677 177.934 97.7131 178.031 97.8354 178.154C97.9577 178.277 98.0546 178.423 98.1205 178.583C98.1863 178.743 98.2199 178.915 98.2192 179.088Z" fill="#263238"/>
<path d="M103.537 179.088C103.537 179.35 103.459 179.606 103.313 179.823C103.168 180.041 102.961 180.21 102.719 180.31C102.478 180.41 102.212 180.436 101.955 180.384C101.699 180.333 101.463 180.207 101.278 180.021C101.094 179.836 100.968 179.6 100.918 179.343C100.867 179.086 100.894 178.82 100.995 178.579C101.096 178.338 101.266 178.132 101.484 177.987C101.702 177.842 101.958 177.766 102.22 177.767C102.57 177.768 102.904 177.908 103.151 178.156C103.398 178.403 103.537 178.739 103.537 179.088Z" fill="#263238"/>
<path d="M61.9896 146.164L49.2876 146.186C48.6139 146.188 48.0688 146.735 48.07 147.408L48.0834 155.083C48.0846 155.757 48.6316 156.302 49.3052 156.301L62.0072 156.279C62.6809 156.278 63.226 155.731 63.2248 155.057L63.2114 147.382C63.2102 146.708 62.6632 146.163 61.9896 146.164Z" fill="#E0E0E0"/>
<path d="M59.0817 148.05C59.075 147.986 59.075 147.921 59.0817 147.857C59.0817 147.707 59.0919 147.523 59.1123 147.305C59.1685 146.626 59.1685 145.943 59.1123 145.264C59.0293 144.27 58.6223 143.331 57.9539 142.59C57.5466 142.174 57.0271 141.885 56.4586 141.758C55.8389 141.635 55.2072 141.581 54.5755 141.6C53.2895 141.6 52.0239 141.865 51.1461 142.58C50.738 142.916 50.416 143.344 50.2071 143.83C50.0255 144.255 49.9069 144.703 49.855 145.162C49.786 145.841 49.786 146.525 49.855 147.203C49.8754 147.428 49.8907 147.612 49.9009 147.754C49.9009 147.882 49.9009 147.948 49.9009 147.948C49.8796 147.887 49.8659 147.824 49.8601 147.76C49.8601 147.637 49.8142 147.448 49.7836 147.214C49.6873 146.537 49.6668 145.853 49.7223 145.172C49.7701 144.698 49.887 144.234 50.0693 143.794C50.2791 143.284 50.6102 142.832 51.0339 142.478C51.5091 142.097 52.0609 141.824 52.6516 141.676C53.2795 141.522 53.9238 141.445 54.5704 141.447C55.2158 141.428 55.8613 141.483 56.4944 141.61C57.0937 141.746 57.6401 142.055 58.0662 142.498C58.754 143.268 59.1653 144.245 59.2348 145.274C59.2876 145.954 59.2739 146.638 59.194 147.316C59.194 147.555 59.1481 147.739 59.1328 147.862C59.1208 147.926 59.1037 147.989 59.0817 148.05Z" fill="#263238"/>
<path d="M60.076 146.116L47.374 146.138C46.7004 146.14 46.1552 146.687 46.1564 147.36L46.1698 155.036C46.171 155.709 46.718 156.254 47.3916 156.253L60.0937 156.231C60.7673 156.23 61.3124 155.683 61.3112 155.009L61.2978 147.334C61.2967 146.66 60.7496 146.115 60.076 146.116Z" fill="#FAFAFA"/>
<path d="M60.0825 156.242C60.2457 156.227 60.4057 156.187 60.5571 156.124C60.7361 156.045 60.8923 155.922 61.0113 155.767C61.177 155.558 61.267 155.299 61.2664 155.032C61.2664 153.797 61.2664 152.026 61.2307 149.842C61.2307 149.296 61.2307 148.719 61.2307 148.122C61.2307 147.826 61.2307 147.51 61.2307 147.219C61.1968 146.919 61.0466 146.644 60.8122 146.454C60.563 146.26 60.2484 146.17 59.9345 146.203H58.9138H56.796H47.3753C47.1812 146.204 46.9906 146.255 46.8217 146.35C46.6528 146.446 46.5113 146.583 46.4108 146.75C46.3087 146.912 46.2523 147.099 46.2475 147.29C46.2475 147.495 46.2475 147.694 46.2475 147.898C46.2475 148.714 46.2475 149.515 46.2475 150.301V154.848C46.2373 155.02 46.2563 155.193 46.3036 155.359C46.3557 155.515 46.439 155.659 46.5486 155.782C46.6585 155.904 46.7934 156 46.944 156.064C47.0947 156.129 47.2575 156.16 47.4213 156.155H53.0144H58.1994H59.613H58.2045L53.0144 156.196H49.4421H47.4008C47.2146 156.202 47.0294 156.167 46.8576 156.095C46.6859 156.023 46.5317 155.914 46.4057 155.777C46.2767 155.639 46.1807 155.473 46.125 155.292C46.0706 155.112 46.0482 154.924 46.0587 154.736C46.0587 153.287 46.0587 151.766 46.0587 150.189C46.0587 149.403 46.0587 148.602 46.0587 147.785C46.0587 147.581 46.0587 147.382 46.0587 147.168C46.0665 146.948 46.1316 146.733 46.2475 146.545C46.3645 146.354 46.5287 146.196 46.7244 146.086C46.9201 145.976 47.1407 145.918 47.3651 145.918H56.7858H59.9141C60.2627 145.886 60.6101 145.99 60.8837 146.209C61.0143 146.314 61.1226 146.445 61.2023 146.593C61.282 146.741 61.3316 146.904 61.3481 147.071C61.3481 147.393 61.3481 147.689 61.3481 147.99C61.3481 148.587 61.3481 149.163 61.3481 149.709C61.3481 151.894 61.3481 153.664 61.3481 154.899C61.3434 155.18 61.2446 155.452 61.0674 155.67C60.9378 155.827 60.7712 155.95 60.5826 156.027C60.4399 156.145 60.2663 156.22 60.0825 156.242Z" fill="#263238"/>
<path d="M103.183 146.164L90.4814 146.186C89.8078 146.188 89.2627 146.735 89.2638 147.408L89.2772 155.083C89.2784 155.757 89.8254 156.302 90.4991 156.301L103.201 156.279C103.875 156.278 104.42 155.731 104.419 155.057L104.405 147.382C104.404 146.708 103.857 146.163 103.183 146.164Z" fill="#B1C96E"/>
<path d="M100.276 148.05C100.269 147.986 100.269 147.921 100.276 147.857C100.276 147.707 100.286 147.523 100.307 147.305C100.363 146.626 100.363 145.943 100.307 145.264C100.224 144.27 99.8167 143.331 99.1482 142.59C98.7409 142.174 98.2215 141.885 97.653 141.758C97.0332 141.635 96.4015 141.581 95.7699 141.6C94.4838 141.6 93.2182 141.865 92.3405 142.58C91.9323 142.916 91.6104 143.344 91.4015 143.83C91.2199 144.255 91.1012 144.703 91.0493 145.162C90.9803 145.841 90.9803 146.525 91.0493 147.203C91.0697 147.428 91.0851 147.612 91.0953 147.754C91.0953 147.882 91.0953 147.948 91.0953 147.948C91.0739 147.887 91.0602 147.824 91.0544 147.76C91.0544 147.637 91.0085 147.448 90.9779 147.214C90.8817 146.537 90.8611 145.853 90.9166 145.172C90.9645 144.698 91.0814 144.234 91.2637 143.794C91.4735 143.284 91.8045 142.832 92.2282 142.478C92.7034 142.097 93.2553 141.824 93.8459 141.676C94.4738 141.522 95.1182 141.445 95.7648 141.447C96.4102 141.428 97.0556 141.483 97.6887 141.61C98.2881 141.746 98.8345 142.055 99.2605 142.498C99.9483 143.268 100.36 144.245 100.429 145.274C100.482 145.954 100.468 146.638 100.388 147.316C100.388 147.555 100.342 147.739 100.327 147.862C100.318 147.927 100.301 147.99 100.276 148.05Z" fill="#263238"/>
<path d="M101.269 146.116L88.5673 146.138C87.8937 146.14 87.3486 146.687 87.3498 147.36L87.3632 155.036C87.3644 155.709 87.9114 156.254 88.585 156.253L101.287 156.231C101.961 156.23 102.506 155.683 102.505 155.009L102.491 147.334C102.49 146.66 101.943 146.115 101.269 146.116Z" fill="#B1C96E"/>
<path d="M101.276 156.242C101.439 156.227 101.599 156.187 101.751 156.124C101.93 156.045 102.086 155.922 102.205 155.767C102.371 155.558 102.46 155.299 102.46 155.032C102.46 153.797 102.46 152.026 102.424 149.842C102.424 149.296 102.424 148.719 102.424 148.122C102.424 147.826 102.424 147.51 102.424 147.219C102.39 146.919 102.24 146.644 102.006 146.454C101.757 146.26 101.442 146.17 101.128 146.203H100.107H97.9894H88.5688C88.3747 146.204 88.1841 146.255 88.0152 146.35C87.8463 146.446 87.7048 146.583 87.6043 146.75C87.5022 146.912 87.4458 147.099 87.441 147.29C87.441 147.495 87.441 147.694 87.441 147.898C87.441 148.714 87.441 149.515 87.441 150.301V154.848C87.4308 155.02 87.4498 155.193 87.4971 155.359C87.5492 155.515 87.6325 155.659 87.7421 155.782C87.8527 155.904 87.9885 156.001 88.14 156.065C88.2916 156.129 88.4553 156.16 88.6198 156.155H94.1977H99.3877L94.1977 156.196H90.6254H88.63C88.4438 156.202 88.2586 156.167 88.0868 156.095C87.9151 156.023 87.7609 155.914 87.6349 155.777C87.5059 155.639 87.4099 155.473 87.3542 155.292C87.3014 155.112 87.2807 154.924 87.293 154.736C87.293 153.287 87.293 151.766 87.293 150.189C87.293 149.403 87.293 148.602 87.293 147.785C87.293 147.581 87.293 147.382 87.293 147.168C87.3008 146.948 87.3659 146.733 87.4818 146.545C87.5988 146.354 87.763 146.196 87.9587 146.086C88.1544 145.976 88.375 145.918 88.5994 145.918H98.0201H101.148C101.497 145.886 101.844 145.99 102.118 146.209C102.382 146.423 102.55 146.733 102.587 147.071C102.587 147.393 102.587 147.689 102.587 147.99C102.587 148.587 102.587 149.163 102.587 149.709C102.587 151.894 102.587 153.664 102.587 154.899C102.585 155.142 102.511 155.378 102.375 155.579C102.239 155.78 102.047 155.936 101.822 156.027C101.667 156.154 101.476 156.229 101.276 156.242Z" fill="#263238"/>
<path d="M146.01 146.16L133.308 146.182C132.634 146.184 132.089 146.731 132.091 147.404L132.104 155.08C132.105 155.753 132.652 156.298 133.326 156.297L146.028 156.275C146.701 156.274 147.246 155.727 147.245 155.053L147.232 147.378C147.231 146.704 146.684 146.159 146.01 146.16Z" fill="#455A64"/>
<path d="M143.103 148.05C143.096 147.986 143.096 147.921 143.103 147.857C143.103 147.707 143.113 147.523 143.133 147.305C143.189 146.626 143.189 145.943 143.133 145.264C143.048 144.271 142.641 143.332 141.975 142.59C141.568 142.174 141.048 141.885 140.48 141.758C139.86 141.635 139.228 141.582 138.597 141.6C137.305 141.6 136.045 141.865 135.162 142.58C134.757 142.917 134.437 143.346 134.228 143.83C134.047 144.255 133.928 144.703 133.876 145.162C133.807 145.841 133.807 146.525 133.876 147.203C133.896 147.428 133.912 147.612 133.922 147.754C133.93 147.819 133.93 147.884 133.922 147.948C133.901 147.887 133.887 147.824 133.881 147.76C133.881 147.637 133.835 147.448 133.805 147.214C133.708 146.537 133.688 145.853 133.743 145.172C133.789 144.698 133.906 144.233 134.09 143.794C134.298 143.283 134.63 142.83 135.055 142.478C135.53 142.097 136.082 141.824 136.673 141.676C137.3 141.521 137.945 141.444 138.591 141.447C139.237 141.428 139.882 141.483 140.515 141.61C141.114 141.747 141.66 142.056 142.087 142.498C142.776 143.267 143.186 144.244 143.251 145.274C143.307 145.954 143.295 146.638 143.215 147.316C143.215 147.555 143.169 147.739 143.154 147.862C143.142 147.926 143.125 147.989 143.103 148.05Z" fill="#263238"/>
<path d="M144.096 146.113L131.394 146.136C130.72 146.137 130.175 146.684 130.176 147.357L130.19 155.033C130.191 155.706 130.738 156.251 131.412 156.25L144.114 156.228C144.787 156.227 145.332 155.68 145.331 155.006L145.318 147.331C145.317 146.657 144.77 146.112 144.096 146.113Z" fill="#455A64"/>
<path d="M144.103 156.242C144.266 156.227 144.426 156.187 144.577 156.124C144.756 156.045 144.913 155.922 145.031 155.767C145.197 155.558 145.287 155.299 145.287 155.032C145.287 153.797 145.287 152.026 145.251 149.842C145.251 149.296 145.251 148.719 145.251 148.122C145.251 147.826 145.251 147.51 145.251 147.219C145.217 146.918 145.064 146.642 144.827 146.454C144.58 146.259 144.267 146.169 143.955 146.203H142.934H140.816H131.396C131.201 146.204 131.011 146.255 130.842 146.35C130.673 146.446 130.532 146.583 130.431 146.75C130.329 146.912 130.273 147.099 130.268 147.29C130.268 147.495 130.268 147.694 130.268 147.898C130.268 148.714 130.268 149.515 130.268 150.301V154.848C130.258 155.02 130.277 155.193 130.324 155.359C130.374 155.516 130.457 155.661 130.569 155.782C130.678 155.904 130.813 156 130.964 156.065C131.115 156.129 131.278 156.16 131.441 156.155H137.014H142.199L137.014 156.196H133.442H131.441C131.256 156.201 131.072 156.167 130.901 156.094C130.73 156.022 130.577 155.914 130.451 155.777C130.323 155.638 130.225 155.473 130.166 155.292C130.115 155.112 130.095 154.924 130.104 154.736C130.104 153.287 130.104 151.766 130.104 150.189C130.104 149.403 130.104 148.602 130.104 147.785C130.104 147.581 130.104 147.382 130.104 147.168C130.112 146.948 130.177 146.733 130.293 146.545C130.409 146.354 130.573 146.196 130.768 146.086C130.962 145.976 131.182 145.918 131.406 145.918H140.831H143.96C144.308 145.886 144.656 145.99 144.929 146.209C145.06 146.314 145.168 146.445 145.248 146.593C145.328 146.741 145.377 146.904 145.394 147.071C145.394 147.393 145.394 147.689 145.394 147.99C145.394 148.587 145.394 149.163 145.394 149.709C145.394 151.894 145.394 153.664 145.394 154.899C145.389 155.18 145.29 155.452 145.113 155.67C144.983 155.827 144.817 155.95 144.628 156.027C144.479 156.15 144.295 156.225 144.103 156.242Z" fill="#263238"/>
<path d="M89.2476 104.111L90.9572 110.093L102.695 110.144L104.557 104.418C103.908 104.204 103.222 104.126 102.542 104.188L102.348 97.8447C102.343 97.7028 102.304 97.564 102.234 97.4406C102.164 97.3171 102.065 97.2127 101.945 97.1362C101.825 97.0598 101.689 97.0137 101.547 97.002C101.406 96.9903 101.264 97.0133 101.133 97.069L99.9899 97.5793L93.3557 97.5487L92.5953 97.1659C92.4641 97.0994 92.3181 97.0677 92.1711 97.074C92.0242 97.0802 91.8813 97.1241 91.7563 97.2015C91.6312 97.2789 91.5282 97.3872 91.457 97.5159C91.3859 97.6446 91.3491 97.7895 91.3501 97.9365V104.214C90.6647 104.029 89.9476 103.995 89.2476 104.111Z" fill="#455A64"/>
<path d="M91.5633 110.079L90.9458 110.076L90.9231 115.501L91.5406 115.503L91.5633 110.079Z" fill="#263238"/>
<path d="M93.7425 110.084L93.125 110.081L93.1134 112.852L93.7309 112.855L93.7425 110.084Z" fill="#263238"/>
<path d="M99.9476 110.125L99.3301 110.122L99.3185 112.893L99.936 112.896L99.9476 110.125Z" fill="#263238"/>
<path d="M102.688 110.141L102.07 110.139L102.048 115.563L102.665 115.566L102.688 110.141Z" fill="#263238"/>
<path d="M93.4423 106.642C93.3964 106.642 93.3658 104.601 93.376 102.105C93.3862 99.6097 93.4321 97.5684 93.4832 97.5684C93.5342 97.5684 93.5546 99.6097 93.5444 102.105C93.5342 104.601 93.4883 106.642 93.4423 106.642Z" fill="#263238"/>
<path d="M100.066 106.668C100.02 106.668 99.9898 104.627 100 102.132C100.01 99.636 100.056 97.5947 100.107 97.5947C100.158 97.5947 100.184 99.636 100.168 102.132C100.153 104.627 100.112 106.668 100.066 106.668Z" fill="#263238"/>
<path d="M102.542 104.188C102.442 104.223 102.339 104.252 102.236 104.275L102.072 104.316L101.878 104.392L101.659 104.474L101.424 104.601C101.033 104.82 100.711 105.143 100.495 105.535C100.227 106.044 100.113 106.621 100.169 107.194V107.276H96.9536H93.4375H93.366V107.204C93.3627 106.668 93.224 106.141 92.9629 105.673C92.7652 105.314 92.5041 104.995 92.1923 104.729C91.9112 104.502 91.6046 104.308 91.2788 104.152C91.3718 104.172 91.4624 104.201 91.5493 104.239C91.7997 104.347 92.0348 104.488 92.2484 104.658C92.5794 104.924 92.858 105.249 93.07 105.617C93.3489 106.093 93.5034 106.632 93.5191 107.184L93.4426 107.107H96.9587H100.092L100.016 107.194C99.9642 106.592 100.092 105.988 100.383 105.459C100.618 105.053 100.963 104.722 101.378 104.504L101.628 104.382L101.858 104.305L102.057 104.244L102.225 104.214C102.329 104.193 102.436 104.184 102.542 104.188Z" fill="#263238"/>
<path d="M93.3302 107.209C93.3302 107.239 93.1108 107.28 92.7842 107.428C92.3601 107.616 91.9907 107.908 91.7104 108.278C91.4302 108.647 91.2483 109.082 91.1818 109.541C91.1713 109.736 91.1509 109.93 91.1205 110.123C91.0546 109.931 91.0354 109.726 91.0644 109.526C91.1006 109.035 91.2778 108.565 91.5747 108.173C91.8744 107.784 92.2776 107.487 92.7383 107.316C92.9239 107.232 93.1271 107.195 93.3302 107.209Z" fill="#263238"/>
<path d="M102.567 110.25C102.541 110.25 102.536 110 102.439 109.617C102.317 109.117 102.079 108.652 101.745 108.26C101.408 107.871 100.985 107.566 100.51 107.367C100.148 107.214 99.8978 107.168 99.9029 107.142C100.127 107.126 100.351 107.165 100.556 107.255C101.068 107.43 101.523 107.74 101.875 108.151C102.227 108.562 102.462 109.059 102.557 109.592C102.614 109.807 102.618 110.033 102.567 110.25Z" fill="#263238"/>
<path d="M130.911 102.544L132.625 108.51L144.363 108.561L146.236 102.851C145.587 102.637 144.901 102.557 144.22 102.616L144.031 96.2775C144.027 96.1349 143.988 95.9955 143.918 95.8715C143.847 95.7474 143.748 95.6425 143.627 95.566C143.507 95.4894 143.37 95.4436 143.227 95.4324C143.085 95.4212 142.942 95.445 142.811 95.5018L141.668 96.0121L135.06 95.9866L134.299 95.6039C134.168 95.5361 134.021 95.5035 133.874 95.5091C133.726 95.5147 133.582 95.5584 133.456 95.636C133.331 95.7135 133.227 95.8223 133.156 95.9517C133.084 96.081 133.047 96.2267 133.049 96.3745V102.646C132.352 102.459 131.622 102.425 130.911 102.544Z" fill="#FAFAFA"/>
<path d="M133.227 108.508L132.61 108.506L132.587 113.931L133.205 113.933L133.227 108.508Z" fill="#263238"/>
<path d="M135.407 108.517L134.789 108.515L134.777 111.286L135.395 111.288L135.407 108.517Z" fill="#263238"/>
<path d="M141.622 108.544L141.005 108.541L140.993 111.312L141.611 111.315L141.622 108.544Z" fill="#263238"/>
<path d="M144.347 108.576L143.729 108.573L143.707 113.998L144.324 114.001L144.347 108.576Z" fill="#263238"/>
<path d="M135.105 105.07C135.06 105.07 135.034 103.029 135.044 100.534C135.054 98.0382 135.1 96.002 135.146 96.002C135.192 96.002 135.223 98.0433 135.213 100.539C135.202 103.034 135.177 105.07 135.105 105.07Z" fill="#263238"/>
<path d="M141.735 105.101C141.684 105.101 141.658 103.06 141.668 100.564C141.678 98.0687 141.724 96.0273 141.77 96.0273C141.816 96.0273 141.847 98.0687 141.837 100.564C141.826 103.06 141.781 105.101 141.735 105.101Z" fill="#263238"/>
<path d="M144.205 102.616C144.108 102.658 144.007 102.689 143.904 102.707L143.735 102.748L143.546 102.82L143.322 102.901L143.087 103.029C142.697 103.251 142.376 103.576 142.158 103.968C141.89 104.475 141.777 105.05 141.832 105.621V105.708H138.612H135.095H135.024V105.637C135.02 105.1 134.879 104.573 134.616 104.106C134.418 103.746 134.157 103.424 133.845 103.157C133.566 102.928 133.259 102.736 132.932 102.585C133.028 102.597 133.121 102.626 133.207 102.672C133.456 102.779 133.69 102.92 133.901 103.09C134.231 103.356 134.509 103.679 134.723 104.044C135.003 104.52 135.157 105.059 135.172 105.611L135.095 105.54H138.612H141.745L141.668 105.627C141.616 105.022 141.746 104.416 142.041 103.886C142.273 103.48 142.619 103.15 143.036 102.937L143.281 102.815L143.511 102.738L143.71 102.677L143.883 102.646C143.99 102.629 144.097 102.618 144.205 102.616Z" fill="#263238"/>
<path d="M134.978 105.642C134.978 105.667 134.759 105.708 134.437 105.856C134.013 106.044 133.643 106.336 133.363 106.705C133.082 107.075 132.901 107.51 132.835 107.969C132.779 108.321 132.799 108.551 132.773 108.551C132.7 108.363 132.679 108.158 132.712 107.959C132.75 107.467 132.927 106.996 133.223 106.601C133.519 106.21 133.923 105.914 134.386 105.749C134.57 105.661 134.775 105.624 134.978 105.642Z" fill="#263238"/>
<path d="M144.23 108.684C144.205 108.684 144.2 108.434 144.103 108.046C143.983 107.546 143.746 107.081 143.412 106.691C143.077 106.3 142.654 105.995 142.179 105.8C141.811 105.642 141.566 105.601 141.571 105.576C141.793 105.56 142.016 105.598 142.219 105.688C142.732 105.862 143.188 106.171 143.541 106.581C143.89 106.993 144.124 107.489 144.22 108.02C144.278 108.237 144.281 108.465 144.23 108.684Z" fill="#263238"/>
<path fill-rule="evenodd" clip-rule="evenodd" d="M180.008 0C169.044 0 160.155 8.88857 160.155 19.8532C160.155 28.9616 166.289 36.6374 174.651 38.9752V49.5898C174.651 49.6916 174.777 49.7391 174.845 49.6627L183.607 39.7064H202.785C213.75 39.7064 222.638 30.8178 222.638 19.8532C222.638 8.88857 213.75 0 202.785 0H180.008Z" fill="#F0AF30"/>
<rect x="188.813" y="7.62988" width="5.12709" height="17.3489" rx="2.56354" fill="white"/>
<circle cx="191.395" cy="29.8228" r="2.52862" transform="rotate(103.735 191.395 29.8228)" fill="white"/>
</svg>
