<svg width="318" height="267" viewBox="0 0 318 267" fill="none" xmlns="http://www.w3.org/2000/svg">
<path d="M81.6258 41.3824L7.16748 91.1865L80.5053 200.828L154.964 151.024L81.6258 41.3824Z" fill="#F0AF30"/>
<path d="M116.487 145.826L115.643 151.056L78.6279 145.726L79.4716 140.496L116.487 145.826Z" fill="#E8E8E9"/>
<path d="M97.8479 127.17L103.156 127.936L97.2668 164.381L91.959 163.616L97.8479 127.17Z" fill="#E8E8E9"/>
<path d="M63.7493 77.3639C63.8051 77.4471 56.3406 82.8542 47.0827 89.4379C37.8247 96.0215 30.2764 101.292 30.2261 101.209C30.1758 101.126 37.6347 95.7185 46.8927 89.1348C56.1507 82.5453 63.699 77.2748 63.7493 77.3639Z" fill="white"/>
<path d="M91.1376 70.0494C91.1934 70.1326 78.7843 79.0573 63.4251 89.9845C48.0658 100.912 35.5729 109.7 35.517 109.617C35.4667 109.533 47.8703 100.609 63.2295 89.6815C78.5887 78.7543 91.0817 69.9662 91.1376 70.0494Z" fill="white"/>
<path d="M96.6244 78.7779C96.6802 78.8611 84.2711 87.7859 68.9119 98.713C53.5527 109.64 41.0597 118.428 41.0038 118.345C40.9535 118.262 53.3571 109.337 68.7163 98.41C84.0755 87.4828 96.5685 78.6947 96.6244 78.7779Z" fill="white"/>
<path d="M102.111 87.5064C102.161 87.5896 89.7576 96.5144 74.3984 107.442C59.0392 118.369 46.5463 127.157 46.4904 127.074C46.4401 126.99 58.8437 118.066 74.2029 107.139C89.5677 96.2113 102.061 87.4233 102.111 87.5064Z" fill="white"/>
<path d="M107.603 96.235C107.659 96.3181 95.2498 105.243 79.8906 116.17C64.5314 127.097 52.0384 135.885 51.9826 135.802C51.9323 135.719 64.3359 126.794 79.6951 115.867C95.0543 104.94 107.547 96.1518 107.603 96.235Z" fill="white"/>
<path d="M231.672 45.4038L163.441 8.91064L109.707 109.378L177.938 145.871L231.672 45.4038Z" fill="#B1C96E"/>
<path d="M163.38 114.443L159.05 115.929L148.06 85.5514L152.39 84.0708L163.38 114.443Z" fill="white"/>
<path d="M170.012 92.6528L171.593 97.0109L141.422 107.342L139.847 102.984L170.012 92.6528Z" fill="white"/>
<path d="M194.333 47.8324C194.277 47.933 187.36 44.3349 178.879 39.798C170.392 35.2612 163.564 31.5011 163.615 31.4005C163.671 31.2999 170.588 34.8981 179.069 39.4349C187.55 43.9773 194.389 47.7375 194.333 47.8324Z" fill="white"/>
<path d="M210.704 65.9067C210.648 66.0073 199.2 59.9843 185.125 52.4583C171.051 44.9323 159.687 38.7473 159.737 38.6467C159.793 38.5462 171.241 44.5692 185.315 52.0951C199.395 59.6211 210.76 65.8061 210.704 65.9067Z" fill="white"/>
<path d="M206.687 73.4272C206.631 73.5278 195.183 67.5048 181.108 59.9788C167.034 52.4529 155.67 46.2678 155.72 46.1673C155.776 46.0667 167.224 52.0897 181.298 59.6156C195.372 67.1416 206.737 73.3266 206.687 73.4272Z" fill="white"/>
<path d="M202.664 80.9477C202.608 81.0483 191.16 75.0253 177.085 67.4993C163.011 59.9734 151.647 53.7883 151.697 53.6878C151.753 53.5872 163.201 59.6102 177.275 67.1362C191.35 74.6621 202.714 80.8471 202.664 80.9477Z" fill="white"/>
<path d="M198.641 88.4677C198.585 88.5683 187.137 82.5453 173.063 75.0193C158.989 67.4934 147.624 61.3084 147.674 61.2078C147.73 61.1072 159.179 67.1302 173.253 74.6562C187.327 82.1821 198.697 88.3672 198.641 88.4677Z" fill="white"/>
<path d="M134.097 115.89L110.631 236.534L107.558 252.329L264.212 251.558C271.241 251.525 277.47 245.284 279.733 236.009L307.513 122.109C309.228 115.069 305.462 107.744 300.126 107.75L141.573 107.917C138.075 107.912 135.014 111.18 134.097 115.89Z" fill="#16885F"/>
<path d="M134.097 115.89L110.631 236.534L107.558 252.329L264.212 251.558C271.241 251.525 277.47 245.284 279.733 236.009L307.513 122.109C309.228 115.069 305.462 107.744 300.126 107.75L141.573 107.917C138.075 107.912 135.014 111.18 134.097 115.89Z" fill="#97B73E"/>
<path d="M249.188 228.361L232.605 94.7036C231.924 89.2282 227.566 85.1439 222.414 85.1607L186.042 85.278C183.349 85.2892 180.767 86.429 178.857 88.4627L161.587 106.822L60.4359 107.347C54.2565 107.381 49.5073 113.231 50.3231 119.801L65.7214 243.334C66.403 248.804 70.7555 252.883 75.9013 252.872L252.189 252.525C271.822 252.933 273.699 247.134 273.699 247.134C251.194 252.117 249.194 228.377 249.188 228.361Z" fill="#CBDB9F"/>
<rect x="246.417" y="71.2793" width="54.5645" height="54.5645" rx="27.2822" fill="#F0AF30"/>
<rect x="270.751" y="83.2964" width="6.38325" height="21.5995" rx="3.19162" fill="white"/>
<circle cx="273.967" cy="111.927" r="3.14814" transform="rotate(103.735 273.967 111.927)" fill="white"/>
</svg>
