<svg width="214" height="150" viewBox="0 0 214 150" fill="none" xmlns="http://www.w3.org/2000/svg">
<g clip-path="url(#clip0_5487_63155)">
<path fill-rule="evenodd" clip-rule="evenodd" d="M48.3678 125.218C48.3678 125.218 42.6691 63.7433 40.8302 43.9084C40.5153 40.5066 42.9426 37.4629 46.3295 37.0128C69.4491 33.94 151.946 22.9759 175.239 19.8802C178.666 19.4248 181.83 21.7889 182.364 25.2047C185.001 42.0535 192.331 88.9011 195.081 106.472C195.354 108.221 194.888 110.005 193.793 111.395C192.696 112.785 191.072 113.656 189.307 113.799C160.242 116.154 48.3678 125.218 48.3678 125.218Z" fill="#A5BD65"/>
<path fill-rule="evenodd" clip-rule="evenodd" d="M176.544 48.047L187.9 113.913L166.298 115.663L176.544 48.047Z" fill="#A5BD65"/>
<path fill-rule="evenodd" clip-rule="evenodd" d="M176.6 49.3858C176.423 44.7607 172.531 41.1547 167.906 41.3315C141.866 42.3268 62.5049 45.3603 36.4653 46.3556C31.84 46.5324 28.2341 50.4251 28.4109 55.0502L31.4476 134.494C31.6244 139.119 35.5168 142.725 40.1421 142.548L171.582 137.524C176.208 137.347 179.814 133.455 179.637 128.829C178.941 110.62 177.296 67.596 176.6 49.3858Z" fill="#E2EEC0"/>
<path fill-rule="evenodd" clip-rule="evenodd" d="M102.606 118.224C102.561 117.052 101.576 116.138 100.404 116.183C91.153 116.537 54.3949 117.942 45.1443 118.295C43.9723 118.34 43.0597 119.326 43.1045 120.498L43.1045 120.498C43.1493 121.67 44.1345 122.584 45.3065 122.539C54.5571 122.185 91.3152 120.78 100.566 120.427C101.738 120.382 102.65 119.396 102.606 118.224L102.606 118.224Z" fill="#97B73E"/>
<path fill-rule="evenodd" clip-rule="evenodd" d="M65.4205 128.499C65.399 127.936 65.1552 127.405 64.7419 127.022C64.329 126.64 63.7806 126.437 63.2181 126.458C59.0173 126.619 49.6854 126.975 45.4846 127.136C44.9221 127.158 44.3908 127.402 44.0083 127.815C43.6254 128.228 43.4229 128.776 43.4444 129.339L43.4444 129.339C43.4659 129.902 43.7097 130.433 44.123 130.815C44.5359 131.199 45.0843 131.401 45.6468 131.38L63.3803 130.702C63.9428 130.68 64.4741 130.436 64.8566 130.023C65.2395 129.61 65.442 129.062 65.4205 128.499L65.4205 128.499Z" fill="#97B73E"/>
<path fill-rule="evenodd" clip-rule="evenodd" d="M26.0483 35.7133L16.0499 22.6894C15.3869 21.8258 14.1475 21.6629 13.2838 22.326C12.4202 22.989 12.2573 24.2284 12.9203 25.092L22.9187 38.116C23.5817 38.9796 24.8212 39.1425 25.6848 38.4795C26.5485 37.8164 26.7113 36.577 26.0483 35.7133Z" fill="#E79470"/>
<path fill-rule="evenodd" clip-rule="evenodd" d="M19.0911 46.5711L11.7494 41.8574C10.8332 41.2692 9.61177 41.5355 9.02353 42.4517C8.43529 43.3679 8.7016 44.5893 9.61783 45.1776L16.9595 49.8912C17.8757 50.4794 19.0972 50.2132 19.6853 49.297C20.2736 48.3807 20.0073 47.1593 19.0911 46.5711Z" fill="#E79470"/>
<path fill-rule="evenodd" clip-rule="evenodd" d="M39.7943 30.3003L37.1376 21.99C36.806 20.9529 35.6949 20.3801 34.6578 20.7116C33.6207 21.0432 33.0479 22.1544 33.3794 23.1914L36.0361 31.5017C36.3677 32.5388 37.4789 33.1116 38.516 32.78C39.553 32.4485 40.1258 31.3373 39.7943 30.3003Z" fill="#E79470"/>
<rect width="97.235" height="6.81731" rx="3.40866" transform="matrix(0.999668 -0.0257746 -0.0380636 -0.999275 73.1074 89.0486)" fill="#A5BD65"/>
<rect width="97.235" height="6.81731" rx="3.40866" transform="matrix(0.999668 -0.0257746 -0.0380636 -0.999275 72.3018 74.2498)" fill="#A5BD65"/>
</g>
<defs>
<clipPath id="clip0_5487_63155">
<rect width="212.791" height="212.791" fill="white" transform="translate(0.803711 -27.2366)"/>
</clipPath>
</defs>
</svg>
