<svg width="163" height="115" viewBox="0 0 163 115" fill="none" xmlns="http://www.w3.org/2000/svg">
<rect width="163" height="115" fill="#1E1E1E"/>
<path d="M-11231.6 -1003C-11231.6 -1004.1 -11230.7 -1005 -11229.6 -1005H2274.52C2275.63 -1005 2276.52 -1004.1 2276.52 -1003V4018C2276.52 4019.1 2275.63 4020 2274.52 4020H-11229.6C-11230.7 4020 -11231.6 4019.1 -11231.6 4018V-1003Z" fill="#2D323A"/>
<path d="M-11229.6 -1005V-1004H2274.52V-1005V-1006H-11229.6V-1005ZM2276.52 -1003H2275.52V4018H2276.52H2277.52V-1003H2276.52ZM2274.52 4020V4019H-11229.6V4020V4021H2274.52V4020ZM-11231.6 4018H-11230.6V-1003H-11231.6H-11232.6V4018H-11231.6ZM-11229.6 4020V4019C-11230.1 4019 -11230.6 4018.55 -11230.6 4018H-11231.6H-11232.6C-11232.6 4019.66 -11231.3 4021 -11229.6 4021V4020ZM2276.52 4018H2275.52C2275.52 4018.55 2275.08 4019 2274.52 4019V4020V4021C2276.18 4021 2277.52 4019.66 2277.52 4018H2276.52ZM2274.52 -1005V-1004C2275.08 -1004 2275.52 -1003.55 2275.52 -1003H2276.52H2277.52C2277.52 -1004.66 2276.18 -1006 2274.52 -1006V-1005ZM-11229.6 -1005V-1006C-11231.3 -1006 -11232.6 -1004.66 -11232.6 -1003H-11231.6H-11230.6C-11230.6 -1003.55 -11230.1 -1004 -11229.6 -1004V-1005Z" fill="white" fill-opacity="0.1"/>
<g clip-path="url(#clip0_6478_75081)">
<rect x="-370.288" y="-506.338" width="1193" height="1092" rx="12" fill="white"/>
<g clip-path="url(#clip1_6478_75081)">
<path d="M-44.2881 -281.865C-44.2881 -288.493 -38.9155 -293.865 -32.2881 -293.865H208.712C215.339 -293.865 220.712 -288.493 220.712 -281.865V495.135C220.712 501.762 215.339 507.135 208.712 507.135H-32.2881C-38.9155 507.135 -44.2881 501.762 -44.2881 495.135V-281.865Z" fill="white"/>
<g clip-path="url(#clip2_6478_75081)">
<g clip-path="url(#clip3_6478_75081)">
<path fill-rule="evenodd" clip-rule="evenodd" d="M36.8457 94.2001C36.8457 94.2001 32.5165 47.499 31.1195 32.431C30.8803 29.8467 32.7243 27.5345 35.2971 27.1926C52.8605 24.8583 115.532 16.5291 133.226 14.1774C135.83 13.8314 138.233 15.6274 138.639 18.2223C140.642 31.0219 146.211 66.6108 148.3 79.9592C148.507 81.2876 148.153 82.6426 147.321 83.6986C146.488 84.7548 145.254 85.4166 143.913 85.5252C121.833 87.3141 36.8457 94.2001 36.8457 94.2001Z" fill="#9AA0AA"/>
<path d="M27.8221 34.7897L127.674 30.973C130.986 30.8463 133.623 33.0381 133.725 35.7072L135.704 87.4799C135.806 90.1491 133.344 92.5357 130.032 92.6623L30.1801 96.479C26.8678 96.6055 24.2307 94.4139 24.1286 91.7448L22.1497 39.972C22.0476 37.303 24.5098 34.9164 27.8221 34.7897Z" fill="white" stroke="#9AA0AA"/>
<path fill-rule="evenodd" clip-rule="evenodd" d="M19.89 26.2057L12.2944 16.3118C11.7908 15.6557 10.8492 15.532 10.1931 16.0357C9.53699 16.5393 9.41326 17.4809 9.91692 18.137L17.5125 28.0309C18.0161 28.687 18.9577 28.8107 19.6138 28.3071C20.2699 27.8034 20.3936 26.8618 19.89 26.2057Z" fill="#DF7040"/>
<path fill-rule="evenodd" clip-rule="evenodd" d="M14.6049 34.4533L9.02759 30.8725C8.33159 30.4257 7.40369 30.6279 6.95682 31.324C6.50995 32.02 6.71226 32.9479 7.40829 33.3947L12.9856 36.9756C13.6816 37.4224 14.6095 37.2201 15.0563 36.5241C15.5032 35.8281 15.3009 34.9002 14.6049 34.4533Z" fill="#DF7040"/>
<path fill-rule="evenodd" clip-rule="evenodd" d="M30.3326 22.0933L28.3144 15.7802C28.0625 14.9923 27.2184 14.5571 26.4306 14.809C25.6427 15.0609 25.2076 15.905 25.4594 16.6928L27.4776 23.0059C27.7295 23.7938 28.5736 24.2289 29.3615 23.9771C30.1493 23.7252 30.5845 22.8811 30.3326 22.0933Z" fill="#DF7040"/>
<rect width="44.1593" height="5.17828" rx="2.58914" transform="matrix(0.999597 -0.0283729 -0.0345798 -0.999402 65.6973 79.7627)" fill="#9AA0AA"/>
<rect width="23.0275" height="5.0138" rx="2.5069" transform="matrix(0.999597 -0.0283729 -0.0345798 -0.999402 65.6943 68.334)" fill="#9AA0AA"/>
<rect width="61.3172" height="5.17828" rx="2.58914" transform="matrix(0.999597 -0.0283729 -0.0345798 -0.999402 65.1406 57.8564)" fill="#9AA0AA"/>
</g>
<path d="M127.066 42.407C138.324 42.407 147.451 33.2803 147.451 22.0219C147.451 10.7635 138.324 1.63672 127.066 1.63672C115.807 1.63672 106.681 10.7635 106.681 22.0219C106.681 33.2803 115.807 42.407 127.066 42.407Z" fill="#F0AF30"/>
<path d="M127.065 44.082C122.702 44.082 118.437 42.7882 114.809 40.3642C111.181 37.9402 108.354 34.4949 106.684 30.4639C105.014 26.433 104.578 21.9974 105.429 17.7182C106.28 13.439 108.381 9.50825 111.466 6.42311C114.551 3.33797 118.482 1.23696 122.761 0.385787C127.041 -0.46539 131.476 -0.0285124 135.507 1.64117C139.538 3.31085 142.983 6.13835 145.407 9.76611C147.831 13.3939 149.125 17.659 149.125 22.022C149.118 27.8707 146.792 33.4779 142.656 37.6135C138.521 41.7492 132.914 44.0755 127.065 44.082ZM127.065 3.31149C123.364 3.31152 119.747 4.40892 116.67 6.46486C113.593 8.52081 111.195 11.443 109.779 14.8619C108.363 18.2808 107.992 22.0428 108.714 25.6723C109.436 29.3018 111.218 32.6356 113.835 35.2523C116.451 37.869 119.785 39.651 123.415 40.373C127.044 41.0949 130.806 40.7244 134.225 39.3082C137.644 37.8921 140.566 35.4939 142.622 32.417C144.678 29.3401 145.775 25.7226 145.775 22.022C145.77 17.0614 143.797 12.3055 140.289 8.79785C136.781 5.29016 132.025 3.31708 127.065 3.31149Z" fill="white"/>
<rect x="111.936" y="6.8916" width="30.2607" height="30.2607" rx="11.6472" fill="#F0AF30"/>
<rect x="124.644" y="11.0605" width="4.37072" height="14.7895" rx="2.18536" fill="white"/>
<circle cx="126.846" cy="29.9796" r="2.15559" transform="rotate(103.735 126.846 29.9796)" fill="white"/>
<circle cx="44.4762" cy="56.065" r="7.20073" transform="rotate(-2.66647 44.4762 56.065)" fill="#9AA0AA"/>
<path d="M34.0777 77.1394C34.0585 76.7274 34.0489 76.5214 34.0463 76.3469C33.9622 70.5855 38.3678 65.7495 44.1121 65.2978C44.286 65.2841 44.492 65.2745 44.904 65.2553C45.316 65.2362 45.522 65.2266 45.6964 65.224C51.4579 65.1399 56.2938 69.5455 56.7456 75.2898C56.7593 75.4637 56.7688 75.6697 56.788 76.0817L57.0453 81.6057L34.3349 82.6634L34.0777 77.1394Z" fill="#9AA0AA"/>
</g>
</g>
</g>
<defs>
<clipPath id="clip0_6478_75081">
<rect x="-370.288" y="-506.338" width="1193" height="1092" rx="12" fill="white"/>
</clipPath>
<clipPath id="clip1_6478_75081">
<path d="M-44.2881 -281.865C-44.2881 -288.493 -38.9155 -293.865 -32.2881 -293.865H208.712C215.339 -293.865 220.712 -288.493 220.712 -281.865V495.135C220.712 501.762 215.339 507.135 208.712 507.135H-32.2881C-38.9155 507.135 -44.2881 501.762 -44.2881 495.135V-281.865Z" fill="white"/>
</clipPath>
<clipPath id="clip2_6478_75081">
<rect width="162.294" height="113.951" fill="white" transform="translate(0.711914 0.233398)"/>
</clipPath>
<clipPath id="clip3_6478_75081">
<rect width="161.652" height="161.652" fill="white" transform="translate(0.711914 -21.6162)"/>
</clipPath>
</defs>
</svg>
