<svg width="195" height="241" viewBox="0 0 195 241" fill="none" xmlns="http://www.w3.org/2000/svg">
<g clip-path="url(#clip0_5445_64106)">
<g style="mix-blend-mode:multiply">
<path d="M86.3078 239.569C132.63 245.957 175.36 213.585 181.749 167.263C188.138 120.941 155.765 78.2109 109.444 71.8222C63.1216 65.4334 20.3912 97.8056 14.0025 144.128C7.61371 190.449 39.9859 233.18 86.3078 239.569Z" fill="#97B73E"/>
</g>
<path d="M80.1319 227.947C123.767 233.965 164.02 203.47 170.038 159.835C176.056 116.199 145.561 75.9472 101.926 69.9289C58.2905 63.9107 18.0383 94.4055 12.02 138.041C6.00181 181.676 36.4965 221.928 80.1319 227.947Z" fill="#CBDB9F"/>
<path d="M104.457 88.1192C101.567 87.7206 100.39 79.4587 102.044 76.5023C103.698 73.5459 116.395 75.8509 118.112 77.9569C119.829 80.0629 115.594 80.6556 113.338 81.4521C111.082 82.2486 106.155 88.3535 104.457 88.1192ZM44.577 208.891C44.577 208.891 38.6342 207.009 36.7152 195.225C34.7961 183.442 38.7727 184.162 38.5744 181.745C38.3761 179.328 37.7944 177.121 39.0177 173.391C40.241 169.661 41.3443 166.801 40.5708 165.985C39.7972 165.17 39.4433 161.931 40.0759 160.246C40.7086 158.561 32.8762 154.842 33.2538 148.952C33.6314 143.061 32.4346 141.229 33.472 139.488C34.5093 137.746 40.6061 134.529 41.1971 130.769C41.7881 127.009 39.7452 126.583 38.4086 123.137C37.072 119.691 38.6734 119.115 37.7243 118.114C36.7752 117.114 35.3479 115.902 35.3944 115.039C35.441 114.176 36.2994 113.207 35.7476 112.479C35.1957 111.75 27.9487 108.069 30.5949 103.071C33.241 98.0728 60.0732 65.6016 101.336 74.0425C101.336 74.0425 101.666 77.3615 96.3713 78.7263C95.4596 78.2799 94.6773 77.6078 94.0985 76.7738C93.067 75.3373 90.4545 76.9184 89.4209 76.9053C88.3872 76.8922 87.4346 74.884 86.0483 75.0811C84.6621 75.2782 79.5772 77.4244 78.9662 80.4465C78.3553 83.4686 81.5876 84.4321 84.9359 81.2698C88.2843 78.1076 86.7339 81.8414 88.3172 81.1537C89.9005 80.4661 92.6751 78.6484 93.8708 80.3018C95.0665 81.9551 92.6861 84.6685 93.7854 87.0204C94.8848 89.3724 94.5388 94.6961 91.4576 93.1062C88.3764 91.5164 88.5275 90.8901 85.6084 92.8172C82.6892 94.7444 78.9926 91.5165 74.0084 93.8707C69.0241 96.2249 69.9986 93.3824 65.3692 95.9797C60.7397 98.577 60.5974 97.263 57.8206 104.258C55.0439 111.252 55.1971 99.8187 53.9116 98.3471C52.6261 96.8755 42.8218 94.2936 39.0815 100.767C35.3412 107.24 37.5727 107.484 41.2934 108.191C45.0141 108.898 44.9287 109.987 43.2578 111.309C41.5869 112.632 40.0189 112.739 40.8117 115.437C41.6045 118.135 38.7511 120.524 40.7308 123.063C42.7105 125.601 46.845 127.53 48.8751 125.48C50.9051 123.43 51.4074 123.477 54.0995 125.666C56.7916 127.855 57.9531 129.512 60.7103 129.678C63.4675 129.845 62.0129 132.638 66.2175 134.715C70.422 136.792 71.5186 149.775 75.1804 151.135C78.8422 152.496 87.2948 156.335 85.8764 160.416C84.458 164.498 80.941 165.189 78.6904 170.653C76.4398 176.116 72.0616 178.4 67.1659 179.008C62.2703 179.616 60.8411 187.652 58.0912 188.984C55.3412 190.315 47.0371 192.378 45.7562 197.013C44.4754 201.648 44.577 208.891 44.577 208.891Z" fill="white"/>
<path d="M51.5864 108.059C51.3818 108.234 51.2246 108.459 51.1293 108.711C51.0341 108.963 51.0038 109.235 51.0412 109.502C51.0787 109.769 51.1827 110.022 51.3436 110.238C51.5046 110.454 51.7174 110.626 51.9623 110.739C54.6087 111.948 58.8508 113.646 60.406 112.914C62.7346 111.819 57.8323 111.917 56.3064 110.565C54.7806 109.213 53.4478 106.461 51.5864 108.059ZM57.7254 117.154C56.3392 115.67 61.172 114.856 62.5877 116.081C64.0033 117.307 65.0007 119.267 63.5502 118.869C62.0997 118.47 58.2777 117.745 57.7254 117.154ZM111.441 86.1748C111.441 86.1748 112.809 84.2867 115.039 84.1789C117.269 84.0711 119.656 86.3387 116.74 88.9133C113.823 91.4878 111.633 87.7936 111.441 86.1748ZM132.528 98.1134C133.266 96.7161 134.269 95.3945 136.508 98.9658C138.747 102.537 141.325 108.052 136.57 107.32C131.815 106.589 134.436 102.985 133.77 101.765C133.104 100.545 133.019 102.809 131.635 102.391C130.251 101.972 131.296 100.447 132.528 98.1134Z" fill="white"/>
<path d="M138.247 89.6797C142.693 92.0955 160.468 108.845 163.808 128.156C163.817 128.205 163.815 128.256 163.804 128.304C163.792 128.353 163.772 128.398 163.742 128.439C163.713 128.479 163.676 128.513 163.634 128.539C163.591 128.565 163.544 128.582 163.495 128.589C162.718 128.71 160.854 128.591 159.157 125.338C159.141 125.309 159.118 125.283 159.09 125.264C159.062 125.245 159.03 125.233 158.996 125.23C158.963 125.226 158.929 125.231 158.897 125.244C158.866 125.256 158.838 125.277 158.816 125.303C158.341 125.87 157.119 127.152 156.393 126.292C155.477 125.207 156.4 121.605 155.268 122.088C154.136 122.571 154.367 123.988 152.543 123.31C150.719 122.633 152.528 120.326 151.314 119.093C150.099 117.86 148.372 118.794 145.852 116.209C143.333 113.625 146.083 120.715 143.163 121.804C140.244 122.892 134.782 123.098 132.49 115.005C130.197 106.913 139.962 114.119 143.199 110.73C146.436 107.342 144.63 107.306 144.771 105.514C144.912 103.723 146.984 103.369 145.099 102.364C143.214 101.358 140.953 101.579 140.126 99.4407C139.299 97.3026 136.08 98.1369 136.224 95.6002C136.33 93.7346 136.978 91.2523 137.314 90.0695C137.34 89.976 137.387 89.8897 137.452 89.817C137.517 89.7443 137.597 89.6871 137.686 89.6497C137.776 89.6122 137.873 89.5955 137.97 89.6007C138.067 89.6059 138.162 89.6329 138.247 89.6797ZM126.089 216.689C122.73 216.114 131.616 209.573 131.827 206.572C132.039 203.571 129.622 201.419 133.338 195.669C137.053 189.919 141.504 191.341 140.427 185.233C139.35 179.125 141.969 175.775 142.606 172.706C143.242 169.636 144.147 166.804 142.477 167.436C140.808 168.068 139.798 167.066 138.477 165.672C137.156 164.277 131.037 166.161 128.17 164.25C125.302 162.34 115.567 156.755 115.752 151.023C115.937 145.291 120.376 141.661 120.517 138.448C120.657 135.235 120.643 132.405 123.196 130.737C125.749 129.069 127.843 129.256 130.223 126.655C132.602 124.055 140.823 123.774 146.534 125.572C152.246 127.37 153.254 128.115 155.995 130.21C158.737 132.305 159.154 133.272 162.924 134.701C166.694 136.13 167.131 141.746 167.056 146.685C166.981 151.624 166.176 173.918 156.903 187.786C147.629 201.653 129.514 217.276 126.089 216.689Z" fill="white"/>
<path d="M171.68 127.253C166.01 106.267 152.404 88.3078 133.737 77.1682C133.383 76.9572 133.027 76.7483 132.668 76.5417C124.119 71.6169 114.758 68.2586 105.028 66.6248C104.169 66.478 103.305 66.3451 102.438 66.2261C91.5721 64.72 80.5163 65.3697 69.9019 68.1381C59.2876 70.9065 49.3228 75.7393 40.577 82.3604C31.8312 88.9815 24.4757 97.261 18.931 106.726C13.3863 116.191 9.76101 126.656 8.26229 137.522C6.76356 148.389 7.42078 159.444 10.1964 170.057C12.972 180.669 17.8116 190.631 24.4387 199.372C31.0657 208.113 39.3503 215.463 48.8189 221.001C58.2876 226.54 68.7548 230.158 79.6224 231.649C80.4907 231.769 81.3577 231.875 82.2235 231.966C95.7061 233.389 109.332 231.51 121.926 226.489C134.52 221.469 145.702 213.459 154.509 203.151C163.315 192.843 169.48 180.547 172.471 167.324C175.463 154.1 175.192 140.348 171.68 127.253ZM156.377 187.819C148.968 200.287 138.143 210.372 125.183 216.882C112.224 223.392 97.6708 226.056 83.2454 224.557C82.3786 224.468 81.5114 224.364 80.6437 224.244C65.8401 222.196 51.9673 215.834 40.7556 205.953C29.544 196.071 21.4898 183.108 17.5977 168.679C17.0613 166.686 16.6083 164.682 16.2387 162.666C14.0604 150.835 14.7219 138.656 18.1686 127.131C21.6152 115.606 27.7487 105.064 36.0645 96.3715C44.3803 87.6792 54.6408 81.0851 66.0021 77.1318C77.3634 73.1784 89.5009 71.9787 101.416 73.6312C102.285 73.7509 103.148 73.8851 104.006 74.0336C113.156 75.5966 121.939 78.8366 129.912 83.5905C130.689 84.0543 131.457 84.5305 132.214 85.0192C148.759 95.6991 160.52 112.376 165.026 131.546C169.532 150.717 166.432 170.887 156.377 187.819Z" fill="#CBDB9F"/>
<g opacity="0.02">
<path d="M132.214 85.0193C131.449 90.8165 129.807 96.4648 127.648 100.936C115.774 125.513 96.0855 143.906 71.6853 156.136C54.7328 164.634 34.3963 167.315 16.2386 162.666C13.5277 161.973 10.863 161.111 8.26007 160.084C6.53517 147.325 7.7856 134.339 11.9136 122.143C16.0415 109.947 22.9351 98.8712 32.055 89.7822C41.175 80.6932 52.274 73.8373 64.484 69.7508C76.694 65.6642 89.6839 64.4579 102.438 66.2261C103.306 66.3459 104.169 66.4788 105.027 66.6248C114.758 68.2586 124.119 71.617 132.668 76.5418C132.746 79.3752 132.594 82.2103 132.214 85.0193Z" fill="white"/>
</g>
<path d="M51.8568 13.6861C44.8822 15.1736 38.7841 19.3708 34.904 25.3545C31.024 31.3382 29.6799 38.6181 31.1674 45.5928C33.6848 57.3966 56.0975 77.3378 64.4046 84.3933C64.7693 84.703 65.2002 84.9248 65.6641 85.0417C66.128 85.1587 66.6126 85.1676 67.0805 85.0678C67.5484 84.968 67.9871 84.7622 68.363 84.4662C68.7388 84.1701 69.0417 83.7918 69.2484 83.3603C73.9541 73.5295 86.2809 46.1793 83.7635 34.3756C83.027 30.922 81.6174 27.6474 79.6154 24.7386C77.6133 21.8299 75.0579 19.3439 72.0951 17.4227C69.1323 15.5015 65.8201 14.1827 62.3476 13.5416C58.8751 12.9005 55.3103 12.9496 51.8568 13.6861ZM59.9364 51.57C57.6995 52.0471 55.3715 51.8501 53.2466 51.0041C51.1217 50.158 49.2954 48.7008 47.9987 46.8168C46.7019 44.9328 45.993 42.7066 45.9615 40.4197C45.93 38.1328 46.5773 35.8879 47.8217 33.9689C49.0661 32.0499 50.8515 30.543 52.9523 29.6387C55.0531 28.7344 57.3748 28.4734 59.6239 28.8887C61.8731 29.3039 63.9485 30.3768 65.5879 31.9716C67.2273 33.5665 68.3569 35.6116 68.834 37.8484C69.4737 40.8479 68.8956 43.9787 67.227 46.552C65.5584 49.1253 62.9359 50.9303 59.9364 51.57Z" fill="#E79470"/>
<path d="M147.3 79.6569C148.717 80.402 149.78 81.6794 150.254 83.208C150.729 84.7365 150.577 86.3911 149.832 87.8077C148.571 90.2052 142.517 93.1521 140.293 94.1718C140.196 94.2166 140.089 94.2383 139.982 94.2354C139.875 94.2325 139.769 94.205 139.674 94.155C139.579 94.105 139.497 94.0339 139.434 93.9471C139.371 93.8603 139.328 93.7601 139.31 93.6543C138.89 91.2443 137.888 84.5861 139.149 82.1886C139.518 81.4872 140.022 80.8653 140.631 80.3585C141.241 79.8516 141.944 79.4697 142.701 79.2346C143.457 78.9995 144.253 78.9158 145.042 78.9883C145.832 79.0607 146.599 79.2879 147.3 79.6569ZM143.253 87.3514C143.707 87.5903 144.222 87.6892 144.733 87.6355C145.243 87.5818 145.726 87.3779 146.121 87.0496C146.516 86.7214 146.804 86.2834 146.95 85.7912C147.096 85.299 147.092 84.7746 146.94 84.2844C146.788 83.7942 146.493 83.3601 146.094 83.0371C145.696 82.7141 145.21 82.5166 144.699 82.4697C144.187 82.4228 143.674 82.5285 143.223 82.7735C142.772 83.0185 142.403 83.3917 142.164 83.846C141.844 84.4552 141.778 85.1668 141.983 85.8242C142.187 86.4816 142.644 87.0309 143.253 87.3514Z" fill="#E79470"/>
<path d="M160.089 150.848C161.506 151.593 162.569 152.871 163.043 154.399C163.518 155.928 163.366 157.582 162.621 158.999C161.36 161.396 155.306 164.343 153.082 165.363C152.985 165.408 152.878 165.43 152.771 165.427C152.664 165.424 152.558 165.396 152.463 165.346C152.368 165.296 152.286 165.225 152.223 165.138C152.16 165.052 152.117 164.951 152.099 164.846C151.679 162.436 150.677 155.777 151.939 153.38C152.308 152.678 152.811 152.057 153.42 151.55C154.03 151.043 154.733 150.661 155.49 150.426C156.247 150.191 157.042 150.107 157.832 150.18C158.621 150.252 159.388 150.479 160.089 150.848ZM156.042 158.543C156.496 158.782 157.011 158.88 157.522 158.827C158.032 158.773 158.516 158.569 158.91 158.241C159.305 157.913 159.593 157.475 159.739 156.982C159.885 156.49 159.881 155.966 159.729 155.476C159.577 154.985 159.283 154.551 158.884 154.228C158.485 153.905 157.999 153.708 157.488 153.661C156.976 153.614 156.463 153.72 156.012 153.965C155.561 154.21 155.192 154.583 154.953 155.037C154.633 155.647 154.568 156.358 154.772 157.015C154.976 157.673 155.433 158.222 156.042 158.543Z" fill="#E79470"/>
<path d="M40.6852 169.527C39.1198 169.861 37.7511 170.803 36.8803 172.146C36.0094 173.489 35.7078 175.123 36.0416 176.688C36.6066 179.337 41.637 183.813 43.5015 185.396C43.5833 185.466 43.68 185.516 43.7842 185.542C43.8883 185.568 43.9971 185.57 44.1021 185.548C44.2071 185.525 44.3056 185.479 44.3899 185.413C44.4743 185.346 44.5423 185.261 44.5886 185.165C45.6448 182.958 48.4115 176.82 47.8465 174.17C47.6812 173.395 47.3648 172.66 46.9154 172.007C46.4661 171.355 45.8926 170.797 45.2276 170.365C44.5626 169.934 43.8192 169.638 43.0398 169.494C42.2604 169.35 41.4603 169.361 40.6852 169.527ZM42.4986 178.029C41.9966 178.137 41.4741 178.092 40.9971 177.902C40.5202 177.713 40.1103 177.386 39.8193 176.963C39.5282 176.54 39.3691 176.04 39.3621 175.527C39.355 175.014 39.5003 174.51 39.7796 174.079C40.0589 173.648 40.4596 173.31 40.9311 173.107C41.4026 172.904 41.9237 172.846 42.4285 172.939C42.9333 173.032 43.3991 173.273 43.7671 173.631C44.135 173.989 44.3886 174.448 44.4956 174.95C44.6392 175.623 44.5095 176.326 44.135 176.903C43.7604 177.481 43.1718 177.886 42.4986 178.029Z" fill="#E79470"/>
<path d="M43.9448 93.3628C53.3301 94.6572 61.9878 88.0983 63.2822 78.7129C64.5767 69.3276 58.0177 60.6699 48.6323 59.3755C39.247 58.081 30.5893 64.64 29.2949 74.0254C28.0005 83.4107 34.5594 92.0683 43.9448 93.3628Z" fill="#F0AF30"/>
<path d="M43.7517 94.759C40.1145 94.2573 36.7078 92.6884 33.9623 90.2505C31.2168 87.8127 29.2558 84.6155 28.3274 81.0632C27.399 77.5109 27.5448 73.7631 28.7464 70.2937C29.948 66.8243 32.1514 63.7891 35.078 61.5719C38.0046 59.3548 41.523 58.0553 45.1881 57.8377C48.8533 57.6201 52.5006 58.4943 55.669 60.3497C58.8373 62.205 61.3843 64.9582 62.9879 68.2611C64.5915 71.564 65.1797 75.2683 64.678 78.9055C64.0001 83.7803 61.4161 88.1872 57.493 91.1593C53.5699 94.1314 48.6281 95.4259 43.7517 94.759ZM48.4393 60.7715C45.3544 60.346 42.2126 60.8449 39.4112 62.205C36.6098 63.5652 34.2747 65.7255 32.701 68.4127C31.1274 71.1 30.386 74.1936 30.5705 77.3022C30.7551 80.4108 31.8573 83.3949 33.7378 85.8771C35.6184 88.3594 38.1927 90.2282 41.1353 91.2473C44.078 92.2664 47.2567 92.3901 50.2696 91.6026C53.2825 90.8152 55.9943 89.152 58.0619 86.8234C60.1296 84.4947 61.4603 81.6052 61.8857 78.5203C62.4514 74.3844 61.3534 70.1929 58.8326 66.8655C56.3117 63.5381 52.574 61.3465 48.4393 60.7715Z" fill="white"/>
<rect x="35.4141" y="62.0165" width="25.465" height="25.465" rx="9.80137" transform="rotate(7.85274 35.4141 62.0165)" fill="#F0AF30"/>
<rect x="45.5283" y="66.953" width="3.67806" height="12.4457" rx="1.83903" transform="rotate(7.85274 45.5283 66.953)" fill="white"/>
<circle cx="45.1898" cy="82.9776" r="1.81397" transform="rotate(111.587 45.1898 82.9776)" fill="white"/>
</g>
<defs>
<clipPath id="clip0_5445_64106">
<rect width="193.964" height="240.457" fill="white" transform="translate(0.71875)"/>
</clipPath>
</defs>
</svg>
