<svg xmlns="http://www.w3.org/2000/svg" width="196" height="196" viewBox="0 0 196 196" fill="none">
  <path d="M102.605 51.4719C106.801 48.1067 113.482 45.4771 118.515 43.5514C133.81 37.6983 153.885 34.9353 169.294 41.7474C170.694 42.3909 172.418 43.2024 173.704 44.0412C173.564 45.1565 173.488 46.3556 173.295 47.4463C173.633 47.4456 174.268 47.4 174.54 47.5379C176.767 47.6079 179.431 47.5937 181.585 47.8798C180.647 54.6938 179.924 62.0347 179.128 68.912L174.568 108.326L171.021 139.157L169.816 149.559C169.628 151.185 169.339 153.137 169.212 154.727C152.087 147.297 137.24 144.028 118.454 145.418C115.547 145.631 112.649 145.964 109.768 146.416C108.883 146.552 107.516 146.723 106.668 146.919C106.52 147.844 106.381 148.366 105.934 149.198C104.413 152.02 100.462 152.057 98.7797 149.371C98.1481 148.364 97.9538 147.397 97.6954 146.246C93.7336 145.174 88.9381 144.749 84.8417 144.637C71.4638 144.34 58.1467 146.527 45.5657 151.085C41.5192 152.532 37.549 154.185 33.6704 156.036C32.1488 156.756 30.6786 157.555 29.1708 158.266C28.978 156.239 28.547 153.646 28.2693 151.59L26.4562 138.158L21.1097 98.3913L16.6366 65.2892L15.1815 54.4944C14.9505 52.7789 14.7129 50.4781 14.4004 48.8469C17.3511 48.4295 20.3203 48.1553 23.2976 48.0252C23.6414 47.9337 24.1223 47.9327 24.4879 47.9153C24.3751 46.9528 24.2911 46.0844 24.0634 45.1377C25.7336 44.4623 27.4422 43.9068 29.1308 43.2762C42.2175 39.2045 52.3203 37.6267 66.1185 37.9112C70.2585 38.004 74.3839 38.4364 78.4531 39.204C88.063 41.0287 95.7794 44.3612 102.605 51.4719Z" fill="#DEE8C0"/>
  <path d="M169.294 41.7422C170.694 42.3857 172.418 43.1972 173.704 44.036C173.564 45.1512 173.488 46.3504 173.295 47.4411C173.633 47.4404 174.268 47.3948 174.54 47.5327C176.767 47.6027 179.431 47.5885 181.585 47.8746C180.647 54.6886 179.924 62.0294 179.128 68.9068L174.568 108.321L171.021 139.152L169.816 149.554C169.628 151.18 169.339 153.132 169.212 154.722C152.087 147.291 137.24 144.023 118.454 145.413C115.547 145.626 112.649 145.959 109.768 146.411C108.883 146.547 107.516 146.718 106.668 146.913C106.52 147.839 106.381 148.36 105.934 149.193C104.413 152.014 100.462 152.052 98.7797 149.366C98.1481 148.358 97.9538 147.392 97.6954 146.241C93.7336 145.169 88.9381 144.744 84.8417 144.632C71.4638 144.335 58.1467 146.522 45.5657 151.08C41.5192 152.527 37.549 154.18 33.6704 156.031C32.1488 156.751 30.6786 157.55 29.1708 158.261C28.978 156.234 28.547 153.641 28.2693 151.585L26.4562 138.153L21.1097 98.3861L16.6366 65.284L15.1815 54.4892C14.9505 52.7737 14.7129 50.4729 14.4004 48.8416C17.3511 48.4243 20.3203 48.1501 23.2976 48.0199C23.6414 47.9284 24.1223 47.9275 24.4879 47.9101C24.3751 46.9476 24.2911 46.0792 24.0634 45.1325C25.7336 44.4571 27.4422 43.9015 29.1308 43.2709C29.6498 45.666 30.0688 49.035 30.4513 51.5096L32.8581 67.0316L39.5067 109.474C40.5695 116.269 41.5443 123.482 42.739 130.223C59.4357 126.109 88.7341 121.41 102.092 135.297C110.493 129.217 122.893 127.095 133.092 126.903C134.108 126.884 137.227 126.917 138.275 127.048C141.565 127.295 144.862 127.403 148.154 127.659C151.825 128.033 154.257 128.432 157.781 129.542C157.919 127.709 158.3 125.285 158.543 123.421L160.017 112.207L164.678 76.6369L168.125 50.2539C168.365 48.4735 168.592 46.6912 168.806 44.9074C168.893 44.212 169.096 42.3443 169.294 41.7422Z" fill="#ACC564"/>
  <path d="M24.0627 45.135C25.7328 44.4596 27.4415 43.904 29.1301 43.2734C29.6491 45.6685 30.0681 49.0374 30.4506 51.512L32.8573 67.0341L39.5059 109.477C40.5687 116.272 41.5435 123.485 42.7383 130.225C59.4349 126.112 88.7333 121.413 102.091 135.299C110.492 129.219 122.892 127.098 133.091 126.905C134.107 126.886 147.69 127.616 148.738 127.747C148.57 128.182 159.447 136.349 148.738 135.299C148.496 137.443 147.789 136.967 147.419 139.022C143.569 139.012 129.374 137.76 125.539 138.248C117.819 139.23 110.369 141.846 102.951 143.936C99.3015 142.432 95.2843 140.802 91.5347 139.595C73.7457 133.861 54.486 135.535 37.8377 143.78L28.8068 78.7329L25.9727 58.4144C25.5534 55.4122 24.7837 50.9546 24.5565 48.0068L23.2969 48.0224C23.6406 47.9309 24.1216 47.93 24.4871 47.9126C24.3744 46.9501 24.2904 46.0817 24.0627 45.135Z" fill="#97B73E"/>
  <path d="M169.293 41.7422C170.693 42.3857 172.417 43.1972 173.703 44.036C173.563 45.1512 173.488 46.3504 173.295 47.4411C173.632 47.4404 174.268 47.3948 174.54 47.5327C174.145 47.5339 173.752 47.526 173.359 47.5092C172.716 52.1619 172.279 57.2507 171.774 61.9603L168.944 88.3443L164.828 126.854C164.254 132.319 163.578 137.894 163.085 143.356C157.387 141.241 153.294 139.969 147.291 138.889C147.372 135.361 148.127 131.028 148.153 127.659C151.824 128.033 154.256 128.432 157.78 129.542C157.919 127.709 158.3 125.285 158.543 123.421L160.017 112.207L164.677 76.6369L168.125 50.2539C168.365 48.4735 168.592 46.6912 168.805 44.9074C168.892 44.212 169.095 42.3443 169.293 41.7422Z" fill="#97B73E"/>
  <path d="M20.9939 51.8297C21.2547 51.8314 21.3049 51.8038 21.5323 51.9245C21.7503 52.0403 21.8471 52.7533 21.8856 52.9993C22.1589 54.746 22.3866 56.5035 22.6485 58.2536L24.4368 70.1407L29.9787 107.303L33.9564 134.91L35.322 144.84C35.545 146.527 35.7434 148.25 35.962 149.941C36.0362 150.514 36.0204 150.908 35.6967 151.371C35.3627 151.397 35.2927 151.425 34.9871 151.276C34.7862 151.024 34.6141 148.378 34.5428 147.8C33.9427 143.11 33.3056 138.424 32.6314 133.743L24.5207 78.4334L21.9406 61.1085L21.0692 55.4181C20.9224 54.4581 20.7651 53.4663 20.6499 52.4992C20.6178 52.2302 20.8179 52.0403 20.9939 51.8297Z" fill="#ACD6C6"/>
  <path d="M176.236 51.1641C176.481 51.189 177.051 51.2633 177.021 51.6263C176.899 53.0485 176.703 54.4741 176.533 55.893L175.133 67.7893L168.291 126.42L166.701 140.022C166.439 142.265 166.199 144.583 165.862 146.816C165.82 147.089 165.73 147.22 165.556 147.419C165.262 147.431 165.281 147.432 165.001 147.336C164.555 146.836 165.091 143.718 165.184 142.934L165.952 136.471L168.381 115.7L173.283 73.8699C174.113 66.7549 174.886 59.625 175.769 52.5151C175.84 51.9434 175.815 51.5735 176.236 51.1641Z" fill="#ACD6C6"/>
  <path d="M127.69 141.583C128.901 141.493 130.173 141.531 131.419 141.533C142.209 141.542 152.931 143.855 162.837 148.11C163.154 148.247 163.468 148.465 163.568 148.803C163.449 149.102 163.445 149.078 163.181 149.273C162.618 149.457 159.266 147.878 158.399 147.559C155.252 146.437 152.047 145.486 148.797 144.712C138.967 142.461 128.797 142.103 118.833 143.656C117.031 143.943 115.239 144.288 113.459 144.689C112.54 144.893 110.959 145.715 110.488 144.738C110.497 144.633 110.481 144.41 110.575 144.373C115.285 142.601 122.912 141.872 127.69 141.583Z" fill="#ACD6C6"/>
  <path d="M72.9116 140.351L73.0412 140.348C75.5135 140.295 88.5666 140.787 89.8422 142.005C89.9316 142.306 89.9463 142.167 89.8147 142.437C88.9778 143.067 86.5016 142.369 85.3938 142.222C83.0327 141.913 80.6599 141.702 78.2814 141.589C69.8253 141.193 62.1587 142.193 53.98 144.18C50.4739 145.119 47.017 146.255 43.6499 147.611C42.8442 147.936 41.6465 148.598 40.8089 148.704C40.4331 148.548 40.592 148.662 40.3286 148.329C40.1812 147.463 42.6502 146.821 43.3871 146.505C52.9438 142.417 62.6068 140.869 72.9116 140.351Z" fill="#ACD6C6"/>
  <path d="M102.543 53.4453C102.708 53.4747 102.869 53.5116 103.034 53.547L103.144 53.7337C103.2 55.4039 102.913 58.9146 102.824 60.6942C102.622 64.9969 102.457 69.3011 102.329 73.6065C101.976 86.8256 101.973 100.052 102.321 113.271C102.405 116.732 102.524 120.193 102.678 123.652C102.748 125.245 102.84 126.877 102.885 128.474C102.894 128.754 102.817 128.909 102.667 129.131C102.494 129.046 102.12 128.914 102.11 128.678C101.835 121.812 101.498 114.893 101.366 108.02C101.086 92.5394 101.304 77.0531 102.022 61.5858C102.082 60.3682 102.207 54.2668 102.543 53.4453Z" fill="#7DA50E"/>
  <path d="M125.521 114.114C126.357 113.977 127.738 114.094 128.625 114.076C136.496 113.922 144.397 115.434 151.751 118.209C152.428 118.466 153.644 118.764 153.88 119.523L153.787 119.698C153.153 119.854 151.778 119.089 151.059 118.821C149.387 118.201 147.691 117.645 145.977 117.152C141.998 116.024 138.739 115.531 134.683 115.072C134.433 115.027 132.596 114.948 132.266 114.928C126.478 114.63 120.676 115.149 115.032 116.468C112.927 116.956 110.849 117.554 108.806 118.258C108.083 118.501 106.723 119.192 106.06 119.093C105.834 118.861 105.898 119 105.895 118.652C106.492 117.975 111.45 116.563 112.668 116.211C116.84 115.005 121.206 114.479 125.521 114.114Z" fill="#7DA50E"/>
  <path d="M69.1469 90.5758C70.6944 90.4788 73.2052 90.6487 74.7886 90.7498C80.1887 91.1329 85.5185 92.1997 90.65 93.9246C91.4849 94.2029 93.0755 94.6735 93.629 95.3032L93.6155 95.5088C93.5071 95.5894 93.2458 95.7118 93.1248 95.6659C85.2641 92.6723 77.8491 91.3722 69.3809 91.3913C62.8156 91.3595 55.7032 92.839 49.5038 94.928C48.349 95.3171 47.0597 96.0333 45.8932 96.2965C45.539 96.1262 45.6543 96.2525 45.4883 95.9529L45.5993 95.7165C46.1084 95.2928 47.8881 94.679 48.6027 94.412C55.6352 91.7843 61.7615 90.9413 69.1469 90.5758Z" fill="#7DA50E"/>
  <path d="M67.6161 114.115C68.5305 113.98 70.31 114.065 71.2733 114.066C78.0742 114.022 84.8348 115.112 91.2776 117.29C91.9478 117.515 94.4909 118.16 94.4961 118.906C93.8772 119.351 91.6224 118.276 90.8122 117.997C84.762 115.916 79.1388 115.154 72.8044 114.837C70.9964 114.721 69.6791 114.853 67.887 114.948C62.801 115.215 57.6955 116.114 52.8267 117.636C51.654 118 50.4923 118.399 49.3428 118.831C48.5756 119.123 47.1862 120.035 46.5621 119.546C46.4355 119.031 46.9015 118.933 47.3399 118.746C53.9404 115.929 60.5316 114.737 67.6161 114.115Z" fill="#7DA50E"/>
  <path d="M129.136 90.5794C130.223 90.5045 131.852 90.6185 132.98 90.6747C139.364 90.9506 145.67 92.1954 151.68 94.3664C152.443 94.6399 154.236 95.231 154.818 95.6915C154.923 96.0419 154.933 95.8801 154.837 96.1931C154.241 96.4209 153.285 95.8505 152.671 95.609C151.648 95.2027 150.613 94.8272 149.567 94.4827C144.307 92.7645 138.841 91.7566 133.314 91.4853C127.932 91.0019 120.501 91.9363 115.281 93.195C113.736 93.5544 112.209 93.9847 110.703 94.4849C109.742 94.8063 107.755 95.6857 106.854 95.6108L106.881 95.2254L106.826 95.2812C107.532 94.542 108.675 94.3521 109.678 93.9929C116.344 91.6066 122.17 90.9144 129.136 90.5794Z" fill="#7DA50E"/>
  <path d="M127.639 78.1335C128.487 77.9937 130.039 78.1072 130.935 78.0864C138.954 77.9008 146.992 79.4501 154.474 82.3044C155.082 82.5361 156.223 82.9409 156.431 83.5997C155.843 83.8921 153.915 82.9908 153.192 82.714C147.879 80.6807 142.968 79.7429 137.357 79.0918C135.457 78.9511 133.297 78.7517 131.416 78.7923C124.831 78.9345 118.222 79.903 111.975 82.025C110.985 82.3611 109.703 82.9359 108.697 83.1234C108.332 83.0072 108.437 83.1173 108.26 82.8704L108.29 82.7553C108.811 82.1693 110.181 81.7924 110.956 81.5103C116.593 79.4602 121.73 78.6749 127.639 78.1335Z" fill="#7DA50E"/>
  <path d="M64.8613 78.1298C65.4962 78.0316 67.4325 78.0907 68.1441 78.0751C74.6658 77.9395 81.2691 78.8972 87.4908 80.8547C88.3659 81.13 91.8706 82.0748 92.1228 82.8386L92.0189 83.0218C91.8673 83.0832 91.6882 83.1854 91.5175 83.117C84.7877 80.4181 78.1719 79.2702 70.9639 78.8479C66.0666 78.445 57.989 79.588 53.267 80.8063C51.333 81.2999 49.4255 81.8923 47.5521 82.5811C46.7319 82.8793 44.8737 83.8082 44.1025 83.6631L44.0234 83.5386C44.3029 82.7038 46.3553 82.1737 47.154 81.8663C52.9594 79.6318 58.6988 78.687 64.8613 78.1298Z" fill="#7DA50E"/>
  <path d="M125.603 102.729C131.439 102.424 137.289 102.909 142.996 104.17C144.68 104.547 153.279 106.894 153.901 107.875C153.879 108.18 153.938 108.055 153.722 108.264C152.993 108.389 152.037 107.785 151.335 107.526C150.353 107.165 149.38 106.809 148.384 106.482C143.878 105.005 139.213 104.06 134.487 103.669C128.506 103.082 121.983 103.574 116.119 104.82C114.549 105.154 112.993 105.549 111.455 106.007C110.304 106.356 109.167 106.742 108.027 107.123C107.413 107.328 106.678 107.811 106.04 107.676C105.85 107.428 105.89 107.565 105.92 107.25C106.383 106.734 107.908 106.309 108.609 106.067C114.088 104.16 119.809 103.035 125.603 102.729Z" fill="#7DA50E"/>
  <path d="M65.9107 65.5042C67.1416 65.4511 69.9137 65.5858 71.1955 65.6795C76.6136 66.0805 81.9567 67.1851 87.0896 68.9656C87.7668 69.197 89.25 69.639 89.6683 70.1219C89.6653 70.4117 89.7046 70.2787 89.5264 70.5276C88.9558 70.7163 87.6363 70.0225 86.9874 69.7911C85.5437 69.2783 84.0806 68.8217 82.6014 68.4224C76.3331 66.7294 71.373 66.3139 64.9612 66.3227C58.5811 66.3393 51.6592 67.7571 45.6567 69.8464C44.5259 70.24 43.2023 70.9141 42.0636 71.1683C41.7798 71.1187 41.7937 71.1342 41.5898 70.934C41.5994 70.8319 41.5777 70.7237 41.6926 70.6674C49.2368 66.9733 57.6004 65.7844 65.9107 65.5042Z" fill="#7DA50E"/>
  <path d="M133.597 65.4996C133.733 65.4947 133.848 65.4911 133.984 65.4925C141.249 65.5649 148.511 66.6867 155.344 69.1984C156.184 69.507 158.221 70.1229 158.774 70.6999C158.754 71.0213 158.803 70.8724 158.589 71.1488C158.013 71.2633 156.086 70.3231 155.437 70.0791C153.787 69.4708 152.112 68.9346 150.416 68.472C145.343 67.0849 142.039 66.7689 136.88 66.329C135.244 66.3213 133.242 66.2646 131.631 66.3336C126.861 66.5331 122.128 67.265 117.521 68.5157C116.354 68.8335 115.317 69.1392 114.181 69.5397C113.238 69.8721 112.091 70.3472 111.142 70.5825C110.848 70.5079 110.974 70.5811 110.766 70.329L110.833 70.0887C111.347 69.5714 112.969 69.0913 113.722 68.8272C120.469 66.462 126.531 65.7353 133.597 65.4996Z" fill="#7DA50E"/>
  <path d="M67.7174 102.73C75.4573 102.301 83.2103 103.293 90.5927 105.657C91.4541 105.931 93.8072 106.662 94.4538 107.154C94.5347 107.474 94.5361 107.316 94.4276 107.646C94.2716 107.715 94.1416 107.79 93.9572 107.716C87.0389 104.947 80.2589 103.774 72.8291 103.441C71.5112 103.328 70.005 103.421 68.6748 103.487C63.3605 103.712 58.0966 104.615 53.011 106.174C51.982 106.488 46.9989 108.571 46.5215 108.084C46.6249 107.404 47.9174 107.164 48.5063 106.923C54.6295 104.406 61.1293 103.155 67.7174 102.73Z" fill="#7DA50E"/>
  <path d="M62.1855 53.0599C63.2615 52.977 64.6738 53.0116 65.8018 52.9969C73.3827 52.8987 80.9701 54.3351 88.0617 56.9903C88.5003 57.1544 88.9193 57.3455 89.0984 57.7766L88.9952 57.9624C88.5563 58.1405 87.4607 57.6611 86.9734 57.4764C80.5261 55.0324 74.1152 54.073 67.2562 53.7481C61.3284 53.4417 54.2995 54.5691 48.5964 56.1811C47.2336 56.5664 42.0735 58.5691 41.334 58.553C41.135 58.5486 41.2098 58.5729 41.0684 58.4285C41.1234 57.9473 41.575 57.7903 41.9917 57.6192C48.515 54.9403 55.1461 53.4975 62.1855 53.0599Z" fill="#7DA50E"/>
  <path d="M130.982 53.0616C133.013 52.9428 136.75 52.9666 138.725 53.0952C144.98 53.4966 151.138 54.8385 156.993 57.0754C157.567 57.2942 158.995 57.7286 159.353 58.1352C159.386 58.4373 159.412 58.2849 159.178 58.5861C159.038 58.6404 158.859 58.6775 158.721 58.6183C157.576 58.1306 156.392 57.6947 155.224 57.2824C150.348 55.5448 145.266 54.447 140.107 54.0166C132.892 53.1744 125.119 54.0706 118.131 55.9797C116.98 56.2942 112.28 57.9801 111.64 57.9779C111.429 57.9772 111.402 57.9853 111.25 57.8306C111.414 57.1492 113.525 56.5616 114.199 56.3352C119.615 54.4754 125.264 53.3737 130.982 53.0616Z" fill="#7DA50E"/>
</svg>