<svg width="24" height="21" viewBox="0 0 24 21" fill="none" xmlns="http://www.w3.org/2000/svg">
<mask id="mask0_7030_37385" style="mask-type:luminance" maskUnits="userSpaceOnUse" x="6" y="0" width="19" height="21">
<path d="M23.0005 0.015625H7.08475C6.52665 0.015625 6.07422 0.468053 6.07422 1.02615V19.9735C6.07422 20.5316 6.52665 20.984 7.08475 20.984H23.0005C23.5586 20.984 24.0111 20.5316 24.0111 19.9735V1.02615C24.0111 0.468053 23.5586 0.015625 23.0005 0.015625Z" fill="white"/>
</mask>
<g mask="url(#mask0_7030_37385)">
<path d="M15.0426 5.19482H6.07422V10.5001H15.0426V5.19482Z" fill="url(#paint0_linear_7030_37385)"/>
</g>
<mask id="mask1_7030_37385" style="mask-type:luminance" maskUnits="userSpaceOnUse" x="6" y="0" width="19" height="21">
<path d="M23.0005 0.015625H7.08475C6.52665 0.015625 6.07422 0.468053 6.07422 1.02615V19.9735C6.07422 20.5316 6.52665 20.984 7.08475 20.984H23.0005C23.5586 20.984 24.0111 20.5316 24.0111 19.9735V1.02615C24.0111 0.468053 23.5586 0.015625 23.0005 0.015625Z" fill="white"/>
</mask>
<g mask="url(#mask1_7030_37385)">
<path d="M24.0114 5.19482H15.043V10.5001H24.0114V5.19482Z" fill="url(#paint1_linear_7030_37385)"/>
</g>
<mask id="mask2_7030_37385" style="mask-type:luminance" maskUnits="userSpaceOnUse" x="6" y="0" width="19" height="21">
<path d="M23.0005 0.015625H7.08475C6.52665 0.015625 6.07422 0.468053 6.07422 1.02615V19.9735C6.07422 20.5316 6.52665 20.984 7.08475 20.984H23.0005C23.5586 20.984 24.0111 20.5316 24.0111 19.9735V1.02615C24.0111 0.468053 23.5586 0.015625 23.0005 0.015625Z" fill="white"/>
</mask>
<g mask="url(#mask2_7030_37385)">
<path d="M15.0426 -0.110352H6.07422V5.19491H15.0426V-0.110352Z" fill="url(#paint2_linear_7030_37385)"/>
</g>
<mask id="mask3_7030_37385" style="mask-type:luminance" maskUnits="userSpaceOnUse" x="6" y="0" width="19" height="21">
<path d="M23.0005 0.015625H7.08475C6.52665 0.015625 6.07422 0.468053 6.07422 1.02615V19.9735C6.07422 20.5316 6.52665 20.984 7.08475 20.984H23.0005C23.5586 20.984 24.0111 20.5316 24.0111 19.9735V1.02615C24.0111 0.468053 23.5586 0.015625 23.0005 0.015625Z" fill="white"/>
</mask>
<g mask="url(#mask3_7030_37385)">
<path d="M24.0114 -0.110352H15.043V5.19491H24.0114V-0.110352Z" fill="url(#paint3_linear_7030_37385)"/>
</g>
<mask id="mask4_7030_37385" style="mask-type:luminance" maskUnits="userSpaceOnUse" x="6" y="0" width="19" height="21">
<path d="M23.0005 0.015625H7.08475C6.52665 0.015625 6.07422 0.468053 6.07422 1.02615V19.9735C6.07422 20.5316 6.52665 20.984 7.08475 20.984H23.0005C23.5586 20.984 24.0111 20.5316 24.0111 19.9735V1.02615C24.0111 0.468053 23.5586 0.015625 23.0005 0.015625Z" fill="white"/>
</mask>
<g mask="url(#mask4_7030_37385)">
<path d="M15.0426 10.5H6.07422V15.8053H15.0426V10.5Z" fill="url(#paint4_linear_7030_37385)"/>
</g>
<mask id="mask5_7030_37385" style="mask-type:luminance" maskUnits="userSpaceOnUse" x="6" y="0" width="19" height="21">
<path d="M23.0005 0.015625H7.08475C6.52665 0.015625 6.07422 0.468053 6.07422 1.02615V19.9735C6.07422 20.5316 6.52665 20.984 7.08475 20.984H23.0005C23.5586 20.984 24.0111 20.5316 24.0111 19.9735V1.02615C24.0111 0.468053 23.5586 0.015625 23.0005 0.015625Z" fill="white"/>
</mask>
<g mask="url(#mask5_7030_37385)">
<path d="M24.0114 10.5H15.043V15.8053H24.0114V10.5Z" fill="url(#paint5_linear_7030_37385)"/>
</g>
<mask id="mask6_7030_37385" style="mask-type:luminance" maskUnits="userSpaceOnUse" x="6" y="0" width="19" height="21">
<path d="M23.0005 0.015625H7.08475C6.52665 0.015625 6.07422 0.468053 6.07422 1.02615V19.9735C6.07422 20.5316 6.52665 20.984 7.08475 20.984H23.0005C23.5586 20.984 24.0111 20.5316 24.0111 19.9735V1.02615C24.0111 0.468053 23.5586 0.015625 23.0005 0.015625Z" fill="white"/>
</mask>
<g mask="url(#mask6_7030_37385)">
<path d="M15.0426 15.8052H6.07422V21.1104H15.0426V15.8052Z" fill="url(#paint6_linear_7030_37385)"/>
</g>
<mask id="mask7_7030_37385" style="mask-type:luminance" maskUnits="userSpaceOnUse" x="6" y="0" width="19" height="21">
<path d="M23.0005 0.015625H7.08475C6.52665 0.015625 6.07422 0.468053 6.07422 1.02615V19.9735C6.07422 20.5316 6.52665 20.984 7.08475 20.984H23.0005C23.5586 20.984 24.0111 20.5316 24.0111 19.9735V1.02615C24.0111 0.468053 23.5586 0.015625 23.0005 0.015625Z" fill="white"/>
</mask>
<g mask="url(#mask7_7030_37385)">
<path d="M24.0114 15.8052H15.043V21.1104H24.0114V15.8052Z" fill="url(#paint7_linear_7030_37385)"/>
</g>
<path d="M11.1216 4.43701H1.01639C0.458287 4.43701 0.00585938 4.88944 0.00585938 5.44754V15.5528C0.00585938 16.1109 0.458287 16.5633 1.01639 16.5633H11.1216C11.6797 16.5633 12.1322 16.1109 12.1322 15.5528V5.44754C12.1322 4.88944 11.6797 4.43701 11.1216 4.43701Z" fill="url(#paint8_linear_7030_37385)"/>
<path d="M11.1216 4.43701H1.01639C0.458287 4.43701 0.00585938 4.88944 0.00585938 5.44754V15.5528C0.00585938 16.1109 0.458287 16.5633 1.01639 16.5633H11.1216C11.6797 16.5633 12.1322 16.1109 12.1322 15.5528V5.44754C12.1322 4.88944 11.6797 4.43701 11.1216 4.43701Z" fill="url(#paint9_radial_7030_37385)"/>
<mask id="mask8_7030_37385" style="mask-type:luminance" maskUnits="userSpaceOnUse" x="0" y="4" width="13" height="13">
<path d="M11.1236 4.43652H1.01834C0.460241 4.43652 0.0078125 4.88895 0.0078125 5.44705V15.5523C0.0078125 16.1104 0.460241 16.5628 1.01834 16.5628H11.1236C11.6817 16.5628 12.1341 16.1104 12.1341 15.5523V5.44705C12.1341 4.88895 11.6817 4.43652 11.1236 4.43652Z" fill="white"/>
</mask>
<g mask="url(#mask8_7030_37385)">
<path d="M3.16602 13.6716L5.28256 10.3688L3.36458 7.34229H4.82631L6.06837 9.62847L7.28517 7.34229H8.73427L6.8077 10.4163L8.92437 13.6716H7.41616L6.04311 11.23L4.66576 13.6716H3.16602Z" fill="url(#paint10_linear_7030_37385)"/>
</g>
<defs>
<linearGradient id="paint0_linear_7030_37385" x1="62.5215" y1="5.19482" x2="500.605" y2="794.512" gradientUnits="userSpaceOnUse">
<stop stop-color="#007438"/>
<stop offset="0.9734" stop-color="#008B44"/>
</linearGradient>
<linearGradient id="paint1_linear_7030_37385" x1="978.843" y1="577.267" x2="522.424" y2="-245.082" gradientUnits="userSpaceOnUse">
<stop stop-color="#00D576"/>
<stop offset="0.97026" stop-color="#00A054"/>
</linearGradient>
<linearGradient id="paint2_linear_7030_37385" x1="62.5214" y1="-0.11034" x2="518.94" y2="822.238" gradientUnits="userSpaceOnUse">
<stop stop-color="#007E42"/>
<stop offset="0.95983" stop-color="#009A50"/>
</linearGradient>
<linearGradient id="paint3_linear_7030_37385" x1="71.4902" y1="-0.11034" x2="527.909" y2="822.238" gradientUnits="userSpaceOnUse">
<stop stop-color="#00AD61"/>
<stop offset="1" stop-color="#00E18C"/>
</linearGradient>
<linearGradient id="paint4_linear_7030_37385" x1="969.875" y1="582.572" x2="527.03" y2="-215.319" gradientUnits="userSpaceOnUse">
<stop stop-color="#003D20"/>
<stop offset="1" stop-color="#004F2A"/>
</linearGradient>
<linearGradient id="paint5_linear_7030_37385" x1="978.843" y1="582.572" x2="535.999" y2="-215.319" gradientUnits="userSpaceOnUse">
<stop stop-color="#00C165"/>
<stop offset="1" stop-color="#008D46"/>
</linearGradient>
<linearGradient id="paint6_linear_7030_37385" x1="969.875" y1="587.877" x2="527.03" y2="-210.014" gradientUnits="userSpaceOnUse">
<stop stop-color="#00522E"/>
<stop offset="1" stop-color="#003B20"/>
</linearGradient>
<linearGradient id="paint7_linear_7030_37385" x1="978.843" y1="587.877" x2="535.999" y2="-210.014" gradientUnits="userSpaceOnUse">
<stop stop-color="#006D3D"/>
<stop offset="1" stop-color="#004C29"/>
</linearGradient>
<linearGradient id="paint8_linear_7030_37385" x1="1372.43" y1="1273.73" x2="26.0895" y2="122.22" gradientUnits="userSpaceOnUse">
<stop stop-color="#008034"/>
<stop offset="1" stop-color="#004F21"/>
</linearGradient>
<radialGradient id="paint9_radial_7030_37385" cx="0" cy="0" r="1" gradientUnits="userSpaceOnUse" gradientTransform="translate(1050.16 1025.59) scale(756.658)">
<stop stop-color="#018137"/>
<stop offset="1" stop-color="#007E35" stop-opacity="0"/>
</radialGradient>
<linearGradient id="paint10_linear_7030_37385" x1="172.853" y1="323.808" x2="567.272" y2="323.808" gradientUnits="userSpaceOnUse">
<stop stop-color="#F0F0F0"/>
<stop offset="1" stop-color="white"/>
</linearGradient>
</defs>
</svg>
