<svg width="353" height="270" viewBox="0 0 353 270" fill="none" xmlns="http://www.w3.org/2000/svg">
<path fill-rule="evenodd" clip-rule="evenodd" d="M176.18 239.741C216.697 239.741 254.009 240.351 283.612 241.362C356.036 199.767 330.959 118.682 304.96 72.8144C268.758 8.99078 183.24 -13.9537 147.856 36.9662C99.8174 106.094 53.4969 81.9712 28.5036 134.491C3.48927 186.99 41.4716 237.32 68.7695 241.383C98.3509 240.351 135.642 239.741 176.18 239.741ZM112.723 62.7314C94.1818 76.9191 63.511 87.8862 53.3293 72.8144C45.7245 61.5526 55.0891 40.4184 73.4413 24.3994C91.7726 8.40138 116.347 -1.30266 129.755 10.4853C145.635 24.4836 126.99 51.8065 112.723 62.7314Z" fill="#F1F6F2"/>
<path fill-rule="evenodd" clip-rule="evenodd" d="M176.181 239.741C272.404 239.741 350.422 243.172 350.422 247.403C350.422 251.634 272.425 255.066 176.181 255.066C79.9573 255.066 1.93945 251.634 1.93945 247.403C1.93945 243.172 79.9573 239.741 176.181 239.741Z" fill="#CBDB9F"/>
<path fill-rule="evenodd" clip-rule="evenodd" d="M232.369 28.1045C275.882 37.8506 303.578 78.0561 306.28 97.4642C307.391 105.421 305.338 86.7919 283.131 69.8045C263.291 54.6275 247.851 51.8278 224.24 49.9965C207.564 48.6914 190.092 46.6495 191.328 36.6508C192.333 28.757 204.275 21.8105 232.369 28.1045ZM118.568 11.8328C126.068 12.2749 130.615 18.4636 130.929 25.5995C131.054 28.6307 128.687 20.6949 120.391 19.6003C115.237 18.9267 114.462 20.4423 112.618 18.2952C110.775 16.1691 112.535 11.475 118.568 11.8328Z" fill="white"/>
<path fill-rule="evenodd" clip-rule="evenodd" d="M71.5984 139.879C77.6529 139.879 82.5971 134.912 82.5971 128.828C82.5971 122.745 77.6529 117.798 71.5984 117.798C65.5438 117.798 60.5996 122.766 60.5996 128.849C60.5996 134.933 65.5438 139.879 71.5984 139.879Z" fill="#97B73E"/>
<path fill-rule="evenodd" clip-rule="evenodd" d="M71.5977 128.47C73.1061 128.47 74.3422 127.228 74.3422 125.713C74.3422 124.197 73.1061 122.955 71.5977 122.955C70.0893 122.955 68.8533 124.197 68.8533 125.713C68.8533 127.228 70.0893 128.47 71.5977 128.47ZM68.8533 129.207H74.3422C75.8506 129.207 77.0866 130.449 77.0866 131.964V134.722H66.0879V131.964C66.1088 130.449 67.3449 129.207 68.8533 129.207Z" fill="white"/>
<path fill-rule="evenodd" clip-rule="evenodd" d="M113.498 47.3437C119.552 47.3437 124.497 42.3759 124.497 36.2925C124.497 30.209 119.552 25.2412 113.498 25.2412C107.443 25.2412 102.499 30.209 102.499 36.2925C102.52 42.3759 107.443 47.3437 113.498 47.3437Z" fill="#97B73E"/>
<path fill-rule="evenodd" clip-rule="evenodd" d="M113.498 24.8418C116.641 24.8418 119.49 26.1258 121.564 28.1887C123.617 30.2516 124.895 33.1144 124.895 36.293C124.895 39.4505 123.617 42.3133 121.564 44.3972C119.511 46.4601 116.662 47.7442 113.498 47.7442C110.335 47.7442 107.507 46.4601 105.433 44.3972C103.38 42.3343 102.102 39.4505 102.102 36.293C102.102 33.1355 103.38 30.2727 105.433 28.1887C107.507 26.1258 110.356 24.8418 113.498 24.8418ZM120.998 28.7781C119.092 26.8626 116.431 25.6627 113.519 25.6627C110.607 25.6627 107.947 26.8626 106.04 28.7781C104.134 30.6937 102.94 33.367 102.94 36.293C102.94 39.2189 104.134 41.8923 106.04 43.8078C107.947 45.7234 110.607 46.9232 113.519 46.9232C116.452 46.9232 119.092 45.7234 120.998 43.8078C122.905 41.8923 124.099 39.2189 124.099 36.293C124.099 33.367 122.905 30.7147 120.998 28.7781Z" fill="#97B73E"/>
<path fill-rule="evenodd" clip-rule="evenodd" d="M113.498 35.935C115.007 35.935 116.243 34.6931 116.243 33.1775C116.243 31.6619 115.007 30.4199 113.498 30.4199C111.99 30.4199 110.754 31.6619 110.754 33.1775C110.754 34.6931 111.99 35.935 113.498 35.935ZM110.754 36.6718H116.243C117.751 36.6718 118.987 37.9137 118.987 39.4293V42.1869H107.988V39.4293C108.009 37.9137 109.245 36.6718 110.754 36.6718Z" fill="white"/>
<path fill-rule="evenodd" clip-rule="evenodd" d="M68.7702 67.8252C74.8248 67.8252 79.769 62.8574 79.769 56.7739C79.769 50.6905 74.8248 45.7227 68.7702 45.7227C62.7157 45.7227 57.7715 50.6905 57.7715 56.7739C57.7924 62.8784 62.7157 67.8252 68.7702 67.8252Z" fill="#97B73E"/>
<path fill-rule="evenodd" clip-rule="evenodd" d="M68.7696 56.4165C70.278 56.4165 71.5141 55.1745 71.5141 53.6589C71.5141 52.1433 70.278 50.9014 68.7696 50.9014C67.2612 50.9014 66.0252 52.1433 66.0252 53.6589C66.0252 55.1745 67.2612 56.4165 68.7696 56.4165ZM66.0252 57.1743H71.5141C73.0225 57.1743 74.2585 58.4162 74.2585 59.9318V62.6894H63.2598V59.9318C63.2807 58.4162 64.5168 57.1743 66.0252 57.1743Z" fill="white"/>
<path fill-rule="evenodd" clip-rule="evenodd" d="M202.431 168.865C202.368 168.739 202.306 168.634 202.264 168.508C202.787 165.834 203.332 163.035 203.898 160.172L202.431 168.865ZM211.356 115.904C211.356 115.609 211.356 115.356 211.335 115.146C211.398 115.041 211.461 114.935 211.545 114.83L211.356 115.904Z" fill="#9E9E9F"/>
<path fill-rule="evenodd" clip-rule="evenodd" d="M196.355 76.785C201.383 84.8051 182.528 105.792 154.245 123.642C125.963 141.493 98.9793 149.471 93.9513 141.43C88.9233 133.41 107.778 112.423 136.061 94.5723C164.343 76.7429 191.327 68.765 196.355 76.785ZM224.323 193.865L234.756 210.558C237.124 214.347 230.65 222.725 220.301 229.271C209.93 235.818 199.623 238.049 197.235 234.239L186.802 217.546C189.169 221.335 199.497 219.125 209.868 212.579C220.217 206.053 226.69 197.675 224.323 193.865Z" fill="#97B73E"/>
<path fill-rule="evenodd" clip-rule="evenodd" d="M209.847 212.6C219.422 206.559 225.686 198.939 224.701 194.813C206.726 158.586 197.298 121.517 196.419 83.627C192.815 93.7099 176.432 109.645 154.246 123.664C131.788 137.831 110.167 145.788 99.6924 144.44C135.622 163.596 164.889 188.245 187.494 218.347C190.72 220.999 200.273 218.642 209.847 212.6Z" fill="#CBDB9F"/>
<path fill-rule="evenodd" clip-rule="evenodd" d="M153.093 107.35L161.599 118.78C159.232 120.422 156.759 122.043 154.224 123.643C150.914 125.748 147.604 127.705 144.357 129.516L138.24 116.738C136.145 112.381 136.92 107.16 141.005 104.592C145.09 102.003 150.223 103.477 153.093 107.35Z" fill="white"/>
<path d="M155.587 78.4276L146.348 43.2109" stroke="#97B73E" stroke-width="0.452" stroke-miterlimit="2.613" stroke-linecap="round"/>
<path d="M133.589 89.7521L81.7168 28.0967" stroke="#97B73E" stroke-width="0.452" stroke-miterlimit="2.613" stroke-linecap="round"/>
<path d="M108.742 106.887L89.6777 91.752" stroke="#97B73E" stroke-width="0.452" stroke-miterlimit="2.613" stroke-linecap="round"/>
<path fill-rule="evenodd" clip-rule="evenodd" d="M126.948 86.413C133.003 86.413 137.947 81.4452 137.947 75.3618C137.947 69.2783 133.003 64.3105 126.948 64.3105C120.893 64.3105 115.949 69.2783 115.949 75.3618C115.949 81.4452 120.893 86.413 126.948 86.413Z" fill="#97B73E"/>
<path fill-rule="evenodd" clip-rule="evenodd" d="M126.948 74.9829C128.456 74.9829 129.692 73.7409 129.692 72.2253C129.692 70.7097 128.456 69.4678 126.948 69.4678C125.439 69.4678 124.203 70.7097 124.203 72.2253C124.182 73.7409 125.418 74.9829 126.948 74.9829ZM124.182 75.7407H129.671C131.18 75.7407 132.416 76.9826 132.416 78.4982V81.2558H121.417V78.4982C121.438 76.9826 122.674 75.7407 124.182 75.7407Z" fill="white"/>
<path fill-rule="evenodd" clip-rule="evenodd" d="M87.1636 206.503C98.1833 206.503 107.129 215.491 107.129 226.564C107.129 237.636 98.1833 246.624 87.1636 246.624C76.1439 246.624 67.1982 237.636 67.1982 226.564C67.1982 215.47 76.1439 206.503 87.1636 206.503Z" fill="#F7D99F"/>
<path fill-rule="evenodd" clip-rule="evenodd" d="M87.1632 209.45C96.5698 209.45 104.175 217.112 104.175 226.564C104.175 236.015 96.5488 243.677 87.1632 243.677C77.7567 243.677 70.1309 236.015 70.1309 226.564C70.1518 217.112 77.7567 209.45 87.1632 209.45Z" fill="white"/>
<path fill-rule="evenodd" clip-rule="evenodd" d="M87.1634 210.629C95.9205 210.629 103.002 217.765 103.002 226.543C103.002 235.342 95.8995 242.456 87.1634 242.456C78.4063 242.456 71.3252 235.321 71.3252 226.543C71.3252 217.765 78.4063 210.629 87.1634 210.629Z" fill="#F0AF30"/>
<path fill-rule="evenodd" clip-rule="evenodd" d="M91.9823 218.333C91.1652 217.912 90.013 217.491 88.4418 217.449V214.839H86.0325V217.66C83.4347 218.249 81.8844 220.122 81.8844 222.543C81.8844 225.048 83.5814 226.332 85.9697 227.469C88.2323 228.458 89.0493 229.279 89.0493 230.521C89.0493 231.763 88.1904 232.71 86.4096 232.71C84.8593 232.71 83.4137 232.163 82.45 231.595L81.7168 234.352C82.6595 234.9 84.2518 235.384 85.823 235.447V238.268H88.2323V235.257C91.0186 234.71 92.6318 232.689 92.6318 230.163C92.6318 227.595 91.3119 226.206 88.3999 224.901C86.4515 223.932 85.404 223.238 85.404 222.101C85.404 221.133 86.242 220.122 87.897 220.122C89.3216 220.122 90.5368 220.649 91.27 221.007L91.9823 218.333Z" fill="white"/>
<path fill-rule="evenodd" clip-rule="evenodd" d="M276.593 239.004C269.323 239.004 263.436 240.331 263.436 241.973C263.436 243.614 269.323 244.962 276.593 244.962C283.863 244.962 289.75 243.635 289.75 241.973C289.729 240.331 283.842 239.004 276.593 239.004ZM276.865 230.416C284.135 230.416 290.022 231.742 290.022 233.405C290.022 235.047 284.135 236.373 276.865 236.373C269.596 236.373 263.709 235.047 263.709 233.405C263.709 231.742 269.596 230.416 276.865 230.416ZM276.132 222.375C283.402 222.375 289.289 223.701 289.289 225.364C289.289 227.006 283.402 228.332 276.132 228.332C268.863 228.332 262.976 227.006 262.976 225.364C262.976 223.722 268.863 222.375 276.132 222.375Z" fill="#D0D9EE"/>
<path fill-rule="evenodd" clip-rule="evenodd" d="M279.149 235.004C271.88 235.004 265.993 236.331 265.993 237.973C265.993 239.614 271.88 240.962 279.149 240.962C286.419 240.962 292.306 239.635 292.306 237.973C292.306 236.331 286.398 235.004 279.149 235.004ZM274.31 226.416C281.579 226.416 287.466 227.742 287.466 229.405C287.466 231.047 281.579 232.373 274.31 232.373C267.04 232.373 261.153 231.047 261.153 229.405C261.153 227.742 267.04 226.416 274.31 226.416ZM273.577 218.375C280.846 218.375 286.733 219.701 286.733 221.364C286.733 223.006 280.846 224.332 273.577 224.332C266.307 224.332 260.42 223.006 260.42 221.364C260.42 219.701 266.307 218.375 273.577 218.375Z" fill="#F7D99F"/>
<path fill-rule="evenodd" clip-rule="evenodd" d="M276.593 248.308C269.323 248.308 263.436 246.982 263.436 245.34V241.972C263.436 243.614 269.323 244.94 276.593 244.94C283.863 244.94 289.75 243.614 289.75 241.972V245.34C289.729 246.982 283.842 248.308 276.593 248.308ZM276.865 239.74C284.135 239.74 290.022 238.414 290.022 236.772V233.404C290.022 235.046 284.135 236.372 276.865 236.372C269.596 236.372 263.709 235.046 263.709 233.404V236.772C263.709 238.393 269.596 239.74 276.865 239.74ZM276.132 231.699C283.402 231.699 289.289 230.373 289.289 228.731V225.363C289.289 227.005 283.402 228.331 276.132 228.331C268.863 228.331 262.976 227.005 262.976 225.363V228.731C262.976 230.373 268.863 231.699 276.132 231.699Z" fill="#AAB9DE"/>
<path fill-rule="evenodd" clip-rule="evenodd" d="M279.149 244.309C271.88 244.309 265.993 242.983 265.993 241.32V237.952C265.993 239.594 271.88 240.941 279.149 240.941C286.419 240.941 292.306 239.615 292.306 237.952V241.32C292.285 242.983 286.398 244.309 279.149 244.309ZM274.31 235.72C281.579 235.72 287.466 234.394 287.466 232.752V229.384C287.466 231.026 281.579 232.352 274.31 232.352C267.04 232.352 261.153 231.026 261.153 229.384V232.752C261.153 234.394 267.04 235.72 274.31 235.72ZM273.577 227.7C280.846 227.7 286.733 226.374 286.733 224.732V221.364C286.733 223.006 280.846 224.332 273.577 224.332C266.307 224.332 260.42 223.006 260.42 221.364V224.732C260.42 226.353 266.307 227.7 273.577 227.7Z" fill="#F0AF30"/>
<path fill-rule="evenodd" clip-rule="evenodd" d="M268.129 219.932C267.815 220.206 267.459 220.585 267.375 221.09L265.573 221.132L265.469 221.911L267.396 221.869C267.689 222.711 268.905 223.195 270.581 223.153C272.298 223.111 273.241 222.542 274.142 221.764C274.917 221.006 275.504 220.732 276.384 220.711C277.222 220.69 277.85 220.964 277.787 221.532C277.725 222.037 277.285 222.521 276.845 222.837L278.709 223.048C279.128 222.732 279.526 222.206 279.631 221.7L281.558 221.658L281.663 220.88L279.589 220.922C279.338 220.016 278.018 219.532 276.279 219.553C274.519 219.595 273.514 220.038 272.487 221.006C271.733 221.658 271.23 221.995 270.434 222.016C269.764 222.037 269.114 221.764 269.177 221.237C269.24 220.774 269.638 220.374 269.931 220.122L268.129 219.932Z" fill="white"/>
<path fill-rule="evenodd" clip-rule="evenodd" d="M295.659 240.646C286.524 240.646 279.129 242.33 279.129 244.393C279.129 246.456 286.524 248.14 295.659 248.14C304.793 248.14 312.188 246.456 312.188 244.393C312.188 242.33 304.793 240.646 295.659 240.646ZM296.015 229.869C305.149 229.869 312.544 231.553 312.544 233.616C312.544 235.678 305.149 237.362 296.015 237.362C286.881 237.362 279.485 235.678 279.485 233.616C279.485 231.532 286.881 229.869 296.015 229.869ZM295.093 219.765C304.227 219.765 311.623 221.449 311.623 223.512C311.623 225.574 304.227 227.258 295.093 227.258C285.959 227.258 278.563 225.574 278.563 223.512C278.563 221.449 285.959 219.765 295.093 219.765Z" fill="#F7D99F"/>
<path fill-rule="evenodd" clip-rule="evenodd" d="M298.885 235.615C289.75 235.615 282.355 237.299 282.355 239.362C282.355 241.425 289.75 243.109 298.885 243.109C308.019 243.109 315.414 241.425 315.414 239.362C315.414 237.299 307.998 235.615 298.885 235.615ZM292.788 224.816C301.922 224.816 309.318 226.5 309.318 228.563C309.318 230.626 301.922 232.31 292.788 232.31C283.654 232.31 276.259 230.626 276.259 228.563C276.28 226.5 283.675 224.816 292.788 224.816ZM291.866 214.733C301.001 214.733 308.396 216.417 308.396 218.48C308.396 220.543 301.001 222.227 291.866 222.227C282.732 222.227 275.337 220.543 275.337 218.48C275.358 216.417 282.753 214.733 291.866 214.733Z" fill="#F7D99F"/>
<path fill-rule="evenodd" clip-rule="evenodd" d="M295.659 252.35C286.524 252.35 279.129 250.666 279.129 248.603V244.372C279.129 246.435 286.524 248.119 295.659 248.119C304.793 248.119 312.188 246.435 312.188 244.372V248.603C312.188 250.687 304.793 252.35 295.659 252.35ZM296.015 241.572C305.149 241.572 312.544 239.888 312.544 237.825V233.594C312.544 235.657 305.149 237.341 296.015 237.341C286.881 237.341 279.485 235.657 279.485 233.594V237.825C279.485 239.888 286.881 241.572 296.015 241.572ZM295.093 231.468C304.227 231.468 311.623 229.784 311.623 227.721V223.49C311.623 225.553 304.227 227.237 295.093 227.237C285.959 227.237 278.563 225.553 278.563 223.49V227.721C278.563 229.805 285.959 231.468 295.093 231.468Z" fill="#F0AF30"/>
<path fill-rule="evenodd" clip-rule="evenodd" d="M298.885 247.319C289.75 247.319 282.355 245.635 282.355 243.572V239.341C282.355 241.403 289.75 243.087 298.885 243.087C308.019 243.087 315.414 241.403 315.414 239.341V243.572C315.414 245.656 307.998 247.319 298.885 247.319ZM292.788 236.541C301.922 236.541 309.318 234.857 309.318 232.794V228.563C309.318 230.626 301.922 232.31 292.788 232.31C283.654 232.31 276.259 230.626 276.259 228.563V232.794C276.28 234.857 283.675 236.541 292.788 236.541ZM291.866 226.437C301.001 226.437 308.396 224.753 308.396 222.69V218.459C308.396 220.522 301.001 222.206 291.866 222.206C282.732 222.206 275.337 220.522 275.337 218.459V222.69C275.358 224.774 282.753 226.437 291.866 226.437Z" fill="#F0AF30"/>
<path fill-rule="evenodd" clip-rule="evenodd" d="M285.037 216.691C284.639 217.028 284.199 217.512 284.073 218.165L281.81 218.207L281.685 219.196L284.115 219.154C284.492 220.207 286.021 220.817 288.116 220.775C290.274 220.733 291.468 220.017 292.579 219.007C293.563 218.059 294.296 217.723 295.386 217.702C296.454 217.681 297.229 218.017 297.146 218.733C297.062 219.365 296.517 219.975 295.972 220.375L298.319 220.628C298.843 220.228 299.345 219.575 299.471 218.922L301.901 218.88L302.027 217.891L299.429 217.954C299.115 216.817 297.46 216.207 295.281 216.249C293.06 216.291 291.803 216.86 290.505 218.08C289.562 218.901 288.912 219.343 287.928 219.365C287.09 219.386 286.273 219.049 286.356 218.375C286.44 217.786 286.943 217.281 287.299 216.986L285.037 216.691Z" fill="white"/>
<path fill-rule="evenodd" clip-rule="evenodd" d="M273.619 220.038C282.46 220.038 289.625 227.237 289.625 236.12C289.625 245.003 282.46 252.202 273.619 252.202C264.778 252.202 257.613 245.003 257.613 236.12C257.634 227.237 264.799 220.038 273.619 220.038Z" fill="#F7D99F"/>
<path fill-rule="evenodd" clip-rule="evenodd" d="M273.619 222.417C281.161 222.417 287.257 228.564 287.257 236.121C287.257 243.699 281.14 249.824 273.619 249.824C266.077 249.824 259.98 243.677 259.98 236.121C259.98 228.543 266.098 222.417 273.619 222.417Z" fill="white"/>
<path fill-rule="evenodd" clip-rule="evenodd" d="M273.62 223.343C280.638 223.343 286.315 229.068 286.315 236.099C286.315 243.151 280.617 248.855 273.62 248.855C266.601 248.855 260.924 243.13 260.924 236.099C260.924 229.068 266.622 223.343 273.62 223.343Z" fill="#F0AF30"/>
<path fill-rule="evenodd" clip-rule="evenodd" d="M277.495 229.532C276.845 229.195 275.923 228.858 274.666 228.816V226.711H272.739V228.963C270.644 229.447 269.408 230.942 269.408 232.879C269.408 234.878 270.77 235.91 272.676 236.815C274.499 237.615 275.148 238.267 275.148 239.278C275.148 240.267 274.457 241.046 273.032 241.046C271.796 241.046 270.623 240.604 269.869 240.162L269.282 242.372C270.036 242.814 271.314 243.214 272.571 243.235V245.488H274.499V243.067C276.719 242.625 278.018 241.004 278.018 238.983C278.018 236.92 276.95 235.805 274.624 234.773C273.074 233.994 272.215 233.447 272.215 232.542C272.215 231.763 272.886 230.963 274.205 230.963C275.358 230.963 276.321 231.384 276.908 231.679L277.495 229.532Z" fill="white"/>
<path d="M209.036 39.1895C217.744 39.1895 224.803 46.2487 224.803 54.9561C224.803 63.6635 217.744 70.7227 209.036 70.7227H193.806L186.848 78.6289C186.794 78.6896 186.694 78.6521 186.694 78.5713V70.1406C180.054 68.2839 175.183 62.1892 175.183 54.9561C175.183 46.2488 182.241 39.1897 190.948 39.1895H209.036Z" fill="#F0AF30"/>
<rect x="197.941" y="45.248" width="4.07161" height="13.7774" rx="2.03581" fill="white"/>
<circle cx="199.991" cy="62.8723" r="2.00807" transform="rotate(103.735 199.991 62.8723)" fill="white"/>
</svg>
