<svg width="64" height="64" viewBox="0 0 64 64" fill="none" xmlns="http://www.w3.org/2000/svg">
<path fill-rule="evenodd" clip-rule="evenodd" d="M44.8596 32.7636C46.8476 29.6561 48 25.9627 48 22C48 10.9543 39.0457 2 28 2C16.9543 2 8 10.9543 8 22C8 30.2013 12.9364 37.2496 20 40.3358V42.5968L18.0613 42.0798C12.9825 40.7254 8 44.5534 8 49.8097V52C8 52.6687 8.3342 53.2932 8.8906 53.6641L19.8829 60.9923C20.8685 61.6494 22.0266 62 23.2111 62H50C53.3137 62 56 59.3137 56 56V43.0041C56 37.9921 52.2897 33.7543 47.3216 33.0919L44.8596 32.7636ZM28 6C19.1634 6 12 13.1634 12 22C12 27.9223 15.2176 33.093 20 35.8595V21C20 16.5817 23.5817 13 28 13C32.4183 13 36 16.5817 36 21V31.5823L40.358 32.1634C42.6335 29.3997 44 25.8594 44 22C44 13.1634 36.8366 6 28 6ZM24 21C24 18.7909 25.7909 17 28 17C30.2091 17 32 18.7909 32 21V33.3333C32 34.3357 32.7421 35.1833 33.7357 35.3158L46.793 37.0568C49.7738 37.4542 52 39.9969 52 43.0041V56C52 57.1046 51.1046 58 50 58H23.2111C22.8163 58 22.4302 57.8831 22.1017 57.6641L12 50.9296V49.8097C12 47.1815 14.4913 45.2676 17.0307 45.9447L21.4847 47.1325C22.0851 47.2926 22.7257 47.1645 23.2185 46.786C23.7112 46.4074 24 45.8214 24 45.2V21Z" fill="#4F555E"/>
</svg>
