<svg width="18" height="18" viewBox="0 0 18 18" fill="none" xmlns="http://www.w3.org/2000/svg">
<g id="tabler-icon-history">
<path id="Vector" d="M8.99976 6.00009V9.00009L10.4998 10.5001M2.28711 8.25005C2.45518 6.60009 3.22481 5.06976 4.44916 3.95103C5.67351 2.83229 7.26688 2.20346 8.92527 2.18452C10.5837 2.16558 12.191 2.75785 13.4406 3.84833C14.6901 4.93881 15.4945 6.45116 15.7002 8.09685C15.9059 9.74254 15.4986 11.4064 14.5559 12.7709C13.6132 14.1354 12.2011 15.1051 10.5891 15.4949C8.97705 15.8848 7.27792 15.6675 5.81586 14.8846C4.3538 14.1017 3.23115 12.8079 2.66211 11.2501M2.28711 15.0001V11.2501H6.03711" stroke="#2D92EF" stroke-width="1.5" stroke-linecap="round" stroke-linejoin="round"/>
</g>
</svg>
