<svg width="12" height="12" viewBox="0 0 12 12" fill="none" xmlns="http://www.w3.org/2000/svg">
<g id="tabler-icon-history">
<path id="Vector" d="M6 4.00006V6.00006L7 7.00006M1.5249 5.50003C1.63695 4.40006 2.15003 3.37984 2.96627 2.63402C3.7825 1.88819 4.84475 1.46898 5.95034 1.45635C7.05593 1.44372 8.12748 1.83857 8.96053 2.56555C9.79359 3.29254 10.3298 4.30077 10.467 5.3979C10.6041 6.49502 10.3326 7.60424 9.70408 8.51392C9.07561 9.42359 8.13422 10.0701 7.05954 10.33C5.98486 10.5899 4.85211 10.445 3.8774 9.92307C2.90269 9.40111 2.15426 8.53858 1.7749 7.50003M1.5249 10V7.50003H4.0249" stroke="#4578C4" stroke-width="0.875" stroke-linecap="round" stroke-linejoin="round"/>
</g>
</svg>
