<svg width="25" height="24" viewBox="0 0 25 24" fill="none" xmlns="http://www.w3.org/2000/svg">
<path d="M4.39202 1.37701C3.10186 1.65035 2.0413 2.53596 1.51103 3.78239C1.21582 4.48214 1.21582 4.41653 1.23222 11.1079C1.25409 18.0069 1.22676 17.4821 1.6477 18.3349C2.0249 19.1003 2.65905 19.7344 3.4244 20.1116C4.24988 20.5216 4.03121 20.5052 8.37183 20.5216L12.2696 20.5435L12.5826 20.5435C12.7948 20.5654 13.6536 20.5435 13.6536 20.5435C13.6536 20.5435 13.5083 19.7501 13.4263 19.6626C13.3202 19.4429 13.2957 19.1585 13.252 18.9125C13.2301 18.7977 13.1703 18.4443 13.1156 18.3787H11.7284L8.23516 18.3513C4.80749 18.324 4.74189 18.324 4.49042 18.2037C4.12961 18.0397 3.76334 17.6789 3.5884 17.3181C3.48774 17.1168 3.43533 16.8948 3.43533 16.6697V10.9165V5.16335C3.43533 4.93826 3.48774 4.71626 3.5884 4.51494C3.76334 4.15413 4.12961 3.79332 4.49042 3.62932C4.65964 3.55011 4.84421 3.50905 5.03105 3.50905H10.8428H16.6546C16.8414 3.50905 17.026 3.55011 17.1952 3.62932C17.556 3.79332 17.9223 4.15413 18.0972 4.51494C18.1979 4.71637 18.2513 4.93814 18.2533 5.16334L18.2776 7.93714C18.294 9.64824 18.3268 11.0915 18.3487 11.1461C18.4088 11.2609 18.6166 11.3375 19.0047 11.3757C19.1742 11.3976 19.4475 11.4577 19.606 11.5179C20.0051 11.6709 20.2129 11.66 20.355 11.4796C20.4698 11.332 20.4698 11.3265 20.4534 7.91527L20.4392 4.95642C20.4377 4.64966 20.3853 4.34527 20.2839 4.05573C19.7865 2.6453 18.6986 1.67221 17.2827 1.38247C16.9109 1.30594 16.1401 1.29501 10.8045 1.30047C5.88445 1.30047 4.68176 1.31688 4.39202 1.37701Z" fill="url(#paint0_linear_1178_14593)" stroke="white" stroke-width="0.908414"/>
<path d="M14.7305 6.8507C14.6082 7.20874 14.5919 7.85768 14.5919 11.4157C14.5919 16.4505 14.5593 16.2939 15.5864 16.2939C16.5809 16.2939 16.5483 16.4505 16.5483 11.3262C16.5483 6.29127 16.5809 6.44791 15.5538 6.44791C14.9832 6.44791 14.8365 6.51505 14.7305 6.8507Z" fill="url(#paint1_linear_1178_14593)" stroke="white" stroke-width="0.319236"/>
<path d="M8.42961 8.32863C8.30732 8.42945 8.29102 8.78527 8.29102 12.2664C8.29102 15.8957 8.29917 16.0974 8.43776 16.1863C8.66603 16.3405 9.9215 16.3287 10.109 16.1804C10.2313 16.0796 10.2476 15.7238 10.2476 12.2427C10.2476 8.61329 10.2394 8.41166 10.1009 8.3227C9.87259 8.16852 8.61711 8.18038 8.42961 8.32863Z" fill="url(#paint2_linear_1178_14593)" stroke="white" stroke-width="0.319236"/>
<path d="M5.2792 10.2266C5.15719 10.3275 5.14092 10.618 5.14092 13.2155C5.14092 16.5899 5.04332 16.2874 6.13323 16.2874C6.70259 16.2874 6.84899 16.2697 6.95473 16.1807C7.07674 16.0799 7.093 15.7893 7.093 13.1918C7.093 9.81745 7.19061 10.1199 6.1007 10.1199C5.53134 10.1199 5.38493 10.1377 5.2792 10.2266Z" fill="url(#paint3_linear_1178_14593)" stroke="white" stroke-width="0.319236"/>
<path d="M11.58 10.2266C11.458 10.3275 11.4417 10.618 11.4417 13.2155C11.4417 16.5899 11.3441 16.2874 12.434 16.2874C13.0034 16.2874 13.1498 16.2697 13.2555 16.1807C13.3775 16.0799 13.3938 15.7893 13.3938 13.1918C13.3938 9.81745 13.4914 10.1199 12.4015 10.1199C11.8321 10.1199 11.6857 10.1377 11.58 10.2266Z" fill="url(#paint4_linear_1178_14593)" stroke="white" stroke-width="0.319236"/>
<path d="M19.1157 13.1649C19.0788 13.2265 18.8388 13.8171 18.5804 14.4755C18.0697 15.7675 17.8359 16.1798 17.3929 16.5736C17.0176 16.8997 16.8515 16.9858 15.3809 17.5765C14.175 18.0687 14.1504 18.081 14.1504 18.2533C14.1504 18.4317 14.1688 18.444 15.4855 18.9731C17.6267 19.8284 17.7498 19.9514 18.6111 22.0987C19.1341 23.4093 19.1464 23.4277 19.3249 23.4277C19.5033 23.4277 19.5094 23.4031 20.0263 22.1357C20.6292 20.6467 20.6662 20.5729 21.0046 20.1852C21.3983 19.7422 21.8044 19.5146 23.1826 18.967C24.5362 18.4317 24.7024 18.3209 24.4809 18.1056C24.4132 18.0441 23.8779 17.8103 23.2872 17.5826C22.0013 17.0842 21.7429 16.9612 21.343 16.6412C20.8692 16.2659 20.6108 15.8229 20.0324 14.4016C19.5402 13.1834 19.491 13.0911 19.3372 13.0726C19.2264 13.0603 19.1526 13.0911 19.1157 13.1649Z" fill="url(#paint5_linear_1178_14593)" stroke="white" stroke-width="0.718589"/>
<path d="M22.4636 11.7362C22.4499 11.7591 22.3606 11.9789 22.2644 12.224C22.0743 12.705 21.9872 12.8585 21.8223 13.0051C21.6826 13.1265 21.6207 13.1585 21.0733 13.3784C20.6244 13.5617 20.6152 13.5662 20.6152 13.6304C20.6152 13.6968 20.6221 13.7014 21.1123 13.8983C21.9093 14.2167 21.9552 14.2625 22.2758 15.0619C22.4705 15.5498 22.4751 15.5566 22.5415 15.5566C22.6079 15.5566 22.6102 15.5475 22.8026 15.0756C23.0271 14.5214 23.0408 14.4939 23.1668 14.3496C23.3134 14.1847 23.4646 14.0999 23.9776 13.8961C24.4815 13.6968 24.5434 13.6556 24.4609 13.5754C24.4357 13.5525 24.2365 13.4655 24.0166 13.3807C23.5379 13.1952 23.4417 13.1494 23.2928 13.0303C23.1164 12.8905 23.0202 12.7256 22.8049 12.1965C22.6217 11.743 22.6034 11.7087 22.5461 11.7018C22.5049 11.6972 22.4774 11.7087 22.4636 11.7362Z" fill="#5C3CC4" stroke="white" stroke-width="0.255864"/>
<defs>
<linearGradient id="paint0_linear_1178_14593" x1="14.5999" y1="17.3729" x2="3.18618" y2="2.57266" gradientUnits="userSpaceOnUse">
<stop stop-color="#4F33B9"/>
<stop offset="0.967393" stop-color="#9261F0"/>
</linearGradient>
<linearGradient id="paint1_linear_1178_14593" x1="15.5701" y1="16.2944" x2="15.5701" y2="6.44738" gradientUnits="userSpaceOnUse">
<stop stop-color="#4F33B9"/>
<stop offset="1" stop-color="#9261F0"/>
</linearGradient>
<linearGradient id="paint2_linear_1178_14593" x1="9.26931" y1="16.2969" x2="9.26931" y2="8.21215" gradientUnits="userSpaceOnUse">
<stop stop-color="#4F33B9"/>
<stop offset="1" stop-color="#9261F0"/>
</linearGradient>
<linearGradient id="paint3_linear_1178_14593" x1="6.11696" y1="16.2944" x2="6.11696" y2="10.1129" gradientUnits="userSpaceOnUse">
<stop stop-color="#4F33B9"/>
<stop offset="1" stop-color="#9261F0"/>
</linearGradient>
<linearGradient id="paint4_linear_1178_14593" x1="12.4177" y1="16.2944" x2="12.4177" y2="10.1129" gradientUnits="userSpaceOnUse">
<stop stop-color="#4F33B9"/>
<stop offset="1" stop-color="#9261F0"/>
</linearGradient>
<linearGradient id="paint5_linear_1178_14593" x1="19.3564" y1="23.4277" x2="8.45456" y2="7.33839" gradientUnits="userSpaceOnUse">
<stop stop-color="#4F33B9"/>
<stop offset="1" stop-color="#9261F0"/>
</linearGradient>
</defs>
</svg>
