<svg width="32" height="32" viewBox="0 0 32 32" fill="none" xmlns="http://www.w3.org/2000/svg">
<g clip-path="url(#clip0_29_23638)">
<path d="M0 6.4C0 2.38776 2.38777 0 6.4 0H20.8C26.9856 0 32 5.0144 32 11.2V25.6C32 29.6122 29.6122 32 25.6 32H11.2C5.0144 32 0 26.9856 0 20.8V6.4Z" fill="url(#paint0_linear_29_23638)"/>
<path d="M25.495 22.214C25.0617 23.5087 23.7075 24.2639 22.4075 23.8323C21.1076 23.4008 20.3492 22.0521 20.7826 20.7574C21.2159 19.4627 22.57 18.7074 23.87 19.139C25.17 19.5166 25.8742 20.8653 25.495 22.214Z" fill="white"/>
<path d="M13.9558 9.47739L11.2424 17.8904C10.8083 19.1368 9.45155 19.8638 8.14912 19.4483C6.84669 19.0329 6.08692 17.7346 6.52109 16.4882L9.2345 8.07522C9.66864 6.82885 11.0253 6.10181 12.3278 6.51726C13.6302 6.88078 14.39 8.17909 13.9558 9.47739Z" fill="white"/>
<path d="M19.4582 15.5125L16.7376 23.9255C16.3023 25.1719 14.942 25.899 13.6362 25.4835C12.3303 25.068 11.5685 23.7697 12.0038 22.5234L14.7244 14.1104C15.1597 12.864 16.52 12.137 17.8258 12.5524C19.1317 12.9159 19.839 14.2142 19.4582 15.5125Z" fill="white"/>
<path d="M9.05326 19.5668C8.89278 19.5668 8.73233 19.5668 8.57185 19.5145C7.93002 19.3049 7.55559 18.6239 7.76954 17.9953C7.93002 17.4714 8.46487 17.1571 8.99975 17.1571C9.53463 16.9476 10.9788 15.8999 11.9415 15.1665C14.9368 12.9663 16.1861 12.2847 17.3628 12.4942C18.0581 12.599 18.486 13.2276 18.379 13.9086C18.272 14.5372 17.6837 14.9564 17.0953 14.904C16.4535 15.0611 14.6159 16.2142 13.4392 17.1047C11.1392 18.7811 9.96254 19.5668 9.05326 19.5668Z" fill="white"/>
</g>
<defs>
<linearGradient id="paint0_linear_29_23638" x1="1.44" y1="2.4" x2="59.04" y2="62.72" gradientUnits="userSpaceOnUse">
<stop stop-color="#0B7763"/>
<stop offset="1" stop-color="#B6DA25"/>
</linearGradient>
<clipPath id="clip0_29_23638">
<rect width="32" height="32" fill="white"/>
</clipPath>
</defs>
</svg>
