<svg width="209" height="34" viewBox="0 0 209 34" fill="none" xmlns="http://www.w3.org/2000/svg">
<g clip-path="url(#clip0_88_25517)">
<path d="M0 6.8C0 2.537 2.537 0 6.8 0H22.1C28.6722 0 34 5.3278 34 11.9V27.2C34 31.463 31.463 34 27.2 34H11.9C5.3278 34 0 28.6722 0 22.1V6.8Z" fill="url(#paint0_linear_88_25517)"/>
<path d="M27.0882 23.6023C26.6278 24.978 25.189 25.7804 23.8078 25.3219C22.4265 24.8633 21.6208 23.4304 22.0812 22.0547C22.5416 20.6791 23.9804 19.8767 25.3617 20.3352C26.7429 20.7364 27.4911 22.1694 27.0882 23.6023Z" fill="white"/>
<path d="M14.8281 10.0696L11.9451 19.0084C11.4838 20.3327 10.0423 21.1052 8.65844 20.6638C7.27461 20.2223 6.46735 18.8429 6.92866 17.5186L9.81165 8.57983C10.2729 7.25556 11.7144 6.48308 13.0983 6.9245C14.4821 7.31074 15.2894 8.69019 14.8281 10.0696Z" fill="white"/>
<path d="M20.6744 16.4821L17.7838 25.4209C17.3213 26.7452 15.876 27.5176 14.4886 27.0762C13.1011 26.6348 12.2917 25.2553 12.7542 23.9311L15.6448 14.9923C16.1073 13.668 17.5526 12.8955 18.94 13.3369C20.3276 13.7232 21.0791 15.1026 20.6744 16.4821Z" fill="white"/>
<path d="M9.61908 20.7897C9.44857 20.7897 9.27809 20.7897 9.10758 20.734C8.42564 20.5114 8.02781 19.7878 8.25513 19.1199C8.42564 18.5633 8.99392 18.2294 9.56223 18.2294C10.1305 18.0067 11.665 16.8935 12.6879 16.1143C15.8704 13.7767 17.1977 13.0524 18.4479 13.2751C19.1867 13.3864 19.6414 14.0543 19.5277 14.7779C19.414 15.4457 18.7889 15.891 18.1638 15.8354C17.4818 16.0024 15.5294 17.2275 14.2792 18.1737C11.8354 19.9548 10.5852 20.7897 9.61908 20.7897Z" fill="white"/>
</g>
<path d="M42.874 11.747C42.874 15.861 45.186 18.411 49.674 19.329L53.516 20.111C55.182 20.451 55.828 21.165 55.828 22.559C55.828 24.157 54.264 25.143 51.782 25.143C49.334 25.143 47.974 24.123 47.974 22.287H42.5C42.5 27.013 46.138 30.039 51.748 30.039C57.528 30.039 61.336 26.877 61.336 22.015C61.336 18.037 59.194 15.895 54.706 14.977L50.932 14.195C49.164 13.821 48.382 13.073 48.382 11.543C48.382 9.877 49.81 8.857 52.054 8.857C54.128 8.857 55.454 9.945 55.454 11.713H60.928C60.928 6.953 57.528 3.961 52.122 3.961C46.716 3.961 42.874 7.191 42.874 11.747Z" fill="black"/>
<path d="M63.4227 21.063C63.4227 26.435 67.3668 30.005 72.8067 30.005C78.2127 30.005 82.1567 26.435 82.1567 21.063C82.1567 15.691 78.2127 12.087 72.8067 12.087C67.3668 12.087 63.4227 15.691 63.4227 21.063ZM68.6928 21.029C68.6928 18.479 70.3587 16.779 72.8067 16.779C75.2207 16.779 76.8868 18.479 76.8868 21.029C76.8868 23.613 75.2207 25.313 72.8067 25.313C70.3587 25.313 68.6928 23.613 68.6928 21.029Z" fill="black"/>
<path d="M96.0819 12.597V21.437C96.0819 24.225 95.1639 25.381 92.9199 25.381C90.7779 25.381 89.8259 24.157 89.8259 21.369V12.597H84.5899V23.273C84.5899 27.455 86.9699 30.039 90.8459 30.039C92.8859 30.039 94.9939 29.087 96.0479 27.693L96.3879 29.597H101.318V12.597H96.0819Z" fill="black"/>
<path d="M116.943 12.597C116.229 12.427 115.549 12.359 114.937 12.359C112.659 12.359 111.163 13.481 110.449 15.147L110.177 12.631H105.247V29.597H110.483V22.219C110.483 18.853 112.285 17.527 115.277 17.527H116.943V12.597Z" fill="black"/>
<path d="M118.175 21.029C118.175 26.469 121.643 30.039 127.015 30.039C131.775 30.039 135.243 27.115 135.583 22.831H130.313C129.973 24.497 128.851 25.347 127.015 25.347C124.771 25.347 123.445 23.749 123.445 21.029C123.445 18.411 124.873 16.745 127.083 16.745C128.885 16.745 129.939 17.561 130.313 19.261H135.583C135.243 14.807 131.911 12.053 126.879 12.053C121.779 12.053 118.175 15.793 118.175 21.029Z" fill="black"/>
<path d="M146.338 30.039C150.996 30.039 154.362 27.625 154.974 23.851H150.18C149.806 25.075 148.412 25.789 146.44 25.789C144.128 25.789 142.87 24.735 142.564 22.491L154.906 22.423V21.097C154.906 15.555 151.574 12.053 146.236 12.053C141.102 12.053 137.532 15.759 137.532 21.063C137.532 26.299 141.204 30.039 146.338 30.039ZM146.27 16.303C148.378 16.303 149.704 17.459 149.704 19.261H142.632C143.04 17.221 144.196 16.303 146.27 16.303Z" fill="black"/>
<path d="M160.985 29.597H166.085L167.717 24.293C168.805 20.723 169.111 19.397 169.247 18.683C169.349 19.397 169.791 21.403 170.641 24.191L172.273 29.597H177.135L183.085 12.597H177.543L175.911 18.139C175.741 18.751 174.925 21.743 174.721 22.967C174.551 21.879 173.735 18.717 173.565 18.139L171.967 12.597H166.595L164.861 18.139C164.113 20.519 163.943 21.165 163.637 22.967C163.365 21.267 162.991 19.601 162.583 18.139L161.019 12.597H155.511L160.985 29.597Z" fill="black"/>
<path d="M187.983 9.945C189.615 9.945 190.941 8.619 190.941 6.953C190.941 5.287 189.615 3.995 187.983 3.995C186.317 3.995 184.991 5.287 184.991 6.953C184.991 8.619 186.317 9.945 187.983 9.945ZM185.399 29.597H190.635V12.597H185.399V29.597Z" fill="black"/>
<path d="M208.061 29.597V25.245H200.241L208.061 16.949V12.597H193.815V16.949H201.431L193.815 25.245V29.597H208.061Z" fill="black"/>
<defs>
<linearGradient id="paint0_linear_88_25517" x1="1.53" y1="2.55" x2="62.73" y2="66.64" gradientUnits="userSpaceOnUse">
<stop stop-color="#0B7763"/>
<stop offset="1" stop-color="#B6DA25"/>
</linearGradient>
<clipPath id="clip0_88_25517">
<rect width="34" height="34" fill="white"/>
</clipPath>
</defs>
</svg>
