<svg width="37" height="37" viewBox="0 0 37 37" fill="none" xmlns="http://www.w3.org/2000/svg">
<path d="M18.4568 26.5433C18.0534 26.5177 17.6733 26.3459 17.3876 26.06L13.8509 22.5241C13.0208 21.6936 12.4248 20.6586 12.1231 19.5237C11.8215 18.3889 11.8249 17.1945 12.1331 16.0614C12.4413 14.9284 13.0433 13.8968 13.8782 13.0711C14.7131 12.2454 15.7513 11.6549 16.8878 11.3592C18.0242 11.0636 19.2185 11.0734 20.3499 11.3876C21.4814 11.7018 22.5097 12.3093 23.331 13.1486C24.1523 13.9879 24.7373 15.0292 25.0268 16.1671C25.3164 17.3051 25.3003 18.4994 24.9801 19.6291M16.0651 17.81C16.0651 18.473 16.3285 19.1089 16.7973 19.5777C17.2662 20.0466 17.9021 20.31 18.5651 20.31C19.2282 20.31 19.864 20.0466 20.3329 19.5777C20.8017 19.1089 21.0651 18.473 21.0651 17.81C21.0651 17.1469 20.8017 16.511 20.3329 16.0422C19.864 15.5734 19.2282 15.31 18.5651 15.31C17.9021 15.31 17.2662 15.5734 16.7973 16.0422C16.3285 16.511 16.0651 17.1469 16.0651 17.81Z" stroke="#8155D9" stroke-width="1.5" stroke-linecap="round" stroke-linejoin="round"/>
<path d="M27.1832 20.1297C27.1637 20.1617 27.0369 20.4691 26.9003 20.8117C26.6305 21.4841 26.5069 21.6987 26.2729 21.9036C26.0746 22.0733 25.9868 22.1181 25.2098 22.4255C24.5726 22.6817 24.5596 22.6881 24.5596 22.7778C24.5596 22.8706 24.5693 22.877 25.265 23.1524C26.3964 23.5975 26.4614 23.6615 26.9166 24.7791C27.1929 25.4611 27.1994 25.4707 27.2937 25.4707C27.388 25.4707 27.3912 25.4579 27.6643 24.7983C27.9829 24.0234 28.0024 23.9849 28.1812 23.7832C28.3893 23.5527 28.6039 23.4342 29.3321 23.1492C30.0473 22.8706 30.1351 22.813 30.0181 22.7009C29.9823 22.6689 29.6995 22.5472 29.3874 22.4287C28.7079 22.1694 28.5713 22.1053 28.36 21.9388C28.1097 21.7435 27.9732 21.513 27.6676 20.7733C27.4075 20.1393 27.3815 20.0912 27.3002 20.0816C27.2417 20.0752 27.2027 20.0912 27.1832 20.1297Z" fill="#8155D9"/>
<path d="M23.6688 22.4591C23.6379 22.5098 23.4373 22.9963 23.2212 23.5386C22.7941 24.6028 22.5986 24.9423 22.2281 25.2667C21.9143 25.5352 21.7754 25.6062 20.5456 26.0927C19.5372 26.4981 19.5166 26.5082 19.5166 26.6501C19.5166 26.7971 19.532 26.8072 20.6331 27.2431C22.4237 27.9475 22.5266 28.0488 23.2469 29.8175C23.6842 30.8969 23.6945 30.9121 23.8437 30.9121C23.993 30.9121 23.9981 30.8918 24.4303 29.8479C24.9345 28.6215 24.9654 28.5607 25.2484 28.2414C25.5777 27.8765 25.9173 27.689 27.0698 27.238C28.2018 26.7971 28.3407 26.7059 28.1555 26.5285C28.0989 26.4778 27.6512 26.2853 27.1573 26.0978C26.0819 25.6873 25.8658 25.5859 25.5314 25.3224C25.1352 25.0133 24.9191 24.6484 24.4355 23.4777C24.0238 22.4743 23.9827 22.3983 23.854 22.3831C23.7614 22.373 23.6997 22.3983 23.6688 22.4591Z" fill="#8155D9"/>
</svg>
