<svg width="1012" height="559" viewBox="0 0 1012 559" fill="none" xmlns="http://www.w3.org/2000/svg">
<path fill-rule="evenodd" clip-rule="evenodd" d="M764.663 456.47C764.187 476.966 780.566 494.123 801.059 494.6C780.567 494.123 763.408 510.502 762.931 530.997C763.408 510.502 747.028 493.344 726.533 492.868C747.025 493.344 764.187 476.965 764.663 456.47Z" fill="#F0AF30"/>
<path d="M652.76 521.791C652.76 521.791 140.388 562.307 112.82 458.272C85.2519 354.237 827.831 346.489 818.168 218.465C808.505 90.4412 348.417 81.1835 348.417 81.1835" stroke="#9B9F9E" stroke-width="3.44824" stroke-dasharray="12.34 12.34"/>
<g clip-path="url(#clip0_1119_8595)">
<rect x="302.766" y="81.2412" width="379.251" height="472.893" rx="18.7284" transform="rotate(-3 302.766 81.2412)" fill="#F7FDE6"/>
<path d="M464.603 485.363L352.387 491.244C347.222 491.514 342.816 487.547 342.547 482.382C342.277 477.218 346.245 472.812 351.409 472.541L463.626 466.66C468.791 466.389 473.196 470.357 473.466 475.521C473.736 480.686 469.768 485.092 464.603 485.363Z" fill="#E6E7E7"/>
<path d="M676.723 507.07L354.101 523.978C348.937 524.248 344.531 520.281 344.26 515.116C343.99 509.952 347.958 505.546 353.122 505.275L675.744 488.367C680.909 488.096 685.315 492.064 685.585 497.228C685.855 502.393 681.888 506.799 676.723 507.07Z" fill="#E6E7E7"/>
</g>
<rect x="302.766" y="81.2412" width="379.251" height="472.893" rx="18.7284" transform="rotate(-3 302.766 81.2412)" stroke="#4F5655" stroke-width="2.58012" stroke-linecap="round" stroke-linejoin="round"/>
<g clip-path="url(#clip1_1119_8595)">
<rect x="373.719" y="49.0547" width="379.251" height="472.893" rx="18.7284" transform="rotate(6 373.719 49.0547)" fill="white"/>
<path d="M470.341 473.5L358.586 461.754C353.443 461.213 349.712 456.605 350.254 451.462C350.795 446.319 355.404 442.588 360.547 443.128L472.302 454.874C477.445 455.415 481.176 460.022 480.635 465.166C480.093 470.309 475.485 474.04 470.341 473.5Z" fill="#E6E7E7"/>
<path d="M676.451 528.126L355.157 494.357C350.013 493.816 346.282 489.208 346.823 484.065C347.364 478.922 351.972 475.19 357.115 475.731L678.41 509.5C683.554 510.041 687.285 514.649 686.744 519.792C686.203 524.936 681.595 528.667 676.451 528.126Z" fill="#E6E7E7"/>
<g clip-path="url(#clip2_1119_8595)">
<path d="M716.331 103.894L404.348 71.103C396.633 70.2921 389.721 75.889 388.91 83.6041L355.122 404.898C354.311 412.613 359.907 419.525 367.622 420.336L679.605 453.126C687.32 453.937 694.232 448.34 695.044 440.625L728.832 119.331C729.643 111.616 724.046 104.705 716.331 103.894Z" fill="#F0F8F6"/>
<path d="M485.365 280.67L485.907 275.52C486.454 270.292 486.523 265.027 486.114 259.788L484.539 240.149L517.509 243.612L511.876 262.493C510.376 267.531 509.347 272.696 508.8 277.924L508.257 283.074C507.489 291.173 508.327 299.343 510.723 307.113C513.118 314.883 517.025 322.1 522.216 328.346C525.202 331.93 527.445 336.074 528.815 340.538C530.185 345.002 530.653 349.695 530.193 354.344C528.042 374.765 508.135 389.403 485.731 387.05C463.327 384.697 446.844 366.204 448.995 345.783C449.514 341.14 450.951 336.647 453.221 332.565C455.49 328.484 458.548 324.896 462.215 322.012C468.602 316.99 473.936 310.752 477.909 303.657C481.882 296.561 484.416 288.749 485.365 280.67V280.67Z" fill="#F0F8F6" stroke="#363E3D" stroke-opacity="0.2" stroke-width="2.58012" stroke-miterlimit="10"/>
<path d="M501.359 240.998C501.359 240.998 498.065 185.258 470.77 149.048" stroke="#363E3D" stroke-opacity="0.2" stroke-width="2.58012" stroke-miterlimit="10"/>
<path d="M507.123 243.266C507.123 243.266 513.824 195.303 546.996 175.263" stroke="#363E3D" stroke-opacity="0.2" stroke-width="2.58012" stroke-miterlimit="10"/>
<path d="M488.287 183.876C488.287 183.876 488.205 179.488 474.955 175.865C461.704 172.242 453.133 170.829 453.133 170.829C453.133 170.829 456.443 175.557 468.761 182.867C481.079 190.176 488.287 183.876 488.287 183.876Z" stroke="#363E3D" stroke-opacity="0.2" stroke-width="2.58012" stroke-miterlimit="10"/>
<path d="M488.282 183.874C488.282 183.874 483.96 177.948 490.024 162.17C493.58 152.78 498.362 143.905 504.247 135.776C504.247 135.776 506.574 155.163 501.896 163.417C497.218 171.67 488.282 183.874 488.282 183.874Z" stroke="#363E3D" stroke-opacity="0.2" stroke-width="2.58012" stroke-miterlimit="10"/>
<path d="M481.48 165.638C481.48 165.638 479.095 141.336 472.092 135.674C465.088 130.013 454.832 123.464 454.832 123.464C454.832 123.464 453.955 147.44 462.916 155.489C468.221 160.289 474.581 163.766 481.48 165.638Z" stroke="#363E3D" stroke-opacity="0.2" stroke-width="2.58012" stroke-miterlimit="10"/>
<path d="M499.039 221.628C499.039 221.628 497.684 213.832 488.113 206.265C478.541 198.697 462.938 191.587 462.938 191.587C462.938 191.587 469.779 204.885 473.578 209.664C477.377 214.443 499.039 221.628 499.039 221.628Z" stroke="#363E3D" stroke-opacity="0.2" stroke-width="2.58012" stroke-miterlimit="10"/>
<path d="M499.028 221.641C498.213 216.201 498.428 210.654 499.662 205.292C501.707 196.216 506.588 180.876 506.588 180.876C506.588 180.876 508.434 199.667 505.484 207.011C502.533 214.355 499.028 221.641 499.028 221.641Z" stroke="#363E3D" stroke-opacity="0.2" stroke-width="2.58012" stroke-miterlimit="10"/>
<path d="M517.777 209.388C517.777 209.388 521.183 197.711 519.998 188.296C518.814 178.881 516.17 167.66 516.17 167.66C516.17 167.66 510.459 190.567 510.868 197.173C511.277 203.779 517.777 209.388 517.777 209.388Z" stroke="#363E3D" stroke-opacity="0.2" stroke-width="2.58012" stroke-miterlimit="10"/>
<path d="M524.471 197.513C524.471 197.513 531.094 191.597 538.277 190.699C545.46 189.801 564.877 191.84 564.877 191.84C558.268 195.683 551.354 198.976 544.208 201.685C534.515 205.129 524.471 197.513 524.471 197.513Z" stroke="#363E3D" stroke-opacity="0.2" stroke-width="2.58012" stroke-miterlimit="10"/>
<path d="M536.355 182.919C536.355 182.919 535.808 172.464 540.217 166.911C544.627 161.357 577.315 161.517 577.315 161.517C577.315 161.517 570.143 172.797 561.78 179.572C553.418 186.347 536.355 182.919 536.355 182.919Z" stroke="#363E3D" stroke-opacity="0.2" stroke-width="2.58012" stroke-miterlimit="10"/>
<path d="M511.038 226.72C511.038 226.72 512.569 222.518 520.403 220.597C528.237 218.676 553.588 221.356 553.588 221.356C547.098 226.524 539.154 229.517 530.878 229.911C517.763 230.17 511.038 226.72 511.038 226.72Z" stroke="#363E3D" stroke-opacity="0.2" stroke-width="2.58012" stroke-miterlimit="10"/>
<path d="M568.465 237.938L571.517 221.48L614.205 225.963L613.761 242.695C613.761 242.695 641.492 272.569 640.145 285.354C638.798 298.14 590.447 397.965 590.447 397.965L558.929 394.654C558.929 394.654 532.475 287.089 533.834 274.189C535.193 261.289 568.465 237.938 568.465 237.938Z" fill="#F0F8F6" stroke="#363E3D" stroke-opacity="0.2" stroke-width="2.58012" stroke-miterlimit="10"/>
<path d="M636.628 285.074L603.5 281.592" stroke="#363E3D" stroke-opacity="0.2" stroke-width="2.58012" stroke-miterlimit="10"/>
<path d="M597.878 280.629L592.527 280.067" stroke="#363E3D" stroke-opacity="0.2" stroke-width="2.58012" stroke-miterlimit="10"/>
<path d="M546.055 286.735L595.567 291.939" stroke="#363E3D" stroke-opacity="0.2" stroke-width="2.58012" stroke-miterlimit="10"/>
<path d="M592.117 331.678L569.684 329.32" stroke="#363E3D" stroke-opacity="0.2" stroke-width="2.58012" stroke-miterlimit="10"/>
<path d="M565.802 328.545L557.977 327.722" stroke="#363E3D" stroke-opacity="0.2" stroke-width="2.58012" stroke-miterlimit="10"/>
<path d="M589 316.888L624.264 320.595" stroke="#363E3D" stroke-opacity="0.2" stroke-width="2.58012" stroke-miterlimit="10"/>
<path d="M585.773 361L557.992 358.08" stroke="#363E3D" stroke-opacity="0.2" stroke-width="2.58012" stroke-miterlimit="10"/>
<path d="M573.465 238.682L593.762 240.815" stroke="#363E3D" stroke-opacity="0.2" stroke-width="2.58012" stroke-miterlimit="10"/>
</g>
</g>
<rect x="373.719" y="49.0547" width="379.251" height="472.893" rx="18.7284" transform="rotate(6 373.719 49.0547)" stroke="#4F5655" stroke-width="2.58012" stroke-linecap="round" stroke-linejoin="round"/>
<path opacity="0.4" d="M996.974 288.062C989.077 292.647 978.979 289.926 974.42 281.984C969.861 274.041 972.567 263.886 980.463 259.3C988.36 254.715 998.458 257.436 1003.02 265.378C1007.58 273.32 1004.87 283.476 996.974 288.062Z" fill="#3C9283"/>
<path opacity="0.4" d="M91.2076 481.596C102.006 481.596 110.759 490.4 110.759 501.26C110.759 512.12 102.006 520.924 91.2076 520.924C80.4097 520.924 71.6562 512.12 71.6562 501.26C71.6562 490.4 80.4097 481.596 91.2076 481.596Z" fill="#3C9283"/>
<path d="M238.164 190.526C230.811 190.526 224.851 196.521 224.851 203.916C224.851 211.311 230.811 217.305 238.164 217.305C245.516 217.305 251.477 211.311 251.477 203.916C251.477 196.521 245.516 190.526 238.164 190.526Z" fill="#E1E4E5"/>
<path d="M12.3609 274.844C5.53364 274.844 -0.000892639 280.411 -0.000892639 287.277C-0.000892639 294.144 5.53364 299.71 12.3609 299.71C19.1881 299.71 24.7227 294.144 24.7227 287.277C24.7227 280.411 19.1881 274.844 12.3609 274.844Z" fill="#E1E4E5"/>
<path opacity="0.4" d="M111.498 117.03C129.499 117.03 144.091 131.706 144.091 149.81C144.091 167.914 129.499 182.59 111.498 182.59C93.4983 182.59 78.9062 167.914 78.9062 149.81C78.9062 131.706 93.4983 117.03 111.498 117.03Z" fill="#B6DA25"/>
<path opacity="0.4" d="M822.763 390.142C812.039 379.357 812.039 361.871 822.763 351.085C833.486 340.3 850.872 340.3 861.595 351.085C872.319 361.871 872.319 379.357 861.595 390.142C850.872 400.927 833.486 400.927 822.763 390.142Z" fill="#B6DA25"/>
<g filter="url(#filter0_d_1119_8595)">
<path d="M814.068 86.0049L745.909 153.51L677.75 86.0049C673.254 81.6301 669.713 76.3719 667.349 70.5613C664.986 64.7507 663.851 58.5136 664.016 52.2428C664.181 45.9721 665.643 39.8034 668.309 34.1253C670.975 28.4472 674.788 23.3827 679.508 19.2507C684.228 15.1186 689.752 12.0086 695.733 10.1165C701.714 8.22429 708.022 7.59097 714.259 8.25636C720.497 8.92175 726.529 10.8714 731.976 13.9827C737.423 17.0939 742.167 21.2993 745.909 26.3339C749.667 21.3358 754.416 17.1672 759.86 14.089C765.303 11.0108 771.323 9.08924 777.543 8.44464C783.763 7.80005 790.049 8.44626 796.008 10.3428C801.967 12.2394 807.47 15.3455 812.174 19.4668C816.877 23.5881 820.679 28.6357 823.341 34.2939C826.004 39.9521 827.47 46.099 827.648 52.3499C827.826 58.6007 826.712 64.821 824.375 70.6214C822.038 76.4218 818.529 81.6774 814.068 86.0594" fill="url(#paint0_linear_1119_8595)"/>
</g>
<path fill-rule="evenodd" clip-rule="evenodd" d="M223.665 345.639C224.094 370.881 245.097 391.183 270.337 390.754C245.098 391.183 224.795 412.186 225.223 437.427C224.795 412.185 203.791 391.884 178.549 392.312C203.787 391.884 224.094 370.881 223.665 345.639Z" fill="#F0AF30"/>
<path d="M800.837 113.086C801.724 113.086 802.468 112.786 803.069 112.185C803.67 111.584 803.97 110.841 803.968 109.956C803.966 109.071 803.665 108.328 803.066 107.727C802.467 107.126 801.724 106.826 800.837 106.826C799.951 106.826 799.208 107.126 798.609 107.727C798.01 108.328 797.709 109.071 797.707 109.956C797.705 110.841 798.006 111.585 798.609 112.188C799.212 112.791 799.955 113.09 800.837 113.086ZM797.707 100.565H803.968V81.7838H797.707V100.565Z" fill="#F0AF30"/>
<path d="M800.839 113.533C801.838 113.533 802.697 113.19 803.386 112.501L800.839 113.533ZM800.839 113.533C800.838 113.533 800.838 113.533 800.837 113.533V113.086L800.84 113.533C800.839 113.533 800.839 113.533 800.839 113.533ZM797.26 100.565V101.013H797.707H803.968H804.415V100.565V81.784V81.3368H803.968H797.707H797.26V81.784V100.565ZM800.838 128.29H800.837C796.566 128.29 792.557 127.479 788.807 125.86C785.048 124.237 781.783 122.039 779.007 119.265C776.232 116.492 774.033 113.227 772.412 109.466C770.795 105.714 769.984 101.705 769.982 97.4349C769.98 93.1653 770.791 89.1567 772.412 85.4046C774.037 81.6436 776.236 78.3783 779.007 75.6048C781.779 72.8315 785.044 70.633 788.807 69.01C792.561 67.3908 796.57 66.58 800.837 66.58C805.105 66.58 809.114 67.3908 812.868 69.01C816.631 70.633 819.896 72.8315 822.668 75.6048C825.439 78.3784 827.639 81.6437 829.266 85.4048C830.889 89.1567 831.699 93.165 831.693 97.4345C831.686 101.705 830.876 105.714 829.262 109.466C827.646 113.227 825.447 116.492 822.668 119.265C819.888 122.039 816.623 124.238 812.868 125.864C809.122 127.485 805.114 128.294 800.838 128.29Z" fill="#FCEFD6" stroke="#F0AF30" stroke-width="0.894352"/>
<defs>
<filter id="filter0_d_1119_8595" x="653.268" y="0.845185" width="185.132" height="166.974" filterUnits="userSpaceOnUse" color-interpolation-filters="sRGB">
<feFlood flood-opacity="0" result="BackgroundImageFix"/>
<feColorMatrix in="SourceAlpha" type="matrix" values="0 0 0 0 0 0 0 0 0 0 0 0 0 0 0 0 0 0 127 0" result="hardAlpha"/>
<feOffset dy="3.57741"/>
<feGaussianBlur stdDeviation="5.36611"/>
<feComposite in2="hardAlpha" operator="out"/>
<feColorMatrix type="matrix" values="0 0 0 0 0 0 0 0 0 0 0 0 0 0 0 0 0 0 0.12 0"/>
<feBlend mode="normal" in2="BackgroundImageFix" result="effect1_dropShadow_1119_8595"/>
<feBlend mode="normal" in="SourceGraphic" in2="effect1_dropShadow_1119_8595" result="shape"/>
</filter>
<linearGradient id="paint0_linear_1119_8595" x1="827.666" y1="64.5164" x2="664" y2="96.9932" gradientUnits="userSpaceOnUse">
<stop stop-color="#E79470"/>
<stop offset="1" stop-color="#D74C10"/>
</linearGradient>
<clipPath id="clip0_1119_8595">
<rect x="302.766" y="81.2412" width="379.251" height="472.893" rx="18.7284" transform="rotate(-3 302.766 81.2412)" fill="white"/>
</clipPath>
<clipPath id="clip1_1119_8595">
<rect x="373.719" y="49.0547" width="379.251" height="472.893" rx="18.7284" transform="rotate(6 373.719 49.0547)" fill="white"/>
</clipPath>
<clipPath id="clip2_1119_8595">
<rect x="390.355" y="69.6343" width="341.814" height="351.158" rx="18.7284" transform="rotate(6 390.355 69.6343)" fill="white"/>
</clipPath>
</defs>
</svg>
