<svg width="299" height="305" viewBox="0 0 299 305" fill="none" xmlns="http://www.w3.org/2000/svg">
<g filter="url(#filter0_dd_4963_55831)">
<path d="M143.172 49.1783L141.052 49.457L134.961 2.48828H137.111L143.172 49.1783Z" fill="#8155D9"/>
<path d="M162.823 137.283C161.36 137.004 159.867 136.815 158.354 136.755C135.074 135.74 115.038 161.628 113.605 194.573C112.171 227.528 129.878 255.058 153.158 256.063C154.671 256.123 156.164 256.083 157.637 255.924C178.947 253.695 196.554 229.051 197.907 198.246C199.251 167.441 183.864 141.374 162.823 137.283ZM197.748 198.246C197.131 212.319 192.772 225.258 185.466 234.714C178.877 243.224 170.726 247.713 162.514 247.354C154.562 247.006 148.61 242.268 145.027 238.347C135.929 228.424 130.943 212.359 131.68 195.369C132.874 167.978 149.008 145.484 166.914 146.261C174.866 146.609 180.808 151.357 184.401 155.268C193.508 165.191 198.495 181.256 197.748 198.246Z" fill="#F7991C"/>
<path d="M167.314 137.144C165.801 137.084 164.308 137.124 162.825 137.283C162.815 137.283 162.815 137.283 162.815 137.283C141.506 139.532 123.909 164.156 122.565 194.961C121.231 225.766 136.609 251.833 157.64 255.924C159.103 256.213 160.596 256.392 162.119 256.461C185.399 257.477 205.435 231.579 206.868 198.634C208.301 165.689 190.594 138.159 167.314 137.144ZM145.646 237.063C136.828 227.448 131.991 211.871 132.707 195.409C133.862 168.854 149.498 147.057 166.856 147.813C174.56 148.152 180.323 152.75 183.806 156.542C192.625 166.157 197.452 181.733 196.735 198.186C196.138 211.822 191.918 224.373 184.832 233.529C178.452 241.781 170.549 246.13 162.586 245.782C154.893 245.453 149.12 240.865 145.646 237.063Z" fill="#FFA726"/>
<path d="M152.285 98.1279L157.182 137.701C154.484 139.015 151.867 139.374 149.319 138.677L144.422 99.1033L152.285 98.1279Z" fill="#E0E0E0"/>
<path d="M153.127 42.2012L159.089 112.789C159.219 114.371 158.084 115.785 156.501 115.984L144.687 117.447C143.105 117.646 141.651 116.551 141.393 114.978L129.966 45.0677C128.901 38.5285 133.48 32.4073 140.059 31.5912C146.638 30.775 152.57 35.5923 153.127 42.2012Z" fill="#16885F"/>
<path d="M159.085 112.789L153.123 42.2012C152.884 39.3247 151.63 36.7966 149.739 34.9155C147.29 32.467 143.777 31.1333 140.055 31.5912C136.461 32.0391 133.466 34.0695 131.664 36.8763C133.087 35.9606 134.74 35.3435 136.531 35.1245C140.254 34.6667 143.767 36.0104 146.216 38.4588C148.097 40.34 149.351 42.868 149.6 45.7345L155.542 116.113L156.487 115.994C158.07 115.775 159.224 114.371 159.085 112.789Z" fill="#16885F"/>
<path d="M186.571 280.92L180.453 281.111L180.748 290.532L186.866 290.341L186.571 280.92Z" fill="#F7C19B"/>
<path d="M181.232 292.164L180.376 293.428L180.157 293.836C180.028 294.075 179.968 294.344 179.988 294.612L180.068 295.657C180.088 295.916 180.317 296.115 180.575 296.095L181.74 296.006L181.72 295.707L182.347 295.657L182.367 295.956L183.77 295.886L183.75 295.647L184.407 295.598L184.427 295.856L185.99 295.737L186.716 294.652C187.99 294.921 189.155 295.279 190.15 295.767C190.2 295.797 191.783 295.687 191.783 295.647L191.763 295.409L192.38 295.359L192.4 295.598C192.917 295.598 193.415 295.558 193.913 295.488L193.893 295.239L194.5 295.2L194.51 295.399C195.037 295.359 195.505 295.269 195.903 295.12L195.893 294.921L196.49 294.801L196.5 294.971C196.849 294.901 197.177 294.772 197.476 294.632L197.426 294.433L197.944 294.174L198.073 294.364C198.64 294.085 199.158 293.796 199.596 293.488C199.596 293.488 199.636 292.671 199.138 292.671L192.708 292.433L184.437 291.915L181.232 292.164Z" fill="#333333"/>
<path d="M179.994 291.676C180.024 292.064 180.093 292.462 180.203 292.84L180.372 293.437C182.821 293.208 185.12 293.228 187.2 293.597C187.628 293.676 188.056 293.766 188.464 293.875C191.997 294.821 195.561 294.363 199.144 292.701L199.104 292.124C199.074 291.696 198.746 291.357 198.327 291.297L195.551 290.939C195.053 290.879 194.565 290.83 194.068 290.77C192.674 290.621 191.37 290.163 190.136 289.456C190.066 289.416 189.997 289.377 189.937 289.337C189.897 289.317 189.857 289.287 189.818 289.267C189.788 289.864 189.27 290.651 189.24 290.69C189.22 290.71 189.2 290.73 189.171 290.72C189.161 290.72 189.141 290.71 189.131 290.71C189.091 290.69 189.091 290.641 189.111 290.601C189.3 290.322 189.688 289.625 189.668 289.168C189.638 289.148 189.609 289.128 189.579 289.118C189.091 289.018 188.295 289.267 187.976 289.396C187.936 289.416 187.897 289.396 187.877 289.357C187.857 289.317 187.877 289.267 187.917 289.257C187.956 289.237 188.703 288.949 189.32 288.939C189.22 288.869 189.121 288.799 189.021 288.73C188.962 288.68 188.892 288.64 188.832 288.59C188.693 288.491 188.563 288.381 188.424 288.272C188.374 288.232 188.315 288.182 188.265 288.142C188.066 287.983 187.877 287.814 187.688 287.635C187.299 287.694 186.832 287.993 186.633 288.152C186.603 288.182 186.553 288.172 186.523 288.142C186.493 288.112 186.503 288.063 186.533 288.033C186.563 288.013 187.061 287.635 187.538 287.515C187.459 287.446 187.389 287.376 187.309 287.296C187.18 287.177 187.021 287.107 186.842 287.117L180.462 287.346C180.233 287.356 180.054 287.555 180.073 287.794L180.153 288.54C180.213 289.098 180.183 289.655 180.073 290.203C179.984 290.68 179.954 291.178 179.994 291.676Z" fill="#58595B"/>
<path d="M189.137 290.69C189.147 290.7 189.167 290.7 189.177 290.7C189.207 290.7 189.226 290.69 189.246 290.671C189.276 290.631 189.794 289.854 189.824 289.247C189.774 289.217 189.724 289.188 189.674 289.148C189.694 289.606 189.306 290.302 189.117 290.581C189.097 290.621 189.097 290.671 189.137 290.69ZM187.883 289.347C187.903 289.387 187.943 289.406 187.982 289.387C188.311 289.257 189.097 289.008 189.585 289.108C189.495 289.048 189.406 288.988 189.326 288.929C188.709 288.929 187.972 289.227 187.923 289.247C187.883 289.257 187.863 289.307 187.883 289.347Z" fill="#231F20"/>
<path d="M186.533 288.123C186.563 288.153 186.603 288.163 186.642 288.133C186.842 287.984 187.309 287.675 187.697 287.616C187.648 287.576 187.608 287.526 187.558 287.486C187.08 287.606 186.583 287.984 186.553 288.004C186.513 288.044 186.503 288.093 186.533 288.123Z" fill="#303030"/>
<path d="M179.994 291.676C180.024 292.064 180.093 292.462 180.203 292.841L180.372 293.438C182.821 293.209 185.12 293.229 187.2 293.597L190.186 291.188C190.355 291.049 190.375 290.79 190.226 290.631L186.842 287.098L180.462 287.327C180.233 287.337 180.054 287.536 180.073 287.774L180.153 288.521C180.213 289.078 180.183 289.636 180.073 290.183C179.984 290.681 179.954 291.178 179.994 291.676Z" fill="#414042"/>
<path d="M186.755 287.396L186.805 287.346L186.765 287.307H186.695L186.705 287.376H186.735L186.755 287.396Z" fill="#58595B"/>
<path d="M180.507 292.98L180.577 292.96L180.607 293.05L180.537 293.069L180.507 292.98ZM180.458 292.801L180.527 292.781L180.557 292.87L180.487 292.89L180.458 292.801ZM180.408 292.622L180.478 292.602C180.487 292.632 180.497 292.661 180.497 292.691L180.428 292.711C180.418 292.681 180.408 292.651 180.408 292.622ZM180.358 292.442L180.428 292.423C180.438 292.452 180.438 292.482 180.448 292.512L180.378 292.532C180.368 292.502 180.368 292.472 180.358 292.442ZM180.318 292.263L180.388 292.253C180.398 292.283 180.398 292.313 180.408 292.343L180.338 292.353C180.328 292.323 180.328 292.293 180.318 292.263ZM180.288 292.084L180.358 292.074C180.358 292.104 180.368 292.134 180.378 292.164L180.308 292.174C180.298 292.144 180.288 292.114 180.288 292.084ZM180.259 291.895L180.328 291.885C180.328 291.915 180.338 291.945 180.338 291.975L180.269 291.985C180.269 291.955 180.269 291.925 180.259 291.895ZM180.239 291.716L180.308 291.706C180.308 291.736 180.318 291.766 180.318 291.795L180.249 291.805C180.249 291.776 180.249 291.746 180.239 291.716ZM180.239 291.616C180.239 291.586 180.239 291.557 180.229 291.527H180.298C180.298 291.557 180.298 291.586 180.308 291.616H180.239ZM180.229 291.437C180.229 291.407 180.229 291.377 180.229 291.348H180.298C180.298 291.377 180.298 291.407 180.298 291.437H180.229ZM180.219 291.248C180.219 291.218 180.219 291.188 180.219 291.158H180.288C180.288 291.188 180.288 291.218 180.288 291.248H180.219ZM180.229 291.069C180.229 291.039 180.229 291.009 180.229 290.979H180.298C180.298 291.009 180.298 291.039 180.298 291.069H180.229ZM180.239 290.88C180.239 290.85 180.239 290.82 180.249 290.79L180.318 290.8C180.318 290.83 180.318 290.86 180.308 290.89L180.239 290.88ZM180.249 290.691C180.249 290.661 180.259 290.631 180.259 290.601L180.328 290.611C180.328 290.641 180.318 290.671 180.318 290.701L180.249 290.691ZM180.269 290.512C180.269 290.482 180.278 290.452 180.278 290.422L180.348 290.432C180.348 290.462 180.338 290.492 180.338 290.521L180.269 290.512ZM180.298 290.322C180.308 290.293 180.308 290.263 180.318 290.233L180.388 290.243C180.378 290.273 180.378 290.303 180.368 290.332L180.298 290.322ZM180.338 290.143C180.348 290.113 180.348 290.084 180.358 290.054L180.428 290.064C180.418 290.094 180.418 290.123 180.408 290.153L180.338 290.143ZM180.368 289.964C180.368 289.934 180.378 289.904 180.378 289.875L180.448 289.884C180.448 289.914 180.438 289.944 180.438 289.974L180.368 289.964ZM180.388 289.785C180.388 289.755 180.398 289.725 180.398 289.695L180.468 289.705C180.468 289.735 180.458 289.765 180.458 289.795L180.388 289.785ZM180.408 289.596C180.408 289.566 180.418 289.536 180.418 289.506H180.487C180.487 289.536 180.487 289.566 180.478 289.596H180.408ZM180.418 289.417C180.418 289.387 180.418 289.357 180.418 289.327H180.487C180.487 289.357 180.487 289.387 180.487 289.417H180.418ZM180.428 289.238C180.428 289.208 180.428 289.178 180.428 289.148H180.497C180.497 289.178 180.497 289.208 180.497 289.238H180.428ZM180.428 289.048C180.428 289.019 180.428 288.989 180.428 288.959H180.497C180.497 288.989 180.497 289.019 180.497 289.048H180.428ZM180.428 288.869C180.428 288.839 180.428 288.81 180.418 288.78H180.487C180.487 288.81 180.487 288.839 180.497 288.869H180.428ZM180.408 288.591L180.478 288.581C180.478 288.61 180.487 288.64 180.487 288.67L180.418 288.68C180.408 288.65 180.408 288.62 180.408 288.591ZM180.388 288.411L180.458 288.401L180.468 288.491L180.398 288.501L180.388 288.411ZM180.368 288.232L180.438 288.222L180.448 288.312L180.378 288.322L180.368 288.232ZM180.348 288.043L180.418 288.033L180.428 288.123L180.358 288.133L180.348 288.043ZM180.328 287.864L180.398 287.854L180.408 287.944L180.338 287.954L180.328 287.864ZM186.519 287.376V287.307H186.609V287.376H186.519ZM186.34 287.386V287.317H186.429V287.386H186.34ZM186.151 287.396V287.327H186.24V287.396H186.151ZM185.962 287.396V287.327H186.051V287.396H185.962ZM185.783 287.406V287.336H185.872V287.406H185.783ZM185.593 287.416V287.346H185.683V287.416H185.593ZM185.414 287.416V287.346H185.504V287.416H185.414ZM185.225 287.426V287.356H185.315V287.426H185.225ZM185.046 287.436V287.366H185.136V287.436H185.046ZM184.857 287.436V287.366H184.946L184.937 287.436H184.857ZM180.318 287.764C180.318 287.725 180.328 287.695 180.348 287.665L180.408 287.695C180.398 287.715 180.388 287.745 180.388 287.764H180.318ZM184.678 287.446V287.376H184.767V287.446H184.678ZM184.489 287.456V287.386H184.578V287.456H184.489ZM184.309 287.456V287.386H184.399L184.389 287.456H184.309ZM184.12 287.466V287.396H184.21V287.466H184.12ZM183.941 287.476V287.406H184.031V287.476H183.941ZM183.752 287.486V287.416H183.842V287.486H183.752ZM183.573 287.486V287.416H183.663V287.486H183.573ZM183.384 287.496V287.426H183.473V287.496H183.384ZM183.195 287.506V287.436H183.284V287.506H183.195ZM183.016 287.506V287.436H183.105V287.506H183.016ZM182.826 287.516V287.446H182.916V287.516H182.826ZM182.647 287.526V287.456H182.737V287.526H182.647ZM182.458 287.526V287.456H182.548V287.526H182.458ZM182.279 287.536V287.466H182.369V287.536H182.279ZM182.09 287.546V287.476H182.18V287.546H182.09ZM181.911 287.546V287.476H182V287.546H181.911ZM181.722 287.555V287.486H181.811V287.555H181.722ZM181.543 287.565V287.496H181.632V287.565H181.543ZM181.353 287.565V287.496H181.443V287.565H181.353ZM180.418 287.585C180.448 287.565 180.478 287.545 180.517 287.536L180.537 287.605C180.507 287.615 180.487 287.625 180.468 287.635L180.418 287.585ZM181.174 287.575V287.506H181.264V287.575H181.174ZM180.985 287.585V287.516H181.075V287.585H180.985ZM180.796 287.585V287.516H180.886V287.585H180.796ZM180.617 287.595V287.526H180.706V287.595H180.617Z" fill="#58595B"/>
<path d="M180.575 293.218L180.644 293.209V293.149H180.624L180.614 293.129L180.555 293.149L180.575 293.218Z" fill="#58595B"/>
<path d="M186.895 293.338L186.905 293.269L186.995 293.279L186.985 293.348L186.895 293.338ZM186.716 293.308L186.726 293.239L186.816 293.249L186.806 293.318L186.716 293.308ZM186.537 293.279L186.547 293.209L186.637 293.219L186.627 293.288L186.537 293.279ZM186.358 293.259L186.368 293.189L186.457 293.199L186.447 293.269L186.358 293.259ZM186.179 293.239L186.189 293.169L186.278 293.179L186.268 293.249L186.179 293.239ZM186 293.219L186.01 293.149L186.099 293.159L186.089 293.229L186 293.219ZM185.82 293.199L185.83 293.129L185.92 293.139L185.91 293.209L185.82 293.199ZM185.641 293.179L185.651 293.109L185.741 293.119L185.731 293.189L185.641 293.179ZM185.452 293.159L185.462 293.089L185.552 293.099L185.542 293.169L185.452 293.159ZM185.273 293.149L185.283 293.079L185.373 293.089L185.363 293.159L185.273 293.149ZM185.094 293.139V293.069L185.183 293.079V293.149L185.094 293.139ZM184.915 293.129V293.06L185.004 293.069V293.139L184.915 293.129ZM184.736 293.119V293.05H184.825V293.119H184.736ZM184.546 293.109V293.04H184.636V293.109H184.546ZM184.367 293.099V293.03H184.457V293.099H184.367ZM184.188 293.089V293.02H184.278V293.089H184.188ZM184.009 293.089V293.02H184.099V293.089H184.009ZM183.82 293.089V293.02H183.909V293.089H183.82ZM183.641 293.079V293.01H183.73V293.079H183.641ZM183.462 293.079V293.01H183.551V293.079H183.462ZM183.282 293.079V293.01H183.372V293.079H183.282ZM183.093 293.089V293.02H183.183V293.089H183.093ZM182.914 293.089V293.02H183.004V293.089H182.914ZM182.735 293.089V293.02H182.825V293.089H182.735ZM182.556 293.099V293.03H182.645V293.099H182.556ZM182.367 293.109V293.04H182.456V293.109H182.367ZM182.188 293.109V293.04H182.277V293.109H182.188ZM182.008 293.119V293.05H182.098V293.119H182.008ZM181.829 293.129V293.06H181.919V293.129H181.829ZM181.64 293.139V293.069L181.73 293.06V293.129L181.64 293.139ZM181.461 293.149V293.079L181.551 293.069V293.139L181.461 293.149ZM180.734 293.139L180.824 293.129L180.834 293.199L180.744 293.209L180.734 293.139ZM181.282 293.159V293.089L181.371 293.079V293.149L181.282 293.159ZM180.914 293.119L181.003 293.109L181.013 293.179L180.923 293.189L180.914 293.119ZM181.103 293.179L181.093 293.109L181.182 293.099V293.169L181.103 293.179Z" fill="#58595B"/>
<path d="M187.138 293.378L187.188 293.338L187.148 293.278L187.118 293.298H187.088L187.078 293.368L187.138 293.378Z" fill="#58595B"/>
<path d="M187.218 293.229L187.288 293.169L187.328 293.219L187.258 293.279L187.218 293.229ZM187.358 293.109L187.427 293.05L187.467 293.099L187.398 293.159L187.358 293.109ZM187.497 293L187.567 292.94L187.607 292.99L187.537 293.05L187.497 293ZM187.646 292.88L187.716 292.821L187.756 292.87L187.686 292.93L187.646 292.88ZM187.786 292.771L187.855 292.711L187.895 292.761L187.826 292.821L187.786 292.771ZM187.925 292.652L187.995 292.592L188.035 292.642L187.965 292.701L187.925 292.652ZM188.064 292.542L188.134 292.482L188.174 292.532L188.104 292.592L188.064 292.542ZM188.204 292.423L188.273 292.363L188.313 292.413L188.244 292.472L188.204 292.423ZM188.353 292.313L188.423 292.253L188.463 292.303L188.393 292.363L188.353 292.313ZM188.492 292.204L188.562 292.144L188.602 292.194L188.532 292.253L188.492 292.204ZM188.632 292.084L188.701 292.024L188.741 292.074L188.672 292.134L188.632 292.084ZM188.771 291.975L188.841 291.915L188.881 291.965L188.811 292.024L188.771 291.975ZM188.92 291.855L188.99 291.796L189.03 291.845L188.96 291.905L188.92 291.855ZM189.06 291.746L189.129 291.686L189.169 291.736L189.1 291.796L189.06 291.746ZM189.199 291.626L189.269 291.567L189.309 291.616L189.239 291.676L189.199 291.626ZM189.338 291.517L189.408 291.457L189.448 291.507L189.378 291.567L189.338 291.517ZM189.488 291.397L189.557 291.338L189.597 291.387L189.528 291.447L189.488 291.397ZM189.627 291.288L189.697 291.228L189.737 291.278L189.667 291.338L189.627 291.288ZM189.766 291.178L189.836 291.119L189.876 291.169L189.806 291.228L189.766 291.178ZM189.906 291.059L189.975 290.999L190.015 291.049L189.946 291.109L189.906 291.059ZM190.025 290.95C190.035 290.93 190.035 290.91 190.035 290.89C190.035 290.88 190.035 290.88 190.035 290.87H190.105C190.105 290.88 190.105 290.89 190.105 290.89C190.105 290.92 190.095 290.95 190.085 290.969L190.025 290.95ZM189.995 290.77L189.966 290.741L190.015 290.691L190.045 290.721C190.055 290.731 190.065 290.75 190.075 290.77L190.015 290.8C190.015 290.79 190.005 290.78 189.995 290.77ZM189.846 290.611L189.896 290.561L189.956 290.631L189.906 290.681L189.846 290.611ZM189.717 290.482L189.766 290.432L189.826 290.502L189.776 290.551L189.717 290.482ZM189.587 290.342L189.637 290.293L189.697 290.362L189.647 290.412L189.587 290.342ZM189.468 290.213L189.518 290.163L189.577 290.233L189.528 290.283L189.468 290.213ZM189.338 290.084L189.388 290.034L189.448 290.104L189.398 290.153L189.338 290.084ZM189.209 289.954L189.259 289.904L189.319 289.974L189.269 290.024L189.209 289.954ZM189.09 289.825L189.139 289.775L189.199 289.845L189.149 289.895L189.09 289.825ZM188.96 289.686L189.01 289.636L189.07 289.705L189.02 289.755L188.96 289.686ZM188.831 289.556L188.881 289.506L188.94 289.576L188.891 289.626L188.831 289.556ZM188.711 289.427L188.761 289.377L188.821 289.447L188.771 289.496L188.711 289.427ZM188.582 289.297L188.632 289.248L188.692 289.317L188.642 289.367L188.582 289.297ZM188.453 289.168L188.502 289.118L188.562 289.188L188.512 289.238L188.453 289.168ZM188.333 289.039L188.383 288.989L188.443 289.058L188.393 289.108L188.333 289.039ZM188.204 288.899L188.254 288.849L188.313 288.919L188.264 288.969L188.204 288.899ZM188.084 288.77L188.134 288.72L188.194 288.79L188.144 288.839L188.084 288.77ZM187.955 288.64L188.005 288.591L188.064 288.66L188.015 288.71L187.955 288.64ZM187.826 288.511L187.875 288.461L187.935 288.531L187.885 288.581L187.826 288.511ZM187.706 288.382L187.756 288.332L187.816 288.402L187.766 288.451L187.706 288.382ZM187.577 288.242L187.627 288.193L187.686 288.262L187.636 288.312L187.577 288.242ZM187.447 288.113L187.497 288.063L187.557 288.133L187.507 288.183L187.447 288.113ZM187.328 287.984L187.378 287.934L187.437 288.003L187.388 288.053L187.328 287.984ZM187.199 287.854L187.248 287.804L187.308 287.874L187.258 287.924L187.199 287.854ZM187.069 287.725L187.119 287.675L187.179 287.745L187.129 287.794L187.069 287.725ZM186.95 287.595L186.999 287.546L187.059 287.615L187.009 287.665L186.95 287.595ZM186.82 287.456L186.87 287.406L186.93 287.476L186.88 287.526L186.82 287.456Z" fill="#58595B"/>
<path d="M188.797 290.611C188.807 290.412 188.977 290.263 189.166 290.273C189.365 290.283 189.514 290.452 189.504 290.641C189.494 290.84 189.325 290.99 189.136 290.98C188.937 290.97 188.787 290.81 188.797 290.611ZM188.907 290.621C188.897 290.751 189.006 290.87 189.136 290.88C189.265 290.89 189.385 290.781 189.395 290.651C189.404 290.522 189.295 290.402 189.166 290.392C189.026 290.382 188.917 290.482 188.907 290.621Z" fill="#E6E7E8"/>
<path d="M187.524 289.367C187.534 289.168 187.703 289.019 187.892 289.029C188.091 289.039 188.241 289.208 188.231 289.397C188.221 289.596 188.051 289.745 187.862 289.735C187.663 289.726 187.514 289.556 187.524 289.367ZM187.633 289.367C187.623 289.497 187.733 289.616 187.862 289.626C187.992 289.636 188.111 289.526 188.121 289.397C188.131 289.268 188.022 289.148 187.892 289.138C187.753 289.138 187.633 289.238 187.633 289.367Z" fill="#E6E7E8"/>
<path d="M189.117 290.591C189.097 290.631 189.097 290.671 189.137 290.701C189.147 290.711 189.167 290.711 189.176 290.711C189.206 290.711 189.226 290.701 189.246 290.681C189.276 290.641 189.794 289.865 189.823 289.258C189.823 289.238 189.823 289.218 189.823 289.198C189.823 289.128 189.813 289.069 189.804 289.009C189.784 288.939 189.764 288.88 189.724 288.83C189.575 288.611 189.276 288.521 188.828 288.571C188.888 288.621 188.958 288.671 189.017 288.71C189.306 288.7 189.495 288.77 189.595 288.909C189.604 288.919 189.614 288.939 189.614 288.949C189.634 288.999 189.654 289.059 189.664 289.118C189.664 289.128 189.664 289.138 189.664 289.148C189.694 289.616 189.306 290.313 189.117 290.591Z" fill="#231F20"/>
<path d="M187.883 289.348C187.903 289.388 187.943 289.407 187.983 289.388C188.311 289.258 189.097 289.009 189.585 289.109C189.615 289.119 189.645 289.119 189.665 289.129C189.724 289.149 189.774 289.169 189.824 289.208C189.844 289.218 189.864 289.238 189.874 289.248C189.894 289.268 189.923 289.298 189.933 289.328C190.003 289.368 190.073 289.407 190.132 289.447C190.113 289.318 190.053 289.218 189.973 289.139C189.923 289.089 189.864 289.049 189.794 289.019C189.734 288.989 189.675 288.979 189.615 288.96C189.525 288.94 189.426 288.93 189.316 288.93C188.699 288.93 187.963 289.228 187.913 289.248C187.883 289.258 187.863 289.308 187.883 289.348Z" fill="#231F20"/>
<path d="M186.243 288.102C186.233 287.903 186.372 287.744 186.571 287.724C186.77 287.714 186.929 287.854 186.949 288.053C186.959 288.252 186.82 288.411 186.621 288.431C186.422 288.441 186.253 288.291 186.243 288.102ZM186.352 288.092C186.362 288.222 186.482 288.331 186.611 288.321C186.74 288.311 186.85 288.192 186.84 288.063C186.83 287.933 186.71 287.824 186.581 287.834C186.442 287.844 186.342 287.963 186.352 288.092Z" fill="#E6E7E8"/>
<path d="M186.533 288.122C186.563 288.152 186.603 288.162 186.642 288.132C186.842 287.983 187.309 287.675 187.697 287.615C187.827 287.595 187.946 287.605 188.036 287.655C188.175 287.724 188.255 287.884 188.275 288.122C188.325 288.162 188.384 288.212 188.434 288.252C188.424 287.874 188.315 287.625 188.106 287.515C187.946 287.436 187.757 287.436 187.558 287.485C187.08 287.605 186.583 287.983 186.553 288.003C186.513 288.043 186.503 288.093 186.533 288.122Z" fill="#231F20"/>
<path d="M202.917 275.192L196.906 276.35L198.689 285.605L204.699 284.448L202.917 275.192Z" fill="#F7C19B"/>
<path d="M199.425 287.127L198.788 288.51L198.629 288.948C198.539 289.207 198.519 289.476 198.589 289.745L198.828 290.77C198.887 291.028 199.146 291.178 199.395 291.118L200.53 290.849L200.46 290.561L201.077 290.411L201.147 290.7L202.52 290.411L202.461 290.172L203.107 290.023L203.167 290.282L204.7 289.914L205.247 288.729C206.551 288.799 207.756 288.968 208.821 289.287C208.87 289.307 210.423 288.948 210.413 288.908L210.363 288.68L210.97 288.54L211.02 288.769C211.528 288.689 212.016 288.57 212.493 288.421L212.434 288.182L213.021 288.043L213.071 288.242C213.588 288.122 214.036 287.953 214.394 287.754L214.354 287.565L214.922 287.356L214.962 287.525C215.3 287.396 215.599 287.226 215.867 287.027L215.788 286.838L216.266 286.5L216.415 286.659C216.932 286.291 217.39 285.923 217.778 285.554C217.778 285.554 217.689 284.748 217.191 284.818L210.801 285.604L202.55 286.4L199.425 287.127Z" fill="#333333"/>
<path d="M198.133 286.838C198.223 287.216 198.352 287.595 198.521 287.953L198.79 288.51C201.179 287.903 203.448 287.555 205.558 287.585C205.996 287.595 206.424 287.614 206.852 287.654C210.495 288.023 213.939 287.017 217.213 284.798L217.084 284.24C216.984 283.822 216.606 283.534 216.178 283.554L213.381 283.643C212.883 283.653 212.386 283.693 211.888 283.713C210.495 283.782 209.131 283.544 207.797 283.036C207.728 283.006 207.648 282.976 207.578 282.946C207.539 282.927 207.489 282.917 207.449 282.897C207.509 283.494 207.121 284.35 207.101 284.39C207.091 284.419 207.061 284.429 207.041 284.439C207.031 284.439 207.011 284.439 207.001 284.429C206.961 284.41 206.941 284.37 206.961 284.33C207.101 284.031 207.379 283.275 207.28 282.827C207.25 282.817 207.22 282.797 207.19 282.787C206.693 282.767 205.946 283.136 205.648 283.325C205.608 283.345 205.568 283.335 205.538 283.295C205.518 283.255 205.528 283.215 205.568 283.185C205.608 283.165 206.295 282.757 206.902 282.648C206.792 282.598 206.683 282.538 206.573 282.489C206.504 282.449 206.434 282.419 206.364 282.379C206.215 282.299 206.066 282.22 205.916 282.13C205.857 282.1 205.797 282.061 205.737 282.031C205.518 281.901 205.299 281.762 205.08 281.623C204.712 281.742 204.294 282.12 204.125 282.299C204.095 282.329 204.045 282.329 204.015 282.299C203.985 282.27 203.985 282.22 204.015 282.19C204.045 282.16 204.473 281.712 204.931 281.513C204.841 281.453 204.762 281.394 204.672 281.334C204.533 281.235 204.354 281.195 204.184 281.225L197.924 282.459C197.695 282.508 197.556 282.737 197.615 282.956L197.814 283.683C197.964 284.22 198.023 284.778 198.004 285.335C197.964 285.853 198.014 286.36 198.133 286.838Z" fill="#58595B"/>
<path d="M206.994 284.43C207.004 284.44 207.024 284.44 207.034 284.44C207.064 284.44 207.084 284.42 207.094 284.39C207.114 284.35 207.502 283.494 207.442 282.897C207.383 282.877 207.333 282.847 207.273 282.827C207.373 283.275 207.094 284.022 206.955 284.33C206.945 284.37 206.964 284.41 206.994 284.43ZM205.541 283.295C205.561 283.335 205.611 283.345 205.651 283.325C205.949 283.146 206.696 282.778 207.193 282.788C207.094 282.748 207.004 282.698 206.905 282.658C206.298 282.758 205.611 283.166 205.571 283.196C205.531 283.216 205.521 283.255 205.541 283.295Z" fill="#231F20"/>
<path d="M204.016 282.3C204.046 282.33 204.096 282.33 204.126 282.3C204.295 282.121 204.713 281.743 205.081 281.623C205.031 281.593 204.972 281.553 204.922 281.514C204.464 281.703 204.036 282.161 204.006 282.19C203.986 282.22 203.986 282.27 204.016 282.3Z" fill="#303030"/>
<path d="M198.135 286.838C198.225 287.216 198.354 287.594 198.523 287.953L198.792 288.51C201.181 287.903 203.45 287.555 205.56 287.584L208.128 284.738C208.277 284.569 208.247 284.32 208.078 284.18L204.177 281.234L197.916 282.469C197.687 282.518 197.548 282.747 197.608 282.966L197.807 283.693C197.956 284.23 198.016 284.788 197.996 285.345C197.966 285.853 198.016 286.36 198.135 286.838Z" fill="#414042"/>
<path d="M204.124 281.543L204.164 281.493L204.114 281.453L204.055 281.463L204.065 281.533L204.095 281.523L204.124 281.543Z" fill="#58595B"/>
<path d="M198.843 288.052L198.903 288.023L198.943 288.102L198.883 288.132L198.843 288.052ZM198.764 287.883L198.823 287.853L198.863 287.933L198.804 287.963L198.764 287.883ZM198.684 287.714L198.744 287.684C198.754 287.714 198.774 287.744 198.784 287.764L198.724 287.794C198.704 287.774 198.694 287.744 198.684 287.714ZM198.604 287.545L198.664 287.515C198.674 287.545 198.684 287.575 198.704 287.605L198.644 287.634C198.634 287.605 198.624 287.575 198.604 287.545ZM198.545 287.376L198.604 287.356C198.614 287.386 198.624 287.415 198.634 287.445L198.575 287.465C198.565 287.435 198.555 287.405 198.545 287.376ZM198.485 287.196L198.555 287.177C198.565 287.206 198.575 287.236 198.585 287.266L198.515 287.286C198.505 287.256 198.495 287.226 198.485 287.196ZM198.425 287.017L198.495 286.997C198.505 287.027 198.515 287.057 198.525 287.087L198.455 287.107C198.445 287.077 198.435 287.047 198.425 287.017ZM198.376 286.838L198.445 286.818C198.455 286.848 198.465 286.878 198.465 286.908L198.395 286.928C198.395 286.898 198.385 286.868 198.376 286.838ZM198.356 286.749C198.346 286.719 198.346 286.689 198.336 286.659L198.405 286.649C198.415 286.679 198.415 286.709 198.425 286.739L198.356 286.749ZM198.316 286.569C198.306 286.54 198.306 286.51 198.296 286.48L198.366 286.47C198.376 286.5 198.376 286.53 198.385 286.559L198.316 286.569ZM198.286 286.39C198.286 286.36 198.276 286.331 198.276 286.301L198.346 286.291C198.346 286.321 198.356 286.35 198.356 286.38L198.286 286.39ZM198.256 286.201C198.256 286.171 198.246 286.141 198.246 286.112L198.316 286.102C198.316 286.131 198.326 286.161 198.326 286.191L198.256 286.201ZM198.236 286.022C198.236 285.992 198.226 285.962 198.226 285.932L198.296 285.922C198.296 285.952 198.296 285.982 198.306 286.012L198.236 286.022ZM198.226 285.833C198.226 285.803 198.226 285.773 198.226 285.743H198.296C198.296 285.773 198.296 285.803 198.296 285.833H198.226ZM198.216 285.644C198.216 285.614 198.216 285.584 198.216 285.554H198.286C198.286 285.584 198.286 285.614 198.286 285.644H198.216ZM198.216 285.465C198.216 285.435 198.216 285.405 198.216 285.375H198.286C198.286 285.405 198.286 285.435 198.286 285.465H198.216ZM198.226 285.276C198.226 285.246 198.226 285.216 198.226 285.186H198.296C198.296 285.216 198.296 285.246 198.296 285.276H198.226ZM198.226 285.096C198.226 285.066 198.226 285.037 198.226 285.007H198.296C198.296 285.037 198.296 285.066 198.296 285.096H198.226ZM198.216 284.917C198.216 284.887 198.216 284.857 198.216 284.828H198.286C198.286 284.857 198.286 284.887 198.286 284.917H198.216ZM198.206 284.728C198.206 284.698 198.206 284.668 198.196 284.639L198.266 284.629C198.266 284.658 198.276 284.688 198.276 284.718L198.206 284.728ZM198.196 284.549C198.196 284.519 198.186 284.489 198.186 284.459L198.256 284.449C198.256 284.479 198.266 284.509 198.266 284.539L198.196 284.549ZM198.167 284.37C198.167 284.34 198.157 284.31 198.157 284.28L198.226 284.27C198.226 284.3 198.236 284.33 198.236 284.36L198.167 284.37ZM198.137 284.181C198.127 284.151 198.127 284.121 198.117 284.091L198.186 284.081C198.196 284.111 198.196 284.141 198.206 284.171L198.137 284.181ZM198.107 284.002C198.097 283.972 198.097 283.942 198.087 283.912L198.157 283.892C198.167 283.922 198.167 283.952 198.176 283.982L198.107 284.002ZM198.047 283.733L198.117 283.713C198.127 283.743 198.137 283.773 198.137 283.802L198.067 283.822C198.057 283.793 198.057 283.763 198.047 283.733ZM197.997 283.564L198.067 283.544L198.087 283.633L198.017 283.653L197.997 283.564ZM197.948 283.384L198.017 283.365L198.037 283.454L197.967 283.474L197.948 283.384ZM197.898 283.205L197.967 283.185L197.987 283.275L197.918 283.295L197.898 283.205ZM197.848 283.026L197.918 283.006L197.938 283.096L197.868 283.116L197.848 283.026ZM203.89 281.573L203.88 281.503L203.969 281.483L203.979 281.553L203.89 281.573ZM203.71 281.603L203.7 281.533L203.79 281.513L203.8 281.583L203.71 281.603ZM203.531 281.643L203.521 281.573L203.611 281.553L203.621 281.623L203.531 281.643ZM203.352 281.672L203.342 281.603L203.432 281.583L203.442 281.653L203.352 281.672ZM203.163 281.712L203.153 281.643L203.243 281.623L203.253 281.692L203.163 281.712ZM202.984 281.752L202.974 281.682L203.063 281.663L203.073 281.732L202.984 281.752ZM202.805 281.782L202.795 281.712L202.884 281.692L202.894 281.762L202.805 281.782ZM202.626 281.822L202.616 281.752L202.705 281.732L202.715 281.802L202.626 281.822ZM202.446 281.852L202.436 281.782L202.526 281.762L202.536 281.832L202.446 281.852ZM202.257 281.891L202.247 281.822L202.337 281.802L202.347 281.872L202.257 281.891ZM197.828 282.927C197.828 282.887 197.828 282.857 197.838 282.817L197.908 282.837C197.898 282.857 197.898 282.887 197.898 282.917L197.828 282.927ZM202.078 281.931L202.068 281.862L202.158 281.842L202.168 281.911L202.078 281.931ZM201.899 281.961L201.889 281.891L201.979 281.872L201.989 281.941L201.899 281.961ZM201.72 282.001L201.71 281.931L201.799 281.911L201.809 281.981L201.72 282.001ZM201.541 282.031L201.531 281.961L201.62 281.941L201.63 282.011L201.541 282.031ZM201.361 282.071L201.352 282.001L201.441 281.981L201.451 282.051L201.361 282.071ZM201.172 282.11L201.162 282.041L201.252 282.021L201.262 282.091L201.172 282.11ZM200.993 282.14L200.983 282.071L201.073 282.051L201.083 282.12L200.993 282.14ZM200.814 282.18L200.804 282.11L200.894 282.091L200.904 282.16L200.814 282.18ZM200.635 282.21L200.625 282.14L200.715 282.12L200.724 282.19L200.635 282.21ZM200.456 282.25L200.446 282.18L200.535 282.16L200.545 282.23L200.456 282.25ZM200.267 282.29L200.257 282.22L200.346 282.2L200.356 282.27L200.267 282.29ZM200.087 282.319L200.078 282.25L200.167 282.23L200.177 282.3L200.087 282.319ZM199.908 282.359L199.898 282.29L199.988 282.27L199.998 282.339L199.908 282.359ZM199.729 282.389L199.719 282.319L199.809 282.3L199.819 282.369L199.729 282.389ZM199.55 282.429L199.54 282.359L199.63 282.339L199.64 282.409L199.55 282.429ZM199.361 282.469L199.351 282.399L199.441 282.379L199.45 282.449L199.361 282.469ZM199.182 282.499L199.172 282.429L199.261 282.409L199.271 282.479L199.182 282.499ZM199.003 282.538L198.993 282.469L199.082 282.449L199.092 282.519L199.003 282.538ZM198.823 282.568L198.813 282.499L198.903 282.479L198.913 282.548L198.823 282.568ZM197.898 282.737C197.918 282.708 197.948 282.688 197.987 282.678L198.017 282.737C197.997 282.747 197.967 282.757 197.958 282.777L197.898 282.737ZM198.644 282.608L198.634 282.538L198.724 282.519L198.734 282.588L198.644 282.608ZM198.455 282.648L198.445 282.578L198.535 282.558L198.545 282.628L198.455 282.648ZM198.276 282.678L198.266 282.608L198.356 282.588L198.366 282.658L198.276 282.678ZM198.097 282.718L198.087 282.648L198.176 282.628L198.186 282.698L198.097 282.718Z" fill="#58595B"/>
<path d="M198.944 288.271L199.014 288.261L199.004 288.192H198.984L198.974 288.182L198.914 288.212L198.944 288.271Z" fill="#58595B"/>
<path d="M205.215 287.385V287.315H205.304V287.385H205.215ZM205.026 287.395V287.325H205.115V287.395H205.026ZM204.847 287.395V287.325H204.936V287.395H204.847ZM204.667 287.395V287.325H204.757V287.395H204.667ZM204.488 287.405V287.335H204.578V287.405H204.488ZM204.299 287.415V287.345H204.389V287.415H204.299ZM204.12 287.425V287.355L204.21 287.345V287.415L204.12 287.425ZM203.941 287.435V287.365L204.031 287.355V287.425L203.941 287.435ZM203.762 287.445L203.752 287.375L203.841 287.365V287.435L203.762 287.445ZM203.583 287.465L203.573 287.395L203.662 287.385L203.672 287.455L203.583 287.465ZM203.393 287.475L203.384 287.405L203.473 287.395L203.483 287.465L203.393 287.475ZM203.214 287.495L203.204 287.425L203.294 287.415L203.304 287.485L203.214 287.495ZM203.035 287.514L203.025 287.445L203.115 287.435L203.125 287.505L203.035 287.514ZM202.856 287.534L202.846 287.465L202.936 287.455L202.946 287.524L202.856 287.534ZM202.677 287.554L202.667 287.485L202.756 287.475L202.766 287.544L202.677 287.554ZM202.498 287.584L202.488 287.514L202.577 287.505L202.587 287.574L202.498 287.584ZM202.319 287.604L202.309 287.534L202.398 287.524L202.408 287.594L202.319 287.604ZM202.139 287.634L202.129 287.564L202.219 287.554L202.229 287.624L202.139 287.634ZM201.95 287.654L201.94 287.584L202.03 287.574L202.04 287.644L201.95 287.654ZM201.771 287.684L201.761 287.614L201.851 287.604L201.861 287.674L201.771 287.684ZM201.592 287.714L201.582 287.644L201.672 287.624L201.682 287.694L201.592 287.714ZM201.413 287.743L201.403 287.674L201.492 287.654L201.502 287.724L201.413 287.743ZM201.234 287.773L201.224 287.704L201.313 287.684L201.323 287.753L201.234 287.773ZM201.064 287.813L201.055 287.743L201.144 287.724L201.154 287.793L201.064 287.813ZM200.885 287.843L200.875 287.773L200.965 287.753L200.975 287.823L200.885 287.843ZM200.706 287.883L200.696 287.813L200.786 287.793L200.796 287.863L200.706 287.883ZM200.527 287.913L200.517 287.843L200.607 287.823L200.617 287.893L200.527 287.913ZM200.348 287.952L200.338 287.883L200.427 287.863L200.437 287.933L200.348 287.952ZM200.169 287.992L200.159 287.923L200.248 287.903L200.258 287.972L200.169 287.992ZM199.99 288.032L199.98 287.962L200.069 287.942L200.079 288.012L199.99 288.032ZM199.81 288.072L199.79 288.002L199.88 287.982L199.89 288.052L199.81 288.072ZM199.094 288.171L199.183 288.152L199.203 288.221L199.114 288.241L199.094 288.171ZM199.641 288.112L199.621 288.042L199.711 288.022L199.731 288.092L199.641 288.112ZM199.263 288.122L199.353 288.102L199.372 288.171L199.283 288.191L199.263 288.122ZM199.462 288.152L199.442 288.082L199.532 288.062L199.552 288.132L199.462 288.152Z" fill="#58595B"/>
<path d="M205.45 287.385L205.49 287.346L205.44 287.296L205.42 287.326H205.391V287.385H205.45Z" fill="#58595B"/>
<path d="M205.499 287.236L205.559 287.166L205.609 287.216L205.549 287.286L205.499 287.236ZM205.619 287.097L205.678 287.027L205.728 287.077L205.668 287.147L205.619 287.097ZM205.738 286.957L205.798 286.888L205.848 286.938L205.788 287.007L205.738 286.957ZM205.867 286.828L205.927 286.758L205.977 286.808L205.917 286.878L205.867 286.828ZM205.987 286.689L206.047 286.619L206.096 286.669L206.037 286.738L205.987 286.689ZM206.106 286.559L206.166 286.49L206.216 286.539L206.156 286.609L206.106 286.559ZM206.226 286.42L206.285 286.35L206.335 286.4L206.276 286.47L206.226 286.42ZM206.355 286.291L206.415 286.221L206.465 286.271L206.405 286.34L206.355 286.291ZM206.475 286.151L206.534 286.082L206.584 286.131L206.524 286.201L206.475 286.151ZM206.594 286.012L206.654 285.942L206.703 285.992L206.644 286.062L206.594 286.012ZM206.713 285.883L206.773 285.813L206.823 285.863L206.763 285.932L206.713 285.883ZM206.843 285.743L206.903 285.674L206.952 285.723L206.893 285.793L206.843 285.743ZM206.962 285.614L207.022 285.544L207.072 285.594L207.012 285.664L206.962 285.614ZM207.082 285.474L207.141 285.405L207.191 285.455L207.131 285.524L207.082 285.474ZM207.201 285.345L207.261 285.275L207.311 285.325L207.251 285.395L207.201 285.345ZM207.331 285.206L207.39 285.136L207.44 285.186L207.38 285.255L207.331 285.206ZM207.45 285.076L207.51 285.007L207.559 285.056L207.5 285.126L207.45 285.076ZM207.569 284.937L207.629 284.867L207.679 284.917L207.619 284.987L207.569 284.937ZM207.689 284.798L207.749 284.728L207.798 284.778L207.739 284.847L207.689 284.798ZM207.808 284.668L207.868 284.599L207.918 284.648L207.858 284.718L207.808 284.668ZM207.908 284.539C207.918 284.519 207.918 284.499 207.918 284.479C207.918 284.469 207.918 284.469 207.918 284.459L207.987 284.449C207.987 284.459 207.987 284.459 207.987 284.469C207.987 284.499 207.987 284.529 207.977 284.549L207.908 284.539ZM207.858 284.37L207.828 284.34L207.868 284.28L207.898 284.31C207.918 284.32 207.928 284.33 207.938 284.35L207.888 284.39C207.878 284.39 207.868 284.38 207.858 284.37ZM207.679 284.23L207.719 284.181L207.788 284.23L207.749 284.28L207.679 284.23ZM207.53 284.121L207.569 284.071L207.639 284.121L207.599 284.171L207.53 284.121ZM207.39 284.011L207.43 283.952L207.5 284.011L207.46 284.061L207.39 284.011ZM207.241 283.902L207.281 283.842L207.35 283.902L207.311 283.962L207.241 283.902ZM207.092 283.792L207.131 283.733L207.201 283.782L207.161 283.842L207.092 283.792ZM206.952 283.683L206.992 283.623L207.062 283.673L207.022 283.733L206.952 283.683ZM206.803 283.573L206.843 283.514L206.913 283.563L206.873 283.623L206.803 283.573ZM206.664 283.464L206.703 283.404L206.773 283.454L206.733 283.514L206.664 283.464ZM206.514 283.354L206.554 283.295L206.624 283.354L206.584 283.414L206.514 283.354ZM206.375 283.245L206.415 283.185L206.485 283.245L206.445 283.295L206.375 283.245ZM206.226 283.135L206.266 283.076L206.335 283.135L206.295 283.185L206.226 283.135ZM206.076 283.026L206.116 282.966L206.186 283.026L206.146 283.086L206.076 283.026ZM205.937 282.917L205.977 282.857L206.047 282.917L206.007 282.976L205.937 282.917ZM205.788 282.807L205.828 282.747L205.897 282.807L205.857 282.857L205.788 282.807ZM205.648 282.698L205.688 282.638L205.758 282.698L205.718 282.757L205.648 282.698ZM205.499 282.588L205.539 282.528L205.609 282.588L205.569 282.648L205.499 282.588ZM205.36 282.479L205.4 282.419L205.469 282.479L205.429 282.538L205.36 282.479ZM205.211 282.369L205.25 282.309L205.32 282.359L205.28 282.419L205.211 282.369ZM205.071 282.26L205.111 282.2L205.181 282.26L205.141 282.319L205.071 282.26ZM204.922 282.15L204.962 282.09L205.031 282.14L204.992 282.2L204.922 282.15ZM204.773 282.041L204.812 281.981L204.882 282.041L204.842 282.09L204.773 282.041ZM204.633 281.931L204.673 281.871L204.743 281.921L204.703 281.981L204.633 281.931ZM204.484 281.822L204.524 281.762L204.593 281.812L204.554 281.871L204.484 281.822ZM204.345 281.712L204.384 281.652L204.454 281.712L204.414 281.772L204.345 281.712ZM204.195 281.603L204.235 281.543L204.305 281.603L204.265 281.662L204.195 281.603Z" fill="#58595B"/>
<path d="M206.658 284.4C206.638 284.211 206.778 284.032 206.967 284.012C207.156 283.992 207.335 284.131 207.355 284.32C207.375 284.509 207.235 284.688 207.046 284.708C206.857 284.738 206.678 284.599 206.658 284.4ZM206.768 284.39C206.778 284.519 206.907 284.619 207.036 284.609C207.166 284.599 207.265 284.47 207.255 284.34C207.245 284.211 207.116 284.111 206.987 284.121C206.847 284.131 206.748 284.251 206.768 284.39Z" fill="#E6E7E8"/>
<path d="M205.189 283.374C205.169 283.185 205.309 283.006 205.498 282.986C205.687 282.966 205.866 283.106 205.886 283.295C205.906 283.484 205.767 283.663 205.578 283.683C205.388 283.703 205.209 283.564 205.189 283.374ZM205.299 283.364C205.309 283.494 205.438 283.593 205.568 283.583C205.697 283.574 205.797 283.444 205.787 283.315C205.777 283.185 205.647 283.086 205.518 283.096C205.379 283.106 205.289 283.225 205.299 283.364Z" fill="#E6E7E8"/>
<path d="M206.957 284.33C206.937 284.37 206.957 284.419 206.996 284.429C207.006 284.439 207.026 284.439 207.036 284.439C207.066 284.439 207.086 284.419 207.096 284.39C207.116 284.35 207.504 283.494 207.444 282.897C207.444 282.877 207.444 282.857 207.434 282.837C207.424 282.777 207.404 282.707 207.385 282.658C207.355 282.598 207.325 282.538 207.285 282.489C207.106 282.289 206.797 282.26 206.359 282.379C206.429 282.419 206.499 282.449 206.568 282.489C206.857 282.429 207.056 282.469 207.166 282.598C207.176 282.608 207.185 282.618 207.195 282.628C207.225 282.678 207.255 282.727 207.265 282.787C207.265 282.797 207.275 282.807 207.275 282.817C207.375 283.275 207.096 284.021 206.957 284.33Z" fill="#231F20"/>
<path d="M205.541 283.294C205.561 283.334 205.611 283.344 205.651 283.324C205.949 283.145 206.696 282.777 207.193 282.787C207.223 282.787 207.253 282.787 207.273 282.797C207.333 282.807 207.392 282.817 207.442 282.847C207.462 282.856 207.482 282.866 207.502 282.886C207.532 282.906 207.552 282.926 207.582 282.956C207.651 282.986 207.731 283.016 207.801 283.046C207.761 282.926 207.691 282.827 207.592 282.767C207.532 282.727 207.462 282.697 207.392 282.677C207.333 282.657 207.273 282.647 207.203 282.647C207.104 282.647 207.004 282.647 206.905 282.667C206.298 282.767 205.611 283.175 205.571 283.205C205.531 283.215 205.521 283.255 205.541 283.294Z" fill="#231F20"/>
<path d="M203.727 282.33C203.687 282.141 203.797 281.951 203.996 281.902C204.185 281.862 204.374 281.971 204.424 282.16C204.463 282.35 204.354 282.539 204.155 282.588C203.956 282.638 203.767 282.519 203.727 282.33ZM203.826 282.3C203.856 282.429 203.986 282.509 204.115 282.479C204.244 282.449 204.324 282.32 204.294 282.19C204.264 282.061 204.135 281.981 204.006 282.011C203.886 282.041 203.797 282.17 203.826 282.3Z" fill="#E6E7E8"/>
<path d="M204.016 282.3C204.046 282.329 204.096 282.329 204.126 282.3C204.295 282.12 204.713 281.742 205.081 281.623C205.2 281.583 205.32 281.573 205.419 281.603C205.569 281.653 205.668 281.792 205.728 282.031C205.788 282.071 205.847 282.101 205.907 282.13C205.837 281.762 205.688 281.533 205.469 281.454C205.3 281.394 205.111 281.434 204.922 281.513C204.464 281.702 204.036 282.16 204.006 282.19C203.986 282.22 203.986 282.27 204.016 282.3Z" fill="#231F20"/>
<path d="M179.583 286.151L175.672 253.674C175.492 252.221 174.517 250.997 173.144 250.509L155.586 244.239C150.062 242.268 146.499 236.903 146.808 231.051L146.997 227.597L159.796 229.817L173.651 226.741L190.601 235.022C194.423 236.893 197.16 240.437 197.996 244.607L205.083 279.911L196.613 281.334L189.198 252.042C188.451 248.966 186.441 246.339 183.674 244.806L184.241 246.18C185.107 248.27 185.615 250.489 185.764 252.749L187.864 285.594L179.583 286.151Z" fill="#333333"/>
<path d="M161.871 185.586C159.512 189.925 157.243 189.577 155.043 184.799L154.734 179.902L161.264 180.121L161.871 185.586Z" fill="#F7C19B"/>
<path d="M165.917 172.178C165.917 172.178 167.261 179.026 164.604 182.44C163.23 184.212 160.722 184.62 158.811 183.455C157.348 182.56 155.248 180.947 153.775 178.429C153.645 178.21 154.949 172.387 154.949 172.387L156.641 170.586L162.105 170.636L165.917 172.178Z" fill="#F7C19B"/>
<path d="M159.489 176.737L159.002 174.328C159.002 174.328 159.669 174.706 160.505 174.955C161.719 175.324 163.003 174.627 163.371 173.413L163.461 173.114C163.461 173.114 168.656 173.592 167.751 168.874C167.522 167.68 166.596 166.724 165.402 166.505C164.337 166.306 162.774 166.376 160.535 167.182C159.698 167.481 158.753 167.252 157.977 166.824C157.131 166.356 155.747 166.197 154.433 168.725C154.204 169.163 153.916 169.561 153.557 169.899C152.552 170.845 150.333 175.503 154.792 181.156C154.981 181.395 155.379 181.246 155.339 180.937C155.14 179.036 154.951 175.194 156.842 175.423C157.29 175.483 157.688 175.771 157.907 176.17L158.444 177.135C158.594 177.404 158.922 177.493 159.191 177.364C159.41 177.235 159.539 176.986 159.489 176.737Z" fill="#333333"/>
<path d="M197.906 196.065L199.091 193.915C199.28 193.577 199.32 193.169 199.2 192.801L198.683 191.198C198.583 190.9 198.752 190.571 199.051 190.462C199.3 190.372 199.568 190.462 199.718 190.681L200.574 191.905C200.803 192.233 201.26 192.283 201.559 192.014L204.525 189.297C204.754 189.088 205.112 189.098 205.331 189.317C205.55 189.536 205.55 189.884 205.341 190.113L203.818 191.795L205.56 189.934C205.809 189.665 206.237 189.665 206.486 189.944C206.715 190.193 206.705 190.571 206.466 190.81L203.838 193.497L205.919 191.338C206.157 191.089 206.565 191.079 206.814 191.328C207.063 191.576 207.063 191.975 206.814 192.213L203.958 195.05L206.108 192.9C206.346 192.661 206.735 192.651 206.983 192.89C207.222 193.119 207.242 193.497 207.023 193.746C205.421 195.637 203.4 197.479 201.141 199.28L197.906 196.065Z" fill="#F7C19B"/>
<path d="M153.732 187.536L155.056 184.799C157.067 187.407 159.326 187.795 161.884 185.585L169.369 196.583L167.139 201.779L167.279 220.182L165.308 228.961C163.825 231.28 161.336 231.658 158.291 230.922L154.837 228.692L149.642 210.468L149.383 202.734C149.383 202.734 150.756 197.27 151.005 196.981C151.244 196.703 153.732 187.536 153.732 187.536Z" fill="#F1F2F2"/>
<path d="M197.587 195.1C197.587 195.1 183.742 203.889 183.145 203.62C181.522 202.883 180.378 201.012 179.392 199.609C177.113 196.334 174.505 192.97 171.34 190.502C170.365 189.735 169.34 189.019 168.275 188.382C167.319 187.804 166.324 187.287 165.299 186.829C164.761 186.59 164.204 186.361 163.647 186.162C163.448 186.092 162.014 185.674 161.875 185.595C162.253 187.167 162.631 188.75 163 190.322C163.706 193.288 164.065 196.165 163.886 199.23C163.746 201.679 163.458 204.137 163.517 206.596C163.587 209.472 164.333 212.209 164.771 215.026C165.597 220.281 165.269 225.676 165.319 230.981C165.329 231.737 166.006 232.315 166.752 232.195C169.728 231.727 172.206 230.463 174.177 228.383C174.386 228.164 174.486 227.856 174.446 227.547C173.928 224.054 173.351 220.56 172.734 217.086C172.057 213.294 170.863 203.5 171.51 203.331C172.087 203.182 172.634 204.267 173.013 204.774C174.874 207.292 177.193 210.438 179.343 212.07C179.562 212.199 179.811 212.428 180.049 212.508C182.239 213.872 185.106 213.493 186.857 211.592L202.096 199.091L197.587 195.1Z" fill="#8155D9"/>
<path d="M168.911 226.92L173.46 221.217L154.658 208.129L147.323 205.093L146.636 235.062C146.646 235.39 146.934 235.649 147.263 235.619C149.293 235.48 156.48 235.042 158.291 230.922C158.46 230.543 158.241 230.016 158.152 229.638C158.002 229.011 157.883 228.364 157.773 227.727C156.509 220.083 158.152 212.369 157.744 204.685C157.415 198.544 156.091 192.433 155.275 186.342C155.265 186.262 155.056 184.799 155.056 184.799C154.807 185.028 154.141 185.127 153.822 185.247C153.424 185.396 153.036 185.555 152.648 185.715C151.951 186.003 151.274 186.312 150.607 186.66C149.532 187.217 148.497 187.874 147.611 188.691C146.079 190.104 145.213 191.945 144.755 193.946C144.307 195.926 144.187 197.947 143.988 199.957C143.71 202.764 143.371 205.461 143.819 208.268C144.078 209.881 144.406 211.334 145.501 212.598C145.969 213.135 146.596 213.613 147.313 214.071L168.911 226.92Z" fill="#8155D9"/>
<path d="M171.85 221.944L173.91 222.392C174.279 222.511 174.687 222.471 175.025 222.282L176.498 221.476C176.777 221.327 177.125 221.416 177.285 221.695C177.414 221.924 177.384 222.212 177.195 222.392L176.15 223.467C175.871 223.755 175.911 224.213 176.229 224.452L179.454 226.841C179.703 227.03 179.763 227.378 179.584 227.637C179.405 227.886 179.066 227.965 178.797 227.796L176.876 226.612L179.036 227.955C179.345 228.154 179.424 228.572 179.205 228.871C179.006 229.14 178.628 229.209 178.349 229.02L175.204 226.95L177.722 228.582C178.021 228.772 178.101 229.17 177.902 229.458C177.712 229.747 177.314 229.827 177.036 229.627L173.711 227.368L176.239 229.07C176.518 229.259 176.598 229.637 176.419 229.926C176.239 230.205 175.871 230.294 175.583 230.135C173.423 228.931 171.233 227.298 169.023 225.427L171.85 221.944Z" fill="#F7C19B"/>
<path d="M164.769 215.017L173.468 221.864L168.91 226.921L160.539 221.944L162.142 217.515L164.769 215.017Z" fill="#8155D9"/>
<path d="M161.714 184.103C161.714 184.103 158.877 184.252 156.469 182.132C156.469 182.132 158.081 184.839 161.814 184.998L161.714 184.103Z" fill="#EAB896"/>
<path d="M170.612 234.227L160.35 230.116L160.32 229.29L170.851 233.5L170.612 234.227Z" fill="#58595B"/>
<path d="M160.32 229.289L175.568 228.802L174.503 232.494L170.851 233.5L160.32 229.289Z" fill="#BDBDBD"/>
<path d="M207.72 214.539L201.47 232.514L201.221 233.241L170.625 234.226L170.864 233.5L177.015 214.639C177.095 214.41 177.313 214.24 177.552 214.24L207.173 213.763C207.571 213.763 207.85 214.161 207.72 214.539Z" fill="#BDBDBD"/>
<path d="M201.47 232.515L201.211 233.241L170.625 234.227L170.854 233.5L201.47 232.515Z" fill="#AAAAAA"/>
<path d="M192.317 223.457C191.988 224.771 190.863 225.617 189.818 225.348C188.773 225.079 188.196 223.805 188.534 222.492C188.863 221.178 189.987 220.332 191.033 220.601C192.078 220.869 192.655 222.143 192.317 223.457Z" fill="#F5F5F5"/>
<path d="M43.7743 103.671C43.7145 103.373 43.6847 103.084 43.6648 102.776C43.4458 97.6298 49.5371 93.1708 57.2906 92.8224C60.7642 92.6632 63.9691 93.3599 66.4773 94.6438C69.5229 91.9963 74.2407 90.1948 79.5955 89.946C84.4725 89.727 88.9315 90.8517 92.1563 92.8324C92.9028 93.2504 93.5896 93.758 94.1967 94.3552C96.048 96.0373 97.1727 98.0976 97.2722 100.357C97.2921 100.725 97.2722 101.093 97.2324 101.462C97.2423 102.258 97.1528 103.044 96.9935 103.791C103.393 105.333 107.942 109.126 108.141 113.764C108.42 120.124 100.397 125.648 90.2354 126.106C86.5229 126.275 83.0492 125.737 80.1131 124.692C77.3262 126.285 73.7232 127.33 69.7419 127.509C62.3567 127.837 55.9768 125.08 53.7075 120.99C51.687 121.915 49.3082 122.503 46.7403 122.622C39.0664 122.97 32.6566 118.959 32.4277 113.664C32.2286 108.877 37.1455 104.687 43.7743 103.671Z" fill="#F5F5F5"/>
<path d="M32.4269 113.665C32.6558 118.96 39.0656 122.961 46.7394 122.622C49.2974 122.503 51.6762 121.916 53.7066 120.99C55.9759 125.081 62.3658 127.848 69.751 127.509C73.7323 127.33 77.3353 126.285 80.1222 124.693C83.0583 125.738 86.5419 126.275 90.2445 126.106C100.407 125.648 108.429 120.124 108.15 113.764C108.14 113.436 108.1 113.117 108.041 112.789C107.045 118.452 99.5407 123.11 90.2445 123.528C86.532 123.697 83.0583 123.16 80.1222 122.115C77.3353 123.707 73.7323 124.752 69.751 124.931C62.3658 125.26 55.9859 122.503 53.7066 118.412C51.6762 119.338 49.3073 119.925 46.7394 120.045C39.5533 120.363 33.4719 116.879 32.5463 112.082C32.4468 112.6 32.4069 113.127 32.4269 113.665Z" fill="#E0E0E0"/>
<path d="M224.572 122.264C224.532 122.075 224.513 121.876 224.503 121.687C224.363 118.353 228.315 115.457 233.341 115.238C235.59 115.138 237.671 115.586 239.303 116.422C241.274 114.71 244.339 113.536 247.813 113.376C250.978 113.237 253.874 113.964 255.954 115.248C256.442 115.516 256.88 115.855 257.278 116.233C258.482 117.328 259.209 118.661 259.269 120.125C259.279 120.363 259.269 120.602 259.249 120.841C259.259 121.359 259.199 121.866 259.09 122.354C263.24 123.349 266.196 125.818 266.326 128.824C266.505 132.944 261.309 136.527 254.71 136.826C252.302 136.935 250.052 136.587 248.141 135.91C246.34 136.945 243.991 137.622 241.413 137.742C236.625 137.961 232.485 136.169 231.012 133.512C229.698 134.109 228.155 134.497 226.493 134.567C221.517 134.785 217.356 132.188 217.207 128.764C217.078 125.639 220.272 122.921 224.572 122.264Z" fill="#F5F5F5"/>
<path d="M217.217 128.744C217.366 132.178 221.517 134.776 226.503 134.547C228.165 134.477 229.708 134.089 231.022 133.492C232.495 136.149 236.636 137.941 241.423 137.722C244.001 137.602 246.34 136.925 248.151 135.89C250.062 136.567 252.312 136.915 254.72 136.806C261.309 136.507 266.515 132.924 266.336 128.804C266.326 128.595 266.306 128.386 266.266 128.177C265.619 131.849 260.752 134.865 254.72 135.144C252.312 135.253 250.062 134.905 248.151 134.228C246.35 135.263 244.001 135.94 241.423 136.059C236.636 136.278 232.495 134.487 231.022 131.829C229.708 132.427 228.165 132.815 226.503 132.884C221.835 133.093 217.904 130.824 217.297 127.719C217.227 128.047 217.197 128.396 217.217 128.744Z" fill="#E0E0E0"/>
</g>
<defs>
<filter id="filter0_dd_4963_55831" x="-3.92188" y="0" width="306.594" height="306.594" filterUnits="userSpaceOnUse" color-interpolation-filters="sRGB">
<feFlood flood-opacity="0" result="BackgroundImageFix"/>
<feColorMatrix in="SourceAlpha" type="matrix" values="0 0 0 0 0 0 0 0 0 0 0 0 0 0 0 0 0 0 127 0" result="hardAlpha"/>
<feOffset dy="4"/>
<feGaussianBlur stdDeviation="2"/>
<feComposite in2="hardAlpha" operator="out"/>
<feColorMatrix type="matrix" values="0 0 0 0 0 0 0 0 0 0 0 0 0 0 0 0 0 0 0.25 0"/>
<feBlend mode="normal" in2="BackgroundImageFix" result="effect1_dropShadow_4963_55831"/>
<feColorMatrix in="SourceAlpha" type="matrix" values="0 0 0 0 0 0 0 0 0 0 0 0 0 0 0 0 0 0 127 0" result="hardAlpha"/>
<feOffset dy="4"/>
<feGaussianBlur stdDeviation="2"/>
<feComposite in2="hardAlpha" operator="out"/>
<feColorMatrix type="matrix" values="0 0 0 0 0 0 0 0 0 0 0 0 0 0 0 0 0 0 0.25 0"/>
<feBlend mode="normal" in2="effect1_dropShadow_4963_55831" result="effect2_dropShadow_4963_55831"/>
<feBlend mode="normal" in="SourceGraphic" in2="effect2_dropShadow_4963_55831" result="shape"/>
</filter>
</defs>
</svg>
