<svg width="292" height="292" viewBox="0 0 292 292" fill="none" xmlns="http://www.w3.org/2000/svg">
<path opacity="0.7" d="M235.571 40.4185C235.571 40.4185 211.004 13.8485 175.492 19.6435C139.981 25.4386 122.708 55.3253 100.935 74.5985C89.532 84.6919 73.8249 86.9214 60.6951 94.1403C18.748 117.17 19.0057 181.178 47.3504 208.969C71.8841 233.03 104.604 239.441 148.819 229.719C193.034 219.996 224.491 214.811 254.917 174.598C285.343 134.386 265.577 76.0586 235.571 40.4185Z" fill="#F1F6F2"/>
<path d="M61.975 213.893H241.904L257.499 94.6248C258.317 88.3801 253.463 82.8393 247.159 82.8393H88.2694C85.7364 82.8377 83.2896 83.7589 81.3866 85.4306C79.4836 87.1022 78.2548 89.4099 77.9299 91.9219L61.975 213.893Z" fill="#97B73E"/>
<path d="M230.509 57.4423V192.866C230.509 194.111 230.264 195.344 229.788 196.494C229.312 197.645 228.613 198.69 227.733 199.57C226.853 200.451 225.808 201.149 224.657 201.626C223.507 202.102 222.274 202.347 221.029 202.347H84.2344C81.7214 202.345 79.3121 201.345 77.5362 199.567C75.7603 197.789 74.7632 195.379 74.764 192.866V57.4439C74.7638 56.2002 75.0087 54.9686 75.4845 53.8196C75.9604 52.6705 76.6579 51.6264 77.5374 50.7469C78.4168 49.8675 79.4609 49.1699 80.61 48.6941C81.759 48.2182 82.9906 47.9734 84.2344 47.9736H221.029C222.274 47.9724 223.506 48.2164 224.656 48.6918C225.807 49.1671 226.852 49.8645 227.732 50.744C228.612 51.6236 229.311 52.668 229.787 53.8176C230.264 54.9672 230.509 56.1995 230.509 57.4439V57.4423Z" fill="#F2F6E7"/>
<path d="M92.1587 65.792H209.71V68.6156H92.1587V65.792ZM92.1587 77.9715H209.71V80.7951H92.1587V77.9715ZM92.1587 90.1494H209.71V92.973H92.1587V90.1494ZM92.1587 102.329H209.71V105.153H92.1587V102.329ZM92.1587 114.507H209.71V117.33H92.1587V114.507Z" fill="#B1C96E"/>
<path d="M31.3465 83.6029L48.3279 213.894H241.91L227.954 106.81C227.651 104.483 226.511 102.346 224.748 100.798C222.985 99.2496 220.719 98.3959 218.372 98.3963H139.079C137.563 98.3963 136.068 98.0397 134.716 97.3551C133.363 96.6705 132.191 95.6773 131.293 94.4556L118.197 76.6321C117.299 75.4104 116.127 74.4171 114.774 73.7325C113.421 73.048 111.927 72.6913 110.411 72.6914H40.928C35.0965 72.6914 30.5933 77.819 31.3465 83.6029Z" fill="#CBDB9F"/>
<path d="M172.823 167.767L166.594 166.496C167.023 164.398 167.239 162.244 167.239 160.092C167.239 142.582 152.995 128.336 135.485 128.336C123.34 128.336 112.435 135.099 107.026 145.985L101.334 143.157C107.824 130.095 120.911 121.98 135.485 121.98C156.499 121.98 173.595 139.078 173.595 160.092C173.595 162.669 173.334 165.251 172.823 167.767Z" fill="white"/>
<path d="M135.484 198.203C114.469 198.203 97.3735 181.105 97.3735 160.093H103.729C103.729 177.603 117.975 191.847 135.484 191.847C145.772 191.847 155.468 186.826 161.42 178.415L166.61 182.086C163.085 187.062 158.42 191.121 153.005 193.925C147.589 196.729 141.582 198.196 135.484 198.203Z" fill="white"/>
<path d="M180.235 167.163L166.456 175.537C166.251 175.661 166.019 175.734 165.78 175.751C165.541 175.767 165.302 175.726 165.082 175.63C164.863 175.535 164.669 175.389 164.517 175.203C164.366 175.018 164.261 174.799 164.212 174.564L160.886 158.782C160.83 158.514 160.848 158.234 160.939 157.975C161.031 157.716 161.191 157.487 161.404 157.313C161.617 157.139 161.873 157.027 162.145 156.989C162.418 156.951 162.695 156.989 162.947 157.098L180.052 164.508C180.305 164.617 180.522 164.793 180.681 165.018C180.84 165.242 180.934 165.506 180.953 165.78C180.972 166.055 180.915 166.329 180.788 166.573C180.662 166.817 180.47 167.02 180.235 167.163Z" fill="white"/>
<path d="M92.4706 165.87L100.8 154.516C100.924 154.348 101.086 154.211 101.273 154.118C101.461 154.025 101.668 153.979 101.877 153.982C102.086 153.986 102.291 154.039 102.475 154.138C102.66 154.237 102.817 154.379 102.936 154.551L110.884 166.181C111.019 166.379 111.097 166.611 111.109 166.85C111.122 167.09 111.068 167.328 110.954 167.54C110.841 167.751 110.671 167.927 110.464 168.048C110.257 168.169 110.021 168.231 109.781 168.228L93.5034 167.953C93.2635 167.948 93.0293 167.878 92.8266 167.75C92.6238 167.622 92.4601 167.44 92.3536 167.225C92.247 167.01 92.2015 166.77 92.2221 166.531C92.2428 166.292 92.3287 166.063 92.4706 165.87Z" fill="white"/>
<path d="M21.9463 80.9681L12.2097 82.4181C12.0337 82.4443 11.8543 82.4356 11.6816 82.3924C11.509 82.3493 11.3465 82.2726 11.2035 82.1666C11.0605 82.0607 10.9398 81.9277 10.8482 81.7751C10.7566 81.6225 10.696 81.4534 10.6698 81.2774C10.6436 81.1014 10.6523 80.9219 10.6954 80.7493C10.7386 80.5766 10.8153 80.4142 10.9212 80.2712C11.0272 80.1282 11.1602 80.0075 11.3128 79.9159C11.4654 79.8243 11.6345 79.7637 11.8105 79.7375L21.5471 78.2875C21.9025 78.2345 22.2645 78.325 22.5533 78.5389C22.8421 78.7528 23.034 79.0727 23.087 79.4282C23.1399 79.7836 23.0495 80.1456 22.8356 80.4344C22.6217 80.7232 22.3018 80.9151 21.9463 80.9681ZM32.4637 66.7702C32.2877 66.7964 32.1082 66.7877 31.9356 66.7446C31.7629 66.7014 31.6005 66.6247 31.4575 66.5188C31.3145 66.4128 31.1937 66.2798 31.1022 66.1272C31.0106 65.9746 30.95 65.8055 30.9238 65.6295L29.4738 55.8929C29.4208 55.5374 29.5113 55.1755 29.7252 54.8867C29.9392 54.5979 30.259 54.4059 30.6145 54.353C30.97 54.3 31.332 54.3905 31.6208 54.6044C31.9096 54.8183 32.1015 55.1382 32.1545 55.4937L33.6044 65.2303C33.6306 65.4063 33.6219 65.5857 33.5787 65.7584C33.5356 65.931 33.4589 66.0935 33.353 66.2365C33.2471 66.3795 33.114 66.5002 32.9614 66.5918C32.8088 66.6834 32.6397 66.744 32.4637 66.7702ZM24.0389 71.5239C23.8629 71.5503 23.6834 71.5417 23.5108 71.4986C23.3381 71.4554 23.1757 71.3786 23.0328 71.2724L15.3483 65.5801C15.0595 65.3661 14.8675 65.0463 14.8145 64.6908C14.7616 64.3353 14.852 63.9734 15.0659 63.6846C15.2798 63.3958 15.5997 63.2038 15.9552 63.1508C16.3107 63.0979 16.6726 63.1883 16.9614 63.4022L24.6459 69.0946C24.8613 69.2541 25.0246 69.4739 25.115 69.7262C25.2055 69.9785 25.2191 70.252 25.1541 70.512C25.0892 70.7721 24.9485 71.007 24.75 71.1871C24.5515 71.3672 24.3041 71.4844 24.0389 71.5239Z" fill="#CBDB9F"/>
<path d="M256.123 3.90286C264.83 3.90286 271.889 10.9621 271.889 19.6695C271.889 28.3769 264.83 35.4361 256.123 35.4361H240.892L233.934 43.3423C233.881 43.403 233.781 43.3655 233.781 43.2847V34.854C227.14 32.9973 222.269 26.9027 222.269 19.6695C222.269 10.9622 229.327 3.90312 238.035 3.90286H256.123Z" fill="#F0AF30"/>
<rect x="245.028" y="9.96182" width="4.07161" height="13.7774" rx="2.03581" fill="white"/>
<circle cx="247.077" cy="27.5859" r="2.00807" transform="rotate(103.735 247.077 27.5859)" fill="white"/>
<path d="M85.1 286H82.832V272.842H85.118L91.292 282.166V272.842H93.56V286H91.292L85.1 276.676V286ZM95.6266 281.536C95.6266 278.764 97.6246 276.856 100.379 276.856C103.133 276.856 105.131 278.764 105.131 281.536C105.131 284.308 103.133 286.216 100.379 286.216C97.6246 286.216 95.6266 284.308 95.6266 281.536ZM97.8226 281.536C97.8226 283.156 98.8666 284.254 100.379 284.254C101.891 284.254 102.935 283.156 102.935 281.536C102.935 279.916 101.891 278.818 100.379 278.818C98.8666 278.818 97.8226 279.916 97.8226 281.536ZM111.039 283.3H113.127C113.145 284.074 113.721 284.56 114.729 284.56C115.755 284.56 116.313 284.146 116.313 283.498C116.313 283.048 116.079 282.724 115.287 282.544L113.685 282.166C112.083 281.806 111.309 281.05 111.309 279.628C111.309 277.882 112.785 276.838 114.837 276.838C116.835 276.838 118.185 277.99 118.203 279.718H116.115C116.097 278.962 115.593 278.476 114.747 278.476C113.883 278.476 113.379 278.872 113.379 279.538C113.379 280.042 113.775 280.366 114.531 280.546L116.133 280.924C117.627 281.266 118.383 281.95 118.383 283.318C118.383 285.118 116.853 286.234 114.657 286.234C112.443 286.234 111.039 285.046 111.039 283.3ZM119.105 290.122V288.286H120.419C121.283 288.286 121.823 288.088 122.201 287.044L122.453 286.378L118.871 277.108H121.193L123.479 283.588L125.891 277.108H128.159L123.803 287.98C123.137 289.636 122.201 290.32 120.743 290.32C120.131 290.32 119.591 290.248 119.105 290.122ZM131.602 286H129.406V277.108H131.44L131.62 278.26C132.178 277.36 133.258 276.838 134.464 276.838C136.696 276.838 137.848 278.224 137.848 280.528V286H135.652V281.05C135.652 279.556 134.914 278.836 133.78 278.836C132.43 278.836 131.602 279.772 131.602 281.212V286ZM139.484 281.536C139.484 278.782 141.302 276.838 143.93 276.838C146.36 276.838 148.016 278.188 148.25 280.33H146.054C145.802 279.322 145.064 278.8 144.02 278.8C142.616 278.8 141.68 279.862 141.68 281.536C141.68 283.21 142.544 284.254 143.948 284.254C145.046 284.254 145.82 283.714 146.054 282.742H148.268C147.998 284.812 146.27 286.234 143.948 286.234C141.248 286.234 139.484 284.362 139.484 281.536ZM156.95 286H154.754V272.608H156.968V278.26C157.526 277.396 158.57 276.838 159.848 276.838C162.044 276.838 163.196 278.224 163.196 280.528V286H161V281.05C161 279.556 160.262 278.836 159.146 278.836C157.76 278.836 156.95 279.808 156.95 281.14V286ZM166.452 275.326C165.696 275.326 165.102 274.732 165.102 273.994C165.102 273.256 165.696 272.68 166.452 272.68C167.172 272.68 167.766 273.256 167.766 273.994C167.766 274.732 167.172 275.326 166.452 275.326ZM165.354 286V277.108H167.55V286H165.354ZM169.135 283.3H171.223C171.241 284.074 171.817 284.56 172.825 284.56C173.851 284.56 174.409 284.146 174.409 283.498C174.409 283.048 174.175 282.724 173.383 282.544L171.781 282.166C170.179 281.806 169.405 281.05 169.405 279.628C169.405 277.882 170.881 276.838 172.933 276.838C174.931 276.838 176.281 277.99 176.299 279.718H174.211C174.193 278.962 173.689 278.476 172.843 278.476C171.979 278.476 171.475 278.872 171.475 279.538C171.475 280.042 171.871 280.366 172.627 280.546L174.229 280.924C175.723 281.266 176.479 281.95 176.479 283.318C176.479 285.118 174.949 286.234 172.753 286.234C170.539 286.234 169.135 285.046 169.135 283.3ZM181.175 286H178.979V278.944H177.269V277.108H178.979V274.336H181.175V277.108H182.903V278.944H181.175V286ZM183.658 281.536C183.658 278.764 185.656 276.856 188.41 276.856C191.164 276.856 193.162 278.764 193.162 281.536C193.162 284.308 191.164 286.216 188.41 286.216C185.656 286.216 183.658 284.308 183.658 281.536ZM185.854 281.536C185.854 283.156 186.898 284.254 188.41 284.254C189.922 284.254 190.966 283.156 190.966 281.536C190.966 279.916 189.922 278.818 188.41 278.818C186.898 278.818 185.854 279.916 185.854 281.536ZM200.483 277.072V279.106H199.673C198.089 279.106 197.099 279.952 197.099 281.68V286H194.903V277.126H196.973L197.099 278.422C197.477 277.54 198.323 276.946 199.511 276.946C199.817 276.946 200.123 276.982 200.483 277.072ZM201.459 290.122V288.286H202.773C203.637 288.286 204.177 288.088 204.555 287.044L204.807 286.378L201.225 277.108H203.547L205.833 283.588L208.245 277.108H210.513L206.157 287.98C205.491 289.636 204.555 290.32 203.097 290.32C202.485 290.32 201.945 290.248 201.459 290.122Z" fill="black"/>
</svg>
