<svg width="64" height="64" viewBox="0 0 64 64" fill="none" xmlns="http://www.w3.org/2000/svg">
<path d="M57.3401 17.2899C57.1517 16.9479 56.8374 16.6929 56.4639 16.579C56.0905 16.4651 55.6873 16.5013 55.3401 16.6799L46.9401 21.1999L22.5401 7.12987C22.3694 7.02875 22.1805 6.96225 21.984 6.93416C21.7876 6.90607 21.5876 6.91695 21.3954 6.96616C21.2032 7.01538 21.0225 7.10197 20.8638 7.221C20.705 7.34002 20.5713 7.48915 20.4701 7.65987C20.369 7.83059 20.3025 8.01955 20.2744 8.21597C20.2463 8.41239 20.2572 8.61242 20.3064 8.80464C20.3557 8.99686 20.4422 9.1775 20.5613 9.33625C20.6803 9.495 20.8294 9.62875 21.0001 9.72987L45.0001 23.5799V33.8399L40.5601 36.8399V27.4999C40.5613 27.2362 40.4925 26.9769 40.3608 26.7485C40.229 26.5202 40.039 26.3308 39.8101 26.1999L14.4001 11.4999C14.2294 11.4014 14.041 11.3375 13.8456 11.3118C13.6502 11.2862 13.4516 11.2992 13.2612 11.3503C13.0709 11.4014 12.8924 11.4894 12.7361 11.6095C12.5798 11.7295 12.4486 11.8792 12.3501 12.0499C12.2517 12.2206 12.1878 12.409 12.1621 12.6045C12.1364 12.7999 12.1495 12.9984 12.2006 13.1888C12.2516 13.3791 12.3397 13.5576 12.4597 13.7139C12.5798 13.8702 12.7294 14.0014 12.9001 14.0999L35.6701 27.2499L30.0001 30.2999L4.71015 16.6799C4.36183 16.5099 3.96124 16.4813 3.59233 16.6001C3.22341 16.719 2.91482 16.976 2.73122 17.3173C2.54762 17.6587 2.50327 18.0578 2.60747 18.4311C2.71166 18.8045 2.95632 19.123 3.29015 19.3199L28.5101 32.8999V59.9999C28.5101 60.3977 28.6682 60.7792 28.9495 61.0605C29.2308 61.3418 29.6123 61.4999 30.0101 61.4999C30.408 61.4999 30.7895 61.3418 31.0708 61.0605C31.3521 60.7792 31.5101 60.3977 31.5101 59.9999V32.8999L37.6001 29.6199V39.6199C37.5902 39.9019 37.66 40.1809 37.8015 40.425C37.943 40.6691 38.1505 40.8684 38.4001 40.9999C38.6147 41.1176 38.8554 41.1795 39.1001 41.1799C39.3999 41.1797 39.6927 41.0891 39.9401 40.9199L47.3701 35.9199C47.5752 35.7775 47.7406 35.5854 47.8508 35.3614C47.9611 35.1375 48.0124 34.8892 48.0001 34.6399V23.9999L56.6901 19.3199C56.8668 19.23 57.0239 19.106 57.1523 18.955C57.2808 18.8041 57.378 18.6292 57.4384 18.4404C57.4989 18.2517 57.5213 18.0528 57.5044 17.8553C57.4876 17.6578 57.4317 17.4656 57.3401 17.2899Z" fill="#3563A6"/>
<path d="M19.8501 43.3301C19.5676 43.0516 19.1868 42.8955 18.7901 42.8955C18.3934 42.8955 18.0126 43.0516 17.7301 43.3301L15.2101 45.8401L12.7001 43.3301C12.4158 43.0651 12.0397 42.9209 11.6511 42.9277C11.2625 42.9346 10.8917 43.092 10.6169 43.3669C10.342 43.6417 10.1846 44.0125 10.1778 44.4011C10.1709 44.7897 10.3151 45.1658 10.5801 45.4501L13.0901 48.0001L10.5801 50.5201C10.3016 50.8026 10.1455 51.1834 10.1455 51.5801C10.1455 51.9768 10.3016 52.3576 10.5801 52.6401C10.863 52.9188 11.2431 53.0765 11.6401 53.0801C11.8371 53.0805 12.0322 53.0418 12.2142 52.9663C12.3961 52.8907 12.5613 52.7799 12.7001 52.6401L15.2101 50.1301L17.7301 52.6401C17.8689 52.7799 18.0341 52.8907 18.216 52.9663C18.398 53.0418 18.5931 53.0805 18.7901 53.0801C19.1871 53.0765 19.5672 52.9188 19.8501 52.6401C20.1286 52.3576 20.2847 51.9768 20.2847 51.5801C20.2847 51.1834 20.1286 50.8026 19.8501 50.5201L17.3401 48.0001L19.8501 45.4901C19.994 45.3495 20.1084 45.1815 20.1865 44.996C20.2646 44.8105 20.3048 44.6113 20.3048 44.4101C20.3048 44.2089 20.2646 44.0097 20.1865 43.8242C20.1084 43.6387 19.994 43.4707 19.8501 43.3301Z" fill="#3563A6"/>
<path d="M56.7299 16.68L30.7299 2.68004C30.5119 2.56188 30.2679 2.5 30.0199 2.5C29.772 2.5 29.5279 2.56188 29.3099 2.68004L13.0499 11.43L12.9399 11.48L3.28993 16.68C3.05064 16.8074 2.85061 16.9976 2.71141 17.2302C2.5722 17.4628 2.49908 17.729 2.49993 18V46.06C2.4481 46.5249 2.42139 46.9923 2.41993 47.46C2.41692 49.819 3.06738 52.1327 4.29919 54.1446C5.53099 56.1564 7.29599 57.7877 9.39841 58.8575C11.5008 59.9274 13.8585 60.394 16.21 60.2056C18.5614 60.0171 20.8147 59.181 22.7199 57.79L29.2899 61.32C29.5079 61.4382 29.752 61.5001 29.9999 61.5001C30.2479 61.5001 30.4919 61.4382 30.7099 61.32L56.7099 47.32C56.953 47.1954 57.1571 47.0063 57.2999 46.7735C57.4428 46.5407 57.5189 46.2732 57.5199 46V18C57.5208 17.729 57.4477 17.4628 57.3085 17.2302C57.1692 16.9976 56.9692 16.8074 56.7299 16.68ZM5.42993 47.46C5.42993 45.5233 6.00436 43.6301 7.08054 42.02C8.15672 40.4098 9.6863 39.155 11.4758 38.4143C13.2652 37.6736 15.2342 37.4803 17.1335 37.8589C19.0329 38.2374 20.7773 39.1709 22.146 40.541C23.5148 41.9112 24.4464 43.6565 24.823 45.5562C25.1997 47.456 25.0044 49.4247 24.2618 51.2134C23.5193 53.0022 22.263 54.5305 20.6517 55.605C19.0404 56.6795 17.1466 57.252 15.2099 57.25C12.6152 57.2474 10.1276 56.2148 8.29382 54.3791C6.46 52.5434 5.42993 50.0548 5.42993 47.46ZM54.5199 45.1L29.9999 58.3L24.9999 55.63C27.02 53.0261 27.9552 49.7421 27.6099 46.4646C27.2645 43.1871 25.6655 40.17 23.1472 38.0443C20.6288 35.9185 17.3861 34.8487 14.0972 35.0585C10.8082 35.2683 7.72777 36.7415 5.49993 39.17V18.9L14.2599 14.17L14.3699 14.12L29.9999 5.70004L54.5199 18.9V45.1Z" fill="#3563A6"/>
</svg>
