<svg width="268" height="238" viewBox="0 0 268 238" fill="none" xmlns="http://www.w3.org/2000/svg">
<g clip-path="url(#clip0_2346_16523)">
<path opacity="0.7" d="M222.242 29.2494C222.242 29.2494 197.675 2.67936 162.164 8.47443C126.652 14.2695 109.38 44.1562 87.6066 63.4294C76.2035 73.5228 60.4964 75.7523 47.3666 82.9712C5.41946 106.001 5.67723 170.009 34.0219 197.8C58.5557 221.86 91.2757 228.272 135.491 218.549C179.706 208.827 211.163 203.642 241.589 163.429C272.014 123.217 252.248 64.8895 222.242 29.2494Z" fill="#ABC8AE" fill-opacity="0.23"/>
<path d="M183.33 58.157L46.2856 78.5676C42.8732 79.0759 39.8024 80.9189 37.7488 83.6912C35.6953 86.4635 34.8271 89.938 35.3353 93.3505L46.2186 166.424C46.7268 169.836 48.5698 172.907 51.3421 174.96C54.1144 177.014 57.5889 177.882 61.0013 177.374L109.54 170.145L120.56 200.103L149.589 164.18L198.046 156.963C199.736 156.712 201.359 156.13 202.824 155.25C204.289 154.371 205.566 153.212 206.583 151.84C207.599 150.467 208.336 148.907 208.75 147.25C209.164 145.593 209.248 143.87 208.996 142.18L198.113 69.1071C197.605 65.6947 195.762 62.624 192.989 60.5704C190.217 58.5168 186.743 57.6487 183.33 58.157Z" fill="#97B73E"/>
<path d="M178.386 53.7386L41.3413 74.1493C37.9288 74.6575 34.8581 76.5005 32.8045 79.2728C30.7509 82.0451 29.8828 85.5196 30.391 88.9321L41.2742 162.005C41.7825 165.418 43.6255 168.488 46.3977 170.542C49.17 172.596 52.6446 173.464 56.0569 172.956L104.595 165.727L115.616 195.684L144.645 159.762L193.102 152.545C194.791 152.293 196.415 151.711 197.879 150.832C199.344 149.953 200.621 148.794 201.638 147.421C202.655 146.049 203.392 144.489 203.806 142.832C204.22 141.174 204.303 139.452 204.052 137.762L193.169 64.6887C192.66 61.2763 190.817 58.2056 188.045 56.152C185.273 54.0984 181.798 53.2304 178.386 53.7386Z" fill="#9DBDE4"/>
<path d="M178.413 53.9776L41.3678 74.3857C37.9554 74.8939 34.8846 76.7368 32.8309 79.5091C30.7773 82.2814 29.9091 85.7559 30.4172 89.1684L41.2989 162.242C41.5505 163.931 42.1325 165.555 43.0115 167.02C43.8906 168.485 45.0496 169.762 46.4223 170.779C47.795 171.796 49.3545 172.532 51.0119 172.946C52.6692 173.36 54.3919 173.444 56.0816 173.192L104.62 165.964L115.64 195.922L144.67 160L193.126 152.784C194.816 152.533 196.44 151.951 197.904 151.072C199.369 150.193 200.647 149.034 201.663 147.661C202.68 146.288 203.417 144.729 203.831 143.071C204.245 141.414 204.329 139.691 204.077 138.002L193.195 64.9282C192.944 63.2385 192.362 61.6149 191.483 60.1502C190.604 58.6854 189.445 57.4081 188.072 56.3913C186.699 55.3744 185.14 54.6379 183.482 54.2237C181.825 53.8096 180.102 53.726 178.413 53.9776ZM17.1194 79.9895L7.38283 81.4395C7.20682 81.4657 7.02737 81.457 6.85472 81.4139C6.68208 81.3707 6.51962 81.294 6.37663 81.1881C6.23363 81.0822 6.1129 80.9491 6.02132 80.7965C5.92975 80.644 5.86912 80.4748 5.84291 80.2988C5.81669 80.1228 5.8254 79.9434 5.86854 79.7707C5.91168 79.5981 5.9884 79.4356 6.09433 79.2926C6.20025 79.1496 6.3333 79.0289 6.48588 78.9373C6.63846 78.8458 6.80758 78.7851 6.98359 78.7589L16.7202 77.3089C17.0756 77.256 17.4376 77.3464 17.7264 77.5604C18.0152 77.7743 18.2071 78.0942 18.2601 78.4496C18.313 78.8051 18.2226 79.167 18.0087 79.4558C17.7947 79.7446 17.4749 79.9366 17.1194 79.9895ZM27.6368 65.7916C27.4608 65.8179 27.2813 65.8091 27.1087 65.766C26.936 65.7229 26.7736 65.6461 26.6306 65.5402C26.4876 65.4343 26.3668 65.3012 26.2753 65.1487C26.1837 64.9961 26.1231 64.827 26.0969 64.651L24.6469 54.9144C24.5939 54.5589 24.6844 54.1969 24.8983 53.9081C25.1122 53.6193 25.4321 53.4273 25.7876 53.3744C26.1431 53.3215 26.5051 53.4119 26.7939 53.6258C27.0827 53.8398 27.2746 54.1597 27.3276 54.5151L28.7775 64.2517C28.8037 64.4277 28.795 64.6072 28.7518 64.7798C28.7087 64.9525 28.632 65.115 28.5261 65.2579C28.4202 65.4009 28.2871 65.5217 28.1345 65.6133C27.9819 65.7048 27.8128 65.7654 27.6368 65.7916ZM19.212 70.5453C19.036 70.5718 18.8565 70.5632 18.6839 70.52C18.5112 70.4769 18.3488 70.4 18.2059 70.2939L10.5214 64.6015C10.2326 64.3876 10.0406 64.0677 9.98762 63.7122C9.93467 63.3568 10.0251 62.9948 10.239 62.706C10.4529 62.4172 10.7728 62.2252 11.1283 62.1723C11.4838 62.1193 11.8457 62.2097 12.1345 62.4237L19.819 68.116C20.0344 68.2756 20.1977 68.4954 20.2881 68.7477C20.3786 69 20.3922 69.2734 20.3272 69.5335C20.2623 69.7935 20.1216 70.0285 19.9231 70.2086C19.7246 70.3887 19.4771 70.5059 19.212 70.5453Z" fill="#CBDB9F"/>
<path d="M218.933 13.8457C227.64 13.8457 234.699 20.9049 234.699 29.6123C234.699 38.3197 227.64 45.3789 218.933 45.3789H203.702L196.744 53.2852C196.691 53.3458 196.591 53.3084 196.591 53.2275V44.7969C189.95 42.9402 185.079 36.8455 185.079 29.6123C185.079 20.9051 192.138 13.846 200.845 13.8457H218.933Z" fill="#F0AF30"/>
<rect x="207.837" y="19.9047" width="4.07161" height="13.7774" rx="2.03581" fill="white"/>
<circle cx="209.887" cy="37.5288" r="2.00807" transform="rotate(103.735 209.887 37.5288)" fill="white"/>
<rect width="130.906" height="9" rx="4.5" transform="matrix(0.989608 -0.143793 0.180656 0.983546 46.8779 93.1149)" fill="white"/>
<rect width="119.522" height="9" rx="4.5" transform="matrix(0.989608 -0.143793 0.180656 0.983546 52.2002 116.977)" fill="white"/>
<rect width="63.1758" height="9" rx="4.5" transform="matrix(0.989608 -0.143793 0.180656 0.983546 56.8296 144.302)" fill="white"/>
</g>
<defs>
<clipPath id="clip0_2346_16523">
<rect width="267.368" height="237.018" fill="white" transform="translate(0.582031)"/>
</clipPath>
</defs>
</svg>
