<svg width="172" height="154" viewBox="0 0 172 154" fill="none" xmlns="http://www.w3.org/2000/svg">
<path opacity="0.7" d="M137.59 26.0547C137.59 26.0547 123.578 10.8994 103.322 14.2048C83.0667 17.5103 73.2147 34.5574 60.7954 45.5507C54.2912 51.3079 45.332 52.5796 37.8429 56.6972C13.9166 69.8333 14.0636 106.343 30.2311 122.195C44.225 135.918 62.8882 139.575 88.1081 134.03C113.328 128.484 131.271 125.527 148.625 102.59C165.98 79.6528 154.706 46.3835 137.59 26.0547Z" fill="#ABC8AE" fill-opacity="0.23"/>
<path d="M56.9307 111.348L87.1196 109.466" stroke="#9AA0AA" stroke-width="1.81218" stroke-linecap="round"/>
<path d="M73.6699 126.184L87.3259 125.333" stroke="#9AA0AA" stroke-width="1.81218" stroke-linecap="round"/>
<rect x="102.131" y="61.2168" width="33.3249" height="32.3731" rx="2.08567" transform="rotate(-17.8378 102.131 61.2168)" fill="#CBDB9F"/>
<path d="M115.97 70.8969L111.688 58.198L125.144 53.8465L129.387 66.4892C129.651 67.2731 128.94 68.0368 128.139 67.8311L122.406 66.3586C122.007 66.2561 121.585 66.3983 121.329 66.7215L117.776 71.2108C117.263 71.8595 116.235 71.6808 115.97 70.8969Z" fill="#97B73E"/>
<rect x="109.033" y="89.7617" width="38.4934" height="37.3941" rx="2.08567" transform="rotate(-17.8378 109.033 89.7617)" fill="#CBDB9F"/>
<path d="M125.198 102.56L119.823 86.4274L135.627 81.3116L141.157 97.5398C141.426 98.3275 140.709 99.0969 139.904 98.8845L132.372 96.8966C131.965 96.789 131.532 96.9375 131.277 97.2728L127.017 102.862C126.51 103.529 125.463 103.355 125.198 102.56Z" fill="#97B73E"/>
<path d="M79.2808 59.4823L92.1681 55.7125C92.7088 55.5544 93.2774 55.8542 93.4522 56.3898L115.239 123.121L158.575 109.399C159.213 109.197 159.873 109.639 159.929 110.305L160.332 115.08C160.373 115.562 160.076 116.01 159.616 116.159L117.918 129.712C117.336 129.902 116.716 129.551 116.579 128.954L115.239 123.121L108.176 125.296C107.629 125.464 107.048 125.16 106.875 124.614L87.8276 64.4566C87.6849 64.0059 87.2569 63.7076 86.7847 63.7297L80.2939 64.0336C79.8041 64.0565 79.3645 63.7352 79.2377 63.2615L78.5662 60.7528C78.4198 60.2055 78.737 59.6414 79.2808 59.4823Z" fill="#B5BBC3"/>
<circle cx="111.739" cy="130.303" r="7.56672" transform="rotate(-2.68039 111.739 130.303)" fill="#9A9FA9" stroke="#9AA0AA" stroke-width="2.08567"/>
<circle cx="111.739" cy="130.305" r="4.43086" transform="rotate(-2.68039 111.739 130.305)" fill="white"/>
<path d="M110.476 89.4804L143.165 78.6738" stroke="black" stroke-width="0.682175"/>
<rect x="10.6826" y="21.4434" width="51.6654" height="51.6654" rx="15.7729" fill="#F9DFAC"/>
<rect x="33.0684" y="28.2617" width="7.46234" height="25.2508" rx="3.73117" fill="#F0AF30"/>
<circle cx="36.8284" cy="60.5626" r="3.68034" transform="rotate(103.735 36.8284 60.5626)" fill="#F0AF30"/>
</svg>