<svg width="320" height="320" viewBox="0 0 320 320" fill="none" xmlns="http://www.w3.org/2000/svg">
<g opacity="0.25">
<path d="M0 160C0 151.878 3.9648 144.521 10.368 139.203C16.7712 133.875 25.6192 130.585 35.3888 130.585H82.0448C81.7664 131.174 81.504 131.776 81.2512 132.381L41.8784 155.792C32.1984 161.542 27.824 173.251 31.3504 183.939L33.1392 189.357C14.6432 188.397 0.0032 175.622 0.0032 160.003L0 160ZM77.8912 208.201L107.021 204.189C106.685 204.013 106.349 203.83 106.013 203.645C106.346 203.827 106.682 204.009 107.021 204.185C114.634 208.179 122.998 209.952 131.238 208.985H131.251C131.802 208.953 147.677 208.157 155.507 205.504C157.002 205.171 158.49 204.749 159.962 204.23C175.856 198.659 186.278 183.801 188.739 166.153L200.912 164.477C201.805 171.184 204.054 199.43 185.696 235.965C178.614 250.061 169.683 259.635 160.003 265.449C158.813 263.475 156.339 262.537 154.061 263.389C151.667 264.281 148.291 265.427 143.722 266.752C135.965 269.001 125.939 267.206 120.442 265.869C118.099 265.299 115.69 266.512 114.749 268.733C110.374 266.969 106.198 264.646 102.333 261.846C84.608 248.989 79.4144 222.339 77.8944 208.198L77.8912 208.201Z" fill="#CCD2D6"/>
<path d="M232.115 218.829C232.115 235.072 247.962 248.24 267.507 248.24H284.611C304.154 248.24 319.997 261.408 319.997 277.658C319.997 285.779 316.035 293.13 309.632 298.451C303.229 303.779 294.378 307.069 284.611 307.069H35.3888C15.8432 307.069 0 293.901 0 277.658C0 269.536 3.9648 262.179 10.368 256.861C16.7712 251.536 25.6192 248.243 35.3888 248.243H37.7632C47.536 248.243 56.384 244.951 62.7872 239.629C64.096 238.544 65.2992 237.373 66.3904 236.128C72.3424 253.255 84.5504 274.016 109.382 281.725L109.133 282.33C107.968 285.159 109.629 288.346 112.614 289.015C117.939 290.218 126.669 291.527 137.018 290.544C148.051 289.501 156.486 286.672 161.133 284.768C163.459 283.815 164.698 281.274 164.006 278.855L163.846 278.291C212.941 256.227 216.909 183.296 217.069 163.562C222.88 166.183 229.12 167.283 235.277 166.563C235.277 166.563 235.28 166.563 235.29 166.56C235.75 166.535 249.034 165.866 255.606 163.648C255.61 163.645 255.616 163.645 255.619 163.645C256.874 163.36 258.118 163.008 259.35 162.576C272.691 157.901 281.437 145.408 283.478 130.586H284.611C304.154 130.586 319.997 143.754 319.997 160.003C319.997 168.125 316.035 175.482 309.632 180.8C303.229 186.128 294.378 189.418 284.611 189.418H267.507C257.734 189.418 248.886 192.707 242.483 198.032C236.08 203.357 232.115 210.704 232.115 218.829ZM284.614 12.9282H35.3888C25.6192 12.9282 16.7712 16.2178 10.368 21.5458C3.9648 26.8674 0 34.221 0 42.3426C0 58.589 15.8464 71.7602 35.3888 71.7602H82.8608C102.406 71.7602 118.25 84.9282 118.25 101.171C118.25 101.674 118.237 102.173 118.205 102.672C119.245 102.266 119.859 102.055 119.981 102.013C119.968 102.019 119.949 102.029 119.936 102.039C119.949 102.032 119.965 102.026 119.981 102.016C119.987 102.013 119.994 102.007 120.003 102.007C121.178 101.463 122.384 100.97 123.626 100.531C140.573 94.5922 159.248 100.791 172.374 114.851L193.386 102.359C196.118 95.8338 200.442 90.2946 206.08 86.4994C206.403 86.2626 206.739 86.0482 207.078 85.853C207.117 85.8242 207.152 85.8082 207.19 85.7858C207.194 85.7858 207.194 85.7826 207.197 85.7826C207.971 85.3026 208.771 84.8546 209.597 84.4482C219.136 79.2386 225.466 77.0306 225.853 76.8994C225.83 76.909 225.811 76.925 225.786 76.9346C225.811 76.925 225.83 76.9122 225.853 76.9026C225.859 76.8994 225.866 76.8962 225.869 76.8962C226.854 76.4386 227.869 76.0258 228.909 75.661C237.562 72.6274 246.755 73.373 255.11 77.0882C260.861 73.7282 267.869 71.757 275.437 71.757H284.614C294.381 71.757 303.232 68.4642 309.635 63.1394C316.038 57.8178 320 50.4642 320 42.3426C320 26.0994 304.154 12.9314 284.614 12.9314V12.9282Z" fill="#CCD2D6"/>
<path d="M105.26 99.7378C105.26 103.575 104.137 107.146 102.197 110.147C101.669 110.429 101.135 110.717 100.591 111.015C99.6086 111.501 98.655 112.035 97.727 112.608C97.7238 112.608 97.7238 112.611 97.7206 112.611C97.6758 112.637 97.6342 112.659 97.5926 112.688C97.183 112.925 96.783 113.181 96.399 113.459C94.2262 114.925 92.2134 116.605 90.3798 118.471H90.3766C88.9814 118.794 87.5254 118.963 86.0342 118.963C75.4166 118.963 66.8086 110.355 66.8086 99.7378C66.8086 89.1202 75.4166 80.5122 86.0342 80.5122C96.6518 80.5122 105.26 89.1202 105.26 99.7378Z" fill="#CCD2D6"/>
</g>
<path d="M214.983 162.541L200.906 164.48L188.733 166.153C190.023 156.893 189.124 146.864 185.671 137.008C182.65 128.397 178.033 120.896 172.375 114.851L193.383 102.361C189.265 112.214 188.781 124.326 192.913 136.121C196.554 146.505 203.143 154.851 211.06 160.192C212.333 161.056 213.645 161.843 214.983 162.544V162.541Z" fill="#CCD2D6"/>
<g opacity="0.75">
<path d="M255.624 163.642C249.057 165.866 235.755 166.538 235.294 166.557C235.284 166.56 235.281 166.56 235.281 166.56C229.124 167.28 222.884 166.179 217.076 163.558C216.375 163.238 215.678 162.899 214.99 162.538C213.652 161.837 212.34 161.05 211.067 160.186C203.15 154.845 196.564 146.499 192.919 136.115C188.788 124.32 189.271 112.208 193.39 102.355C196.123 95.8271 200.446 90.2911 206.084 86.4959C206.408 86.2623 206.743 86.0447 207.083 85.8495C207.121 85.8239 207.153 85.8079 207.191 85.7855C207.195 85.7855 207.195 85.7823 207.198 85.7823C207.972 85.3023 208.772 84.8543 209.595 84.4479C219.134 79.2383 225.463 77.0335 225.851 76.9023C218.779 80.1919 213.211 85.8047 209.508 92.7743C203.675 103.744 202.478 118.08 207.358 132C211.921 145.024 220.862 155.014 231.335 160.282C238.987 164.141 247.454 165.475 255.624 163.638V163.642Z" fill="#CCD2D6"/>
</g>
<path d="M231.593 167.734C226.597 167.734 221.509 166.614 216.677 164.435C215.903 164.083 215.205 163.741 214.537 163.389C213.17 162.672 211.817 161.862 210.521 160.982C202.156 155.338 195.58 146.621 192.009 136.435C187.919 124.762 188.092 112.528 192.498 101.987C195.356 95.1585 199.861 89.5297 205.529 85.7121C205.871 85.4625 206.226 85.2353 206.585 85.0273C206.591 85.0241 206.597 85.0177 206.604 85.0145L206.793 84.8256H206.921C207.66 84.3744 208.409 83.9617 209.148 83.5969C218.911 78.2657 225.273 76.0833 225.538 75.9937L226.252 77.7729C219.567 80.8833 214.069 86.2272 210.351 93.2256C204.386 104.445 203.621 118.461 208.258 131.683C212.562 143.965 221.129 154.077 231.762 159.424C239.471 163.312 247.647 164.445 255.41 162.704L255.929 164.55C249.465 166.739 236.885 167.437 235.465 167.51L235.442 167.517H235.343C234.101 167.661 232.85 167.734 231.589 167.734H231.593ZM207.449 86.7456C207.177 86.9056 206.905 87.0849 206.642 87.2769L206.613 87.296C201.253 90.9056 196.985 96.2401 194.271 102.73C190.108 112.685 189.945 124.739 193.823 135.802C197.26 145.6 203.573 153.978 211.599 159.395C212.837 160.237 214.127 161.008 215.429 161.693C216.066 162.029 216.735 162.355 217.471 162.691C223.183 165.27 229.273 166.282 235.081 165.622L235.122 165.61L235.25 165.603C235.317 165.603 238.636 165.434 242.757 165.005C238.757 164.387 234.773 163.098 230.905 161.146C219.833 155.578 210.917 145.072 206.453 132.323C201.641 118.595 202.447 104.019 208.665 92.3297C210.809 88.2913 213.522 84.7745 216.7 81.8785C214.725 82.8321 212.495 83.968 210.06 85.2961L210.025 85.3152C209.289 85.68 208.54 86.0929 207.797 86.5505L207.596 86.7521H207.455L207.449 86.7456Z" fill="#CCD2D6"/>
<g opacity="0.5">
<path d="M280.905 106.234C272.496 82.2336 249.216 68.544 228.905 75.6608C227.865 76.0256 226.851 76.4384 225.865 76.896C225.859 76.896 225.853 76.8992 225.849 76.9024C207.648 85.3728 199.379 109.238 207.353 132C215.251 154.544 236.269 167.987 255.622 163.642C256.877 163.36 258.121 163.005 259.353 162.573C279.667 155.456 289.315 130.23 280.905 106.234ZM261.645 146.211C260.121 147.174 258.48 147.978 256.726 148.589C254.438 149.392 252.089 149.83 249.744 149.923C237.088 150.451 224.333 141.142 219.216 126.541C214.099 111.939 218.256 96.704 228.473 89.2128C230.365 87.824 232.47 86.7008 234.765 85.8976C236.24 85.3824 237.737 85.0144 239.245 84.7968C252.688 82.832 266.819 92.384 272.272 107.949C277.616 123.19 272.857 139.114 261.645 146.208V146.211Z" fill="#CCD2D6"/>
</g>
<path d="M248.255 165.414C240.914 165.414 233.458 163.126 226.667 158.707C217.499 152.742 210.319 143.37 206.447 132.314C202.533 121.146 202.328 109.238 205.874 98.7808C209.41 88.352 216.341 80.2816 225.4 76.0512L225.461 76.0192C226.447 75.5616 227.496 75.1328 228.587 74.7488C238.68 71.2096 249.784 72.5248 259.855 78.4448C269.871 84.3328 277.669 94.0896 281.81 105.91C290.383 130.371 280.45 156.195 259.672 163.475C258.443 163.904 257.151 164.275 255.832 164.573C253.343 165.133 250.805 165.408 248.255 165.408V165.414ZM226.424 77.696L226.258 77.776C208.472 86.0512 200.568 109.728 208.264 131.683C215.967 153.674 236.239 167.011 255.413 162.71C256.658 162.429 257.88 162.077 259.039 161.674C278.818 154.742 288.219 130.016 279.999 106.554C276.005 95.1584 268.507 85.7696 258.882 80.1088C249.307 74.48 238.776 73.2224 229.227 76.5696C228.255 76.912 227.311 77.2928 226.427 77.6992L226.424 77.696Z" fill="#CCD2D6"/>
<path d="M258.996 112.602C253.879 98.0031 241.13 88.6911 228.471 89.2159C218.254 96.7071 214.097 111.939 219.214 126.544C224.33 141.149 237.082 150.454 249.742 149.926C259.962 142.438 264.113 127.206 258.996 112.605V112.602ZM229.716 129.814C228.19 130.349 226.503 129.498 225.946 127.91C225.387 126.323 226.177 124.605 227.703 124.067C229.23 123.533 230.919 124.387 231.476 125.971C232.033 127.558 231.242 129.28 229.716 129.814ZM233.07 119.446C229.022 120.867 224.548 118.608 223.073 114.4C221.601 110.195 223.687 105.638 227.735 104.221C231.783 102.803 236.257 105.066 237.732 109.267C239.204 113.472 237.118 118.032 233.07 119.446Z" fill="#CCD2D6"/>
<g opacity="0.75">
<path d="M272.271 107.952C278.338 125.264 271.375 143.459 256.725 148.592C254.434 149.395 252.089 149.83 249.743 149.926C259.964 142.438 264.114 127.206 258.997 112.605C253.881 98.0032 241.132 88.6944 228.473 89.2192C230.367 87.8304 232.473 86.7072 234.761 85.904C249.41 80.7712 266.204 90.6464 272.271 107.955V107.952Z" fill="#CCD2D6"/>
</g>
<path d="M248.105 150.901C235.113 150.901 222.726 141.16 217.715 126.853C212.563 112.152 216.508 96.3508 227.308 88.434L227.567 88.2484C229.503 86.866 231.615 85.7684 233.849 84.9908C241.203 82.4148 249.292 83.3684 256.627 87.6788C263.907 91.9572 269.574 99.0452 272.579 107.631C275.587 116.216 275.583 125.288 272.566 133.176C269.529 141.119 263.801 146.914 256.447 149.49C254.111 150.309 251.667 150.776 249.183 150.879C248.822 150.895 248.463 150.901 248.102 150.901H248.105ZM228.198 90.1652C218.259 97.6468 214.691 112.421 219.526 126.22C224.268 139.759 235.919 148.981 248.102 148.981C248.438 148.981 248.771 148.975 249.107 148.959C251.401 148.866 253.657 148.434 255.814 147.679C262.63 145.292 267.942 139.896 270.774 132.492C273.628 125.029 273.625 116.424 270.767 108.268C267.91 100.108 262.54 93.3844 255.654 89.3364C248.815 85.3172 241.299 84.418 234.486 86.8052C232.332 87.5572 230.3 88.626 228.447 89.986L228.201 90.1684L228.198 90.1652Z" fill="#CCD2D6"/>
<g opacity="0.75">
<path d="M233.066 119.446C229.018 120.867 224.545 118.608 223.07 114.4C221.598 110.195 223.684 105.638 227.732 104.221C231.78 102.803 236.254 105.066 237.729 109.267C239.201 113.472 237.114 118.032 233.066 119.446ZM229.716 129.814C228.19 130.349 226.503 129.498 225.946 127.91C225.386 126.323 226.177 124.605 227.703 124.067C229.23 123.533 230.919 124.387 231.476 125.971C232.033 127.558 231.242 129.28 229.716 129.814Z" fill="#CCD2D6"/>
</g>
<path d="M107.016 204.189L77.8861 208.201L60.8237 210.55C49.3549 212.125 38.3885 205.289 34.7597 194.297L31.3421 183.939C27.8189 173.251 32.1933 161.542 41.8701 155.792L81.2461 132.384C76.3309 144.141 75.7517 158.592 80.6829 172.669C85.7261 187.056 95.5117 198.157 107.013 204.192L107.016 204.189Z" fill="#CCD2D6"/>
<g opacity="0.75">
<path d="M155.506 205.504C147.676 208.156 131.804 208.953 131.25 208.982H131.237C122.997 209.948 114.632 208.176 107.023 204.185C95.522 198.153 85.7364 187.049 80.69 172.662C75.7588 158.588 76.3347 144.134 81.2531 132.38C84.5107 124.592 89.6691 117.987 96.3955 113.459C96.7827 113.177 97.1827 112.921 97.5891 112.688C97.6339 112.659 97.6756 112.636 97.7204 112.611C97.7236 112.611 97.7235 112.608 97.7267 112.608C98.6515 112.035 99.6051 111.5 100.588 111.017C111.97 104.803 119.522 102.172 119.986 102.016C111.551 105.939 104.904 112.636 100.485 120.95C93.5283 134.041 92.0947 151.145 97.9187 167.753C103.362 183.296 114.034 195.212 126.533 201.5C135.66 206.102 145.762 207.696 155.509 205.507L155.506 205.504Z" fill="#CCD2D6"/>
</g>
<path d="M126.8 210.201C119.987 210.201 113.078 208.445 106.576 205.037C94.467 198.685 84.7006 187.001 79.7854 172.982C74.9214 159.094 75.1262 144.544 80.3678 132.013C83.7598 123.897 89.1134 117.213 95.8462 112.675C96.2366 112.39 96.659 112.121 97.0942 111.869L97.2446 111.689L97.4174 111.673C98.3262 111.12 99.2414 110.614 100.147 110.166C111.779 103.817 119.36 101.216 119.68 101.107L120.393 102.886C112.381 106.614 105.792 113.017 101.337 121.401C94.1982 134.835 93.283 151.613 98.8286 167.437C103.977 182.134 114.233 194.237 126.966 200.643C136.201 205.299 146 206.659 155.302 204.573L155.821 206.419C148.144 209.017 133.069 209.856 131.325 209.945C129.827 210.118 128.317 210.208 126.806 210.208L126.8 210.201ZM98.019 113.545C97.6478 113.763 97.2894 113.993 96.9566 114.237L96.9278 114.256C90.499 118.582 85.3822 124.979 82.1342 132.752C77.1486 144.669 76.9534 159.101 81.5934 172.345C86.3518 185.91 95.779 197.206 107.465 203.334C115.078 207.328 123.261 208.95 131.123 208.029L131.206 208.022C132.099 207.977 136.579 207.731 141.712 207.145C136.445 206.525 131.187 204.918 126.096 202.352C112.921 195.725 102.32 183.229 97.0078 168.064C91.2862 151.737 92.243 134.4 99.635 120.493C102.406 115.273 105.977 110.787 110.185 107.187C107.555 108.432 104.483 109.974 101.046 111.853L101.011 111.872C100.134 112.307 99.2414 112.8 98.355 113.341L98.1982 113.526L98.0158 113.542L98.019 113.545Z" fill="#CCD2D6"/>
<g opacity="0.5">
<path d="M162.689 184.704C160.875 185.856 158.913 186.81 156.82 187.542C154.087 188.502 151.287 189.024 148.491 189.133C133.39 189.763 118.171 178.656 112.068 161.235C105.966 143.811 110.919 125.638 123.115 116.701C125.374 115.043 127.886 113.706 130.619 112.746C132.379 112.128 134.167 111.693 135.963 111.43C152.001 109.085 168.862 120.48 175.367 139.056C181.742 157.242 176.065 176.24 162.689 184.704ZM185.671 137.005C182.651 128.394 178.033 120.893 172.375 114.848C159.249 100.787 140.571 94.5887 123.623 100.528C122.382 100.966 121.172 101.456 119.998 102C119.991 102 119.985 102.006 119.975 102.01C98.2602 112.118 88.3914 140.589 97.9114 167.747C107.332 194.646 132.411 210.685 155.499 205.501C156.993 205.168 158.478 204.742 159.953 204.227C175.847 198.656 186.27 183.798 188.731 166.15C190.02 156.89 189.121 146.861 185.668 137.005H185.671Z" fill="#CCD2D6"/>
</g>
<path d="M146.712 207.433C137.992 207.433 129.132 204.713 121.061 199.462C110.159 192.368 101.615 181.216 97.0099 168.067C92.3539 154.781 92.1107 140.614 96.3251 128.179C100.524 115.789 108.757 106.201 119.509 101.171L119.695 101.046H119.778C120.914 100.525 122.098 100.048 123.304 99.6221C140.114 93.7309 159.183 99.3149 173.077 114.192C178.949 120.47 183.618 128.249 186.575 136.688C189.96 146.349 191.036 156.582 189.682 166.285C188.431 175.261 185.135 183.561 180.152 190.291C175 197.251 168.124 202.384 160.274 205.136C158.786 205.657 157.25 206.096 155.714 206.441C152.754 207.107 149.743 207.433 146.712 207.433ZM120.418 102.867L120.386 102.883C99.0835 112.797 89.6115 141.152 98.8211 167.433C108.044 193.763 132.322 209.728 155.295 204.569C156.76 204.24 158.223 203.824 159.64 203.328C174.744 198.035 185.263 184.089 187.784 166.025C189.093 156.627 188.05 146.701 184.767 137.328C181.896 129.139 177.368 121.593 171.676 115.507C158.312 101.193 140.021 95.8045 123.944 101.44C122.738 101.865 121.551 102.349 120.418 102.873V102.867ZM147.247 190.118C131.826 190.118 117.119 178.55 111.164 161.552C105.045 144.086 109.727 125.321 122.546 115.923C124.914 114.185 127.525 112.809 130.3 111.837C132.095 111.209 133.954 110.752 135.823 110.48C143.88 109.302 152.389 111.478 159.788 116.608C167.228 121.769 173.084 129.625 176.274 138.736C182.677 156.998 177.18 176.669 163.202 185.513C161.308 186.713 159.269 187.699 157.138 188.445C154.364 189.417 151.464 189.971 148.53 190.089C148.101 190.109 147.672 190.115 147.247 190.115V190.118ZM140.264 112.077C138.879 112.077 137.49 112.176 136.104 112.377C134.357 112.633 132.616 113.059 130.936 113.648C128.338 114.56 125.9 115.843 123.682 117.472C111.535 126.374 107.132 144.24 112.975 160.915C118.818 177.593 133.4 188.8 148.453 188.173C151.202 188.064 153.909 187.545 156.508 186.633C158.501 185.936 160.412 185.014 162.181 183.891C175.41 175.52 180.575 156.797 174.466 139.369C168.719 122.963 154.773 112.073 140.264 112.073V112.077Z" fill="#CCD2D6"/>
<path d="M159.53 144.601C153.428 127.181 138.215 116.073 123.114 116.697C110.922 125.635 105.966 143.808 112.071 161.229C118.177 178.653 133.39 189.76 148.49 189.133C160.682 180.198 165.636 162.025 159.53 144.601ZM124.596 165.139C122.775 165.779 120.759 164.761 120.094 162.867C119.431 160.976 120.372 158.921 122.193 158.281C124.014 157.645 126.033 158.662 126.695 160.553C127.358 162.448 126.417 164.499 124.596 165.139ZM128.596 152.768C123.767 154.457 118.43 151.766 116.673 146.745C114.913 141.731 117.402 136.291 122.231 134.601C127.06 132.909 132.401 135.603 134.158 140.621C135.918 145.638 133.425 151.078 128.596 152.768Z" fill="#CCD2D6"/>
<g opacity="0.75">
<path d="M175.369 139.056C182.607 159.712 174.3 181.42 156.821 187.545C154.089 188.502 151.289 189.024 148.489 189.139C160.681 180.204 165.634 162.032 159.529 144.608C153.426 127.187 138.213 116.076 123.109 116.704C125.369 115.046 127.881 113.705 130.613 112.748C148.092 106.624 168.13 118.406 175.369 139.059V139.056Z" fill="#CCD2D6"/>
</g>
<g opacity="0.75">
<path d="M128.594 152.771C123.765 154.46 118.427 151.769 116.67 146.748C114.91 141.734 117.4 136.294 122.229 134.604C127.058 132.912 132.398 135.606 134.155 140.624C135.915 145.641 133.422 151.081 128.594 152.771ZM124.594 165.139C122.773 165.779 120.757 164.761 120.091 162.867C119.429 160.976 120.37 158.921 122.19 158.281C124.011 157.644 126.03 158.662 126.693 160.553C127.355 162.448 126.414 164.499 124.594 165.139Z" fill="#CCD2D6"/>
</g>
<g opacity="0.5">
<path d="M102.329 261.846C106.195 264.649 110.371 266.973 114.745 268.733C114.739 268.745 114.732 268.765 114.723 268.777L109.382 281.721C64.2361 267.705 60.8281 210.547 60.8281 210.547L77.8905 208.198C79.4137 222.339 84.6041 248.989 102.332 261.846H102.329ZM217.075 163.561C216.915 183.293 212.943 256.227 163.849 278.291L160.521 266.646C160.396 266.217 160.223 265.814 160.003 265.453C169.679 259.638 178.611 250.064 185.692 235.968C204.051 199.43 201.804 171.184 200.911 164.48L214.988 162.541C215.679 162.902 216.374 163.241 217.075 163.561Z" fill="#CCD2D6"/>
</g>
<path d="M109.934 282.899L109.096 282.64C98.6317 279.392 89.5309 273.568 82.0397 265.334C76.0621 258.765 71.0989 250.659 67.2845 241.238C60.8045 225.235 59.8765 210.749 59.8669 210.605L59.8125 209.718L78.7341 207.117L78.8397 208.099C80.3885 222.493 85.5757 248.512 102.891 261.072C106.712 263.843 110.821 266.121 115.102 267.843L116.069 268.23L115.604 269.158L109.934 282.899ZM61.8573 211.376C62.1677 214.723 63.6205 227.097 69.0861 240.573C74.8653 254.819 86.4397 273.229 108.83 280.544L113.489 269.257C109.387 267.523 105.448 265.296 101.764 262.627C84.2413 249.917 78.7565 224.173 77.0413 209.286L61.8573 211.376ZM163.23 279.619L159.595 266.909C159.496 266.563 159.355 266.237 159.179 265.949L158.676 265.123L159.505 264.627C169.684 258.509 178.206 248.723 184.83 235.536C202.852 199.67 200.965 172.176 199.956 164.605L199.832 163.657L215.16 161.545L215.432 161.689C216.068 162.025 216.734 162.352 217.473 162.688L218.04 162.947L218.033 163.568C217.96 172.685 217.003 196.467 209.729 220.329C200.734 249.846 185.429 269.641 164.241 279.165L163.23 279.619ZM161.249 265.811C161.323 265.993 161.387 266.182 161.444 266.377L164.465 276.95C211.246 254.976 215.857 185.974 216.107 164.169C215.656 163.955 215.227 163.744 214.814 163.533L201.979 165.299C203.003 174.163 204.136 201.398 186.548 236.397C179.921 249.59 171.412 259.481 161.249 265.811Z" fill="#CCD2D6"/>
<g opacity="0.75">
<path d="M161.133 284.768C156.484 286.672 148.052 289.498 137.015 290.544C126.666 291.527 117.936 290.218 112.608 289.015C109.623 288.343 107.962 285.155 109.13 282.327L109.38 281.722L114.72 268.778C114.72 268.778 114.733 268.746 114.743 268.733C115.68 266.512 118.09 265.299 120.432 265.869C125.93 267.207 135.952 268.999 143.716 266.752C148.285 265.424 151.658 264.282 154.055 263.389C156.33 262.538 158.807 263.479 159.997 265.453C160.218 265.815 160.391 266.218 160.516 266.647L163.844 278.291L164.004 278.855C164.695 281.274 163.456 283.815 161.13 284.768H161.133Z" fill="#CCD2D6"/>
</g>
<path d="M129.692 291.846C122.562 291.846 116.566 290.889 112.402 289.949C110.7 289.565 109.266 288.461 108.463 286.915C107.663 285.373 107.583 283.568 108.249 281.958L113.868 268.352C114.998 265.689 117.855 264.253 120.668 264.934C125.919 266.211 135.865 268.025 143.455 265.827C147.356 264.694 150.812 263.571 153.727 262.486C156.38 261.497 159.366 262.534 160.828 264.953C161.09 265.385 161.298 265.865 161.449 266.377L164.94 278.589C165.762 281.478 164.287 284.515 161.506 285.654C156.383 287.75 147.993 290.467 137.116 291.497C134.537 291.741 132.057 291.846 129.698 291.846H129.692ZM115.609 269.158L110.025 282.691C109.577 283.776 109.631 284.992 110.169 286.032C110.71 287.072 111.679 287.817 112.825 288.077C118.23 289.296 126.799 290.547 136.927 289.587C147.57 288.579 155.769 285.926 160.77 283.878C162.646 283.11 163.641 281.062 163.084 279.117L159.596 266.912C159.497 266.566 159.356 266.24 159.18 265.952C158.194 264.32 156.182 263.622 154.393 264.291C151.433 265.392 147.932 266.531 143.986 267.677C135.964 270 125.647 268.128 120.21 266.806C118.316 266.345 116.39 267.315 115.631 269.11L115.609 269.161V269.158Z" fill="#CCD2D6"/>
<path d="M66.5028 270.579C65.946 270.579 65.3924 270.573 64.8356 270.563C64.3044 270.554 63.8852 270.115 63.8948 269.584C63.9044 269.053 64.346 268.646 64.874 268.643C67.3988 268.691 69.9492 268.627 72.4644 268.454C72.9924 268.416 73.45 268.819 73.4884 269.347C73.5236 269.875 73.1268 270.333 72.5956 270.371C70.5764 270.509 68.5284 270.579 66.5028 270.579ZM57.194 270.083C57.1588 270.083 57.1268 270.083 57.0916 270.077C54.5188 269.802 51.9364 269.408 49.418 268.909C48.8996 268.806 48.5604 268.301 48.6628 267.779C48.7652 267.258 49.274 266.922 49.7924 267.024C52.2564 267.514 54.7812 267.898 57.2996 268.166C57.8276 268.224 58.2084 268.698 58.1508 269.222C58.0996 269.715 57.6804 270.08 57.1972 270.08L57.194 270.083ZM80.1572 269.517C79.6932 269.517 79.2836 269.178 79.21 268.704C79.1268 268.179 79.4852 267.69 80.01 267.606C82.506 267.216 85.0084 266.71 87.4532 266.106C87.9684 265.978 88.4868 266.291 88.6148 266.806C88.7428 267.322 88.4292 267.843 87.914 267.968C85.4148 268.586 82.858 269.104 80.3044 269.504C80.2532 269.51 80.2052 269.517 80.154 269.517H80.1572ZM95.0468 265.824C94.6468 265.824 94.2756 265.574 94.138 265.174C93.9652 264.672 94.2308 264.128 94.7332 263.955C95.2228 263.786 95.7124 263.613 96.1988 263.437C98.0932 262.746 99.978 261.981 101.792 261.165C102.276 260.947 102.845 261.165 103.063 261.648C103.28 262.131 103.063 262.701 102.58 262.918C100.72 263.754 98.794 264.534 96.858 265.242C96.3588 265.424 95.8628 265.6 95.3604 265.773C95.258 265.808 95.1524 265.824 95.0468 265.824ZM109.031 259.523C108.698 259.523 108.375 259.35 108.199 259.04C107.933 258.579 108.093 257.994 108.554 257.731C110.82 256.429 112.951 255.037 114.884 253.594C115.309 253.277 115.911 253.363 116.228 253.789C116.544 254.214 116.458 254.816 116.032 255.133C114.036 256.624 111.844 258.058 109.511 259.398C109.36 259.485 109.197 259.526 109.034 259.526L109.031 259.523ZM166.573 254.982C166.055 254.982 165.629 254.57 165.613 254.048C165.6 253.517 166.016 253.075 166.548 253.062C169.066 252.995 171.629 252.858 174.167 252.653C174.695 252.608 175.159 253.005 175.2 253.533C175.242 254.061 174.848 254.525 174.32 254.566C171.748 254.774 169.149 254.915 166.599 254.982C166.589 254.982 166.58 254.982 166.573 254.982ZM158.893 254.976C158.893 254.976 158.874 254.976 158.864 254.976C156.272 254.899 153.674 254.749 151.143 254.528C150.615 254.483 150.224 254.016 150.269 253.488C150.314 252.96 150.778 252.566 151.309 252.614C153.802 252.832 156.362 252.982 158.919 253.056C159.45 253.072 159.866 253.514 159.85 254.045C159.834 254.566 159.408 254.976 158.89 254.976H158.893ZM181.876 253.75C181.402 253.75 180.989 253.402 180.925 252.918C180.855 252.394 181.223 251.91 181.748 251.84C184.26 251.504 186.794 251.094 189.28 250.627C189.802 250.528 190.304 250.874 190.4 251.392C190.5 251.914 190.154 252.416 189.636 252.512C187.117 252.986 184.548 253.398 182.004 253.741C181.959 253.747 181.917 253.75 181.876 253.75ZM143.604 253.626C143.556 253.626 143.508 253.622 143.456 253.616C140.724 253.197 138.231 252.704 135.837 252.106C135.322 251.978 135.012 251.456 135.14 250.941C135.268 250.426 135.789 250.112 136.304 250.243C138.64 250.826 141.076 251.309 143.748 251.718C144.272 251.798 144.631 252.288 144.551 252.813C144.477 253.286 144.068 253.629 143.604 253.629V253.626ZM196.967 250.912C196.535 250.912 196.141 250.618 196.036 250.179C195.911 249.664 196.228 249.146 196.743 249.021C199.216 248.419 201.69 247.744 204.103 247.018C204.612 246.864 205.146 247.152 205.3 247.661C205.453 248.17 205.165 248.704 204.656 248.858C202.212 249.597 199.7 250.278 197.194 250.89C197.117 250.909 197.04 250.918 196.967 250.918V250.912ZM121.242 250.285C121.002 250.285 120.765 250.195 120.58 250.019C120.196 249.651 120.183 249.046 120.551 248.662C121.127 248.061 121.668 247.443 122.176 246.816C121.901 246.662 121.632 246.506 121.364 246.346C120.909 246.074 120.759 245.485 121.028 245.03C121.3 244.576 121.888 244.426 122.343 244.694C122.669 244.886 122.999 245.078 123.335 245.264C123.917 244.422 124.439 243.565 124.896 242.688C125.143 242.218 125.722 242.035 126.192 242.282C126.663 242.528 126.845 243.107 126.599 243.578C126.138 244.458 125.62 245.322 125.047 246.166C126.346 246.816 127.703 247.421 129.108 247.968C129.6 248.16 129.847 248.717 129.652 249.213C129.46 249.706 128.903 249.952 128.407 249.757C126.842 249.146 125.332 248.47 123.895 247.734C123.29 248.506 122.637 249.258 121.94 249.987C121.751 250.186 121.498 250.285 121.245 250.285H121.242ZM211.671 246.474C211.277 246.474 210.909 246.23 210.768 245.84C210.586 245.341 210.845 244.79 211.341 244.611C213.738 243.741 216.122 242.794 218.429 241.802C218.916 241.59 219.482 241.818 219.69 242.304C219.901 242.79 219.674 243.357 219.188 243.565C216.845 244.573 214.426 245.533 211.994 246.416C211.885 246.454 211.776 246.474 211.668 246.474H211.671ZM115.866 241.712C115.604 241.712 115.341 241.603 115.149 241.392C113.258 239.28 112.048 236.995 111.549 234.602C111.517 234.454 111.492 234.304 111.469 234.154C111.386 233.629 111.744 233.139 112.269 233.056C112.794 232.976 113.284 233.331 113.367 233.856C113.386 233.974 113.405 234.093 113.431 234.208C113.856 236.269 114.916 238.253 116.58 240.109C116.932 240.502 116.9 241.11 116.506 241.466C116.324 241.629 116.093 241.712 115.866 241.712ZM225.77 240.39C225.418 240.39 225.082 240.198 224.912 239.862C224.672 239.389 224.864 238.813 225.335 238.573C227.613 237.421 229.863 236.192 232.023 234.922C232.48 234.653 233.069 234.803 233.338 235.261C233.607 235.718 233.456 236.307 232.999 236.576C230.807 237.869 228.519 239.117 226.202 240.288C226.064 240.358 225.914 240.39 225.77 240.39ZM128.007 236.803C127.975 236.803 127.943 236.803 127.911 236.8C127.383 236.746 126.999 236.275 127.05 235.747C127.095 235.312 127.12 234.87 127.13 234.435C127.13 234.368 127.13 234.304 127.13 234.237C127.13 232.406 126.656 230.493 125.792 228.845C125.546 228.374 125.728 227.795 126.199 227.549C126.669 227.302 127.248 227.485 127.495 227.955C128.5 229.872 129.05 232.102 129.05 234.237C129.05 234.317 129.05 234.394 129.05 234.474C129.04 234.96 129.012 235.453 128.96 235.939C128.909 236.435 128.493 236.803 128.007 236.803ZM238.992 232.586C238.685 232.586 238.388 232.438 238.199 232.17C237.898 231.731 238.01 231.136 238.448 230.835C240.554 229.389 242.612 227.866 244.564 226.304C244.976 225.974 245.581 226.042 245.914 226.454C246.244 226.867 246.18 227.472 245.764 227.805C243.776 229.395 241.68 230.947 239.536 232.419C239.37 232.534 239.181 232.589 238.996 232.589L238.992 232.586ZM114.25 227.702C114.052 227.702 113.853 227.642 113.68 227.517C113.255 227.203 113.162 226.602 113.476 226.176C115.124 223.939 117.38 222.707 119.837 222.707H119.911C120.285 222.71 120.666 222.742 121.04 222.803C121.565 222.89 121.917 223.382 121.834 223.904C121.748 224.429 121.252 224.781 120.733 224.698C120.458 224.653 120.173 224.627 119.892 224.627H119.844C118.013 224.627 116.304 225.581 115.031 227.315C114.842 227.571 114.551 227.706 114.256 227.706L114.25 227.702ZM250.967 222.989C250.711 222.989 250.455 222.886 250.266 222.685C249.904 222.298 249.924 221.69 250.311 221.328C252.167 219.587 253.959 217.763 255.632 215.907C255.988 215.514 256.596 215.482 256.989 215.837C257.383 216.192 257.415 216.8 257.06 217.194C255.351 219.088 253.52 220.95 251.626 222.726C251.44 222.899 251.204 222.986 250.97 222.986L250.967 222.989ZM261.229 211.594C261.028 211.594 260.826 211.53 260.653 211.402C260.231 211.082 260.144 210.48 260.464 210.058C261.991 208.032 263.431 205.926 264.746 203.798C265.024 203.347 265.616 203.21 266.068 203.488C266.519 203.766 266.66 204.358 266.378 204.81C265.031 206.989 263.556 209.142 261.997 211.213C261.808 211.462 261.52 211.594 261.229 211.594ZM269.284 198.554C269.14 198.554 268.996 198.522 268.858 198.454C268.381 198.221 268.189 197.645 268.423 197.168C269.428 195.136 270.352 193.037 271.178 190.925L271.421 190.294C271.613 189.798 272.167 189.555 272.663 189.744C273.159 189.936 273.405 190.49 273.213 190.986L272.97 191.619C272.125 193.786 271.175 195.936 270.148 198.019C269.981 198.358 269.639 198.554 269.287 198.554H269.284Z" fill="#CCD2D6"/>
<g opacity="0.5">
<path d="M280.787 182.699C282.402 179.102 277.587 173.436 270.032 170.044C262.477 166.652 255.043 166.817 253.428 170.414C251.813 174.011 256.628 179.677 264.183 183.069C271.738 186.462 279.172 186.296 280.787 182.699Z" fill="#CCD2D6"/>
</g>
<g opacity="0.5">
<path d="M270.705 201.187C269.534 201.187 268.456 200.912 267.505 200.374C265.329 199.139 264.04 196.643 263.867 193.344C263.694 190.019 264.68 186.282 266.641 182.826C269.72 177.402 274.667 173.757 278.952 173.757C280.123 173.757 281.201 174.029 282.149 174.57C286.664 177.133 287.051 185.005 283.013 192.118C279.934 197.542 274.987 201.187 270.702 201.187H270.705Z" fill="#CCD2D6"/>
<path d="M278.954 173.92C280.1 173.92 281.149 174.186 282.074 174.71C286.512 177.229 286.871 185.005 282.877 192.042C279.824 197.418 274.935 201.027 270.704 201.027C269.559 201.027 268.509 200.762 267.584 200.237C263.146 197.718 262.788 189.943 266.781 182.906C269.834 177.53 274.724 173.92 278.954 173.92ZM278.954 173.6C274.72 173.6 269.706 177.107 266.503 182.749C262.413 189.952 262.829 197.907 267.424 200.515C268.42 201.082 269.53 201.347 270.701 201.347C274.935 201.347 279.949 197.84 283.152 192.198C287.242 184.995 286.826 177.04 282.231 174.432C281.236 173.866 280.125 173.6 278.954 173.6Z" fill="#CCD2D6"/>
</g>
<path d="M283.157 192.198C287.245 184.996 286.831 177.041 282.233 174.431C277.634 171.821 270.592 175.544 266.504 182.746C262.416 189.948 262.829 197.903 267.428 200.513C272.027 203.123 279.069 199.401 283.157 192.198Z" fill="#CCD2D6"/>
<g opacity="0.5">
<path d="M268.344 190.997C276.503 189.579 282.57 185.28 281.895 181.396C281.22 177.511 274.058 175.512 265.899 176.93C257.739 178.348 251.672 182.647 252.348 186.531C253.023 190.416 260.184 192.415 268.344 190.997Z" fill="#CCD2D6"/>
</g>
</svg>
