<svg width="17" height="16" viewBox="0 0 17 16" fill="none" xmlns="http://www.w3.org/2000/svg">
<path d="M10.4993 5.33329H10.506M4.49935 8.66648L6.26202 6.90381C6.33693 6.82883 6.42589 6.76934 6.52381 6.72875C6.62173 6.68817 6.72669 6.66728 6.83268 6.66728C6.93868 6.66728 7.04364 6.68817 7.14155 6.72875C7.23947 6.76934 7.32843 6.82883 7.40335 6.90381L9.83268 9.33314M9.16602 8.66648L10.262 7.57048C10.3369 7.49549 10.4259 7.43601 10.5238 7.39542C10.6217 7.35483 10.7267 7.33394 10.8327 7.33394C10.9387 7.33394 11.0436 7.35483 11.1416 7.39542C11.2395 7.43601 11.3284 7.49549 11.4033 7.57048L12.4993 8.66648M3.16602 5.33329V3.99996C3.16602 3.64634 3.30649 3.3072 3.55654 3.05715C3.80659 2.8071 4.14573 2.66663 4.49935 2.66663H5.83268M3.16602 10.6666V12C3.16602 12.3536 3.30649 12.6927 3.55654 12.9428C3.80659 13.1928 4.14573 13.3333 4.49935 13.3333H5.83268M11.166 2.66663H12.4993C12.853 2.66663 13.1921 2.8071 13.4422 3.05715C13.6922 3.3072 13.8327 3.64634 13.8327 3.99996V5.33329M11.166 13.3333H12.4993C12.853 13.3333 13.1921 13.1928 13.4422 12.9428C13.6922 12.6927 13.8327 12.3536 13.8327 12V10.6666" stroke="black" stroke-opacity="0.6" stroke-width="1.33333" stroke-linecap="round" stroke-linejoin="round"/>
</svg>
