<svg width="17" height="17" viewBox="0 0 17 17" fill="none" xmlns="http://www.w3.org/2000/svg">
<path d="M7.34104 1.16875L6.74178 0.5695H0.749275L0.150024 1.16875V7.16126L0.749275 7.76051H6.74178L7.34104 7.16126V1.16875ZM6.14253 6.56201H1.34853V1.768H6.14253V6.56201ZM0.749275 8.95901L0.150024 9.55826V15.5508L0.749275 16.15H6.74178L7.34104 15.5508V9.55826L6.74178 8.95901H0.749275ZM6.14253 14.9515H1.34853V10.1575H6.14253V14.9515ZM8.53954 9.55826V15.5508L9.13879 16.15H15.1313L15.7305 15.5508V9.55826L15.1313 8.95901H9.13879L8.53954 9.55826ZM9.73804 10.1575H14.532V14.9515H9.73804V10.1575ZM16.15 3.74553L12.5545 0.150024H11.7156L8.12006 3.74553V4.58448L11.7156 8.17999H12.5545L16.15 4.58448V3.74553ZM12.135 6.90957L9.39047 4.16501L12.135 1.42044L14.8796 4.16501L12.135 6.90957Z" fill="#16885F" stroke="#16885F" stroke-width="0.3"/>
</svg>
