<svg width="24" height="24" viewBox="0 0 24 24" fill="none" xmlns="http://www.w3.org/2000/svg">
<path d="M13 21.0017C12.3609 21.0017 11.748 20.7479 11.296 20.296L3.586 12.586C3.2109 12.211 3.00011 11.7024 3 11.172V6C3 5.20435 3.31607 4.44129 3.87868 3.87868C4.44129 3.31607 5.20435 3 6 3H11.172C11.7024 3.00011 12.211 3.2109 12.586 3.586C12.586 3.586 15.0481 6.04805 15.5 6.5M6.5 7.5C6.5 7.76522 6.60536 8.01957 6.79289 8.20711C6.98043 8.39464 7.23478 8.5 7.5 8.5C7.76522 8.5 8.01957 8.39464 8.20711 8.20711C8.39464 8.01957 8.5 7.76522 8.5 7.5C8.5 7.23478 8.39464 6.98043 8.20711 6.79289C8.01957 6.60536 7.76522 6.5 7.5 6.5C7.23478 6.5 6.98043 6.60536 6.79289 6.79289C6.60536 6.98043 6.5 7.23478 6.5 7.5Z" stroke="white" stroke-width="2" stroke-linecap="round" stroke-linejoin="round"/>
<path d="M22.8889 11.75L18 9L13.1111 11.75M22.8889 11.75V17.25L18 20M22.8889 11.75L18 14.5M18 20L13.1111 17.25V11.75M18 20V14.5M13.1111 11.75L18 14.5M15.6777 13.1557L20.3222 10.3446" stroke="white" stroke-width="1.44" stroke-linecap="round" stroke-linejoin="round"/>
</svg>
