<svg width="20" height="18" viewBox="0 0 20 18" fill="none" xmlns="http://www.w3.org/2000/svg">
<path d="M7.34104 2.36077L6.74178 1.76152H0.749275L0.150024 2.36077V8.35328L0.749275 8.95253H6.74178L7.34104 8.35328V2.36077ZM6.14253 7.75403H1.34853V2.96002H6.14253V7.75403ZM0.749275 10.151L0.150024 10.7503V16.7428L0.749275 17.342H6.74178L7.34104 16.7428V10.7503L6.74178 10.151H0.749275ZM6.14253 16.1435H1.34853V11.3495H6.14253V16.1435ZM8.53954 10.7503V16.7428L9.13879 17.342H15.1313L15.7305 16.7428V10.7503L15.1313 10.151H9.13879L8.53954 10.7503ZM9.73804 11.3495H14.532V16.1435H9.73804V11.3495ZM16.15 4.93755L12.5545 1.34204H11.7156L8.12006 4.93755V5.7765L11.7156 9.372H12.5545L16.15 5.7765V4.93755ZM12.135 8.10159L9.39047 5.35702L12.135 2.61245L14.8796 5.35702L12.135 8.10159Z" fill="#16885F" stroke="#16885F" stroke-width="0.3"/>
<circle cx="16.15" cy="3" r="2.5" fill="#D74C10" stroke="#E8F3EF"/>
</svg>
