<svg width="209" height="173" viewBox="0 0 209 173" fill="none" xmlns="http://www.w3.org/2000/svg">
<g clip-path="url(#clip0_932_95919)">
<path d="M0 8C0 3.58172 3.58172 0 8 0H201C205.418 0 209 3.58172 209 8V165C209 169.418 205.418 173 201 173H8C3.58172 173 0 169.418 0 165V8Z" fill="#F0F6FF" fill-opacity="0.7"/>
<g filter="url(#filter0_d_932_95919)">
<rect x="52" y="15" width="104" height="149" rx="6" fill="white"/>
</g>
<rect x="61" y="101" width="25" height="4" rx="2" fill="#EEF1F7"/>
<rect x="61" y="113" width="33" height="4" rx="2" fill="#EEF1F7"/>
<rect x="61" y="125" width="23" height="4" rx="2" fill="#EEF1F7"/>
<rect x="61" y="137" width="28" height="4" rx="2" fill="#EEF1F7"/>
<rect x="61" y="149" width="38" height="4" rx="2" fill="#EEF1F7"/>
<rect x="108" y="101" width="39" height="4" rx="2" fill="#D1D6DD"/>
<rect x="125" y="113" width="22" height="4" rx="2" fill="#D1D6DD"/>
<rect x="106" y="125" width="41" height="4" rx="2" fill="#D1D6DD"/>
<rect x="114" y="137" width="33" height="4" rx="2" fill="#D1D6DD"/>
<rect x="132" y="149" width="15" height="4" rx="2" fill="#D1D6DD"/>
<path d="M79.032 33.088C77.432 33.088 76.344 31.896 76.344 30.136C76.344 28.376 77.448 27.176 79.064 27.176C80.296 27.176 81.264 27.92 81.496 29.056H80.88C80.64 28.232 79.936 27.728 79.04 27.728C77.784 27.728 76.944 28.688 76.944 30.136C76.944 31.576 77.784 32.536 79.04 32.536C79.944 32.536 80.664 32.048 80.912 31.28H81.528C81.264 32.36 80.264 33.088 79.032 33.088ZM82.1321 31.064C82.1321 29.88 82.9641 29.024 84.1001 29.024C85.2361 29.024 86.0681 29.88 86.0681 31.064C86.0681 32.24 85.2361 33.096 84.1001 33.096C82.9641 33.096 82.1321 32.24 82.1321 31.064ZM82.6921 31.056C82.6921 31.968 83.2681 32.6 84.1001 32.6C84.9241 32.6 85.5081 31.968 85.5081 31.056C85.5081 30.16 84.9241 29.52 84.1001 29.52C83.2681 29.52 82.6921 30.16 82.6921 31.056ZM87.503 33H86.951V29.128H87.431L87.495 29.68C87.687 29.272 88.119 29.024 88.663 29.024C89.271 29.024 89.727 29.344 89.911 29.848C90.087 29.344 90.559 29.024 91.183 29.024C92.023 29.024 92.575 29.568 92.575 30.464V33H92.039V30.576C92.039 29.912 91.671 29.52 91.079 29.52C90.431 29.52 90.047 30.008 90.047 30.608V33H89.503V30.568C89.503 29.912 89.127 29.528 88.543 29.528C87.895 29.528 87.503 30.008 87.503 30.6V33ZM93.6854 34.688V29.128H94.1654L94.2214 29.912C94.4934 29.312 95.0374 29.024 95.6854 29.024C96.8054 29.024 97.4774 29.88 97.4774 31.048C97.4774 32.216 96.8294 33.096 95.6854 33.096C95.0294 33.096 94.5094 32.816 94.2374 32.256V34.688H93.6854ZM94.2454 31.064C94.2454 31.952 94.7414 32.6 95.5894 32.6C96.4294 32.6 96.9174 31.952 96.9174 31.064C96.9174 30.168 96.4294 29.528 95.5894 29.528C94.7414 29.528 94.2454 30.168 94.2454 31.064ZM99.4693 33.096C98.6453 33.096 98.1573 32.632 98.1573 31.952C98.1573 31.24 98.7013 30.792 99.6053 30.72L100.885 30.616V30.488C100.885 29.728 100.429 29.488 99.8613 29.488C99.1893 29.488 98.7893 29.792 98.7893 30.312H98.2853C98.2853 29.528 98.9253 29.024 99.8773 29.024C100.773 29.024 101.429 29.472 101.429 30.496V33H100.965L100.893 32.32C100.653 32.808 100.125 33.096 99.4693 33.096ZM99.5973 32.648C100.413 32.648 100.885 32.08 100.885 31.24V31.032L99.7413 31.12C99.0133 31.184 98.7173 31.504 98.7173 31.936C98.7173 32.408 99.0693 32.648 99.5973 32.648ZM103.089 33H102.537V29.128H103.017L103.097 29.8C103.353 29.304 103.865 29.024 104.425 29.024C105.489 29.024 105.929 29.656 105.929 30.632V33H105.377V30.752C105.377 29.848 104.969 29.528 104.329 29.528C103.537 29.528 103.089 30.104 103.089 30.976V33ZM106.559 34.688V34.232H106.983C107.319 34.232 107.655 34.208 107.847 33.688L108.015 33.232L106.447 29.128H107.031L108.279 32.504L109.503 29.128H110.071L108.295 33.888C108.071 34.496 107.695 34.744 107.143 34.744C106.911 34.744 106.735 34.728 106.559 34.688ZM113.487 33H112.935V29.128H113.415L113.495 29.8C113.751 29.304 114.263 29.024 114.823 29.024C115.887 29.024 116.327 29.656 116.327 30.632V33H115.775V30.752C115.775 29.848 115.367 29.528 114.727 29.528C113.935 29.528 113.487 30.104 113.487 30.976V33ZM118.54 33.096C117.716 33.096 117.228 32.632 117.228 31.952C117.228 31.24 117.772 30.792 118.676 30.72L119.956 30.616V30.488C119.956 29.728 119.5 29.488 118.932 29.488C118.26 29.488 117.86 29.792 117.86 30.312H117.356C117.356 29.528 117.996 29.024 118.948 29.024C119.844 29.024 120.5 29.472 120.5 30.496V33H120.036L119.964 32.32C119.724 32.808 119.196 33.096 118.54 33.096ZM118.668 32.648C119.484 32.648 119.956 32.08 119.956 31.24V31.032L118.812 31.12C118.084 31.184 117.788 31.504 117.788 31.936C117.788 32.408 118.14 32.648 118.668 32.648ZM122.159 33H121.607V29.128H122.087L122.151 29.68C122.343 29.272 122.775 29.024 123.319 29.024C123.927 29.024 124.383 29.344 124.567 29.848C124.743 29.344 125.215 29.024 125.839 29.024C126.679 29.024 127.231 29.568 127.231 30.464V33H126.695V30.576C126.695 29.912 126.327 29.52 125.735 29.52C125.087 29.52 124.703 30.008 124.703 30.608V33H124.159V30.568C124.159 29.912 123.783 29.528 123.199 29.528C122.551 29.528 122.159 30.008 122.159 30.6V33ZM129.966 33.096C128.83 33.096 128.07 32.28 128.07 31.064C128.07 29.856 128.822 29.024 129.926 29.024C130.974 29.024 131.686 29.768 131.686 30.864V31.136H128.606C128.646 32.08 129.142 32.624 129.974 32.624C130.606 32.624 131.014 32.352 131.158 31.84H131.686C131.478 32.656 130.878 33.096 129.966 33.096ZM129.926 29.496C129.198 29.496 128.718 29.976 128.622 30.736H131.134C131.134 29.992 130.654 29.496 129.926 29.496Z" fill="black"/>
<line x1="61" y1="92.5" x2="147" y2="92.5" stroke="#EEF1F7"/>
<path d="M66.6102 46H65.1133V73.7231H66.6102V46Z" fill="#4F555E"/>
<path d="M68.1142 46H67.3633V73.7231H68.1142V46Z" fill="#4F555E"/>
<path d="M70.3642 46H69.6133V73.7231H70.3642V46Z" fill="#4F555E"/>
<path d="M74.8563 46H73.3594V73.7231H74.8563V46Z" fill="#4F555E"/>
<path d="M77.1065 46H76.3555V73.7231H77.1065V46Z" fill="#4F555E"/>
<path d="M80.1112 46H77.8634V73.7231H80.1112V46Z" fill="#4F555E"/>
<path d="M82.3525 46H81.6016V73.7231H82.3525V46Z" fill="#4F555E"/>
<path d="M83.8603 46H83.1094V73.7231H83.8603V46Z" fill="#4F555E"/>
<path d="M87.5985 46H86.1016V73.7231H87.5985V46Z" fill="#4F555E"/>
<path d="M91.3485 46H89.8516V73.7231H91.3485V46Z" fill="#4F555E"/>
<path d="M94.3494 46H92.1016V73.7231H94.3494V46Z" fill="#4F555E"/>
<path d="M96.5947 46H95.8438V73.7231H96.5947V46Z" fill="#4F555E"/>
<path d="M99.5906 46H98.0938V73.7231H99.5906V46Z" fill="#4F555E"/>
<path d="M103.342 46H101.094V73.7231H103.342V46Z" fill="#4F555E"/>
<path d="M104.845 46H104.094V73.7231H104.845V46Z" fill="#4F555E"/>
<path d="M108.584 46H106.336V73.7231H108.584V46Z" fill="#4F555E"/>
<path d="M110.833 46H109.336V73.7231H110.833V46Z" fill="#4F555E"/>
<path d="M113.838 46H111.59V73.7231H113.838V46Z" fill="#4F555E"/>
<path d="M115.341 46H114.59V73.7231H115.341V46Z" fill="#4F555E"/>
<path d="M118.341 46H117.59V73.7231H118.341V46Z" fill="#4F555E"/>
<path d="M120.579 46H119.082V73.7231H120.579V46Z" fill="#4F555E"/>
<path d="M124.333 46H122.836V73.7231H124.333V46Z" fill="#4F555E"/>
<path d="M127.333 46H126.582V73.7231H127.333V46Z" fill="#4F555E"/>
<path d="M130.325 46H129.574V73.7231H130.325V46Z" fill="#4F555E"/>
<path d="M132.575 46H131.078V73.7231H132.575V46Z" fill="#4F555E"/>
<path d="M137.072 46H134.824V73.7231H137.072V46Z" fill="#4F555E"/>
<path d="M138.579 46H137.828V73.7231H138.579V46Z" fill="#4F555E"/>
<path d="M140.825 46H139.328V73.7231H140.825V46Z" fill="#4F555E"/>
<g clip-path="url(#clip1_932_95919)">
<rect x="173" y="8" width="28" height="28" rx="5.6" fill="black" fill-opacity="0.2"/>
<g clip-path="url(#clip2_932_95919)">
<path d="M187 22.7C187.387 22.7 187.7 22.3866 187.7 22C187.7 21.6134 187.387 21.3 187 21.3C186.613 21.3 186.3 21.6134 186.3 22C186.3 22.3866 186.613 22.7 187 22.7Z" stroke="white" stroke-width="1.4" stroke-linecap="round" stroke-linejoin="round"/>
<path d="M187 27.6C187.387 27.6 187.7 27.2866 187.7 26.9C187.7 26.5134 187.387 26.2 187 26.2C186.613 26.2 186.3 26.5134 186.3 26.9C186.3 27.2866 186.613 27.6 187 27.6Z" stroke="white" stroke-width="1.4" stroke-linecap="round" stroke-linejoin="round"/>
<path d="M187 17.7999C187.387 17.7999 187.7 17.4865 187.7 17.0999C187.7 16.7133 187.387 16.3999 187 16.3999C186.613 16.3999 186.3 16.7133 186.3 17.0999C186.3 17.4865 186.613 17.7999 187 17.7999Z" stroke="white" stroke-width="1.4" stroke-linecap="round" stroke-linejoin="round"/>
</g>
</g>
</g>
<defs>
<filter id="filter0_d_932_95919" x="28" y="-3" width="152" height="197" filterUnits="userSpaceOnUse" color-interpolation-filters="sRGB">
<feFlood flood-opacity="0" result="BackgroundImageFix"/>
<feColorMatrix in="SourceAlpha" type="matrix" values="0 0 0 0 0 0 0 0 0 0 0 0 0 0 0 0 0 0 127 0" result="hardAlpha"/>
<feOffset dy="6"/>
<feGaussianBlur stdDeviation="12"/>
<feComposite in2="hardAlpha" operator="out"/>
<feColorMatrix type="matrix" values="0 0 0 0 0 0 0 0 0 0 0 0 0 0 0 0 0 0 0.06 0"/>
<feBlend mode="normal" in2="BackgroundImageFix" result="effect1_dropShadow_932_95919"/>
<feBlend mode="normal" in="SourceGraphic" in2="effect1_dropShadow_932_95919" result="shape"/>
</filter>
<clipPath id="clip0_932_95919">
<path d="M0 8C0 3.58172 3.58172 0 8 0H201C205.418 0 209 3.58172 209 8V165C209 169.418 205.418 173 201 173H8C3.58172 173 0 169.418 0 165V8Z" fill="white"/>
</clipPath>
<clipPath id="clip1_932_95919">
<rect x="173" y="8" width="28" height="28" rx="5.6" fill="white"/>
</clipPath>
<clipPath id="clip2_932_95919">
<rect x="173.933" y="8.93335" width="26.1333" height="26.1333" rx="13.0667" fill="white"/>
</clipPath>
</defs>
</svg>
