<svg width="19" height="17" viewBox="0 0 19 17" fill="none" xmlns="http://www.w3.org/2000/svg">
<path d="M9.32422 6.44336H9.33089" stroke="#8155D9" stroke-width="1.2" stroke-linecap="round" stroke-linejoin="round"/>
<path d="M10.502 13.313H5.60547C5.07504 13.313 4.56633 13.1125 4.19126 12.7558C3.81618 12.399 3.60547 11.9151 3.60547 11.4105V5.06907C3.60547 4.56451 3.81618 4.08062 4.19126 3.72384C4.56633 3.36706 5.07504 3.16663 5.60547 3.16663H12.2721C12.8026 3.16663 13.3113 3.36706 13.6863 3.72384C14.0614 4.08062 14.2721 4.56451 14.2721 5.06907V7.45065" stroke="#8155D9" stroke-linecap="round" stroke-linejoin="round"/>
<path d="M3.60547 10.5567L5.63069 8.07345C6.24936 7.47812 6.6105 7.47812 7.22917 8.07346L8.59288 9.60052" stroke="#8155D9" stroke-linecap="round" stroke-linejoin="round"/>
<path d="M10.5635 9.625V8.875H15.4385V9.625" stroke="#8155D9" stroke-linecap="round" stroke-linejoin="round"/>
<path d="M13.1885 8.875V14.125" stroke="#8155D9" stroke-linecap="round" stroke-linejoin="round"/>
<path d="M13.9385 14.125H12.4385" stroke="#8155D9" stroke-linecap="round" stroke-linejoin="round"/>
<path d="M15.2207 12.0547V11.6797H17.4707V12.0547" stroke="#8155D9" stroke-width="0.8" stroke-linecap="round" stroke-linejoin="round"/>
<path d="M16.3457 11.6797V14.3047" stroke="#8155D9" stroke-width="0.8" stroke-linecap="round" stroke-linejoin="round"/>
<path d="M15.9707 14.3046H16.7207" stroke="#8155D9" stroke-width="0.8" stroke-linecap="round" stroke-linejoin="round"/>
</svg>
