<svg width="18" height="18" viewBox="0 0 18 18" fill="none" xmlns="http://www.w3.org/2000/svg">
<g id="carbon:send-filled">
<path id="Vector" d="M15.6917 8.4793L2.85636 2.06162C2.75576 2.01131 2.64276 1.99115 2.53097 2.00357C2.41918 2.01599 2.31336 2.06046 2.22626 2.13163C2.14308 2.20134 2.08099 2.29288 2.04698 2.39595C2.01297 2.49901 2.00838 2.60952 2.03373 2.71505L3.57981 8.41512H10.1783V9.58197H3.57981L2.01039 15.2645C1.9866 15.3527 1.98383 15.4451 2.00229 15.5345C2.02074 15.6239 2.05992 15.7078 2.11667 15.7793C2.17342 15.8508 2.24615 15.908 2.32902 15.9462C2.41189 15.9845 2.50259 16.0028 2.59382 15.9997C2.68515 15.9991 2.77508 15.9771 2.85636 15.9355L15.6917 9.51779C15.7873 9.46883 15.8675 9.39445 15.9235 9.30283C15.9795 9.21122 16.0091 9.10592 16.0091 8.99855C16.0091 8.89117 15.9795 8.78587 15.9235 8.69426C15.8675 8.60264 15.7873 8.52826 15.6917 8.4793Z" fill="white" fill-opacity="0.88"/>
</g>
</svg>
