<svg width="20" height="20" viewBox="0 0 20 20" fill="none" xmlns="http://www.w3.org/2000/svg">
<g filter="url(#filter0_i_127_44964)">
<rect width="20" height="20" rx="10" fill="#E5EDCF"/>
<path d="M11.88 11.88C10.6294 13.1306 10 16 10 16C10 16 9.37056 13.1306 8.12 11.88C6.86944 10.6294 4 10 4 10C4 10 6.86944 9.37056 8.12 8.12C9.37056 6.86944 10 4 10 4C10 4 10.6294 6.86944 11.88 8.12C13.1306 9.37056 16 10 16 10C16 10 13.1306 10.6294 11.88 11.88Z" fill="url(#paint0_linear_127_44964)"/>
</g>
<defs>
<filter id="filter0_i_127_44964" x="0" y="0" width="20" height="24" filterUnits="userSpaceOnUse" color-interpolation-filters="sRGB">
<feFlood flood-opacity="0" result="BackgroundImageFix"/>
<feBlend mode="normal" in="SourceGraphic" in2="BackgroundImageFix" result="shape"/>
<feColorMatrix in="SourceAlpha" type="matrix" values="0 0 0 0 0 0 0 0 0 0 0 0 0 0 0 0 0 0 127 0" result="hardAlpha"/>
<feOffset dy="4"/>
<feGaussianBlur stdDeviation="2"/>
<feComposite in2="hardAlpha" operator="arithmetic" k2="-1" k3="1"/>
<feColorMatrix type="matrix" values="0 0 0 0 0.0862745 0 0 0 0 0.533333 0 0 0 0 0.372549 0 0 0 0.14 0"/>
<feBlend mode="normal" in2="shape" result="effect1_innerShadow_127_44964"/>
</filter>
<linearGradient id="paint0_linear_127_44964" x1="14.5" y1="16" x2="5.5" y2="7" gradientUnits="userSpaceOnUse">
<stop stop-color="#16885F"/>
<stop offset="1" stop-color="#B6DA25"/>
</linearGradient>
</defs>
</svg>
