<svg width="14" height="14" viewBox="0 0 14 14" fill="none" xmlns="http://www.w3.org/2000/svg">
<rect width="14" height="14" rx="7" fill="white"/>
<rect x="0.291667" y="0.291667" width="13.4167" height="13.4167" rx="6.70833" stroke="url(#paint0_linear_127_50065)" stroke-opacity="0.3" stroke-width="0.583333"/>
<path d="M8.31605 8.3158C7.44066 9.19119 7.00005 11.1998 7.00005 11.1998C7.00005 11.1998 6.55944 9.19119 5.68405 8.3158C4.80866 7.44041 2.80005 6.9998 2.80005 6.9998C2.80005 6.9998 4.80866 6.55919 5.68405 5.6838C6.55944 4.80841 7.00005 2.7998 7.00005 2.7998C7.00005 2.7998 7.44066 4.80841 8.31605 5.6838C9.19144 6.55919 11.2 6.9998 11.2 6.9998C11.2 6.9998 9.19144 7.44041 8.31605 8.3158Z" fill="url(#paint1_linear_127_50065)"/>
<defs>
<linearGradient id="paint0_linear_127_50065" x1="0.35" y1="-0.7" x2="13.4167" y2="17.2083" gradientUnits="userSpaceOnUse">
<stop stop-color="#7DA50E"/>
<stop offset="1" stop-color="#16885F"/>
</linearGradient>
<linearGradient id="paint1_linear_127_50065" x1="10.15" y1="11.1998" x2="3.85005" y2="4.8998" gradientUnits="userSpaceOnUse">
<stop stop-color="#16885F"/>
<stop offset="1" stop-color="#B6DA25"/>
</linearGradient>
</defs>
</svg>
