<svg width="20" height="20" viewBox="0 0 20 20" fill="none" xmlns="http://www.w3.org/2000/svg">
<path d="M7.37037 4.00753C7.31557 4.09886 6.95938 4.97563 6.5758 5.95287C5.81775 7.87081 5.4707 8.48272 4.81312 9.06724C4.256 9.55129 4.00941 9.67915 1.82661 10.5559C0.0365322 11.2866 0 11.3048 0 11.5606C0 11.8254 0.0273992 11.8437 1.98187 12.6291C5.16017 13.8986 5.34283 14.0813 6.62146 17.2687C7.39777 19.2141 7.41604 19.2415 7.6809 19.2415C7.94575 19.2415 7.95489 19.2049 8.72206 17.3235C9.6171 15.1133 9.6719 15.0037 10.1742 14.4283C10.7587 13.7708 11.3615 13.4328 13.4073 12.62C15.4166 11.8254 15.6632 11.661 15.3344 11.3414C15.2339 11.25 14.4394 10.903 13.5626 10.5651C11.6538 9.82528 11.2702 9.64262 10.6765 9.1677C9.97329 8.61059 9.5897 7.95301 8.7312 5.84327C8.00055 4.03493 7.92749 3.89793 7.69916 3.87053C7.53477 3.85227 7.42517 3.89793 7.37037 4.00753Z" fill="url(#paint0_linear_1197_30276)"/>
<path d="M15.7849 0.828291C15.7578 0.873595 15.5811 1.30851 15.3908 1.79327C15.0148 2.74465 14.8426 3.04819 14.5164 3.33814C14.2401 3.57825 14.1178 3.64167 13.035 4.07659C12.147 4.43903 12.1289 4.44809 12.1289 4.57494C12.1289 4.70632 12.1425 4.71538 13.112 5.105C14.6886 5.73472 14.7792 5.82533 15.4135 7.40644C15.7985 8.37142 15.8076 8.38501 15.939 8.38501C16.0704 8.38501 16.0749 8.36689 16.4554 7.43362C16.8994 6.33727 16.9266 6.2829 17.1758 5.99749C17.4657 5.6713 17.7647 5.50367 18.7795 5.10046C19.7762 4.70632 19.8986 4.62477 19.7355 4.46621C19.6856 4.4209 19.2915 4.24875 18.8566 4.08112C17.9097 3.71416 17.7194 3.62355 17.425 3.38797C17.0761 3.11162 16.8858 2.78543 16.46 1.7389C16.0975 0.841882 16.0613 0.773926 15.948 0.760335C15.8665 0.751274 15.8121 0.773926 15.7849 0.828291Z" fill="url(#paint1_linear_1197_30276)"/>
<defs>
<linearGradient id="paint0_linear_1197_30276" x1="4.82305e-08" y1="16.477" x2="7.66893" y2="3.83095" gradientUnits="userSpaceOnUse">
<stop stop-color="#B069F6"/>
<stop offset="0.79" stop-color="#6F41CC"/>
</linearGradient>
<linearGradient id="paint1_linear_1197_30276" x1="12.1289" y1="7.01372" x2="15.933" y2="0.740699" gradientUnits="userSpaceOnUse">
<stop stop-color="#B069F6"/>
<stop offset="0.79" stop-color="#6F41CC"/>
</linearGradient>
</defs>
</svg>
