<svg width="12" height="12" viewBox="0 0 12 12" fill="none" xmlns="http://www.w3.org/2000/svg">
<path d="M4.46875 2.10997C4.43553 2.16926 4.21957 2.73847 3.98699 3.37291C3.52738 4.61805 3.31696 5.01531 2.91826 5.39479C2.58047 5.70904 2.43096 5.79205 1.1075 6.36126C0.02215 6.8356 0 6.84746 0 7.01348C0 7.18543 0.0166125 7.19729 1.20163 7.70721C3.12868 8.53137 3.23943 8.64996 4.01468 10.7193C4.48537 11.9822 4.49644 12 4.65703 12C4.81761 12 4.82315 11.9763 5.2883 10.7549C5.83098 9.31997 5.8642 9.24882 6.16876 8.87527C6.52316 8.44836 6.88864 8.22898 8.12903 7.70128C9.34728 7.18543 9.49679 7.0787 9.29744 6.87118C9.23653 6.81188 8.75477 6.58657 8.22317 6.36719C7.06583 5.88692 6.83326 5.76833 6.47332 5.46001C6.04694 5.09832 5.81436 4.67142 5.29384 3.30175C4.85084 2.12776 4.80654 2.03882 4.6681 2.02103C4.56843 2.00917 4.50198 2.03882 4.46875 2.10997Z" fill="#4F555E"/>
<path d="M9.57217 0.0452676C9.55569 0.0746794 9.44857 0.357034 9.3332 0.671741C9.10521 1.28939 9.00083 1.48645 8.80306 1.67469C8.6355 1.83057 8.56133 1.87175 7.90484 2.1541C7.36646 2.3894 7.35547 2.39528 7.35547 2.47763C7.35547 2.56293 7.36371 2.56881 7.95153 2.82175C8.90744 3.23058 8.96237 3.2894 9.34693 4.31587C9.58041 4.94235 9.58591 4.95117 9.66557 4.95117C9.74522 4.95117 9.74797 4.93941 9.97871 4.33352C10.2479 3.62175 10.2644 3.58646 10.4155 3.40117C10.5913 3.1894 10.7725 3.08058 11.3878 2.81881C11.9921 2.56293 12.0663 2.50998 11.9674 2.40704C11.9372 2.37763 11.6982 2.26587 11.4345 2.15704C10.8604 1.91881 10.7451 1.85998 10.5665 1.70704C10.355 1.52763 10.2397 1.31586 9.98145 0.636447C9.76171 0.0540915 9.73973 0.00997353 9.67106 0.00114965C9.62162 -0.00473261 9.58865 0.00997353 9.57217 0.0452676Z" fill="#4F555E"/>
</svg>
