<svg width="14" height="14" viewBox="0 0 14 14" fill="none" xmlns="http://www.w3.org/2000/svg">
<path d="M7.46233 13.6434L7.45463 13.6447L7.40906 13.6672L7.39623 13.6697L7.38724 13.6672L7.34167 13.6441C7.33483 13.6423 7.32969 13.6436 7.32627 13.6479L7.3237 13.6543L7.31279 13.929L7.316 13.9418L7.32242 13.9502L7.38917 13.9977L7.39879 14.0002L7.40649 13.9977L7.47324 13.9502L7.48094 13.9399L7.48351 13.929L7.4726 13.655C7.47089 13.6481 7.46746 13.6443 7.46233 13.6434ZM7.63176 13.5709L7.62278 13.5722L7.50469 13.6319L7.49827 13.6383L7.49634 13.6453L7.5079 13.9213L7.51111 13.929L7.51624 13.9341L7.64524 13.9932C7.65337 13.9953 7.65957 13.9936 7.66385 13.9881L7.66642 13.9791L7.6446 13.585C7.64246 13.5769 7.63818 13.5722 7.63176 13.5709ZM7.17288 13.5722C7.17005 13.5705 7.16667 13.5699 7.16345 13.5706C7.16022 13.5713 7.15739 13.5733 7.15555 13.576L7.1517 13.585L7.12988 13.9791C7.13031 13.9868 7.13395 13.9919 7.14079 13.9945L7.15042 13.9932L7.27942 13.9335L7.28584 13.9284L7.28776 13.9213L7.29932 13.6453L7.29739 13.6376L7.29097 13.6312L7.17288 13.5722Z" fill="#8155D9"/>
<path d="M5.2241 2.21289C5.60789 1.08976 7.15974 1.05574 7.61477 2.11085L7.65328 2.21353L8.1712 3.72816C8.2899 4.07551 8.4817 4.39338 8.73369 4.66031C8.98567 4.92723 9.29197 5.13702 9.63192 5.27551L9.77118 5.3275L11.2858 5.84478C12.4089 6.22857 12.443 7.78042 11.3885 8.23544L11.2858 8.27395L9.77118 8.79188C9.42371 8.91049 9.10572 9.10226 8.83867 9.35425C8.57163 9.60624 8.36175 9.91257 8.22319 10.2526L8.1712 10.3912L7.65392 11.9065C7.27013 13.0296 5.71828 13.0636 5.2639 12.0092L5.2241 11.9065L4.70682 10.3919C4.58821 10.0444 4.39643 9.72639 4.14445 9.45935C3.89246 9.1923 3.58612 8.98242 3.24611 8.84386L3.10748 8.79188L1.59286 8.27459C0.469085 7.8908 0.43507 6.33896 1.49017 5.88457L1.59286 5.84478L3.10748 5.3275C3.45484 5.2088 3.7727 5.01699 4.03963 4.76501C4.30656 4.51303 4.51635 4.20673 4.65484 3.86678L4.70682 3.72816L5.2241 2.21289ZM6.95694 4.14211C6.78821 3.6487 6.09027 3.64863 5.92173 4.14211C5.741 4.67178 5.44698 5.15569 5.06015 5.56014C4.67332 5.96459 4.20298 6.27986 3.68188 6.484L3.52144 6.5424C3.02817 6.71087 3.02817 7.4085 3.52144 7.57697C4.05111 7.7577 4.53502 8.05172 4.93947 8.43855C5.34392 8.82538 5.65919 9.29571 5.86333 9.81681L5.92173 9.97726C6.09019 10.4705 6.78783 10.4705 6.95629 9.97726C7.13703 9.44759 7.43105 8.96368 7.81787 8.55923C8.2047 8.15478 8.67504 7.83951 9.19614 7.63537L9.35659 7.57761C9.85 7.40889 9.85007 6.71094 9.35659 6.5424C8.82692 6.36167 8.34301 6.06765 7.93856 5.68082C7.53411 5.294 7.21883 4.82366 7.0147 4.30256L6.95694 4.14211ZM11.5733 1.15963e-07C11.6934 -1.51444e-07 11.8111 0.03368 11.9129 0.0972129C12.0148 0.160746 12.0968 0.251583 12.1497 0.359402L12.1805 0.434492C12.3221 0.849756 12.6489 1.17606 13.0642 1.31759C13.1845 1.35847 13.29 1.43415 13.3673 1.53504C13.4445 1.63593 13.4901 1.75749 13.4982 1.88431C13.5063 2.01113 13.4766 2.1375 13.4128 2.24741C13.3491 2.35732 13.2541 2.44582 13.1399 2.5017L13.0642 2.5325C12.6489 2.67416 12.3226 3.00094 12.1811 3.41625C12.1402 3.53654 12.0644 3.64196 11.9635 3.71917C11.8626 3.79637 11.741 3.84188 11.6142 3.84992C11.4874 3.85796 11.361 3.82818 11.2511 3.76434C11.1413 3.7005 11.0528 3.60549 10.997 3.49134L10.9662 3.41625C10.8245 3.00098 10.4978 2.67468 10.0825 2.53314C9.96213 2.49226 9.85665 2.41658 9.77938 2.3157C9.70211 2.21481 9.65654 2.09325 9.64842 1.96643C9.64031 1.83961 9.67003 1.71324 9.73382 1.60333C9.79761 1.49342 9.89258 1.40492 10.0067 1.34904L10.0825 1.31824C10.4977 1.17658 10.824 0.849797 10.9656 0.434492C11.0088 0.30769 11.0907 0.197613 11.1997 0.119693C11.3087 0.0417734 11.4393 -8.04043e-05 11.5733 1.15963e-07Z" fill="#8155D9"/>
</svg>
