<svg width="16" height="16" viewBox="0 0 16 16" fill="none" xmlns="http://www.w3.org/2000/svg">
<path d="M5.95736 2.81296C5.91306 2.89202 5.62516 3.65099 5.31511 4.49692C4.7024 6.15716 4.42188 6.68685 3.89037 7.19283C3.44006 7.61184 3.24074 7.72253 1.47642 8.48149C0.0295284 9.11396 0 9.12978 0 9.35114C0 9.58041 0.0221463 9.59622 1.60192 10.2761C4.17089 11.3751 4.31853 11.5332 5.35202 14.2923C5.9795 15.9763 5.99427 16 6.20835 16C6.42243 16 6.42981 15.9684 7.04991 14.3398C7.77335 12.4265 7.81765 12.3317 8.22366 11.8336C8.69612 11.2644 9.18334 10.9718 10.8369 10.2682C12.461 9.58041 12.6603 9.43811 12.3946 9.1614C12.3133 9.08234 11.6711 8.78192 10.9624 8.4894C9.41956 7.84902 9.10952 7.6909 8.62968 7.2798C8.06126 6.79754 7.75121 6.22831 7.05729 4.40205C6.46672 2.83668 6.40767 2.71809 6.22311 2.69438C6.09023 2.67856 6.00165 2.71809 5.95736 2.81296Z" fill="#8155D9"/>
<path d="M12.7588 0.0611696C12.7369 0.100387 12.594 0.476868 12.4402 0.896488C12.1363 1.72004 11.9972 1.98279 11.7335 2.23378C11.5101 2.44163 11.4113 2.49654 10.5361 2.87302C9.81836 3.18675 9.80371 3.1946 9.80371 3.3044C9.80371 3.41813 9.8147 3.42597 10.5983 3.76324C11.8727 4.30835 11.9459 4.38679 12.4586 5.75546C12.7698 6.59077 12.7771 6.60254 12.8833 6.60254C12.9895 6.60254 12.9932 6.58685 13.3008 5.77899C13.6596 4.82994 13.6816 4.78288 13.883 4.53581C14.1174 4.25345 14.3591 4.10835 15.1793 3.75932C15.9849 3.41813 16.0838 3.34754 15.952 3.21028C15.9117 3.17107 15.5931 3.02204 15.2416 2.87694C14.4762 2.55928 14.3224 2.48085 14.0844 2.27692C13.8025 2.0377 13.6487 1.75534 13.3044 0.849428C13.0115 0.0729346 12.9822 0.0141091 12.8907 0.00234413C12.8247 -0.00549889 12.7808 0.0141091 12.7588 0.0611696Z" fill="#8155D9"/>
</svg>
