<svg width="19" height="17" viewBox="0 0 19 17" fill="none" xmlns="http://www.w3.org/2000/svg">
<path d="M6.57875 4.17306C6.53518 4.24458 6.25197 4.93123 5.94698 5.69655C5.34425 7.19859 5.0683 7.67781 4.54546 8.13557C4.10249 8.51466 3.90642 8.61479 2.17086 9.30144C0.747553 9.87364 0.718506 9.88795 0.718506 10.0882C0.718506 10.2956 0.740291 10.3099 2.29431 10.9251C4.8214 11.9193 4.96664 12.0623 5.98329 14.5586C6.60054 16.0821 6.61506 16.1035 6.82565 16.1035C7.03624 16.1035 7.0435 16.0749 7.65349 14.6015C8.36514 12.8706 8.40872 12.7847 8.80811 12.3341C9.27287 11.8191 9.75214 11.5545 11.3788 10.9179C12.9764 10.2956 13.1724 10.1669 12.911 9.91656C12.8311 9.84503 12.1994 9.57324 11.5022 9.30859C9.98452 8.72923 9.67952 8.58618 9.20751 8.21425C8.64835 7.77794 8.34336 7.26296 7.66075 5.61072C7.07981 4.19452 7.02172 4.08723 6.84017 4.06577C6.70946 4.05146 6.62232 4.08723 6.57875 4.17306Z" fill="white" stroke="#8B59E3" stroke-width="1.11344"/>
<path d="M14.0632 1.32889C14.0356 1.37408 13.8567 1.80794 13.664 2.29152C13.2831 3.24058 13.1088 3.54338 12.7784 3.83262C12.4985 4.07214 12.3746 4.13542 11.278 4.56927C10.3787 4.93082 10.3604 4.93986 10.3604 5.0664C10.3604 5.19747 10.3741 5.2065 11.356 5.59517C12.9528 6.22336 13.0445 6.31375 13.6869 7.89101C14.0769 8.85363 14.0861 8.86719 14.2192 8.86719C14.3522 8.86719 14.3568 8.84911 14.7422 7.91812C15.1919 6.82444 15.2194 6.7702 15.4718 6.48548C15.7655 6.16009 16.0683 5.99287 17.0961 5.59065C18.1055 5.19747 18.2294 5.11612 18.0642 4.95794C18.0138 4.91275 17.6146 4.74101 17.1741 4.57379C16.2151 4.20773 16.0224 4.11734 15.7242 3.88233C15.3709 3.60665 15.1781 3.28126 14.7468 2.23728C14.3798 1.34245 14.3431 1.27466 14.2283 1.2611C14.1458 1.25206 14.0907 1.27466 14.0632 1.32889Z" fill="white" stroke="#8B59E3" stroke-width="1.11344"/>
</svg>
