<svg width="13" height="14" viewBox="0 0 13 14" fill="none" xmlns="http://www.w3.org/2000/svg">
<path d="M6.7387 13.6434L6.731 13.6447L6.68543 13.6672L6.67259 13.6697L6.66361 13.6672L6.61804 13.6441C6.61119 13.6423 6.60606 13.6436 6.60264 13.6479L6.60007 13.6543L6.58916 13.929L6.59237 13.9418L6.59879 13.9502L6.66553 13.9977L6.67516 14.0002L6.68286 13.9977L6.74961 13.9502L6.75731 13.9399L6.75988 13.929L6.74897 13.655C6.74725 13.6481 6.74383 13.6443 6.7387 13.6434ZM6.90813 13.5709L6.89914 13.5722L6.78105 13.6319L6.77464 13.6383L6.77271 13.6453L6.78426 13.9213L6.78747 13.929L6.79261 13.9341L6.92161 13.9932C6.92974 13.9953 6.93594 13.9936 6.94022 13.9881L6.94279 13.9791L6.92097 13.585C6.91883 13.5769 6.91455 13.5722 6.90813 13.5709ZM6.44925 13.5722C6.44642 13.5705 6.44304 13.5699 6.43981 13.5706C6.43658 13.5713 6.43376 13.5733 6.43192 13.576L6.42807 13.585L6.40625 13.9791C6.40668 13.9868 6.41031 13.9919 6.41716 13.9945L6.42679 13.9932L6.55579 13.9335L6.5622 13.9284L6.56413 13.9213L6.57568 13.6453L6.57376 13.6376L6.56734 13.6312L6.44925 13.5722Z" fill="#4F555E"/>
<path d="M4.50047 2.21289C4.88426 1.08976 6.43611 1.05574 6.89114 2.11085L6.92965 2.21353L7.44757 3.72816C7.56626 4.07551 7.75807 4.39338 8.01005 4.66031C8.26204 4.92723 8.56833 5.13702 8.90828 5.27551L9.04755 5.3275L10.5622 5.84478C11.6853 6.22857 11.7193 7.78042 10.6649 8.23544L10.5622 8.27395L9.04755 8.79188C8.70007 8.91049 8.38209 9.10226 8.11504 9.35425C7.848 9.60624 7.63811 9.91257 7.49955 10.2526L7.44757 10.3912L6.93029 11.9065C6.5465 13.0296 4.99465 13.0636 4.54026 12.0092L4.50047 11.9065L3.98319 10.3919C3.86457 10.0444 3.6728 9.72639 3.42081 9.45935C3.16883 9.1923 2.86249 8.98242 2.52248 8.84386L2.38385 8.79188L0.869226 8.27459C-0.254548 7.8908 -0.288563 6.33896 0.766539 5.88457L0.869226 5.84478L2.38385 5.3275C2.73121 5.2088 3.04907 5.01699 3.316 4.76501C3.58293 4.51303 3.79271 4.20673 3.9312 3.86678L3.98319 3.72816L4.50047 2.21289ZM6.2333 4.14211C6.06458 3.6487 5.36663 3.64863 5.1981 4.14211C5.01736 4.67178 4.72334 5.15569 4.33652 5.56014C3.94969 5.96459 3.47935 6.27986 2.95825 6.484L2.7978 6.5424C2.30453 6.71087 2.30453 7.4085 2.7978 7.57697C3.32747 7.7577 3.81138 8.05172 4.21584 8.43855C4.62029 8.82538 4.93556 9.29571 5.13969 9.81681L5.1981 9.97726C5.36656 10.4705 6.0642 10.4705 6.23266 9.97726C6.4134 9.44759 6.70741 8.96368 7.09424 8.55923C7.48107 8.15478 7.95141 7.83951 8.47251 7.63537L8.63295 7.57761C9.12637 7.40889 9.12643 6.71094 8.63295 6.5424C8.10328 6.36167 7.61937 6.06765 7.21492 5.68082C6.81047 5.294 6.4952 4.82366 6.29106 4.30256L6.2333 4.14211ZM10.8497 1.15963e-07C10.9698 -1.51444e-07 11.0874 0.03368 11.1893 0.0972129C11.2912 0.160746 11.3732 0.251583 11.426 0.359402L11.4568 0.434492C11.5985 0.849756 11.9253 1.17606 12.3406 1.31759C12.4609 1.35847 12.5664 1.43415 12.6436 1.53504C12.7209 1.63593 12.7665 1.75749 12.7746 1.88431C12.7827 2.01113 12.753 2.1375 12.6892 2.24741C12.6254 2.35732 12.5304 2.44582 12.4163 2.5017L12.3406 2.5325C11.9253 2.67416 11.599 3.00094 11.4575 3.41625C11.4165 3.53654 11.3408 3.64196 11.2399 3.71917C11.1389 3.79637 11.0174 3.84188 10.8905 3.84992C10.7637 3.85796 10.6374 3.82818 10.5275 3.76434C10.4176 3.7005 10.3292 3.60549 10.2734 3.49134L10.2426 3.41625C10.1009 3.00098 9.77413 2.67468 9.35882 2.53314C9.23849 2.49226 9.13302 2.41658 9.05575 2.3157C8.97848 2.21481 8.9329 2.09325 8.92479 1.96643C8.91668 1.83961 8.9464 1.71324 9.01019 1.60333C9.07397 1.49342 9.16895 1.40492 9.28309 1.34904L9.35882 1.31824C9.77408 1.17658 10.1004 0.849797 10.2419 0.434492C10.2852 0.30769 10.3671 0.197613 10.4761 0.119693C10.5851 0.0417734 10.7157 -8.04043e-05 10.8497 1.15963e-07Z" fill="#4F555E"/>
</svg>
