<svg width="268" height="238" viewBox="0 0 268 238" fill="none" xmlns="http://www.w3.org/2000/svg">
<g clip-path="url(#clip0_2339_44262)">
<path opacity="0.7" d="M222.08 29.2494C222.08 29.2494 197.514 2.67936 162.002 8.47443C126.491 14.2695 109.218 44.1562 87.445 63.4294C76.0419 73.5228 60.3348 75.7523 47.205 82.9712C5.25784 106.001 5.51561 170.009 33.8603 197.8C58.394 221.86 91.1141 228.272 135.329 218.549C179.544 208.827 211.001 203.642 241.427 163.429C271.853 123.217 252.087 64.8895 222.08 29.2494Z" fill="#ABC8AE" fill-opacity="0.23"/>
<path d="M209.724 47.0805L209.728 212.277C209.728 214.05 209.402 215.806 208.769 217.444C208.135 219.081 207.207 220.57 206.036 221.824C204.866 223.077 203.476 224.072 201.946 224.75C200.417 225.429 198.777 225.778 197.121 225.779L81.7837 225.781C81.7075 225.781 81.6312 225.781 81.5557 225.779C78.2514 225.717 75.102 224.268 72.7865 221.743C70.4711 219.218 69.1749 215.819 69.1775 212.281L69.1738 47.084C69.1733 43.5036 70.5011 40.0697 72.8651 37.5375C75.2291 35.0054 78.4357 33.5825 81.7795 33.5818L197.117 33.5789C200.461 33.5792 203.668 35.0019 206.032 37.534C208.396 40.066 209.725 43.5 209.724 47.0805Z" fill="#CBDB9F"/>
<path d="M80.7918 38.0289C76.8445 38.029 73.6446 41.229 73.6447 45.1763L73.6485 209.205C73.6486 211.098 74.4002 212.915 75.7383 214.255L81.5741 220.099C82.9148 221.442 84.7344 222.196 86.6318 222.196L198.108 222.193C202.055 222.193 205.255 218.993 205.255 215.046L205.251 45.1733C205.251 41.2259 202.051 38.0261 198.104 38.0262L80.7918 38.0289Z" fill="white"/>
<path d="M83.668 222.195L73.6484 212.161L83.6678 212.161L83.668 222.195Z" fill="#97B73E"/>
<path d="M116.237 196.549C120.803 191.976 120.803 184.563 116.237 179.99C111.671 175.417 104.269 175.417 99.7027 179.99C95.1369 184.563 95.1369 191.976 99.7027 196.549C104.269 201.122 111.671 201.122 116.237 196.549Z" fill="#CBDB9F"/>
<path d="M106.233 194.407L101.366 189.127L103.615 187.048L106.077 189.719L112.191 182.13L114.573 184.055L106.233 194.407Z" fill="white"/>
<path d="M168.857 185.183L128.785 185.184C128.538 185.184 128.295 185.136 128.067 185.041C127.839 184.947 127.633 184.808 127.459 184.634C127.284 184.46 127.146 184.253 127.052 184.025C126.958 183.797 126.909 183.553 126.909 183.306V182.99C126.909 182.492 127.107 182.014 127.458 181.662C127.81 181.31 128.287 181.112 128.785 181.112L168.857 181.111C169.104 181.111 169.347 181.16 169.575 181.254C169.803 181.348 170.009 181.487 170.183 181.661C170.358 181.836 170.496 182.043 170.59 182.27C170.684 182.498 170.733 182.743 170.733 182.989V183.305C170.733 183.552 170.684 183.796 170.59 184.024C170.496 184.252 170.358 184.459 170.183 184.633C170.009 184.807 169.803 184.946 169.575 185.04C169.348 185.135 169.104 185.183 168.857 185.183Z" fill="#9AA0AA"/>
<path d="M176.187 195.424L128.786 195.425C128.539 195.425 128.295 195.377 128.068 195.282C127.84 195.188 127.634 195.05 127.459 194.875C127.285 194.701 127.147 194.494 127.053 194.266C126.959 194.038 126.91 193.794 126.91 193.547V193.231C126.91 192.985 126.959 192.74 127.053 192.513C127.147 192.285 127.285 192.078 127.459 191.903C127.634 191.729 127.84 191.59 128.068 191.496C128.295 191.402 128.539 191.353 128.786 191.353L176.187 191.352C176.433 191.352 176.677 191.4 176.904 191.495C177.132 191.589 177.339 191.728 177.513 191.902C177.687 192.076 177.825 192.283 177.92 192.511C178.014 192.739 178.062 192.983 178.062 193.23V193.546C178.062 193.792 178.014 194.037 177.92 194.265C177.825 194.492 177.687 194.7 177.513 194.874C177.339 195.048 177.132 195.187 176.905 195.281C176.677 195.375 176.433 195.424 176.187 195.424Z" fill="#DFE3EA"/>
<path d="M116.236 157.999C120.802 153.426 120.802 146.013 116.236 141.44C111.67 136.868 104.267 136.868 99.7017 141.44C95.1359 146.013 95.1359 153.426 99.7017 157.999C104.267 162.572 111.67 162.572 116.236 157.999Z" fill="#CBDB9F"/>
<path d="M106.232 155.859L101.365 150.579L103.614 148.5L106.076 151.171L112.19 143.582L114.572 145.506L106.232 155.859Z" fill="white"/>
<path d="M128.785 152.804L168.857 152.803C169.104 152.803 169.347 152.852 169.575 152.946C169.802 153.041 170.009 153.179 170.183 153.353C170.358 153.528 170.496 153.735 170.59 153.963C170.684 154.191 170.733 154.435 170.733 154.682V154.997C170.733 155.244 170.684 155.488 170.59 155.716C170.496 155.944 170.358 156.151 170.183 156.325C170.009 156.5 169.803 156.638 169.575 156.733C169.348 156.827 169.104 156.876 168.857 156.876L128.785 156.876C128.538 156.876 128.295 156.828 128.067 156.733C127.839 156.639 127.633 156.501 127.459 156.326C127.284 156.152 127.146 155.945 127.052 155.717C126.958 155.489 126.909 155.245 126.909 154.998V154.683C126.909 154.436 126.958 154.192 127.052 153.964C127.146 153.736 127.284 153.529 127.458 153.354C127.633 153.18 127.839 153.042 128.067 152.947C128.294 152.853 128.538 152.804 128.785 152.804Z" fill="#DFE3EA"/>
<path d="M128.941 142.564L176.027 142.563C176.294 142.563 176.559 142.615 176.805 142.718C177.052 142.82 177.276 142.97 177.465 143.159C177.654 143.348 177.803 143.572 177.906 143.82C178.008 144.067 178.06 144.331 178.06 144.599C178.06 144.866 178.008 145.131 177.906 145.378C177.803 145.625 177.654 145.849 177.465 146.038C177.276 146.228 177.052 146.378 176.805 146.48C176.559 146.582 176.294 146.635 176.027 146.635L128.941 146.636C128.674 146.636 128.41 146.583 128.163 146.481C127.917 146.379 127.692 146.229 127.504 146.04C127.315 145.851 127.165 145.626 127.063 145.379C126.961 145.132 126.908 144.867 126.908 144.6C126.908 144.332 126.961 144.068 127.063 143.821C127.165 143.574 127.315 143.349 127.504 143.16C127.692 142.971 127.917 142.821 128.163 142.719C128.41 142.616 128.674 142.564 128.941 142.564Z" fill="#9AA0AA"/>
<path d="M116.235 119.451C120.801 114.878 120.801 107.464 116.235 102.892C111.669 98.319 104.267 98.319 99.7008 102.892C95.1349 107.464 95.1349 114.878 99.7008 119.451C104.267 124.023 111.669 124.023 116.235 119.451Z" fill="#CBDB9F"/>
<path d="M106.232 117.309L101.365 112.029L103.614 109.95L106.076 112.621L112.19 105.032L114.572 106.957L106.232 117.309Z" fill="white"/>
<path d="M156.47 108.085L128.784 108.085C128.286 108.085 127.809 107.888 127.458 107.535C127.106 107.183 126.908 106.705 126.908 106.207V105.892C126.908 105.393 127.106 104.916 127.457 104.563C127.809 104.211 128.286 104.013 128.784 104.013L156.47 104.013C156.968 104.013 157.445 104.211 157.796 104.563C158.148 104.915 158.346 105.393 158.346 105.891V106.207C158.346 106.705 158.148 107.182 157.796 107.535C157.445 107.887 156.968 108.085 156.47 108.085Z" fill="#9AA0AA"/>
<path d="M168.856 118.326L128.784 118.327C128.537 118.327 128.293 118.278 128.066 118.184C127.838 118.089 127.632 117.951 127.457 117.777C127.283 117.602 127.145 117.395 127.051 117.167C126.957 116.939 126.908 116.695 126.908 116.448V116.133C126.908 115.886 126.957 115.642 127.051 115.414C127.145 115.186 127.283 114.979 127.457 114.805C127.632 114.63 127.838 114.492 128.066 114.397C128.293 114.303 128.537 114.254 128.784 114.254L168.856 114.254C169.102 114.254 169.346 114.302 169.574 114.396C169.801 114.491 170.008 114.629 170.182 114.804C170.356 114.978 170.495 115.185 170.589 115.413C170.683 115.641 170.732 115.885 170.732 116.132V116.447C170.732 116.694 170.683 116.938 170.589 117.166C170.495 117.394 170.357 117.601 170.182 117.776C170.008 117.95 169.802 118.088 169.574 118.183C169.346 118.277 169.103 118.326 168.856 118.326Z" fill="#DFE3EA"/>
<path d="M116.235 83.3931C120.801 78.8205 120.801 71.4069 116.235 66.8343C111.669 62.2617 104.266 62.2617 99.7007 66.8343C95.1349 71.4069 95.1349 78.8205 99.7007 83.3931C104.266 87.9658 111.669 87.9658 116.235 83.3931Z" fill="#CBDB9F"/>
<path d="M106.231 81.2517L101.364 75.9716L103.613 73.8923L106.075 76.5633L112.189 68.9743L114.571 70.8991L106.231 81.2517Z" fill="white"/>
<path d="M168.855 72.0275L128.783 72.0284C128.536 72.0284 128.293 71.9799 128.065 71.8855C127.837 71.7911 127.631 71.6528 127.457 71.4784C127.282 71.304 127.144 71.0969 127.05 70.8691C126.956 70.6412 126.907 70.397 126.907 70.1503V69.8345C126.907 69.3364 127.105 68.8586 127.457 68.5064C127.808 68.1542 128.285 67.9563 128.783 67.9563L168.855 67.9553C169.102 67.9553 169.345 68.0039 169.573 68.0983C169.801 68.1926 170.007 68.331 170.181 68.5054C170.356 68.6798 170.494 68.8869 170.588 69.1147C170.682 69.3426 170.731 69.5869 170.731 69.8335V70.1492C170.731 70.3959 170.682 70.6401 170.588 70.868C170.494 71.0959 170.356 71.303 170.182 71.4774C170.007 71.6518 169.801 71.7902 169.573 71.8846C169.346 71.9789 169.102 72.0275 168.855 72.0275Z" fill="#9AA0AA"/>
<path d="M176.184 82.2683L128.783 82.2694C128.536 82.2695 128.293 82.2209 128.065 82.1265C127.837 82.0321 127.631 81.8938 127.457 81.7194C127.282 81.545 127.144 81.3379 127.05 81.11C126.956 80.8821 126.907 80.6379 126.907 80.3912V80.0755C126.907 79.8289 126.956 79.5846 127.05 79.3567C127.144 79.1289 127.282 78.9218 127.456 78.7474C127.631 78.573 127.837 78.4346 128.065 78.3402C128.292 78.2458 128.536 78.1972 128.783 78.1972L176.184 78.1961C176.43 78.1961 176.674 78.2447 176.902 78.339C177.129 78.4334 177.336 78.5718 177.51 78.7462C177.684 78.9206 177.822 79.1277 177.917 79.3555C178.011 79.5834 178.059 79.8277 178.059 80.0743V80.39C178.059 80.6367 178.011 80.8809 177.917 81.1088C177.822 81.3367 177.684 81.5437 177.51 81.7182C177.336 81.8926 177.129 82.0309 176.902 82.1253C176.674 82.2197 176.43 82.2683 176.184 82.2683Z" fill="#DFE3EA"/>
<path d="M161.967 26.3937L150.228 26.3939C149.902 26.3939 149.578 26.346 149.276 26.2528C148.974 26.1597 148.7 26.0232 148.469 25.8511C148.238 25.6789 148.054 25.4746 147.929 25.2497C147.804 25.0248 147.74 24.7838 147.74 24.5404C147.737 23.8639 147.375 23.2156 146.733 22.7372C146.091 22.2589 145.221 21.9893 144.312 21.9873L134.583 21.9874C133.674 21.9894 132.804 22.2591 132.162 22.7375C131.52 23.2158 131.158 23.8641 131.155 24.5406C131.155 24.7841 131.091 25.0251 130.966 25.25C130.841 25.4749 130.657 25.6792 130.426 25.8514C130.195 26.0235 129.921 26.16 129.619 26.2532C129.317 26.3463 128.994 26.3943 128.667 26.3943L116.929 26.3945C116.599 26.3943 116.273 26.4425 115.969 26.5363C115.664 26.6301 115.388 26.7677 115.155 26.9412C114.922 27.1147 114.737 27.3207 114.611 27.5474C114.485 27.7741 114.421 28.0171 114.421 28.2625L114.421 39.4926C114.421 39.8287 114.542 40.1585 114.773 40.4473C115.003 40.7362 115.335 40.9732 115.731 41.1333C116.098 41.2847 116.51 41.3635 116.929 41.3619L161.968 41.3612C162.633 41.3608 163.271 41.1636 163.741 40.8131C164.211 40.4625 164.475 39.9872 164.475 39.4918L164.474 28.2616C164.474 28.0164 164.41 27.7735 164.284 27.5469C164.158 27.3203 163.973 27.1144 163.74 26.9409C163.507 26.7675 163.231 26.6299 162.927 26.536C162.623 26.4421 162.297 26.3938 161.967 26.3937Z" fill="#97B73E"/>
<path d="M58.1797 143.719L93.809 204.775L88.5709 207.84L52.9416 146.784L58.1797 143.719Z" fill="#51575F"/>
<path d="M93.8096 204.774L95.8135 208.208C95.9508 208.443 95.9892 208.724 95.9201 208.987C95.8511 209.251 95.6804 209.476 95.4455 209.614L91.979 211.643C91.7441 211.78 91.4642 211.818 91.201 211.749C90.9378 211.68 90.7129 211.509 90.5756 211.274L88.5716 207.84L93.8096 204.774Z" fill="#90959F"/>
<path d="M58.1809 143.718L52.9397 146.785L51.7845 141.279L50.9668 137.38L53.9576 140.007L58.1809 143.718Z" fill="#90959F"/>
<path d="M53.9576 140.007L51.7845 141.279L50.9668 137.38L53.9576 140.007Z" fill="#51575F"/>
<path d="M218.771 13.8457C227.479 13.8457 234.538 20.9049 234.538 29.6123C234.538 38.3197 227.479 45.3789 218.771 45.3789H203.541L196.583 53.2852C196.53 53.3458 196.43 53.3084 196.43 53.2275V44.7969C189.789 42.9402 184.918 36.8455 184.918 29.6123C184.918 20.9051 191.976 13.846 200.684 13.8457H218.771Z" fill="#F0AF30"/>
<rect x="207.677" y="19.9047" width="4.07161" height="13.7774" rx="2.03581" fill="white"/>
<circle cx="209.726" cy="37.5288" r="2.00807" transform="rotate(103.735 209.726 37.5288)" fill="white"/>
</g>
<defs>
<clipPath id="clip0_2339_44262">
<rect width="267.368" height="237.018" fill="white" transform="translate(0.420898)"/>
</clipPath>
</defs>
</svg>
