<svg width="62" height="63" viewBox="0 0 62 63" fill="none" xmlns="http://www.w3.org/2000/svg">
<g id="Frame 1000003689">
<rect y="0.452637" width="62" height="62" rx="10.4242" fill="#F7F8FA"/>
<g id="&#240;&#159;&#166;&#134; icon &#34;file&#34;">
<path id="Vector" d="M34.332 16.9053V23.5719C34.332 24.014 34.5076 24.4379 34.8202 24.7504C35.1327 25.063 35.5567 25.2386 35.9987 25.2386H42.6654" stroke="#9AA0AA" stroke-width="2.41599" stroke-linecap="round" stroke-linejoin="round"/>
<path id="Vector_2" d="M39.332 46.9053H22.6654C21.7813 46.9053 20.9335 46.5541 20.3083 45.929C19.6832 45.3038 19.332 44.456 19.332 43.5719V20.2386C19.332 19.3546 19.6832 18.5067 20.3083 17.8816C20.9335 17.2565 21.7813 16.9053 22.6654 16.9053H34.332L42.6654 25.2386V43.5719C42.6654 44.456 42.3142 45.3038 41.6891 45.929C41.0639 46.5541 40.2161 46.9053 39.332 46.9053Z" stroke="#9AA0AA" stroke-width="2.41599" stroke-linecap="round" stroke-linejoin="round"/>
<line id="Line 12" x1="24.6602" y1="32.4512" x2="38.9601" y2="32.4512" stroke="#9AA0AA" stroke-width="2.41599"/>
<line id="Line 13" x1="24.6621" y1="37.2832" x2="38.9621" y2="37.2832" stroke="#9AA0AA" stroke-width="2.41599"/>
<line id="Line 14" x1="24.6621" y1="42.1152" x2="38.9621" y2="42.1152" stroke="#9AA0AA" stroke-width="2.41599"/>
</g>
</g>
</svg>
