<svg width="25" height="25" viewBox="0 0 25 25" fill="none" xmlns="http://www.w3.org/2000/svg">
<g clip-path="url(#clip0_918_2841)">
<path d="M12.1875 17.0723C14.2068 17.0723 15.8438 15.4353 15.8438 13.416C15.8438 11.3967 14.2068 9.75977 12.1875 9.75977C10.1682 9.75977 8.53125 11.3967 8.53125 13.416C8.53125 15.4353 10.1682 17.0723 12.1875 17.0723Z" stroke="#676d77" stroke-width="2" stroke-linecap="round"/>
<path d="M17.9684 5.98877H16.8823C16.462 5.98877 16.0889 5.70041 15.9567 5.27319L15.9464 5.24025C15.6817 4.38581 14.9357 3.80908 14.0952 3.80908H8.80902C7.96844 3.80908 7.2224 4.38581 6.95772 5.24025L6.94753 5.27319C6.8152 5.7004 6.44218 5.98877 6.02188 5.98877H4.93585C3.13645 5.98877 1.67773 7.45259 1.67773 9.2583V15.9887C1.67773 17.8291 1.67773 18.7493 2.03285 19.4522C2.34522 20.0707 2.84364 20.5733 3.4567 20.8884C4.15365 21.2466 5.06601 21.2466 6.89073 21.2466H17.9684C18.9784 21.2466 19.4833 21.2466 19.8977 21.1346C21.022 20.8307 21.9003 19.945 22.2015 18.8109C22.3125 18.3931 22.3125 17.8837 22.3125 16.865V15.7973" stroke="#676d77" stroke-width="2" stroke-linecap="round" stroke-linejoin="round"/>
<path d="M22.323 11.3663L21.8325 12.8611C21.7338 13.1618 21.3083 13.1618 21.2097 12.8611L20.7192 11.3663C20.6217 11.0691 20.3886 10.836 20.0915 10.7385L18.5966 10.2481C18.2959 10.1494 18.2959 9.72389 18.5966 9.62521L20.0915 9.13473C20.3886 9.03722 20.6217 8.80416 20.7192 8.50701L21.2097 7.0122C21.3083 6.71143 21.7338 6.71143 21.8325 7.0122L22.323 8.50701C22.4205 8.80416 22.6536 9.03722 22.9507 9.13473L24.4455 9.62521C24.7462 9.72389 24.7462 10.1494 24.4455 10.2481L22.9507 10.7385C22.6536 10.836 22.4205 11.0691 22.323 11.3663Z" fill="#676d77"/>
</g>
<defs>
<clipPath id="clip0_918_2841">
<rect width="24" height="24" fill="white" transform="translate(0.671875 0.786133)"/>
</clipPath>
</defs>
</svg>
