<svg xmlns="http://www.w3.org/2000/svg" viewBox="0 0 64 64" id="zip">
  <path fill="#eee" d="M55,18H42V5a1,1,0,0,0-1-1H13a1,1,0,0,0-1,1V33a1,1,0,0,0,1,1H40V50H13a1,1,0,0,0-1,1v8a1,1,0,0,0,1,1H55a1,1,0,0,0,1-1V19A1,1,0,0,0,55,18Z"></path>
  <rect width="34" height="20" x="8" y="32" fill="#ffa726" rx="1" ry="1"></rect>
  <path fill="#e0e0e0" d="M55.71,18.29l-14-14A1,1,0,0,0,40,5V19a1,1,0,0,0,1,1H55a1,1,0,0,0,.71-1.71Z"></path>
  <path fill="#fff" d="M17.5 46V44.78l3.82-5.26H17.79V38h5.84v1.24l-3.76 5.24h3.76V46zM25.47 46V38h1.69v8zM29.35 46V38H32a2.8 2.8 0 0 1 1.9.58 2.42 2.42 0 0 1 .83 1.92 2.54 2.54 0 0 1-.35 1.33 2.19 2.19 0 0 1-1 .88 2.66 2.66 0 0 1-1.15.23H31V46zM31 41.48H32a1.14 1.14 0 0 0 .81-.28 1 1 0 0 0 .29-.76q0-.92-1.1-.92H31z"></path>
</svg>
